<?xml version="1.0" encoding="UTF-8"?>
<svg width="42px" height="42px" viewBox="0 0 42 42" version="1.1" xmlns="http://www.w3.org/2000/svg" xmlns:xlink="http://www.w3.org/1999/xlink">
    <title>ACA</title>
    <g id="Page-1" stroke="none" stroke-width="1" fill="none" fill-rule="evenodd">
        <g id="Group-2">
            <circle id="Oval-Copy-36" fill="#000000" cx="21" cy="21" r="21"></circle>
            <g id="Acala-Logo-White" transform="translate(7.140000, 7.980000)" fill="#FFFFFF" fill-rule="nonzero">
                <path d="M5.24628078,23.0809753 C7.56731127,21.0496205 10.5396976,19.9177002 13.6239889,19.8906437 L13.680993,19.8906437 C16.3539831,19.8678906 18.968498,20.6730205 21.1656362,22.195511 L18.3591325,17.511671 C17.1416136,17.1653164 15.8816843,16.9907171 14.6158608,16.9929334 L14.5645571,16.9929334 C12.4026327,16.9899463 10.2727802,17.5157231 8.36060683,18.5244445 C8.25435687,18.5823766 8.12239443,18.5612939 8.03948352,18.4731408 C7.95604899,18.3860594 7.94053433,18.2541848 8.00148076,18.1501174 L13.3218669,9.08645951 L11.8017566,6.53077401 L6.97730642,14.7488705 L2.16045681,23.0809753 L5.24628078,23.0809753 Z" id="Path"></path>
                <path d="M0.904465648,21.6729731 L1.67782178,22.8396577 L6.51177264,14.4790509 L11.5661395,5.86572574 C11.6135765,5.7835621 11.701182,5.73288122 11.7960562,5.73271609 L11.7960562,5.73271609 C11.891016,5.73258174 11.9790557,5.78237466 12.027873,5.86382561 L13.8710068,8.94394917 L13.8710068,8.94394917 L16.7212137,13.694294 C16.7331201,13.7137716 16.7420841,13.7349012 16.7478156,13.7569985 C16.7487055,13.7626642 16.7487055,13.7684341 16.7478156,13.7740997 C16.7487358,13.7918224 16.7487358,13.8095809 16.7478156,13.8273036 L16.7478156,13.8406046 C16.7460265,13.8624464 16.7422098,13.8840744 16.7364148,13.9052093 C16.7372652,13.9102406 16.7372652,13.915379 16.7364148,13.9204104 C16.7364148,13.9375116 16.7212137,13.9546128 16.711713,13.9717141 C16.7022123,13.9888153 16.711713,13.9717141 16.711713,13.9717141 L16.711713,13.9717141 C16.6985635,13.9905343 16.6832584,14.0077525 16.6661097,14.0230178 L16.6661097,14.0230178 L16.6357074,14.0458195 L16.6148059,14.0458195 L16.6034051,14.0458195 C16.5615242,14.063835 16.5157834,14.0710229 16.4703954,14.066721 L16.4703954,14.066721 C15.8138798,13.9813267 15.1524975,13.9388002 14.4904517,13.9394117 C13.2493092,13.9411272 12.0137745,14.1059504 10.815585,14.4296473 L8.9306482,17.6503811 C10.7042365,16.8640275 12.6225631,16.4569333 14.562657,16.4551943 L14.6158608,16.4551943 C15.9663206,16.4541598 17.3099988,16.6461139 18.6061505,17.0252357 C18.6715995,17.0446054 18.7272756,17.0880599 18.7619618,17.1468445 L22.3152197,23.0828754 L25.5454541,23.0828754 L16.3886895,7.79056545 L11.8872628,0.269819584 L0,20.4207822 L0.904465648,21.6729731 Z" id="Path"></path>
                <polygon id="Path" points="12.3603971 0.0114008275 26.0299893 22.8244566 27.5101967 20.3295756 15.2847094 0"></polygon>
            </g>
        </g>
    </g>
</svg>