<svg width="32" height="32" viewBox="0 0 32 32" fill="none" xmlns="http://www.w3.org/2000/svg">
<rect x="0.5" y="0.5" width="31" height="31" rx="15.5" stroke="#596381"/>
<path d="M27.9719 15.1857C27.5221 8.57385 21.7976 3.57839 15.1857 4.02814C11.8919 4.25217 8.99986 5.78575 6.98171 8.0854L6.97609 8.08132C6.96249 8.10014 6.94979 8.1187 6.93628 8.1375C4.9316 10.4484 3.80412 13.521 4.02812 16.8143C4.04947 17.1281 4.08641 17.437 4.13104 17.7431C4.13305 17.7569 4.13513 17.7709 4.13708 17.7847C4.16725 17.9867 4.20229 18.1869 4.24226 18.3852C4.24299 18.3888 4.24375 18.3927 4.24446 18.3963C4.28085 18.576 4.32128 18.7539 4.36552 18.9303L4.3657 18.9311C5.75156 24.4578 10.9298 28.3721 16.8143 27.9719C23.4262 27.5221 28.4216 21.7975 27.9719 15.1857ZM25.3598 15.3634C25.4152 16.1774 25.364 16.9744 25.219 17.7412C25.2172 17.7368 25.2158 17.7322 25.214 17.7278C24.3441 15.6013 22.6232 14.0661 21.1099 13.218C21.4161 9.61479 20.1938 8.09679 18.8103 7.8498C18.7727 7.84256 18.7348 7.83638 18.6964 7.83161C17.5983 7.69078 16.5942 8.46692 16.4535 9.5649C16.3127 10.6629 17.0888 11.6671 18.1868 11.808C18.2826 11.8201 18.3773 11.8235 18.4711 11.822C18.4772 11.9436 18.481 12.0728 18.4821 12.2079C17.2028 11.8909 16.0071 11.8289 14.9168 11.9269C14.5091 11.9541 14.1011 12.0055 13.6953 12.0813C13.8314 10.8646 14.2879 9.4986 15.1737 8.49895C16.0299 7.53261 17.303 6.97874 18.6917 7.12087C18.9549 7.14781 19.2358 7.21245 19.4887 7.29738C19.5004 7.30128 19.5127 7.30458 19.5242 7.30858L19.5248 7.30782C22.7414 8.61819 25.1087 11.6709 25.3598 15.3634ZM16.996 17.1962C16.9951 17.1975 16.9942 17.1988 16.9933 17.2001C16.707 17.6131 16.3664 18.0203 15.9667 18.4141C15.3674 17.7765 14.886 17.0899 14.5208 16.3796C14.5021 16.3416 14.4821 16.3053 14.4638 16.2667C14.4631 16.2652 14.4625 16.2638 14.4618 16.2624C14.2472 15.8078 14.0648 15.3091 13.9236 14.7657C14.7763 14.5651 15.6125 14.4913 16.4111 14.5302C16.4534 14.533 16.4948 14.5339 16.5374 14.5374C16.539 14.5375 16.5406 14.5376 16.5421 14.5377C17.0423 14.5792 17.5646 14.6703 18.1048 14.8193C17.8523 15.6577 17.4981 16.4185 17.0653 17.0904C17.0417 17.1256 17.0203 17.1611 16.996 17.1962ZM12.8956 7.14874C12.8933 7.15163 12.8908 7.15436 12.8885 7.15725C11.4827 8.97298 11.0133 11.2295 11.035 12.9638C7.76157 14.5002 7.05818 16.3177 7.53603 17.6393C7.54855 17.6755 7.56215 17.7114 7.57724 17.7471C8.0043 18.7684 9.17853 19.25 10.1997 18.8228C11.2211 18.3958 11.7026 17.2215 11.2757 16.2002C11.2383 16.1112 11.1938 16.0275 11.1456 15.9469C11.2491 15.8801 11.3602 15.8114 11.4781 15.7421C11.8432 17.0088 12.3833 18.0801 13.0134 18.9754C13.2404 19.3142 13.4883 19.6412 13.7563 19.9541C12.6344 20.4448 11.2229 20.7327 9.91401 20.4653C8.64899 20.2069 7.53283 19.3814 6.96156 18.1077C6.85327 17.8663 6.76883 17.5907 6.71591 17.3293C6.68336 17.1008 6.65607 16.8705 6.64017 16.6367C6.34777 12.3381 9.01462 8.51138 12.8956 7.14874ZM16.6367 25.3598C14.0841 25.5335 11.698 24.6628 9.89466 23.1152C12.1701 23.4249 14.359 22.703 15.8501 21.8171C18.8186 23.8854 20.7451 23.586 21.6509 22.5111C21.676 22.4822 21.7003 22.4525 21.7236 22.4215C22.3946 21.541 22.2245 20.2833 21.344 19.6125C20.4635 18.9416 19.2058 19.1116 18.5348 19.992C18.4764 20.0689 18.4261 20.1493 18.3805 20.2313C18.2716 20.1755 18.1573 20.114 18.0392 20.047C18.9543 19.0971 19.6064 18.0918 20.067 17.0979C20.2473 16.7312 20.4068 16.3522 20.544 15.9629C21.5305 16.6891 22.4864 17.7681 22.9095 19.0359C23.3183 20.2607 23.1614 21.6401 22.344 22.7717C22.189 22.9862 21.9926 23.1972 21.7926 23.3737C21.7897 23.3763 21.7868 23.3789 21.784 23.3816C20.3538 24.5056 18.5843 25.2273 16.6367 25.3598Z" fill="#596381"/>
</svg>
