<svg width="1296" height="410" viewBox="0 0 1296 410" fill="none" xmlns="http://www.w3.org/2000/svg">
<mask id="mask0_4867_74779" style="mask-type:alpha" maskUnits="userSpaceOnUse" x="0" y="0" width="1296" height="410">
<path d="M0 0H1296V410H0V0Z" fill="#D9D9D9"/>
</mask>
<g mask="url(#mask0_4867_74779)">
<path d="M1294.98 -57.625H-189V967.425H1294.98V-57.625Z" fill="url(#paint0_linear_4867_74779)"/>
<path style="mix-blend-mode:multiply" d="M1303 172H-189V748H1303V172Z" fill="url(#paint1_linear_4867_74779)"/>
<g style="mix-blend-mode:screen">
<path d="M776 152.152C776 162.724 784.248 171.305 794.38 171.305C804.53 171.305 812.759 162.717 812.759 152.152C812.759 141.588 804.53 133 794.38 133C784.248 133 776 141.588 776 152.152Z" fill="url(#paint2_radial_4867_74779)"/>
<path d="M1307.47 213.498C1311.38 238.502 1295.09 262.082 1271.1 266.156C1247.12 270.23 1224.49 253.268 1220.58 228.263C1216.67 203.259 1232.95 179.68 1256.93 175.606C1280.93 171.525 1303.56 188.494 1307.47 213.498H1307.47Z" fill="url(#paint3_radial_4867_74779)"/>
<path d="M746.467 142.498C750.38 167.502 734.095 191.082 710.097 195.156C686.119 199.23 663.488 182.268 659.581 157.263C655.667 132.259 671.953 108.68 695.931 104.606C719.929 100.525 742.56 117.494 746.473 142.498H746.467Z" fill="url(#paint4_radial_4867_74779)"/>
<path d="M475.764 67.0031C475.764 76.4163 483.093 84.0453 492.113 84.0453C501.153 84.0453 508.482 76.4163 508.482 67.0031C508.482 57.59 501.153 49.9609 492.113 49.9609C483.093 49.9609 475.764 57.59 475.764 67.0031Z" fill="url(#paint5_radial_4867_74779)"/>
<path d="M388.514 249.167C388.514 258.58 395.843 266.209 404.863 266.209C413.903 266.209 421.213 258.58 421.213 249.167C421.213 239.754 413.903 232.125 404.863 232.125C395.843 232.125 388.514 239.754 388.514 249.167Z" fill="url(#paint6_radial_4867_74779)"/>
<path d="M481 156.042C481 165.455 488.329 173.084 497.369 173.084C506.389 173.084 513.718 165.455 513.718 156.042C513.718 146.629 506.389 139 497.369 139C488.329 139 481 146.629 481 156.042Z" fill="url(#paint7_radial_4867_74779)"/>
<path d="M1144 115.042C1144 124.455 1151.31 132.084 1160.35 132.084C1169.39 132.084 1176.7 124.455 1176.7 115.042C1176.7 105.629 1169.39 98 1160.35 98C1151.31 98 1144 105.629 1144 115.042Z" fill="url(#paint8_radial_4867_74779)"/>
<path d="M1208.95 297.991C1208.95 307.405 1216.26 315.034 1225.3 315.034C1234.32 315.034 1241.65 307.405 1241.65 297.991C1241.65 288.578 1234.32 280.949 1225.3 280.949C1216.26 280.949 1208.95 288.578 1208.95 297.991Z" fill="url(#paint9_radial_4867_74779)"/>
<path d="M765 95.0422C765 104.455 772.31 112.084 781.349 112.084C790.389 112.084 797.699 104.455 797.699 95.0422C797.699 85.629 790.389 78 781.349 78C772.31 78 765 85.629 765 95.0422Z" fill="url(#paint10_radial_4867_74779)"/>
<path d="M810.742 59.0422C810.742 68.4553 818.052 76.0844 827.092 76.0844C836.112 76.0844 843.441 68.4553 843.441 59.0422C843.441 49.629 836.112 42 827.092 42C818.052 42 810.742 49.629 810.742 59.0422Z" fill="url(#paint11_radial_4867_74779)"/>
<path d="M746 286.042C746 295.455 753.31 303.084 762.35 303.084C771.389 303.084 778.699 295.455 778.699 286.042C778.699 276.629 771.389 269 762.35 269C753.31 269 746 276.629 746 286.042Z" fill="url(#paint12_radial_4867_74779)"/>
<path d="M1176.25 66.2063C1176.25 75.6194 1183.56 83.2484 1192.6 83.2484C1201.64 83.2484 1208.95 75.6194 1208.95 66.2063C1208.95 56.7931 1201.64 49.1641 1192.6 49.1641C1183.56 49.1641 1176.25 56.7931 1176.25 66.2063Z" fill="url(#paint13_radial_4867_74779)"/>
<path d="M424.977 59.0477C424.977 64.2003 428.973 68.361 433.908 68.361C438.868 68.361 442.839 64.2003 442.839 59.0477C442.839 53.8951 438.862 49.7344 433.908 49.7344C428.973 49.7344 424.977 53.8951 424.977 59.0477Z" fill="url(#paint14_radial_4867_74779)"/>
<path d="M534 230.5C534 235.739 538.245 240 543.494 240C548.758 240 553 235.758 553 230.5C553 225.242 548.755 221 543.494 221C538.242 221 534 225.242 534 230.5Z" fill="url(#paint15_radial_4867_74779)"/>
<path d="M649 244.588C649 257.07 658.704 267.175 670.667 267.175C682.656 267.175 692.36 257.07 692.36 244.588C692.36 232.105 682.656 222 670.667 222C658.697 222 649 232.105 649 244.588Z" fill="url(#paint16_radial_4867_74779)"/>
<path d="M1210 150.5C1210 158.513 1216.27 165 1223.99 165C1231.73 165 1238 158.513 1238 150.5C1238 142.487 1231.73 136 1223.99 136C1216.26 136 1210 142.487 1210 150.5Z" fill="url(#paint17_radial_4867_74779)"/>
<path d="M1271 388.042C1271 397.455 1278.33 405.084 1287.35 405.084C1296.39 405.084 1303.7 397.455 1303.7 388.042C1303.7 378.629 1296.39 371 1287.35 371C1278.33 371 1271 378.629 1271 388.042Z" fill="url(#paint18_radial_4867_74779)"/>
</g>
<g opacity="0.5">
<path d="M1138.76 397.563C1214.71 326 1214.71 209.971 1138.76 138.418C1062.81 66.8553 939.665 66.8553 863.726 138.418C787.776 209.982 787.776 326 863.726 397.563C939.677 469.127 1062.82 469.127 1138.76 397.563Z" fill="url(#paint19_radial_4867_74779)"/>
<g opacity="0.1">
<path d="M897.794 275.484C901.022 271.34 901.73 265.915 901.472 260.764C901.213 255.635 900.122 250.549 900.178 245.409C900.324 234.123 906.51 223.059 916.295 216.542C919.669 214.306 924.067 212.547 927.857 214.115C935.167 217.167 932.963 228.676 939.374 233.19C942.073 235.087 945.796 235.257 949.057 234.42C952.308 233.582 955.209 231.855 958.1 230.212C972.743 221.894 988.545 215.027 1005.38 212.25C1010.81 211.349 1016.5 210.904 1021.76 212.473C1027.01 214.03 1031.77 218.004 1032.67 223.133C1033.38 227.203 1031.65 231.293 1029.53 234.886C1026.4 240.195 1022.26 245.07 1016.97 248.535C1011.67 251.99 1005.15 253.961 998.724 253.325C992.448 252.7 986.768 249.701 980.751 247.973C975.161 246.363 968.987 245.875 963.543 247.878C958.1 249.881 953.623 254.777 953.556 260.277C953.5 264.993 956.536 269.348 956.773 274.074C956.986 278.313 954.658 282.637 950.812 284.841C946.965 287.045 941.69 286.918 938.058 284.396C934.717 282.075 933.042 278.123 932.49 274.255C931.928 270.365 932.311 266.434 932.221 262.523C932.119 257.808 930.522 252.17 925.709 250.866C921.142 249.637 916.666 253.251 914.327 257.14C911.695 261.453 910.357 266.476 910.514 271.468C910.671 276.141 912.1 280.698 912.37 285.36C912.64 290.034 911.448 295.174 907.522 298.035C903.102 301.246 896.512 300.44 891.844 297.569C887.165 294.697 883.983 290.161 880.923 285.784C880.08 284.566 878.427 281.704 880.597 280.751C881.711 280.263 884.624 281.461 886.007 281.387C890.573 281.132 895.061 278.96 897.794 275.484Z" fill="url(#paint20_linear_4867_74779)"/>
</g>
<g opacity="0.1">
<path d="M1045.27 226.386C1047.86 236.368 1046.32 247.485 1039.89 255.782C1033.47 264.08 1021.91 268.955 1011.28 266.697C1008.55 266.115 1005.9 265.097 1003.09 264.928C995.457 264.451 988.978 270.364 985.312 276.701C978.8 287.934 977.99 302.368 984.806 313.463C991.61 324.548 1006.46 331.203 1019.54 327.674C1030.64 324.686 1038.62 315.54 1044.37 306.098C1050.13 296.656 1054.49 286.324 1062.06 278.111C1066.63 273.141 1073.41 268.796 1080.18 270.406C1084.55 271.434 1087.85 274.72 1091.01 277.74C1096.71 283.208 1102.88 288.401 1110.12 291.876C1117.36 295.352 1125.88 296.984 1133.75 295.077C1141.79 293.116 1148.47 287.595 1152.99 281.046C1157.51 274.486 1160.07 266.909 1162.03 259.311C1166.25 243.013 1167.77 224.997 1159.46 210.151C1157.46 206.579 1154.23 202.913 1149.94 202.913C1147.46 202.913 1145.18 204.184 1143.17 205.573C1134.85 211.348 1128.93 219.646 1121.74 226.65C1118.94 229.385 1115.85 231.97 1112.11 233.39C1108.36 234.81 1103.87 234.874 1100.51 232.754C1096.24 230.052 1094.95 224.489 1095.9 219.72C1096.86 214.951 1099.63 210.712 1102.04 206.452C1110 192.4 1114.76 176.102 1111.45 160.481C1110.58 156.433 1109.08 152.321 1106 149.386C1102.91 146.451 1097.9 145.009 1093.99 146.874C1089.82 148.867 1088.23 153.657 1087.32 157.991C1084.79 170.029 1084.05 182.916 1077 193.216C1075.28 195.738 1072.87 198.218 1069.72 198.547C1066.36 198.907 1063.33 196.724 1060.67 194.763C1056.52 191.743 1052.06 188.903 1046.98 187.684C1038.71 185.703 1024.88 190.938 1029.3 200.772C1030.83 204.174 1034.91 206.982 1037.18 209.981C1040.92 214.919 1043.78 220.493 1045.31 226.375L1045.28 226.407L1045.27 226.386Z" fill="url(#paint21_linear_4867_74779)"/>
</g>
<g opacity="0.1">
<path d="M938.784 210.288C939.245 207.936 941.754 205.308 943.857 206.643C944.745 207.204 945.071 208.264 945.443 209.207C946.961 213.065 950.785 216.562 955.126 216.191C957.522 215.968 959.636 214.654 961.66 213.425C972.165 206.992 983.423 201.704 995.199 197.667C998.112 196.671 1002.03 196.035 1003.71 198.472C1004.96 200.263 1004.06 202.796 1002.36 204.205C1000.65 205.636 998.393 206.208 996.211 206.802C985.605 209.705 975.416 213.902 965.968 219.264C960.806 222.2 953.776 226.576 947.501 224.732C941.517 222.994 937.682 215.862 938.773 210.288H938.784Z" fill="url(#paint22_linear_4867_74779)"/>
</g>
<g opacity="0.1">
<path d="M1055.35 177.915C1058.11 179.431 1060.67 181.603 1063.86 181.9C1068.86 182.377 1073.01 177.883 1074.17 173.284C1075.32 168.664 1074.43 163.863 1074.54 159.137C1074.7 153.467 1076.34 147.861 1079.31 142.934C1082.08 138.335 1086.8 134.043 1092.39 134.392C1095.71 134.604 1099.26 136.385 1102.08 134.753C1104.28 133.492 1104.85 130.524 1103.81 128.31C1102.76 126.095 1100.5 124.579 1098.13 123.689C1093.83 122.068 1088.86 122.153 1084.63 123.922C1078.58 126.444 1074.52 132.04 1072.36 137.911C1070.19 143.803 1069.64 150.076 1068.67 156.233C1068.1 159.858 1067.13 163.842 1063.9 165.898C1059.54 168.685 1053.31 166.555 1048.57 168.738C1045.97 169.936 1040.9 176.22 1045.65 177.587C1046.81 177.915 1048.56 176.559 1049.81 176.495C1051.72 176.357 1053.75 177.036 1055.37 177.936L1055.35 177.915Z" fill="url(#paint23_linear_4867_74779)"/>
</g>
<g opacity="0.1">
<path d="M1114.89 204.047C1114.64 206.877 1116.47 210.13 1119.49 210.406C1121.77 210.607 1123.77 209.102 1125.52 207.693C1130.54 203.592 1135.56 199.49 1140.59 195.389C1143.63 192.899 1147.53 190.25 1151.34 191.49C1153.1 192.062 1154.47 193.408 1156.08 194.298C1157.7 195.188 1160.01 195.506 1161.27 194.202C1161.97 193.471 1162.15 192.401 1162.2 191.426C1162.6 185.28 1160.09 179.186 1156.37 174.11C1152.64 169.023 1147.77 164.806 1142.89 160.683C1141.3 159.338 1139.65 157.981 1137.64 157.282C1135.63 156.593 1133.14 156.752 1131.63 158.182C1128.84 160.811 1130.99 165.166 1132.74 168.504C1134.58 172.012 1135.81 176.177 1134.22 179.801C1131.88 185.152 1125.31 182.651 1122.55 187.229C1119.93 191.585 1115.31 199.045 1114.88 204.068L1114.89 204.047Z" fill="url(#paint24_linear_4867_74779)"/>
</g>
<g opacity="0.1">
<path d="M845.301 309.363C847.966 313.592 851.273 317.576 855.682 320.215C860.079 322.843 865.714 323.977 870.64 322.334C874.667 320.988 878.063 317.905 882.326 317.608C886.611 317.311 890.513 319.971 893.393 322.981C896.283 325.99 898.679 329.487 902.177 331.829C905.832 334.267 910.612 335.221 914.942 334.171C919.283 333.133 923.04 330.017 924.524 326.054C926.762 320.077 923.872 313.221 926.088 307.244C928.033 302.009 934.264 298.416 940.045 299.455C947.816 300.854 951.899 308.685 955.442 315.361C961.009 325.821 968.713 336.121 980.185 340.572C984.02 342.056 988.598 343.168 990.465 346.655C992.827 351.021 989.43 356.139 985.831 359.668C977.441 367.892 966.306 374.367 954.194 374.663C937.728 375.066 923.174 364.066 913.727 351.339C910.893 347.513 908.272 343.412 904.347 340.604C900.489 337.838 895.71 336.545 891.031 335.316C886.847 334.203 882.472 333.09 878.209 333.906C873.609 334.786 869.819 337.796 865.467 339.459C858.977 341.939 851.206 341.155 845.413 337.435C842.377 335.475 839.914 332.815 837.642 330.081C833.773 325.418 830.286 320.469 827.261 315.266C824.348 310.275 821.817 304.944 821.165 299.285C820.513 293.616 821.964 287.522 826.136 283.389C827.992 281.567 830.579 280.125 833.222 280.507C838.395 281.27 837.248 288.9 838.114 292.45C839.554 298.363 841.972 304.096 845.267 309.321L845.301 309.353V309.363Z" fill="url(#paint25_linear_4867_74779)"/>
</g>
<g opacity="0.1">
<path d="M865.814 211.096C867.153 210.482 868.615 210.005 870.099 210.164C873.642 210.535 875.644 214.223 876.319 217.518C877.005 220.825 877.095 224.47 879.378 227.056C882.606 230.701 888.916 230.447 893.178 227.904C897.441 225.371 900.185 221.174 903.064 217.275C908.159 210.365 914.064 203.996 920.643 198.295C925.333 194.247 931.44 190.283 937.57 191.873C941.146 192.784 943.924 195.466 947.321 196.864C955.699 200.351 965.271 195.519 972.266 189.944C979.251 184.381 986.066 177.556 995.109 176.295C1004.2 175.023 1013.72 179.75 1022.45 177.005C1028.06 175.246 1032.39 170.287 1033.13 164.755C1033.83 159.541 1031.72 153.628 1034.88 149.293C1038.08 144.874 1044.73 144.705 1050.24 143.391C1060.28 140.975 1068.75 132.444 1069.2 122.684C1069.64 112.924 1060.81 103.227 1050.44 103.397C1046.82 103.46 1043.31 104.594 1040.11 106.131C1028.4 111.726 1020.04 123.118 1018.64 135.422C1017.7 143.603 1019.54 152.43 1015.42 159.689C1013.25 163.515 1009.53 166.514 1005.17 167.934C998.82 169.99 991.69 168.655 985.279 170.551C975.944 173.296 970.321 181.943 963.415 188.461C961.593 190.167 959.501 191.841 956.959 192.244C954.946 192.562 952.888 192.064 951.021 191.28C941.888 187.507 935.466 177.291 925.502 177.662C916.74 177.98 911.061 186.543 908.586 194.459C906.112 202.375 904.909 211.255 898.689 217.084C896.923 218.748 894.381 220.125 891.997 219.405C888.859 218.44 888.117 214.636 887.915 211.531C887.667 207.875 887.42 204.208 887.172 200.542C886.891 196.366 886.441 191.799 883.337 188.821C880.458 186.066 875.88 185.377 871.854 186.193C867.839 187.009 864.251 189.086 860.832 191.258C853.713 195.752 837.742 206.444 838.541 216.173C838.979 221.461 844.794 223.803 849.574 222.001C855.827 219.648 859.831 213.862 865.848 211.086H865.826L865.814 211.096Z" fill="url(#paint26_linear_4867_74779)"/>
</g>
<g opacity="0.1">
<path d="M892.853 115.837C870.854 129.751 852.837 147.162 839.07 166.767C839.768 167.583 840.78 168.145 841.826 168.516C845.92 170.01 850.621 169.151 854.569 167.318C858.516 165.495 861.913 162.804 865.467 160.366C870.393 157.007 875.701 154.124 881.269 151.804C885.947 149.843 892.516 148.773 895.271 152.842C896.677 154.909 896.429 157.579 896.148 160.027C895.26 167.488 894.394 174.959 893.505 182.419C893.19 185.111 893.022 188.205 895.035 190.113C898.218 193.112 903.717 190.611 906.698 187.432C914.515 179.07 916.876 166.714 926.009 159.656C928.438 157.791 931.666 156.339 934.635 157.251C937.964 158.279 939.55 161.712 941.046 164.69C942.924 168.42 945.23 171.96 947.929 175.202C954.362 182.97 960.166 179.558 963.079 171.652C965.879 164.043 973.19 159.349 981.456 158.363C987.574 157.632 993.794 155.778 998.304 151.624C1002.8 147.501 1003.55 141.408 1003.53 135.77C1003.53 128.543 1004.22 121.941 1009.21 116.112C1014.04 110.443 1021.09 105.727 1028.39 103.406C1032.49 102.113 1037 101.912 1040.87 100.047C1044.88 98.1393 1047.46 94.3031 1048.31 90.1701C996.853 78.0893 940.371 85.7723 892.864 115.794L892.853 115.837Z" fill="url(#paint27_linear_4867_74779)"/>
</g>
<g opacity="0.5">
<path d="M1138.76 397.563C1214.71 326 1214.71 209.971 1138.76 138.418C1062.81 66.8553 939.665 66.8553 863.726 138.418C787.776 209.982 787.776 326 863.726 397.563C939.677 469.127 1062.82 469.127 1138.76 397.563Z" fill="url(#paint28_radial_4867_74779)"/>
</g>
<g opacity="0.2">
<path d="M897.788 275.484C901.016 271.34 901.724 265.915 901.466 260.764C901.207 255.635 900.116 250.549 900.172 245.409C900.319 234.123 906.504 223.059 916.289 216.542C919.663 214.306 924.061 212.547 927.851 214.115C935.161 217.178 932.957 228.676 939.368 233.19C942.067 235.087 945.79 235.257 949.051 234.42C952.302 233.582 955.203 231.855 958.094 230.212C972.737 221.894 988.539 215.027 1005.38 212.25C1010.81 211.349 1016.5 210.904 1021.75 212.473C1027 214.03 1031.76 218.004 1032.66 223.133C1033.37 227.203 1031.65 231.293 1029.52 234.886C1026.4 240.195 1022.26 245.07 1016.96 248.535C1011.66 251.99 1005.14 253.961 998.718 253.325C992.442 252.7 986.762 249.701 980.745 247.973C975.155 246.363 968.981 245.875 963.537 247.878C958.094 249.892 953.618 254.777 953.55 260.277C953.494 264.993 956.53 269.348 956.767 274.074C956.98 278.313 954.652 282.637 950.806 284.841C946.959 287.045 941.685 286.918 938.052 284.407C934.711 282.075 933.036 278.123 932.485 274.255C931.922 270.365 932.305 266.434 932.215 262.523C932.114 257.808 930.516 252.17 925.703 250.866C921.136 249.637 916.66 253.251 914.321 257.14C911.689 261.464 910.351 266.476 910.508 271.468C910.666 276.141 912.094 280.698 912.364 285.36C912.634 290.034 911.442 295.184 907.517 298.035C903.097 301.246 896.506 300.44 891.838 297.579C887.16 294.697 883.977 290.172 880.918 285.784C880.074 284.566 878.421 281.704 880.591 280.751C881.705 280.263 884.618 281.461 886.001 281.387C890.567 281.132 895.055 278.96 897.788 275.484Z" stroke="#220E6E" stroke-width="0.967233"/>
<path d="M1045.27 226.386C1047.86 236.368 1046.32 247.485 1039.89 255.782C1033.47 264.08 1021.91 268.955 1011.28 266.697C1008.55 266.115 1005.9 265.097 1003.09 264.928C995.457 264.451 988.978 270.364 985.312 276.701C978.8 287.934 977.99 302.378 984.806 313.463C991.61 324.548 1006.46 331.203 1019.54 327.674C1030.64 324.686 1038.62 315.54 1044.37 306.098C1050.13 296.656 1054.49 286.324 1062.06 278.111C1066.63 273.141 1073.41 268.796 1080.18 270.406C1084.55 271.434 1087.85 274.72 1091.01 277.74C1096.71 283.208 1102.88 288.401 1110.12 291.876C1117.36 295.352 1125.88 296.995 1133.75 295.077C1141.79 293.116 1148.47 287.595 1152.99 281.046C1157.51 274.486 1160.07 266.909 1162.03 259.311C1166.25 243.013 1167.77 224.997 1159.46 210.151C1157.46 206.579 1154.23 202.913 1149.94 202.913C1147.46 202.913 1145.18 204.184 1143.17 205.573C1134.85 211.348 1128.93 219.646 1121.74 226.65C1118.94 229.385 1115.85 231.97 1112.11 233.39C1108.36 234.81 1103.87 234.874 1100.51 232.754C1096.24 230.052 1094.95 224.489 1095.9 219.72C1096.86 214.951 1099.63 210.712 1102.04 206.452C1110 192.4 1114.76 176.102 1111.45 160.481C1110.58 156.433 1109.08 152.321 1106 149.386C1102.91 146.451 1097.9 145.009 1093.99 146.874C1089.82 148.867 1088.23 153.657 1087.32 157.991C1084.79 170.029 1084.05 182.916 1077 193.216C1075.28 195.738 1072.87 198.218 1069.72 198.547C1066.36 198.907 1063.33 196.724 1060.67 194.763C1056.52 191.743 1052.06 188.903 1046.98 187.684C1038.71 185.703 1024.88 190.938 1029.3 200.772C1030.83 204.174 1034.91 206.982 1037.18 209.981C1040.92 214.919 1043.78 220.493 1045.31 226.386L1045.28 226.417L1045.27 226.386Z" stroke="#220E6E" stroke-width="0.967233"/>
<path d="M938.786 210.288C939.247 207.936 941.755 205.308 943.858 206.643C944.747 207.204 945.073 208.264 945.444 209.207C946.962 213.065 950.786 216.562 955.128 216.191C957.523 215.979 959.638 214.654 961.662 213.425C972.167 206.992 983.425 201.704 995.2 197.667C998.113 196.671 1002.03 196.035 1003.71 198.472C1004.96 200.263 1004.06 202.796 1002.36 204.216C1000.66 205.636 998.395 206.219 996.213 206.812C985.607 209.705 975.417 213.902 965.97 219.275C960.807 222.21 953.778 226.587 947.502 224.743C941.53 223.005 937.684 215.873 938.775 210.299L938.786 210.288Z" stroke="#220E6E" stroke-width="0.967233"/>
<path d="M1055.35 177.915C1058.1 179.431 1060.67 181.603 1063.85 181.9C1068.86 182.377 1073.01 177.883 1074.16 173.284C1075.31 168.674 1074.42 163.863 1074.54 159.137C1074.69 153.467 1076.33 147.861 1079.3 142.934C1082.07 138.335 1086.79 134.043 1092.38 134.392C1095.7 134.604 1099.26 136.385 1102.08 134.753C1104.27 133.492 1104.85 130.524 1103.8 128.31C1102.75 126.095 1100.49 124.579 1098.12 123.689C1093.82 122.068 1088.85 122.153 1084.62 123.922C1078.57 126.444 1074.51 132.04 1072.35 137.911C1070.18 143.803 1069.63 150.076 1068.66 156.233C1068.09 159.858 1067.12 163.842 1063.9 165.909C1059.53 168.696 1053.3 166.555 1048.57 168.738C1045.97 169.936 1040.9 176.22 1045.64 177.587C1046.8 177.915 1048.56 176.559 1049.8 176.495C1051.72 176.357 1053.74 177.036 1055.36 177.936L1055.35 177.915Z" stroke="#220E6E" stroke-width="0.967233"/>
<path d="M1114.88 204.047C1114.64 206.877 1116.47 210.13 1119.48 210.406C1121.77 210.607 1123.77 209.102 1125.51 207.693C1130.54 203.602 1135.56 199.49 1140.58 195.389C1143.63 192.899 1147.52 190.25 1151.33 191.49C1153.1 192.062 1154.46 193.408 1156.08 194.298C1157.7 195.188 1160.01 195.506 1161.27 194.202C1161.96 193.471 1162.14 192.401 1162.2 191.426C1162.59 185.28 1160.08 179.186 1156.36 174.11C1152.64 169.023 1147.77 164.806 1142.89 160.683C1141.29 159.338 1139.65 157.981 1137.64 157.282C1135.62 156.593 1133.14 156.752 1131.63 158.182C1128.84 160.811 1130.99 165.166 1132.73 168.504C1134.58 172.012 1135.8 176.177 1134.22 179.801C1131.88 185.152 1125.31 182.662 1122.54 187.229C1119.92 191.585 1115.31 199.045 1114.87 204.068L1114.88 204.047Z" stroke="#220E6E" stroke-width="0.967233"/>
<path d="M845.301 309.363C847.966 313.592 851.284 317.576 855.682 320.215C860.079 322.843 865.714 323.977 870.64 322.334C874.667 320.988 878.063 317.905 882.326 317.608C886.611 317.311 890.513 319.971 893.393 322.981C896.283 325.99 898.679 329.498 902.177 331.829C905.832 334.267 910.612 335.221 914.942 334.171C919.283 333.133 923.04 330.017 924.524 326.054C926.762 320.077 923.872 313.221 926.088 307.244C928.033 302.009 934.264 298.416 940.045 299.455C947.816 300.854 951.899 308.685 955.442 315.361C961.009 325.821 968.713 336.121 980.185 340.572C984.02 342.056 988.598 343.168 990.465 346.655C992.827 351.021 989.43 356.139 985.831 359.668C977.441 367.892 966.306 374.367 954.194 374.663C937.728 375.066 923.174 364.066 913.727 351.339C910.893 347.513 908.272 343.412 904.347 340.604C900.489 337.838 895.71 336.545 891.031 335.316C886.847 334.203 882.472 333.09 878.209 333.906C873.609 334.786 869.819 337.796 865.467 339.459C858.977 341.939 851.206 341.155 845.413 337.435C842.377 335.475 839.914 332.815 837.642 330.081C833.773 325.418 830.286 320.469 827.261 315.266C824.348 310.275 821.817 304.944 821.165 299.285C820.513 293.616 821.964 287.522 826.136 283.389C827.992 281.567 830.579 280.125 833.222 280.507C838.395 281.27 837.248 288.9 838.114 292.45C839.554 298.374 841.972 304.096 845.267 309.321L845.301 309.353V309.363Z" stroke="#220E6E" stroke-width="0.967233"/>
<path d="M865.818 211.096C867.157 210.482 868.619 210.005 870.103 210.164C873.646 210.535 875.648 214.223 876.323 217.518C877.009 220.825 877.099 224.47 879.382 227.056C882.61 230.701 888.919 230.447 893.182 227.904C897.445 225.371 900.189 221.174 903.068 217.275C908.163 210.365 914.067 204.007 920.647 198.295C925.337 194.247 931.444 190.283 937.573 191.873C941.15 192.784 943.928 195.466 947.324 196.864C955.703 200.351 965.275 195.519 972.27 189.944C979.254 184.381 986.07 177.556 995.113 176.295C1004.2 175.023 1013.73 179.75 1022.45 177.005C1028.07 175.246 1032.4 170.287 1033.14 164.755C1033.84 159.541 1031.72 153.628 1034.88 149.293C1038.09 144.874 1044.73 144.705 1050.24 143.391C1060.29 140.975 1068.76 132.444 1069.21 122.684C1069.65 112.924 1060.82 103.227 1050.45 103.397C1046.83 103.46 1043.32 104.594 1040.11 106.131C1028.4 111.726 1020.05 123.118 1018.64 135.422C1017.71 143.603 1019.54 152.43 1015.42 159.7C1013.25 163.525 1009.53 166.514 1005.18 167.934C998.824 169.99 991.693 168.655 985.283 170.551C975.948 173.296 970.324 181.943 963.419 188.461C961.597 190.167 959.505 191.841 956.963 192.244C954.95 192.562 952.892 192.064 951.025 191.28C941.892 187.507 935.47 177.291 925.506 177.662C916.744 177.98 911.065 186.543 908.59 194.459C906.116 202.375 904.912 211.255 898.693 217.084C896.927 218.758 894.385 220.125 892.001 219.405C888.863 218.44 888.121 214.636 887.918 211.531C887.671 207.875 887.424 204.208 887.176 200.542C886.895 196.366 886.445 191.799 883.341 188.832C880.462 186.066 875.884 185.377 871.858 186.193C867.843 187.009 864.255 189.086 860.836 191.258C853.717 195.752 837.746 206.444 838.544 216.173C838.983 221.461 844.798 223.803 849.578 222.001C855.831 219.648 859.835 213.862 865.852 211.086H865.829L865.818 211.096Z" stroke="#220E6E" stroke-width="0.967233"/>
<path d="M892.851 115.837C870.852 129.751 852.835 147.162 839.068 166.767C839.766 167.583 840.778 168.145 841.824 168.516C845.918 170.01 850.619 169.151 854.567 167.318C858.514 165.495 861.911 162.804 865.465 160.366C870.391 157.007 875.7 154.124 881.267 151.804C885.945 149.843 892.514 148.783 895.269 152.842C896.675 154.909 896.428 157.579 896.146 160.027C895.258 167.488 894.392 174.959 893.503 182.419C893.188 185.111 893.02 188.205 895.033 190.113C898.216 193.112 903.716 190.611 906.696 187.432C914.513 179.07 916.874 166.725 926.007 159.656C928.436 157.791 931.664 156.35 934.633 157.251C937.962 158.279 939.548 161.712 941.044 164.69C942.922 168.42 945.228 171.96 947.927 175.202C954.36 182.97 960.164 179.558 963.077 171.652C965.877 164.043 973.188 159.349 981.454 158.363C987.573 157.632 993.792 155.778 998.302 151.624C1002.8 147.501 1003.54 141.408 1003.53 135.77C1003.53 128.543 1004.22 121.941 1009.21 116.112C1014.04 110.453 1021.09 105.727 1028.39 103.406C1032.49 102.113 1037 101.912 1040.87 100.047C1044.88 98.1393 1047.46 94.3031 1048.31 90.1701C996.851 78.0893 940.369 85.7723 892.862 115.794L892.851 115.837Z" stroke="#220E6E" stroke-width="0.967233"/>
</g>
<path opacity="0.6" d="M732.856 359.063C736.163 366.682 748.4 370.54 768.408 370.54C782.646 370.54 800.833 368.59 822.528 364.658C874.477 355.248 940.474 335.675 1008.35 309.542C1076.24 283.409 1137.89 253.832 1181.97 226.279C1226.22 198.599 1247.49 176.176 1241.82 163.141C1238.69 155.914 1227.7 152.067 1209.15 151.707C1195.07 151.442 1177.24 153.169 1156 156.868C1156.21 157.143 1156.43 157.419 1156.64 157.694C1205.25 149.301 1235.63 151.293 1240.92 163.491C1243.66 169.796 1239.7 178.507 1229.16 189.38C1218.87 199.998 1202.81 212.153 1181.43 225.527C1137.41 253.059 1075.81 282.593 1007.98 308.705C940.148 334.816 874.219 354.379 822.337 363.768C797.132 368.335 776.629 370.254 761.39 369.459C745.779 368.653 736.478 365.04 733.745 358.734C727.672 344.714 755.114 318.698 807.884 287.839C807.851 287.5 807.817 287.171 807.772 286.832C784.941 300.174 766.383 312.891 753.461 324.081C736.197 339.045 729.257 350.818 732.834 359.084L732.856 359.063ZM719.833 371.801C724.163 381.783 739.976 386.859 765.596 386.859C779.801 386.859 797.031 385.291 816.983 382.144C872.689 373.327 943.095 353.181 1015.23 325.406C1087.37 297.631 1152.6 265.563 1198.92 235.096C1245.41 204.513 1267.31 179.132 1260.58 163.618C1253.44 147.171 1215.09 144.098 1154.36 154.78C1154.58 155.055 1154.81 155.331 1155.02 155.606C1180.98 151.092 1203.39 149.015 1220.58 149.577C1242.39 150.297 1255.9 155.267 1259.68 163.968C1262.97 171.534 1259.11 181.623 1248.22 193.958C1237.62 205.975 1220.84 219.571 1198.37 234.355C1152.11 264.779 1086.93 296.825 1014.86 324.569C942.791 352.312 872.464 372.447 816.815 381.243C789.788 385.524 767.711 386.891 751.2 385.302C734.251 383.68 724.005 379.018 720.721 371.451C716.481 361.67 724.444 347.3 743.743 329.91C758.882 316.261 780.723 301.001 807.614 285.211C807.581 284.872 807.547 284.533 807.513 284.193C780.375 300.1 758.342 315.498 743.069 329.253C723.454 346.929 715.424 361.638 719.821 371.801H719.833ZM696.304 389.191C701.489 401.166 720.35 407.291 750.773 407.291C765.776 407.291 783.591 405.797 803.959 402.787C865.424 393.705 942.926 371.907 1022.17 341.387C1101.42 310.877 1172.95 275.302 1223.57 241.232C1274.37 207.045 1298.08 178.369 1290.33 160.481C1285.43 149.174 1267.87 142.932 1239.56 142.434C1216.55 142.031 1186.62 145.38 1152.16 152.173C1152.4 152.438 1152.62 152.703 1152.85 152.968C1187.03 146.26 1216.72 142.943 1239.54 143.345C1267.43 143.833 1284.69 149.873 1289.43 160.82C1293.23 169.584 1289.16 181.114 1277.35 195.081C1265.86 208.677 1247.57 223.948 1223.01 240.48C1172.44 274.518 1100.99 310.051 1021.8 340.528C942.622 371.017 865.199 392.794 803.802 401.865C773.975 406.274 749.569 407.429 731.271 405.309C712.454 403.137 700.994 397.584 697.192 388.82C691.963 376.782 701.826 359.211 725.692 338.006C745.071 320.786 773.03 301.732 807.345 282.275C807.322 281.936 807.288 281.597 807.255 281.258C772.693 300.82 744.519 320.012 725.017 337.339C700.837 358.83 690.894 376.75 696.293 389.17L696.304 389.191ZM1316.33 156.995C1310.58 143.738 1289.7 136.637 1255.95 136.468C1227.94 136.33 1191.62 140.908 1150.03 149.778C1150.26 150.043 1150.5 150.308 1150.73 150.562C1191.43 141.904 1227.02 137.379 1254.68 137.379C1255.09 137.379 1255.52 137.379 1255.94 137.379C1289.27 137.549 1309.84 144.448 1315.43 157.334C1319.66 167.094 1315.39 179.811 1302.74 195.166C1290.43 210.087 1270.78 226.799 1244.34 244.835C1189.92 281.968 1112.87 320.542 1027.38 353.457C941.902 386.372 858.226 409.675 791.779 419.075C759.5 423.642 733.048 424.67 713.174 422.138C692.739 419.531 680.232 413.268 675.992 403.518C669.93 389.541 681.548 369.183 709.564 344.64C732.789 324.304 766.226 301.986 807.131 279.456C807.108 279.117 807.086 278.778 807.063 278.439C765.911 301.085 732.26 323.52 708.912 343.972C680.57 368.791 668.873 389.509 675.104 403.868C680.997 417.464 702.332 424.427 736.658 424.427C752.415 424.427 770.927 422.954 791.925 419.986C858.451 410.576 942.206 387.252 1027.75 354.305C1113.31 321.369 1190.44 282.752 1244.92 245.577C1299.58 208.285 1324.94 176.822 1316.33 156.995Z" fill="url(#paint29_linear_4867_74779)"/>
</g>
<path d="M849.238 203.722L876.444 201.539L867.458 204.019L882.169 211.712L865.378 219.374L849.238 203.733V203.722Z" fill="url(#paint30_linear_4867_74779)" stroke="#220E6E" stroke-width="0.416135"/>
<path d="M863.691 221.325L849.238 203.723L865.378 219.364L863.691 221.314V221.325Z" fill="url(#paint31_linear_4867_74779)" stroke="#220E6E" stroke-width="0.416135"/>
<path d="M924.98 202.748C924.687 204.995 920.638 210.166 914.857 216.291C906.85 224.78 895.524 235.101 886.313 242.021C888.281 240.315 890.08 238.418 891.419 236.246C892.341 234.752 893.038 233.141 893.421 231.445C893.612 230.587 893.691 229.739 893.747 228.86C893.792 228.128 893.533 227.429 893.814 226.719C894.039 226.147 894.444 225.659 894.849 225.182C897.571 221.971 900.293 218.76 903.014 215.549C904.735 213.525 906.445 211.501 908.165 209.477C904.814 212.031 901.361 214.437 897.83 216.747C895.389 218.358 892.904 219.916 890.407 221.452C889.777 221.834 889.079 222.141 888.371 222.258C887.719 222.364 887.055 222.342 886.403 222.109C884.727 221.505 883.04 220.933 881.308 220.467C879.733 220.043 878.136 219.693 876.539 219.407C874.132 218.983 871.714 218.718 869.262 218.58C868.194 218.517 867.092 218.549 866.091 218.898C865.967 218.941 865.855 218.994 865.742 219.047C876.46 213.737 888.596 208.799 903.093 204.338C904.769 203.829 906.467 203.32 908.21 202.812C910.797 202.07 913.564 202.017 916.151 202.748H916.196C917.624 202.621 919.041 202.547 920.447 202.525C921.977 202.504 923.495 202.578 924.991 202.748H924.98Z" fill="url(#paint32_linear_4867_74779)" stroke="#220E6E" stroke-width="0.416135"/>
<path d="M881.318 220.465C879.743 220.041 878.146 219.691 876.549 219.405C879.563 217.551 882.768 215.866 886.322 215.718C889.427 215.59 892.452 216.661 895.545 216.798C896.31 216.83 897.086 216.82 897.839 216.745C895.399 218.356 892.924 219.914 890.416 221.451C889.787 221.832 889.1 222.139 888.381 222.256C887.728 222.362 887.065 222.341 886.412 222.108C884.737 221.504 883.05 220.931 881.318 220.465Z" fill="url(#paint33_linear_4867_74779)" stroke="#220E6E" stroke-width="0.416135"/>
<path d="M924.979 202.746C924.687 204.993 920.638 210.164 914.857 216.289C906.849 224.778 895.524 235.099 886.312 242.019C888.281 240.313 890.08 238.416 891.418 236.244C892.341 234.75 893.038 233.139 893.42 231.443C893.612 230.585 893.69 229.737 893.747 228.858C893.792 228.126 893.533 227.427 893.814 226.717C894.039 226.145 894.444 225.657 894.849 225.18C897.571 221.969 900.292 218.758 903.014 215.547C905.961 214.509 908.795 212.951 911.506 211.436C913.406 210.376 915.262 209.232 917.028 207.981C918.332 207.059 920.694 205.978 920.897 204.304C920.975 203.689 920.795 203.043 920.424 202.523C921.954 202.502 923.472 202.566 924.968 202.735L924.979 202.746Z" fill="url(#paint34_linear_4867_74779)" stroke="#220E6E" stroke-width="0.416135"/>
<path d="M904.613 225.289C900.036 230.037 894.84 234.223 889.666 238.387C890.892 235.071 892.107 231.743 893.333 228.426C893.659 227.546 893.985 226.656 894.513 225.872C895.199 224.855 896.189 224.049 897.179 223.276C899.485 221.464 901.824 219.694 904.163 217.935C906.019 216.536 907.886 215.137 909.742 213.728C910.653 213.039 911.575 212.35 912.486 211.661C913.33 211.025 914.263 210.072 915.219 209.648C915.343 209.595 915.163 210.22 915.174 210.199C915.073 210.538 914.87 210.877 914.713 211.195C914.409 211.82 914.106 212.445 913.768 213.06C912.047 216.282 909.899 219.291 907.504 222.099C906.57 223.191 905.603 224.251 904.613 225.279V225.289Z" fill="#CCB1E0"/>
<path d="M915.834 209.094C913.134 211.574 910.514 213.884 907.961 216.046C903.046 220.2 898.356 223.803 893.745 226.961L892.732 226.58L908.163 209.486C908.546 209.423 908.928 209.359 909.299 209.306C911.492 208.999 913.663 208.957 915.822 209.094H915.834Z" fill="url(#paint35_linear_4867_74779)" stroke="#220E6E" stroke-width="0.416135"/>
<path d="M907.514 205.472C905.343 206.542 903.116 207.697 900.957 208.821C898.798 209.933 896.571 211.089 894.4 212.169H894.366H894.332C892.949 211.608 891.285 210.972 889.508 210.485C883.378 212.964 876.877 215.667 870.669 218.899L870.602 218.782C876.821 215.539 883.333 212.837 889.474 210.347H889.496H889.519C891.296 210.834 892.96 211.47 894.344 212.032C896.503 210.961 898.719 209.817 900.867 208.704C903.026 207.591 905.253 206.436 907.424 205.355L907.491 205.472H907.514Z" fill="#220E6E"/>
<path d="M901.658 208.45C901.433 208.344 901.208 208.227 900.994 208.111C900.791 208.005 900.578 207.888 900.375 207.793C899.093 208.27 898.002 208.948 897.001 209.605L897.946 210.22L897.867 210.326L896.754 209.594L896.844 209.541C897.89 208.853 899.026 208.143 900.364 207.645H900.398H900.432C900.656 207.751 900.882 207.867 901.095 207.984C901.309 208.1 901.523 208.217 901.747 208.323L901.68 208.439L901.658 208.45Z" fill="#220E6E"/>
<path d="M915.874 204.2L915.784 204.242C915.245 204.486 914.637 204.814 914.052 205.132C913.783 205.281 913.513 205.418 913.265 205.556L913.22 205.577L913.186 205.546C912.467 204.867 911.938 204.783 911.072 204.634L910.926 204.613L910.948 204.475L911.095 204.496C911.983 204.645 912.523 204.74 913.254 205.408C913.49 205.291 913.737 205.153 913.985 205.016C914.547 204.708 915.121 204.401 915.638 204.157C915.233 203.786 914.648 203.627 913.861 203.67V203.532C914.727 203.479 915.368 203.67 915.807 204.125L915.874 204.189V204.2Z" fill="#220E6E"/>
<path d="M916.2 202.759C913.4 203.882 911.454 204.55 908.361 206.044C906.64 204.92 905.178 204.55 903.098 204.338C904.773 203.818 906.472 203.32 908.215 202.812C910.802 202.07 913.569 202.017 916.155 202.748H916.2V202.759Z" fill="#3215AB" stroke="#220E6E" stroke-width="0.416135" stroke-linejoin="round"/>
<path d="M915.559 202.864C914.569 203.171 913.681 203.5 912.758 203.966C911.319 203.372 909.913 203.118 908.35 203.002C910.858 202.217 913.512 202.366 915.559 202.874V202.864Z" fill="url(#paint36_linear_4867_74779)"/>
<path d="M896.325 218.059C890.556 219.066 884.302 217.084 880.208 213.121C876.576 214.689 872.932 216.268 869.299 217.837C868.523 218.176 867.78 218.727 866.971 218.981C873.989 219.162 880.759 220.836 887.114 223.655C887.811 223.962 888.576 224.301 889.33 224.132C889.791 224.026 890.173 223.75 890.544 223.475C892.67 221.885 894.38 219.829 896.336 218.059H896.325Z" fill="#CCB1E0"/>
<path d="M913.851 209.075L908.621 212.71C907.564 213.822 905.753 216.132 905.731 216.164L905.719 216.185C905.686 216.207 901.963 218.21 900.017 219.036L899.961 218.909C901.839 218.114 905.393 216.207 905.629 216.069C905.764 215.889 907.485 213.706 908.531 212.614L913.772 208.969L913.862 209.075H913.851Z" fill="#220E6E"/>
<path d="M909.546 209.368C909.332 210.195 909.119 211.032 908.905 211.859C908.567 213.162 907.983 214.593 907.983 215.928C907.983 215.97 907.983 216.013 907.983 216.045C903.068 220.199 898.378 223.802 893.767 226.96L892.766 226.578L908.196 209.485C908.579 209.421 908.961 209.358 909.332 209.305C909.411 209.326 909.479 209.336 909.557 209.368H909.546Z" fill="#CCB1E0"/>
<path d="M872.063 244.182L861.008 251.356L869.387 240.695L872.075 244.182H872.063Z" fill="url(#paint37_linear_4867_74779)" stroke="#220E6E" stroke-width="0.416135"/>
<path d="M888.39 222.269C887.738 222.385 887.074 222.353 886.422 222.12C884.746 221.516 883.059 220.944 881.327 220.478C877.379 219.407 873.364 218.824 869.281 218.591C868.213 218.528 867.111 218.56 866.11 218.909C864.097 219.619 863.287 221.802 863.118 223.678C862.972 225.416 863.343 227.164 863.849 228.849C864.839 232.188 866.29 235.399 868.056 238.44C869.54 241.004 871.148 243.972 873.87 245.561C875.276 246.377 876.895 246.685 878.526 246.462C880.866 246.144 882.879 244.788 884.701 243.368C887.31 241.322 889.728 239.012 891.438 236.257C892.36 234.763 893.057 233.152 893.44 231.456C893.631 230.598 893.71 229.74 893.766 228.871C893.811 228.139 893.552 227.44 893.833 226.73C894.058 226.158 894.474 225.67 894.868 225.193C899.311 219.958 903.742 214.723 908.184 209.488C902.505 213.812 896.544 217.701 890.426 221.463C889.796 221.845 889.098 222.141 888.39 222.269Z" fill="url(#paint38_linear_4867_74779)" stroke="#220E6E" stroke-width="0.416135"/>
<path d="M874.461 238.693C874.821 238.979 875.113 239.286 875.36 239.583C875.417 239.657 875.473 239.721 875.529 239.795C876.092 240.558 876.339 241.289 876.44 241.84C876.474 242.021 876.485 242.18 876.496 242.307C876.519 242.625 876.496 242.815 876.496 242.815C876.294 243.727 875.642 244.606 874.832 245.465L868.59 239.075C868.59 239.075 870.873 237.379 873.122 237.994C873.28 238.036 873.448 238.1 873.606 238.163C873.898 238.29 874.191 238.46 874.472 238.693H874.461Z" fill="#3215AB" stroke="#220E6E" stroke-width="0.416135" stroke-linejoin="round"/>
<path d="M873.599 238.162C872.418 238.352 871.282 238.882 870.416 239.645L870.225 239.455C871.023 238.745 872.047 238.236 873.115 237.992C873.273 238.035 873.441 238.098 873.599 238.162Z" fill="#3215AB" stroke="#220E6E" stroke-width="0.416135" stroke-linejoin="round"/>
<path d="M875.361 239.582C875.418 239.656 875.474 239.72 875.53 239.794C874.81 240.356 874.034 240.854 873.213 241.299L873.078 241.076C873.877 240.642 874.641 240.144 875.361 239.593V239.582Z" fill="#3215AB" stroke="#220E6E" stroke-width="0.416135" stroke-linejoin="round"/>
<path d="M876.429 241.84C876.462 242.02 876.474 242.179 876.485 242.306C876.361 242.518 876.215 242.719 876.069 242.91C875.664 243.429 875.169 243.885 874.607 244.256L874.449 244.044C875.293 243.482 875.99 242.719 876.429 241.84Z" fill="#4966CE" stroke="#220E6E" stroke-width="0.416135" stroke-linejoin="round"/>
<path d="M867.499 241.206C867.364 240.273 867.667 239.425 868.792 238.969C870.018 238.471 871.457 239.118 872.447 239.785C874.078 240.866 876.766 245.19 873.707 246.25C872.357 246.716 870.918 245.858 869.905 245.052C869.006 244.342 867.701 242.657 867.487 241.195L867.499 241.206Z" fill="#3215AB" stroke="#220E6E" stroke-width="0.416135" stroke-linejoin="round"/>
<path d="M872.346 240.049C873.212 240.622 874.416 242.211 874.697 243.61C874.899 244.606 874.652 245.496 873.505 245.888C873.066 246.037 872.616 246.037 872.178 245.931C872.02 245.899 871.863 245.846 871.705 245.782C871.098 245.549 870.524 245.168 870.052 244.797C869.872 244.649 869.67 244.468 869.479 244.246C869.377 244.14 869.276 244.023 869.175 243.896C868.568 243.154 867.994 242.19 867.859 241.3C867.836 241.12 867.825 240.95 867.836 240.791C867.881 240.155 868.219 239.604 869.029 239.286C869.344 239.159 869.67 239.117 869.996 239.138C870.839 239.18 871.694 239.604 872.335 240.039L872.346 240.049Z" fill="#3D7985" stroke="#220E6E" stroke-width="0.416135" stroke-linejoin="round"/>
<path d="M869.893 240.051L870.039 240.485C869.297 240.697 868.566 240.983 867.869 241.312C867.846 241.142 867.835 240.973 867.846 240.814C868.51 240.506 869.196 240.252 869.893 240.051Z" fill="#4B99A3" stroke="#220E6E" stroke-width="0.416135" stroke-linejoin="round"/>
<path d="M871.474 242.316L871.699 242.709C870.878 243.122 870.124 243.641 869.483 244.266C869.382 244.16 869.281 244.044 869.18 243.917C869.855 243.27 870.63 242.73 871.474 242.316Z" fill="#4B99A3" stroke="#220E6E" stroke-width="0.416135" stroke-linejoin="round"/>
<path d="M873.503 243.41C873.188 244.311 872.738 245.169 872.175 245.943C872.018 245.911 871.861 245.858 871.703 245.794C872.277 245.021 872.738 244.162 873.053 243.262L873.503 243.399V243.41Z" fill="#4B99A3" stroke="#220E6E" stroke-width="0.416135" stroke-linejoin="round"/>
<path d="M872.345 240.048C873.121 240.567 874.178 241.913 874.583 243.216C874.628 243.354 874.662 243.481 874.685 243.619C874.426 243.725 874.145 243.778 873.852 243.799C873.627 243.81 873.391 243.799 873.166 243.757C872.581 243.651 872.03 243.396 871.547 243.057C870.996 242.665 870.546 242.167 870.22 241.605C869.916 241.086 869.59 240.334 869.725 239.74C869.77 239.539 869.86 239.338 869.972 239.168C870.265 239.179 870.568 239.242 870.849 239.338C871.389 239.507 871.895 239.783 872.311 240.069L872.345 240.048Z" fill="#53CFC5" stroke="#220E6E" stroke-width="0.416135" stroke-linejoin="round"/>
<path d="M872.349 240.048C873.136 240.567 874.193 241.913 874.598 243.216C874.025 243.46 873.035 243.259 872.461 242.835C872.203 242.644 872.023 242.421 872 242.167C871.989 241.945 872.102 241.711 872.293 241.574C871.854 241.107 870.831 240.122 870.887 239.316C871.427 239.486 871.933 239.761 872.349 240.048Z" fill="#7FEBE2" stroke="#220E6E" stroke-width="0.416135" stroke-linejoin="round"/>
<path d="M880.037 224.398C880.15 224.493 880.262 224.599 880.363 224.694C881.488 225.743 882.421 226.973 883.063 228.276C883.119 228.382 883.175 228.499 883.22 228.605C883.377 228.954 883.524 229.315 883.636 229.664C883.636 229.664 883.636 229.675 883.636 229.686C883.906 230.512 884.052 231.36 884.097 232.208C884.097 232.388 884.097 232.579 884.097 232.759C884.086 233.861 883.861 234.952 883.422 235.98C883.366 236.107 883.31 236.235 883.254 236.351C883.209 236.436 883.175 236.51 883.141 236.584C883.074 236.712 883.006 236.828 882.916 236.955C881.634 238.905 878.339 241.035 878.339 241.035C878.339 241.035 864.82 224.514 864.809 224.514C864.786 224.482 866.406 223.497 866.496 223.444C867.834 222.691 869.353 222.003 870.882 221.663C872.535 221.293 874.2 221.42 875.752 221.918C876.033 222.003 876.326 222.109 876.596 222.225C877.844 222.734 879.014 223.476 880.026 224.376L880.037 224.398Z" fill="#3215AB" stroke="#220E6E" stroke-width="0.416135" stroke-linejoin="round"/>
<path d="M876.598 222.245C873.753 222.298 870.918 223.146 868.568 224.629L868.365 224.343C870.547 222.965 873.123 222.128 875.755 221.938C876.036 222.022 876.328 222.128 876.598 222.245Z" fill="#4966CE" stroke="#220E6E" stroke-width="0.416135" stroke-linejoin="round"/>
<path d="M880.042 224.398C880.155 224.494 880.267 224.6 880.369 224.695C878.4 225.024 876.511 225.734 874.835 226.762L874.633 226.476C876.264 225.469 878.119 224.759 880.042 224.409V224.398Z" fill="#4966CE" stroke="#220E6E" stroke-width="0.416135" stroke-linejoin="round"/>
<path d="M883.065 228.277C883.121 228.383 883.177 228.5 883.222 228.606C881.805 229.75 880.208 230.672 878.465 231.34L878.33 231.022C880.062 230.365 881.659 229.443 883.065 228.277Z" fill="#4966CE" stroke="#220E6E" stroke-width="0.416135" stroke-linejoin="round"/>
<path d="M884.103 232.219C884.103 232.399 884.103 232.59 884.103 232.77C883.99 232.908 883.866 233.035 883.743 233.162C882.685 234.285 881.403 235.207 879.952 235.885L879.795 235.578C881.493 234.794 882.967 233.639 884.103 232.219Z" fill="#4966CE" stroke="#220E6E" stroke-width="0.416135" stroke-linejoin="round"/>
<path d="M878.914 239.214C880.601 238.419 882.164 237.317 883.435 235.992C883.379 236.119 883.323 236.247 883.267 236.363C883.222 236.448 883.188 236.522 883.154 236.596C883.087 236.723 883.019 236.84 882.941 236.967C881.805 237.984 880.5 238.853 879.105 239.51L878.937 239.203L878.914 239.214Z" fill="#4966CE" stroke="#220E6E" stroke-width="0.416135" stroke-linejoin="round"/>
<path d="M877.643 228.974C879.003 230.807 880.027 233.276 880.151 235.692C880.252 237.642 879.746 239.56 878.34 241.065C875.978 243.587 872.334 242.305 869.938 240.567C867.925 239.105 866.126 237.038 864.9 234.728C863.123 231.39 861.323 224.714 866.891 223.707C868.094 223.484 869.32 223.633 870.501 223.982C870.906 224.099 871.299 224.247 871.693 224.406C874.077 225.381 876.158 226.981 877.643 228.995V228.974Z" fill="#3215AB" stroke="#220E6E" stroke-width="0.416135" stroke-linejoin="round"/>
<path d="M877.036 229.504C878.442 231.327 879.544 233.796 879.679 236.117C879.747 237.421 879.522 238.671 878.87 239.752C878.69 240.059 878.465 240.345 878.206 240.621C878.161 240.674 878.105 240.716 878.06 240.769C877.813 241.013 877.531 241.214 877.25 241.363C875.765 242.158 873.887 241.776 872.223 240.96C872.065 240.886 871.919 240.812 871.773 240.727C871.289 240.462 870.828 240.165 870.401 239.847C869.31 239.042 868.286 238.078 867.364 236.986C867.263 236.859 867.162 236.732 867.06 236.605C866.476 235.873 865.936 235.1 865.475 234.294C865.16 233.733 864.834 233.076 864.541 232.366C864.485 232.217 864.417 232.069 864.361 231.921C863.833 230.501 863.473 228.932 863.585 227.576C863.596 227.396 863.63 227.226 863.653 227.046C863.911 225.742 864.699 224.715 866.352 224.333C866.509 224.301 866.678 224.269 866.847 224.238C867.825 224.1 868.837 224.238 869.827 224.513C870.333 224.662 870.839 224.842 871.323 225.054C873.572 226.039 875.574 227.586 877.036 229.494V229.504Z" fill="#3D7985" stroke="#220E6E" stroke-width="0.416135" stroke-linejoin="round"/>
<path d="M869.401 226.536L869.334 227.002C867.422 226.759 865.42 226.96 863.598 227.575C863.609 227.394 863.643 227.225 863.665 227.045C865.498 226.451 867.467 226.282 869.401 226.526V226.536Z" fill="#4B99A3" stroke="#220E6E" stroke-width="0.416135" stroke-linejoin="round"/>
<path d="M869.77 229.98L869.893 230.447C868.038 230.892 866.238 231.538 864.54 232.375C864.484 232.227 864.427 232.079 864.371 231.93C866.081 231.083 867.891 230.436 869.77 229.98Z" fill="#4B99A3" stroke="#220E6E" stroke-width="0.416135" stroke-linejoin="round"/>
<path d="M872.494 233.319L872.787 233.701C871.043 234.877 869.221 235.99 867.354 236.986C867.253 236.859 867.152 236.732 867.051 236.604C868.918 235.598 870.751 234.495 872.494 233.309V233.319Z" fill="#4B99A3" stroke="#220E6E" stroke-width="0.416135" stroke-linejoin="round"/>
<path d="M875.552 235.855C874.698 237.699 873.584 239.415 872.223 240.963C872.066 240.889 871.92 240.814 871.773 240.73C873.123 239.193 874.248 237.487 875.091 235.664L875.552 235.855Z" fill="#4B99A3" stroke="#220E6E" stroke-width="0.416135" stroke-linejoin="round"/>
<path d="M878.197 235.957C878.703 237.536 878.647 239.232 878.062 240.768C877.814 241.012 877.533 241.213 877.252 241.362C878.084 239.751 878.264 237.812 877.713 236.095L878.197 235.957Z" fill="#4B99A3" stroke="#220E6E" stroke-width="0.416135" stroke-linejoin="round"/>
<path d="M877.036 229.505C878.138 230.936 879.049 232.759 879.465 234.592C879.577 235.101 879.656 235.609 879.679 236.118C879.037 236.627 878.194 236.923 877.238 236.913C876.293 236.892 875.371 236.563 874.539 236.139C871.761 234.73 869.669 232.144 868.983 229.24C868.702 228.064 868.645 226.792 869.106 225.669C869.275 225.256 869.523 224.864 869.837 224.535C870.254 224.652 870.67 224.8 871.063 224.97C871.153 225.001 871.243 225.044 871.322 225.076C873.571 226.061 875.573 227.608 877.036 229.516V229.505Z" fill="#53CFC5" stroke="#220E6E" stroke-width="0.416135" stroke-linejoin="round"/>
<path d="M877.033 229.506C878.136 230.937 879.047 232.759 879.463 234.593C879.373 234.73 879.249 234.858 879.103 234.953C878.63 235.26 877.967 235.207 877.461 234.953C877 234.73 876.696 234.381 876.325 234.073C875.954 233.766 875.886 234.01 875.448 233.925C875.594 234.211 875.785 234.476 875.965 234.752C876.044 234.889 876.134 235.038 876.089 235.186C876.01 235.44 875.65 235.462 875.38 235.409C874.087 235.144 873.007 234.105 872.737 232.887C872.692 232.706 872.692 232.484 872.861 232.388C873.052 232.272 873.288 232.441 873.457 232.59C873.131 232.24 872.805 231.89 872.535 231.498C872.366 231.244 871.86 230.598 871.905 230.29C871.871 230.534 871.804 230.82 871.567 230.926C871.286 231.064 870.949 230.873 870.724 230.661C869.813 229.824 869.363 228.69 869.43 227.503C869.43 227.344 869.453 227.185 869.543 227.047C869.745 226.73 870.24 226.698 870.589 226.878C870.926 227.058 871.151 227.376 871.342 227.694C871.286 227.111 871.005 226.645 870.915 226.062C870.859 225.691 870.892 225.278 871.072 224.949C871.162 224.981 871.252 225.023 871.331 225.055C873.58 226.041 875.583 227.588 877.045 229.495L877.033 229.506Z" fill="#7FEBE2" stroke="#220E6E" stroke-width="0.416135" stroke-linejoin="round"/>
<path d="M889.162 226.611C889.51 226.95 889.791 227.289 890.016 227.629C890.072 227.713 890.129 227.787 890.174 227.862C890.691 228.709 890.871 229.504 890.916 230.098C890.927 230.288 890.927 230.458 890.916 230.596C890.905 230.935 890.849 231.136 890.849 231.136C890.545 232.079 889.758 232.938 888.824 233.775L882.908 226.484C882.908 226.484 885.484 224.905 887.789 225.763C887.958 225.827 888.116 225.901 888.284 225.986C888.577 226.145 888.869 226.357 889.139 226.622L889.162 226.611Z" fill="#3215AB" stroke="#220E6E" stroke-width="0.416135" stroke-linejoin="round"/>
<path d="M888.306 225.975C887.035 226.071 885.798 226.516 884.797 227.247L884.617 227.024C885.528 226.346 886.653 225.901 887.811 225.742C887.98 225.806 888.149 225.88 888.306 225.965V225.975Z" fill="#4966CE" stroke="#220E6E" stroke-width="0.416135" stroke-linejoin="round"/>
<path d="M890.029 227.628C890.086 227.713 890.131 227.787 890.187 227.861C889.366 228.38 888.5 228.846 887.6 229.228L887.477 228.974C888.365 228.582 889.22 228.136 890.029 227.617V227.628Z" fill="#4966CE" stroke="#220E6E" stroke-width="0.416135" stroke-linejoin="round"/>
<path d="M890.926 230.098C890.937 230.288 890.937 230.458 890.926 230.596C890.768 230.808 890.6 231.009 890.42 231.2C889.936 231.708 889.374 232.143 888.744 232.482L888.598 232.238C889.542 231.73 890.352 230.977 890.914 230.098H890.926Z" fill="#4966CE" stroke="#220E6E" stroke-width="0.416135" stroke-linejoin="round"/>
<path d="M881.587 228.626C881.542 227.629 881.947 226.771 883.184 226.4C884.523 225.987 885.974 226.803 886.952 227.587C888.549 228.88 890.934 233.67 887.616 234.507C886.154 234.878 884.714 233.839 883.736 232.907C882.869 232.07 881.666 230.194 881.587 228.626Z" fill="#3215AB" stroke="#220E6E" stroke-width="0.416135" stroke-linejoin="round"/>
<path d="M886.812 227.853C887.667 228.542 888.758 230.312 888.915 231.816C889.028 232.876 888.668 233.798 887.431 234.105C886.958 234.222 886.486 234.18 886.036 234.031C885.868 233.978 885.71 233.915 885.553 233.84C884.934 233.544 884.372 233.088 883.911 232.654C883.742 232.484 883.551 232.272 883.359 232.028C883.258 231.912 883.168 231.774 883.078 231.636C882.516 230.799 882.01 229.729 881.965 228.786C881.965 228.595 881.965 228.415 881.999 228.245C882.111 227.577 882.516 227.037 883.404 226.761C883.742 226.655 884.09 226.645 884.439 226.687C885.316 226.804 886.171 227.323 886.812 227.842V227.853Z" fill="#3D7985" stroke="#220E6E" stroke-width="0.416135" stroke-linejoin="round"/>
<path d="M884.225 227.629L884.327 228.096C883.517 228.255 882.73 228.488 881.965 228.774C881.965 228.594 881.965 228.414 881.999 228.255C882.718 228 883.472 227.788 884.225 227.64V227.629Z" fill="#4B99A3" stroke="#220E6E" stroke-width="0.416135" stroke-linejoin="round"/>
<path d="M885.648 230.152L885.839 230.587C884.928 230.937 884.096 231.424 883.353 232.028C883.263 231.911 883.162 231.774 883.072 231.636C883.848 231.021 884.714 230.523 885.648 230.152Z" fill="#4B99A3" stroke="#220E6E" stroke-width="0.416135" stroke-linejoin="round"/>
<path d="M887.692 231.485C887.264 232.407 886.713 233.265 886.038 234.039C885.87 233.986 885.712 233.922 885.555 233.848C886.241 233.085 886.803 232.227 887.23 231.305L887.692 231.495V231.485Z" fill="#4B99A3" stroke="#220E6E" stroke-width="0.416135" stroke-linejoin="round"/>
<path d="M886.811 227.852C887.575 228.467 888.554 229.982 888.846 231.381C888.88 231.529 888.902 231.667 888.914 231.815C888.633 231.9 888.329 231.932 888.025 231.921C887.789 231.921 887.542 231.879 887.305 231.815C886.698 231.656 886.147 231.328 885.675 230.925C885.135 230.47 884.719 229.897 884.426 229.272C884.168 228.7 883.898 227.873 884.1 227.259C884.168 227.047 884.28 226.856 884.426 226.676C884.741 226.718 885.045 226.814 885.337 226.93C885.877 227.153 886.383 227.492 886.799 227.831L886.811 227.852Z" fill="#53CFC5" stroke="#220E6E" stroke-width="0.416135" stroke-linejoin="round"/>
<path d="M886.803 227.854C887.568 228.469 888.546 229.984 888.839 231.383C888.209 231.584 887.196 231.277 886.634 230.789C886.375 230.567 886.218 230.312 886.218 230.048C886.218 229.804 886.375 229.571 886.589 229.454C886.184 228.924 885.206 227.79 885.341 226.953C885.881 227.176 886.387 227.515 886.803 227.854Z" fill="#7FEBE2" stroke="#220E6E" stroke-width="0.416135" stroke-linejoin="round"/>
<path d="M877.877 209.531L867.024 211.863L867.001 211.842C863.312 208.917 856.294 203.353 856.092 203.237L856.126 203.184V203.109C856.126 203.109 856.216 203.109 867.069 211.714L877.855 209.394L877.888 209.521L877.877 209.531Z" fill="#220E6E"/>
<path d="M874.836 212.826L865.557 215.539L867.964 217.944L867.863 218.04L865.299 215.475L874.611 212.752L873.037 210.516L873.16 210.441L874.836 212.826Z" fill="#220E6E"/>
<path d="M850.199 204.2L859.759 203.543C863.977 208.1 869.893 211.226 876.742 213.547L865.315 218.464L850.199 204.2Z" fill="#CCB1E0"/>
<path d="M920.451 202.524C919.045 202.535 917.628 202.62 916.199 202.757H916.154C916.008 202.705 915.851 202.662 915.705 202.63C913.253 202.026 910.655 202.111 908.214 202.81C907.854 202.916 907.506 203.022 907.146 203.128C905.785 203.531 904.424 203.934 903.097 204.336C895.494 206.678 888.543 209.148 882.099 211.744L882.155 211.712L877.847 209.466L877.825 209.402L877.746 209.423L867.894 204.273L866.994 204.517L877.308 209.911L877.386 209.889L877.409 209.953L881.716 212.2L881.66 212.231C888.105 209.646 895.055 207.166 902.658 204.824C903.985 204.411 905.335 204.019 906.707 203.616C907.067 203.51 907.416 203.404 907.775 203.298C910.205 202.599 912.803 202.514 915.255 203.118C915.401 203.16 915.558 203.192 915.705 203.234H915.749C917.178 203.107 918.595 203.033 920.001 203.012C921.53 202.991 923.049 203.065 924.533 203.234C924.286 205.163 921.294 209.211 916.818 214.171C921.53 208.989 924.725 204.729 924.972 202.747C923.476 202.577 921.969 202.514 920.428 202.535L920.451 202.524Z" fill="white"/>
<path d="M855.681 203.66V203.596C855.681 203.596 855.681 203.596 855.771 203.66L874.137 202.187L876.454 201.551L856.221 203.183C856.131 203.119 856.131 203.119 856.12 203.119V203.183L849.248 203.734L849.597 204.158L855.681 203.67V203.66Z" fill="white"/>
<path d="M867.874 239.698C867.874 239.698 867.841 239.667 867.829 239.656C867.796 239.709 867.751 239.762 867.729 239.804C867.773 239.772 867.83 239.73 867.874 239.698Z" fill="white"/>
<path d="M916.009 209.243C915.368 209.221 914.727 209.211 914.086 209.221C913.445 209.221 912.804 209.274 912.174 209.306C910.903 209.37 909.621 209.518 908.361 209.73L908.406 209.709C905.696 211.691 902.963 213.651 900.196 215.548C898.801 216.502 897.407 217.434 896.001 218.356L894.944 219.045C894.595 219.278 894.213 219.48 893.853 219.692C893.122 220.115 892.391 220.539 891.648 220.942C892.357 220.486 893.066 220.031 893.763 219.564C894.112 219.331 894.46 219.087 894.82 218.865C895.18 218.642 895.529 218.409 895.877 218.187C897.294 217.275 898.689 216.332 900.072 215.389C902.839 213.492 905.572 211.532 908.283 209.55H908.305L908.328 209.529C909.598 209.317 910.881 209.168 912.163 209.094C912.804 209.062 913.445 209.073 914.097 209.094C914.738 209.115 915.379 209.168 916.021 209.232L916.009 209.243Z" fill="white"/>
<g opacity="0.42">
<path d="M865.508 224.588C860.503 228.477 857.41 233.394 855.003 238.195L-484.615 672.056L-511 771.278L855.971 240.261C862.595 242.529 868.893 242.857 876.429 241.829C876.429 241.829 883.346 239.222 877.182 229.706C870.839 222.171 865.497 224.588 865.497 224.588H865.508Z" fill="url(#paint39_linear_4867_74779)"/>
</g>
<path d="M849.238 203.722L876.444 201.539L867.458 204.019L882.169 211.712L865.378 219.374L849.238 203.733V203.722Z" stroke="#220E6E" stroke-width="0.416135" stroke-linejoin="round"/>
<path d="M924.98 202.748C924.687 204.995 920.638 210.166 914.857 216.291C906.85 224.78 895.524 235.101 886.313 242.021C888.281 240.315 890.08 238.418 891.419 236.246C892.341 234.752 893.038 233.141 893.421 231.445C893.612 230.587 893.691 229.739 893.747 228.86C893.792 228.128 893.533 227.429 893.814 226.719C894.039 226.147 894.444 225.659 894.849 225.182C897.571 221.971 900.293 218.76 903.014 215.549C904.735 213.525 906.445 211.501 908.165 209.477C904.814 212.031 901.361 214.437 897.83 216.747C895.389 218.358 892.904 219.916 890.407 221.452C889.777 221.834 889.079 222.141 888.371 222.258C887.719 222.364 887.055 222.342 886.403 222.109C884.727 221.505 883.04 220.933 881.308 220.467C879.733 220.043 878.136 219.693 876.539 219.407C874.132 218.983 871.714 218.718 869.262 218.58C868.194 218.517 867.092 218.549 866.091 218.898C865.967 218.941 865.855 218.994 865.742 219.047C876.46 213.737 888.596 208.799 903.093 204.338C904.769 203.829 906.467 203.32 908.21 202.812C910.797 202.07 913.564 202.017 916.151 202.748H916.196C917.624 202.621 919.041 202.547 920.447 202.525C921.977 202.504 923.495 202.578 924.991 202.748H924.98Z" stroke="#220E6E" stroke-width="0.416135" stroke-linejoin="round"/>
<path d="M915.834 209.094C913.134 211.574 910.514 213.884 907.961 216.046C903.046 220.2 898.356 223.803 893.745 226.961L892.732 226.58L908.163 209.486C908.546 209.423 908.928 209.359 909.299 209.306C911.492 208.999 913.663 208.957 915.822 209.094H915.834Z" stroke="#220E6E" stroke-width="0.416135" stroke-linejoin="round"/>
</g>
<defs>
<linearGradient id="paint0_linear_4867_74779" x1="-95.3503" y1="40.2255" x2="1210.58" y2="625.669" gradientUnits="userSpaceOnUse">
<stop stop-color="#E6007A"/>
<stop offset="0.04" stop-color="#DB0580"/>
<stop offset="0.1" stop-color="#BE1392"/>
<stop offset="0.19" stop-color="#8F2AAE"/>
<stop offset="0.24" stop-color="#703AC2"/>
<stop offset="0.5" stop-color="#0070EB"/>
<stop offset="0.79" stop-color="#0297FB"/>
<stop offset="1" stop-color="#0AE2FF"/>
</linearGradient>
<linearGradient id="paint1_linear_4867_74779" x1="556.996" y1="203.428" x2="556.996" y2="623.141" gradientUnits="userSpaceOnUse">
<stop stop-color="#081029" stop-opacity="0"/>
<stop offset="0.63" stop-color="#081029" stop-opacity="0.72"/>
<stop offset="1" stop-color="#081029"/>
</linearGradient>
<radialGradient id="paint2_radial_4867_74779" cx="0" cy="0" r="1" gradientUnits="userSpaceOnUse" gradientTransform="translate(799.816 159.096) rotate(86.4034) scale(19.1758 19.5078)">
<stop stop-color="#22E0FF"/>
<stop offset="0.03" stop-color="#1CB8D2"/>
<stop offset="0.07" stop-color="#158DA1"/>
<stop offset="0.11" stop-color="#0F6776"/>
<stop offset="0.15" stop-color="#0A4751"/>
<stop offset="0.2" stop-color="#062D33"/>
<stop offset="0.24" stop-color="#03191C"/>
<stop offset="0.29" stop-color="#010B0C"/>
<stop offset="0.35" stop-color="#000203"/>
<stop offset="0.42"/>
</radialGradient>
<radialGradient id="paint3_radial_4867_74779" cx="0" cy="0" r="1" gradientUnits="userSpaceOnUse" gradientTransform="translate(1247.91 229.501) rotate(86.4034) scale(45.9105 46.6946)">
<stop stop-color="#22E0FF"/>
<stop offset="0.03" stop-color="#1CB8D2"/>
<stop offset="0.07" stop-color="#158DA1"/>
<stop offset="0.11" stop-color="#0F6776"/>
<stop offset="0.15" stop-color="#0A4751"/>
<stop offset="0.2" stop-color="#062D33"/>
<stop offset="0.24" stop-color="#03191C"/>
<stop offset="0.29" stop-color="#010B0C"/>
<stop offset="0.35" stop-color="#000203"/>
<stop offset="0.42"/>
</radialGradient>
<radialGradient id="paint4_radial_4867_74779" cx="0" cy="0" r="1" gradientUnits="userSpaceOnUse" gradientTransform="translate(686.913 158.501) rotate(86.4034) scale(45.9105 46.6946)">
<stop stop-color="#22E0FF"/>
<stop offset="0.03" stop-color="#1CB8D2"/>
<stop offset="0.07" stop-color="#158DA1"/>
<stop offset="0.11" stop-color="#0F6776"/>
<stop offset="0.15" stop-color="#0A4751"/>
<stop offset="0.2" stop-color="#062D33"/>
<stop offset="0.24" stop-color="#03191C"/>
<stop offset="0.29" stop-color="#010B0C"/>
<stop offset="0.35" stop-color="#000203"/>
<stop offset="0.42"/>
</radialGradient>
<radialGradient id="paint5_radial_4867_74779" cx="0" cy="0" r="1" gradientUnits="userSpaceOnUse" gradientTransform="translate(487.822 72.5329) rotate(86.4034) scale(17.0576 17.3474)">
<stop stop-color="#22E0FF"/>
<stop offset="0.03" stop-color="#1CB8D2"/>
<stop offset="0.07" stop-color="#158DA1"/>
<stop offset="0.11" stop-color="#0F6776"/>
<stop offset="0.15" stop-color="#0A4751"/>
<stop offset="0.2" stop-color="#062D33"/>
<stop offset="0.24" stop-color="#03191C"/>
<stop offset="0.29" stop-color="#010B0C"/>
<stop offset="0.35" stop-color="#000203"/>
<stop offset="0.42"/>
</radialGradient>
<radialGradient id="paint6_radial_4867_74779" cx="0" cy="0" r="1" gradientUnits="userSpaceOnUse" gradientTransform="translate(401.476 254.717) rotate(86.4034) scale(17.0067 17.2956)">
<stop stop-color="#22E0FF"/>
<stop offset="0.03" stop-color="#1CB8D2"/>
<stop offset="0.07" stop-color="#158DA1"/>
<stop offset="0.11" stop-color="#0F6776"/>
<stop offset="0.15" stop-color="#0A4751"/>
<stop offset="0.2" stop-color="#062D33"/>
<stop offset="0.24" stop-color="#03191C"/>
<stop offset="0.29" stop-color="#010B0C"/>
<stop offset="0.35" stop-color="#000203"/>
<stop offset="0.42"/>
</radialGradient>
<radialGradient id="paint7_radial_4867_74779" cx="0" cy="0" r="1" gradientUnits="userSpaceOnUse" gradientTransform="translate(494.55 161.57) rotate(86.4034) scale(17.0576 17.3474)">
<stop stop-color="#22E0FF"/>
<stop offset="0.03" stop-color="#1CB8D2"/>
<stop offset="0.07" stop-color="#158DA1"/>
<stop offset="0.11" stop-color="#0F6776"/>
<stop offset="0.15" stop-color="#0A4751"/>
<stop offset="0.2" stop-color="#062D33"/>
<stop offset="0.24" stop-color="#03191C"/>
<stop offset="0.29" stop-color="#010B0C"/>
<stop offset="0.35" stop-color="#000203"/>
<stop offset="0.42"/>
</radialGradient>
<radialGradient id="paint8_radial_4867_74779" cx="0" cy="0" r="1" gradientUnits="userSpaceOnUse" gradientTransform="translate(1155.64 120.641) rotate(86.4034) scale(17.0576 17.3474)">
<stop stop-color="#22E0FF"/>
<stop offset="0.03" stop-color="#1CB8D2"/>
<stop offset="0.07" stop-color="#158DA1"/>
<stop offset="0.11" stop-color="#0F6776"/>
<stop offset="0.15" stop-color="#0A4751"/>
<stop offset="0.2" stop-color="#062D33"/>
<stop offset="0.24" stop-color="#03191C"/>
<stop offset="0.29" stop-color="#010B0C"/>
<stop offset="0.35" stop-color="#000203"/>
<stop offset="0.42"/>
</radialGradient>
<radialGradient id="paint9_radial_4867_74779" cx="0" cy="0" r="1" gradientUnits="userSpaceOnUse" gradientTransform="translate(1219.51 303.668) rotate(86.4034) scale(17.0576 17.3474)">
<stop stop-color="#22E0FF"/>
<stop offset="0.03" stop-color="#1CB8D2"/>
<stop offset="0.07" stop-color="#158DA1"/>
<stop offset="0.11" stop-color="#0F6776"/>
<stop offset="0.15" stop-color="#0A4751"/>
<stop offset="0.2" stop-color="#062D33"/>
<stop offset="0.24" stop-color="#03191C"/>
<stop offset="0.29" stop-color="#010B0C"/>
<stop offset="0.35" stop-color="#000203"/>
<stop offset="0.42"/>
</radialGradient>
<radialGradient id="paint10_radial_4867_74779" cx="0" cy="0" r="1" gradientUnits="userSpaceOnUse" gradientTransform="translate(775.339 100.774) rotate(86.4034) scale(17.0576 17.3474)">
<stop stop-color="#22E0FF"/>
<stop offset="0.03" stop-color="#1CB8D2"/>
<stop offset="0.07" stop-color="#158DA1"/>
<stop offset="0.11" stop-color="#0F6776"/>
<stop offset="0.15" stop-color="#0A4751"/>
<stop offset="0.2" stop-color="#062D33"/>
<stop offset="0.24" stop-color="#03191C"/>
<stop offset="0.29" stop-color="#010B0C"/>
<stop offset="0.35" stop-color="#000203"/>
<stop offset="0.42"/>
</radialGradient>
<radialGradient id="paint11_radial_4867_74779" cx="0" cy="0" r="1" gradientUnits="userSpaceOnUse" gradientTransform="translate(822.804 64.5657) rotate(86.4034) scale(17.0576 17.3474)">
<stop stop-color="#22E0FF"/>
<stop offset="0.03" stop-color="#1CB8D2"/>
<stop offset="0.07" stop-color="#158DA1"/>
<stop offset="0.11" stop-color="#0F6776"/>
<stop offset="0.15" stop-color="#0A4751"/>
<stop offset="0.2" stop-color="#062D33"/>
<stop offset="0.24" stop-color="#03191C"/>
<stop offset="0.29" stop-color="#010B0C"/>
<stop offset="0.35" stop-color="#000203"/>
<stop offset="0.42"/>
</radialGradient>
<radialGradient id="paint12_radial_4867_74779" cx="0" cy="0" r="1" gradientUnits="userSpaceOnUse" gradientTransform="translate(757.655 291.651) rotate(86.4034) scale(17.0576 17.3474)">
<stop stop-color="#22E0FF"/>
<stop offset="0.03" stop-color="#1CB8D2"/>
<stop offset="0.07" stop-color="#158DA1"/>
<stop offset="0.11" stop-color="#0F6776"/>
<stop offset="0.15" stop-color="#0A4751"/>
<stop offset="0.2" stop-color="#062D33"/>
<stop offset="0.24" stop-color="#03191C"/>
<stop offset="0.29" stop-color="#010B0C"/>
<stop offset="0.35" stop-color="#000203"/>
<stop offset="0.42"/>
</radialGradient>
<radialGradient id="paint13_radial_4867_74779" cx="0" cy="0" r="1" gradientUnits="userSpaceOnUse" gradientTransform="translate(1187.85 71.7854) rotate(86.4034) scale(17.0576 17.3474)">
<stop stop-color="#22E0FF"/>
<stop offset="0.03" stop-color="#1CB8D2"/>
<stop offset="0.07" stop-color="#158DA1"/>
<stop offset="0.11" stop-color="#0F6776"/>
<stop offset="0.15" stop-color="#0A4751"/>
<stop offset="0.2" stop-color="#062D33"/>
<stop offset="0.24" stop-color="#03191C"/>
<stop offset="0.29" stop-color="#010B0C"/>
<stop offset="0.35" stop-color="#000203"/>
<stop offset="0.42"/>
</radialGradient>
<radialGradient id="paint14_radial_4867_74779" cx="0" cy="0" r="1" gradientUnits="userSpaceOnUse" gradientTransform="translate(429.303 61.317) rotate(86.4034) scale(9.32035 9.47581)">
<stop stop-color="white"/>
<stop offset="0.03" stop-color="#D2D2D2"/>
<stop offset="0.07" stop-color="#A1A1A1"/>
<stop offset="0.11" stop-color="#767676"/>
<stop offset="0.15" stop-color="#515151"/>
<stop offset="0.2" stop-color="#333333"/>
<stop offset="0.24" stop-color="#1C1C1C"/>
<stop offset="0.29" stop-color="#0C0C0C"/>
<stop offset="0.35" stop-color="#030303"/>
<stop offset="0.42"/>
</radialGradient>
<radialGradient id="paint15_radial_4867_74779" cx="0" cy="0" r="1" gradientUnits="userSpaceOnUse" gradientTransform="translate(549.691 228.34) rotate(86.2507) scale(9.5039 10.0874)">
<stop stop-color="white"/>
<stop offset="0.03" stop-color="#D2D2D2"/>
<stop offset="0.07" stop-color="#A1A1A1"/>
<stop offset="0.11" stop-color="#767676"/>
<stop offset="0.15" stop-color="#515151"/>
<stop offset="0.2" stop-color="#333333"/>
<stop offset="0.24" stop-color="#1C1C1C"/>
<stop offset="0.29" stop-color="#0C0C0C"/>
<stop offset="0.35" stop-color="#030303"/>
<stop offset="0.42"/>
</radialGradient>
<radialGradient id="paint16_radial_4867_74779" cx="0" cy="0" r="1" gradientUnits="userSpaceOnUse" gradientTransform="translate(663.513 250.456) rotate(86.4034) scale(22.5421 22.9257)">
<stop stop-color="white"/>
<stop offset="0.03" stop-color="#D2D2D2"/>
<stop offset="0.07" stop-color="#A1A1A1"/>
<stop offset="0.11" stop-color="#767676"/>
<stop offset="0.15" stop-color="#515151"/>
<stop offset="0.2" stop-color="#333333"/>
<stop offset="0.24" stop-color="#1C1C1C"/>
<stop offset="0.29" stop-color="#0C0C0C"/>
<stop offset="0.35" stop-color="#030303"/>
<stop offset="0.42"/>
</radialGradient>
<radialGradient id="paint17_radial_4867_74779" cx="0" cy="0" r="1" gradientUnits="userSpaceOnUse" gradientTransform="translate(1219.37 154.267) rotate(86.3822) scale(14.4712 14.804)">
<stop stop-color="white"/>
<stop offset="0.03" stop-color="#D2D2D2"/>
<stop offset="0.07" stop-color="#A1A1A1"/>
<stop offset="0.11" stop-color="#767676"/>
<stop offset="0.15" stop-color="#515151"/>
<stop offset="0.2" stop-color="#333333"/>
<stop offset="0.24" stop-color="#1C1C1C"/>
<stop offset="0.29" stop-color="#0C0C0C"/>
<stop offset="0.35" stop-color="#030303"/>
<stop offset="0.42"/>
</radialGradient>
<radialGradient id="paint18_radial_4867_74779" cx="0" cy="0" r="1" gradientUnits="userSpaceOnUse" gradientTransform="translate(1281.97 393.657) rotate(86.4034) scale(17.0576 17.3474)">
<stop stop-color="#22E0FF"/>
<stop offset="0.03" stop-color="#1CB8D2"/>
<stop offset="0.07" stop-color="#158DA1"/>
<stop offset="0.11" stop-color="#0F6776"/>
<stop offset="0.15" stop-color="#0A4751"/>
<stop offset="0.2" stop-color="#062D33"/>
<stop offset="0.24" stop-color="#03191C"/>
<stop offset="0.29" stop-color="#010B0C"/>
<stop offset="0.35" stop-color="#000203"/>
<stop offset="0.42"/>
</radialGradient>
<radialGradient id="paint19_radial_4867_74779" cx="0" cy="0" r="1" gradientUnits="userSpaceOnUse" gradientTransform="translate(960.072 74.3273) rotate(-32.3109) scale(349.761 341.456)">
<stop stop-color="#FC49EF"/>
<stop offset="0.09" stop-color="#F446E9" stop-opacity="0.96"/>
<stop offset="0.23" stop-color="#DE3FDA" stop-opacity="0.86"/>
<stop offset="0.42" stop-color="#BC34C2" stop-opacity="0.68"/>
<stop offset="0.64" stop-color="#8C25A0" stop-opacity="0.45"/>
<stop offset="0.89" stop-color="#4F1276" stop-opacity="0.15"/>
<stop offset="1" stop-color="#320962" stop-opacity="0"/>
</radialGradient>
<linearGradient id="paint20_linear_4867_74779" x1="974.228" y1="284.216" x2="933.46" y2="204.294" gradientUnits="userSpaceOnUse">
<stop stop-color="#3F195B"/>
<stop offset="1" stop-color="#742586"/>
</linearGradient>
<linearGradient id="paint21_linear_4867_74779" x1="1100.1" y1="317.84" x2="1042.96" y2="189.089" gradientUnits="userSpaceOnUse">
<stop stop-color="#3F195B"/>
<stop offset="1" stop-color="#742586"/>
</linearGradient>
<linearGradient id="paint22_linear_4867_74779" x1="973.346" y1="216.318" x2="970.109" y2="197.789" gradientUnits="userSpaceOnUse">
<stop stop-color="#8D2C9A"/>
<stop offset="1" stop-color="#A431AC"/>
</linearGradient>
<linearGradient id="paint23_linear_4867_74779" x1="1077.81" y1="161.415" x2="1071.77" y2="145.712" gradientUnits="userSpaceOnUse">
<stop stop-color="#8D2C9A"/>
<stop offset="1" stop-color="#A431AC"/>
</linearGradient>
<linearGradient id="paint24_linear_4867_74779" x1="1143.23" y1="206.644" x2="1128.05" y2="166.691" gradientUnits="userSpaceOnUse">
<stop stop-color="#3F195B"/>
<stop offset="1" stop-color="#742586"/>
</linearGradient>
<linearGradient id="paint25_linear_4867_74779" x1="911.489" y1="385.049" x2="901.876" y2="260.777" gradientUnits="userSpaceOnUse">
<stop stop-color="#3F195B"/>
<stop offset="1" stop-color="#742586"/>
</linearGradient>
<linearGradient id="paint26_linear_4867_74779" x1="965.248" y1="195.995" x2="946.903" y2="144.994" gradientUnits="userSpaceOnUse">
<stop stop-color="#8D2C9A"/>
<stop offset="1" stop-color="#A431AC"/>
</linearGradient>
<linearGradient id="paint27_linear_4867_74779" x1="950.977" y1="168.208" x2="938.886" y2="93.9238" gradientUnits="userSpaceOnUse">
<stop stop-color="#8B2B98"/>
<stop offset="1" stop-color="#BE3AC0"/>
</linearGradient>
<radialGradient id="paint28_radial_4867_74779" cx="0" cy="0" r="1" gradientUnits="userSpaceOnUse" gradientTransform="translate(922.902 119.691) rotate(-27.4325) scale(191.677 81.6008)">
<stop stop-color="white"/>
<stop offset="0.12" stop-color="#FEE3FC" stop-opacity="0.85"/>
<stop offset="0.36" stop-color="#FDADF7" stop-opacity="0.55"/>
<stop offset="0.58" stop-color="#FC82F4" stop-opacity="0.32"/>
<stop offset="0.77" stop-color="#FC63F1" stop-opacity="0.14"/>
<stop offset="0.91" stop-color="#FC50EF" stop-opacity="0.04"/>
<stop offset="1" stop-color="#FC49EF" stop-opacity="0"/>
</radialGradient>
<linearGradient id="paint29_linear_4867_74779" x1="758.578" y1="311.068" x2="1307.72" y2="231.209" gradientUnits="userSpaceOnUse">
<stop stop-color="#E6007A"/>
<stop offset="0.21" stop-color="#703AC2"/>
<stop offset="0.46" stop-color="#0070EB"/>
<stop offset="0.77" stop-color="#0297FB"/>
<stop offset="1" stop-color="#0AE2FF"/>
</linearGradient>
<linearGradient id="paint30_linear_4867_74779" x1="867.564" y1="200.471" x2="862.821" y2="219.657" gradientUnits="userSpaceOnUse">
<stop stop-color="#6D59FF"/>
<stop offset="0.78" stop-color="#1564AB"/>
</linearGradient>
<linearGradient id="paint31_linear_4867_74779" x1="862.113" y1="204.361" x2="852.697" y2="219.771" gradientUnits="userSpaceOnUse">
<stop stop-color="#6340AE"/>
<stop offset="0.68" stop-color="#1524AB"/>
</linearGradient>
<linearGradient id="paint32_linear_4867_74779" x1="893.713" y1="206.712" x2="899.429" y2="225.001" gradientUnits="userSpaceOnUse">
<stop stop-color="#E7E3FF"/>
<stop offset="1" stop-color="#8ED0D1"/>
</linearGradient>
<linearGradient id="paint33_linear_4867_74779" x1="887.474" y1="214.907" x2="886.494" y2="222.726" gradientUnits="userSpaceOnUse">
<stop stop-color="#6D59FF"/>
<stop offset="0.78" stop-color="#1564AB"/>
</linearGradient>
<linearGradient id="paint34_linear_4867_74779" x1="915.199" y1="203.512" x2="898.505" y2="239.769" gradientUnits="userSpaceOnUse">
<stop stop-color="#6D59FF"/>
<stop offset="0.78" stop-color="#1564AB"/>
</linearGradient>
<linearGradient id="paint35_linear_4867_74779" x1="909.587" y1="205.84" x2="904.146" y2="219.332" gradientUnits="userSpaceOnUse">
<stop stop-color="#F3D4FF"/>
<stop offset="1" stop-color="#828CD1"/>
</linearGradient>
<linearGradient id="paint36_linear_4867_74779" x1="908.603" y1="199.449" x2="912.192" y2="203.93" gradientUnits="userSpaceOnUse">
<stop stop-color="#3D4A4A"/>
<stop offset="0.3" stop-color="#3A4747"/>
<stop offset="0.51" stop-color="#333D3D"/>
<stop offset="0.69" stop-color="#262E2E"/>
<stop offset="0.86" stop-color="#141818"/>
<stop offset="1"/>
</linearGradient>
<linearGradient id="paint37_linear_4867_74779" x1="869.664" y1="241.222" x2="865.236" y2="251.186" gradientUnits="userSpaceOnUse">
<stop stop-color="#6340AE"/>
<stop offset="0.68" stop-color="#1524AB"/>
</linearGradient>
<linearGradient id="paint38_linear_4867_74779" x1="889.1" y1="207.63" x2="875.346" y2="243.931" gradientUnits="userSpaceOnUse">
<stop stop-color="#6340AE"/>
<stop offset="0.68" stop-color="#1524AB"/>
</linearGradient>
<linearGradient id="paint39_linear_4867_74779" x1="857.905" y1="198.635" x2="-364.513" y2="735.896" gradientUnits="userSpaceOnUse">
<stop stop-color="#30BF9B"/>
<stop offset="0.09" stop-color="#30BF9B" stop-opacity="0.83"/>
<stop offset="0.31" stop-color="#30BF9B" stop-opacity="0.48"/>
<stop offset="0.48" stop-color="#30BF9B" stop-opacity="0.22"/>
<stop offset="0.62" stop-color="#30BF9B" stop-opacity="0.06"/>
<stop offset="0.69" stop-color="#30BF9B" stop-opacity="0"/>
</linearGradient>
</defs>
</svg>
