<svg width="143" height="41" viewBox="0 0 143 41" fill="none" xmlns="http://www.w3.org/2000/svg">
<path d="M39.9531 19.0769C39.2035 8.05716 29.6626 -0.268597 18.6428 0.480974C13.1532 0.854362 8.33311 3.41033 4.96951 7.24307L4.96953 7.24305L4.96014 7.23628C4.93748 7.26764 4.91631 7.29858 4.89381 7.32992C1.55267 11.1814 -0.326473 16.3025 0.0468704 21.7913C0.0824469 22.3143 0.144012 22.829 0.218406 23.3392C0.218428 23.3393 0.218428 23.3395 0.21845 23.3396C0.221802 23.3626 0.22522 23.3856 0.22846 23.4087C0.278751 23.7453 0.337142 24.0788 0.403768 24.4094C0.403812 24.4096 0.403834 24.4098 0.403879 24.4099C0.4051 24.4159 0.406254 24.422 0.40743 24.428C0.468085 24.7273 0.535465 25.0239 0.609193 25.3179L0.609326 25.3185C0.609392 25.3187 0.609459 25.319 0.609504 25.3192C2.91927 34.5305 11.5496 41.0543 21.3572 40.3872C32.377 39.6376 40.7027 30.0966 39.9531 19.0769V19.0769ZM35.5997 19.373C35.692 20.7297 35.6066 22.0581 35.365 23.336C35.3621 23.3287 35.3597 23.3211 35.3567 23.3138V23.3137C33.9068 19.7696 31.0387 17.2109 28.5165 15.7974C29.0269 9.79207 26.9896 7.26207 24.6838 6.85042C24.6211 6.83835 24.558 6.82805 24.4939 6.82011C22.6638 6.58538 20.9903 7.87895 20.7559 9.70891C20.5211 11.539 21.8147 13.2126 23.6446 13.4474C23.8043 13.4676 23.9622 13.4732 24.1186 13.4707C24.1287 13.6734 24.1351 13.8888 24.1369 14.114C22.0047 13.5856 20.0118 13.4822 18.1947 13.6456C17.5151 13.6909 16.8352 13.7765 16.1589 13.9029C16.3857 11.875 17.1465 9.59841 18.6228 7.93232C20.0499 6.32177 22.1716 5.39864 24.4861 5.63554C24.9249 5.68044 25.3931 5.78816 25.8146 5.92972C25.8339 5.93622 25.8545 5.94172 25.8737 5.94838C25.8739 5.948 25.8743 5.94749 25.8746 5.94711C31.2356 8.13107 35.1811 13.219 35.5997 19.373ZM21.6599 22.4278C21.6585 22.43 21.6569 22.4321 21.6555 22.4343C21.1783 23.1226 20.6107 23.8012 19.9445 24.4576C18.9457 23.395 18.1434 22.2506 17.5347 21.0668C17.5035 21.0033 17.4702 20.943 17.4397 20.8785C17.4386 20.8762 17.4375 20.8738 17.4363 20.8714C17.0787 20.1137 16.7747 19.2825 16.5393 18.377C17.9605 18.0426 19.3542 17.9196 20.6852 17.9844C20.7557 17.9891 20.8247 17.9905 20.8957 17.9963C20.8983 17.9965 20.901 17.9968 20.9036 17.9969C21.7372 18.066 22.6077 18.218 23.5081 18.4662C23.0871 19.8636 22.4969 21.1316 21.7755 22.2515C21.7362 22.3102 21.7005 22.3692 21.6599 22.4278H21.6599ZM14.8259 5.68199C14.8222 5.6868 14.818 5.69135 14.8142 5.69617L14.8142 5.69619C12.4711 8.7224 11.6888 12.4833 11.725 15.3738C6.26929 17.9344 5.09697 20.9636 5.89339 23.1663C5.91425 23.2266 5.93691 23.2864 5.96206 23.3459C6.67383 25.0482 8.63088 25.8507 10.3329 25.1388C12.0351 24.427 12.8377 22.4699 12.1261 20.7678C12.0638 20.6194 11.9897 20.4798 11.9094 20.3456C12.0818 20.2342 12.2669 20.1198 12.4636 20.0043C13.072 22.1153 13.9722 23.9009 15.0224 25.393C15.4006 25.9578 15.8139 26.5027 16.2604 27.0243C14.3907 27.8421 12.0382 28.3218 9.85668 27.8763C7.74832 27.4457 5.88804 26.0698 4.93593 23.9469C4.75545 23.5445 4.61472 23.0853 4.52652 22.6495C4.47226 22.2687 4.42678 21.885 4.40029 21.4952C3.91296 14.331 8.3577 7.95305 14.8259 5.68199V5.68199ZM21.0611 36.0338C16.8068 36.3232 12.83 34.8721 9.82444 32.2927C13.6168 32.8088 17.265 31.6058 19.7502 30.1292C24.6976 33.5765 27.9085 33.0774 29.4182 31.2859C29.46 31.2377 29.5005 31.1882 29.5394 31.1367C30.6577 29.6691 30.3742 27.573 28.9066 26.455C27.4391 25.3367 25.3429 25.6202 24.2246 27.0875C24.1273 27.2157 24.0435 27.3496 23.9674 27.4863C23.786 27.3933 23.5955 27.2907 23.3986 27.1791C24.9238 25.5959 26.0107 23.9204 26.7783 22.264C27.0789 21.6528 27.3447 21.0211 27.5734 20.3723C29.2175 21.5826 30.8106 23.3809 31.5159 25.494C32.1971 27.5352 31.9357 29.8342 30.5733 31.7202C30.3151 32.0777 29.9877 32.4293 29.6543 32.7236C29.6495 32.7278 29.6447 32.7323 29.6399 32.7367C27.2564 34.6101 24.3072 35.813 21.0611 36.0338Z" fill="url(#paint0_linear_5018_2493)"/>
<path style="mix-blend-mode:overlay" opacity="0.9" d="M24.684 6.85035C24.6214 6.83828 24.5582 6.82798 24.4941 6.82003C24.1703 6.77851 23.852 6.78708 23.5451 6.83575C25.4584 7.87659 26.8533 10.7766 26.1199 16.4972C25.877 18.3918 25.3136 20.1949 24.5 21.8493C23.8408 23.2719 22.9439 24.708 21.7383 26.0882C22.3173 26.5224 22.8819 26.8859 23.3988 27.179C24.9241 25.5958 26.011 23.9204 26.7785 22.2639C27.5921 20.6095 28.1555 18.8065 28.3984 16.9118C29.2716 10.1005 27.1279 7.28663 24.684 6.85035Z" fill="url(#paint1_radial_5018_2493)"/>
<g style="mix-blend-mode:overlay" opacity="0.8">
<path d="M26.1204 16.4971C26.8537 10.7766 25.4588 7.87654 23.5456 6.83569C23.4708 6.84754 23.3975 6.86346 23.3244 6.88026C25.1975 7.95701 26.5452 10.8543 25.8218 16.4971C25.5789 18.3918 25.0155 20.1948 24.202 21.8492C23.5646 23.2247 22.7025 24.6125 21.5566 25.9505C21.6176 25.9976 21.6781 26.0426 21.7388 26.0881C22.9444 24.708 23.8413 23.2718 24.5005 21.8492C25.3141 20.1948 25.8775 18.3918 26.1204 16.4971Z" fill="#E6E9EE"/>
</g>
<path style="mix-blend-mode:overlay" opacity="0.5" d="M18.8481 29.4719C18.6683 29.3349 18.4953 29.1915 18.3223 29.0481C15.4988 30.2261 11.5847 30.9647 7.69824 30.0628C8.33467 30.874 9.04491 31.6231 9.82507 32.2926C13.6174 32.8088 17.2656 31.6057 19.7508 30.1292C19.4558 29.9236 19.1555 29.7061 18.8481 29.4719Z" fill="url(#paint2_radial_5018_2493)"/>
<path style="mix-blend-mode:overlay" opacity="0.6" d="M18.322 29.0481C18.2355 28.9765 18.1484 28.9055 18.0637 28.8323C15.2188 29.9692 11.2869 30.6488 7.40918 29.6823C7.50366 29.8106 7.59974 29.9376 7.69797 30.0628C11.5844 30.9648 15.4985 30.2262 18.322 29.0481Z" fill="url(#paint3_linear_5018_2493)"/>
<path style="mix-blend-mode:overlay" opacity="0.9" d="M5.89438 23.1696C5.91526 23.2299 5.93791 23.2897 5.96306 23.3492C6.08902 23.6504 6.2556 23.9218 6.45121 24.1633C6.39596 21.9859 8.21004 19.3279 13.5309 17.1027C15.2931 16.3657 17.1363 15.9521 18.9758 15.8295C20.5374 15.6891 22.2296 15.7477 24.0277 16.1018C24.1142 15.3833 24.1468 14.7126 24.1421 14.1183C22.0084 13.589 20.014 13.4854 18.1957 13.6489C16.3561 13.7716 14.513 14.1852 12.7507 14.9221C6.41535 17.5716 5.05029 20.835 5.89438 23.1696V23.1696Z" fill="url(#paint4_radial_5018_2493)"/>
<g style="mix-blend-mode:overlay" opacity="0.8">
<path d="M13.5311 17.1027C8.21025 19.3279 6.39617 21.986 6.45141 24.1633C6.49903 24.2221 6.54946 24.2776 6.6006 24.3326C6.59655 22.1721 8.43184 19.5563 13.6803 17.3613C15.4426 16.6244 17.2858 16.2108 19.1253 16.0881C20.6352 15.9523 22.2681 16.005 23.9998 16.3284C24.0101 16.252 24.0188 16.1771 24.0279 16.1019C22.2299 15.7478 20.5376 15.6891 18.9761 15.8295C17.1365 15.9522 15.2933 16.3658 13.5311 17.1027Z" fill="#E6E9EE"/>
</g>
<path style="mix-blend-mode:overlay" opacity="0.4" d="M28.4029 16.9133C28.3742 17.1376 28.3365 17.3591 28.2988 17.5807C30.7308 19.4368 33.3275 22.4572 34.4896 26.274C34.8739 25.3172 35.1675 24.3276 35.3573 23.3172C33.9081 19.7748 31.0421 17.2169 28.5208 15.803C28.4903 16.1613 28.452 16.53 28.4029 16.9133Z" fill="url(#paint5_radial_5018_2493)"/>
<path style="mix-blend-mode:overlay" opacity="0.5" d="M28.299 17.5806C28.2802 17.6913 28.2622 17.8022 28.2412 17.9122C30.6482 19.8075 33.2027 22.8728 34.3046 26.7142C34.3685 26.5682 34.4304 26.4216 34.4898 26.2739C33.3276 22.4571 30.7309 19.4367 28.299 17.5806Z" fill="url(#paint6_linear_5018_2493)"/>
<path style="mix-blend-mode:overlay" opacity="0.9" d="M29.4205 31.2813C29.4623 31.2331 29.5028 31.1836 29.5417 31.132C29.7396 30.8724 29.8913 30.5924 30.0027 30.3023C28.1446 31.4388 24.9356 31.1968 20.3482 27.7014C18.8288 26.5437 17.549 25.1543 16.523 23.6225C15.6207 22.3403 14.8254 20.8455 14.233 19.1113C13.5674 19.3956 12.9703 19.7028 12.458 20.004C13.0665 22.1165 13.974 23.8955 15.0247 25.3884C16.0507 26.9202 17.3305 28.3096 18.8499 29.4673C24.312 33.6292 27.8208 33.1796 29.4205 31.2813Z" fill="url(#paint7_radial_5018_2493)"/>
<g style="mix-blend-mode:overlay" opacity="0.8">
<path d="M20.3486 27.7014C24.9361 31.1968 28.1451 31.4388 30.0031 30.3023C30.0302 30.2317 30.0531 30.1602 30.0751 30.0885C28.2061 31.1722 25.023 30.8907 20.4979 27.4429C18.9786 26.2852 17.6988 24.8958 16.6728 23.364C15.8003 22.1243 15.0294 20.6838 14.4437 19.0225C14.3723 19.0517 14.3031 19.0816 14.2334 19.1114C14.8258 20.8455 15.6211 22.3404 16.5235 23.6226C17.5495 25.1543 18.8293 26.5437 20.3486 27.7014H20.3486Z" fill="#E6E9EE"/>
</g>
<path style="mix-blend-mode:overlay" opacity="0.3" d="M12.7483 14.9161C12.9569 14.8289 13.1676 14.7508 13.3783 14.6726C13.7698 11.6384 15.0872 7.8794 17.8115 4.9646C16.7907 5.11015 15.7869 5.3507 14.817 5.69156C12.4738 8.71779 11.6916 12.4787 11.7278 15.3692C12.0533 15.2165 12.3918 15.0652 12.7483 14.9161Z" fill="url(#paint8_radial_5018_2493)"/>
<path style="mix-blend-mode:overlay" opacity="0.4" d="M13.3779 14.6726C13.4832 14.6336 13.5882 14.5937 13.694 14.5569C14.1319 11.5247 15.5093 7.77979 18.2851 4.90479C18.1267 4.92246 17.9687 4.94217 17.8112 4.96464C15.0869 7.87944 13.7695 11.6384 13.3779 14.6726Z" fill="url(#paint9_linear_5018_2493)"/>
<path style="mix-blend-mode:multiply" opacity="0.4" d="M18.6427 0.480996C13.1531 0.854383 8.33305 3.41035 4.96946 7.24309C4.94405 7.27206 4.91879 7.30109 4.89355 7.3302L4.89375 7.32994C5.5486 7.9795 7.68875 9.26032 8.55616 9.79443C10.2593 7.96283 12.4003 6.53366 14.8259 5.68201C14.9953 5.46373 15.1709 5.24837 15.3569 5.03846C17.616 2.4892 20.7011 1.14177 24.2795 1.14177C24.6778 1.14177 25.4889 1.20517 25.5063 1.20645C23.337 0.583212 21.025 0.318951 18.6427 0.480996Z" fill="url(#paint10_linear_5018_2493)"/>
<path style="mix-blend-mode:multiply" opacity="0.4" d="M21.0609 36.0337C16.8066 36.3231 12.8298 34.872 9.82424 32.2926H9.82422L9.8242 32.2926C9.54445 32.2545 9.26407 32.2088 8.98323 32.1515C5.64594 31.4696 2.93648 29.4716 1.14731 26.3726C0.948163 26.0277 0.769969 25.6763 0.609375 25.3193C2.91921 34.5305 11.5495 41.0542 21.357 40.3871C21.4005 39.3771 21.1028 37.0337 21.0609 36.0337L21.0609 36.0337Z" fill="url(#paint11_linear_5018_2493)"/>
<path style="mix-blend-mode:multiply" opacity="0.4" d="M39.9528 19.0769C39.3384 19.0139 36.3372 19.2508 35.5994 19.373C35.6917 20.7297 35.6063 22.0581 35.3647 23.336C35.4683 23.5902 35.5665 23.8483 35.6547 24.1126C36.7329 27.3437 36.3572 30.6892 34.568 33.7882C34.3726 34.1267 34.1616 34.4509 33.9375 34.763C33.9333 34.7689 33.9284 34.7757 33.9248 34.7807C33.9246 34.7809 33.934 34.7728 33.9392 34.768C38.0014 30.816 40.3675 25.1744 39.9528 19.0769Z" fill="url(#paint12_linear_5018_2493)"/>
<path style="mix-blend-mode:multiply" opacity="0.5" d="M24.4861 5.63554C24.9248 5.68044 25.393 5.78816 25.8145 5.92972C25.8339 5.93622 25.8545 5.94172 25.8736 5.94838C25.8739 5.948 25.8743 5.94749 25.8746 5.94712C27.5998 6.64995 29.1772 7.65492 30.5389 8.89802C30.5418 8.90046 30.5447 8.90246 30.5477 8.9049C31.204 8.15462 32.4676 7.33018 32.4676 7.33018C32.4676 7.33018 30.5327 5.35095 27.5734 4.73671C25.5017 4.30671 20.8289 3.88989 17.8818 8.9049C17.8818 8.9049 17.8936 8.89385 17.9108 8.87793C18.1288 8.54842 18.3606 8.22814 18.6227 7.93232C20.0499 6.32177 22.1716 5.39864 24.4861 5.63554V5.63554Z" fill="url(#paint13_linear_5018_2493)"/>
<path style="mix-blend-mode:multiply" opacity="0.5" d="M30.5731 31.7184C30.3148 32.0759 29.9874 32.4275 29.6541 32.7218C29.6388 32.7353 29.6237 32.7503 29.6084 32.7636C29.6086 32.764 29.6088 32.7646 29.609 32.765C28.1377 33.9078 26.4787 34.7713 24.7213 35.329C24.7177 35.3304 24.7145 35.3319 24.7109 35.3332C25.0326 36.2767 25.1147 37.7832 25.1147 37.7832C25.1147 37.7832 27.7963 37.0972 29.8078 34.8415C31.2161 33.2623 33.9135 29.424 31.0439 24.3643C31.0439 24.3643 31.0476 24.38 31.0527 24.4028C31.2291 24.7564 31.3906 25.1173 31.5157 25.4922C32.1969 27.5334 31.9355 29.8324 30.5731 31.7184Z" fill="url(#paint14_linear_5018_2493)"/>
<path style="mix-blend-mode:multiply" opacity="0.5" d="M4.94318 23.9529C4.76268 23.5504 4.62187 23.0911 4.53372 22.6553C4.52966 22.6353 4.52414 22.6147 4.52033 22.5948C4.51987 22.5948 4.51923 22.5947 4.51877 22.5946C4.2648 20.7491 4.34646 18.8806 4.74217 17.0797C4.7428 17.076 4.74308 17.0725 4.74372 17.0687C3.76582 16.8755 2.42003 16.1934 2.42003 16.1934C2.42003 16.1934 1.67342 18.8587 2.62112 21.7286C3.28458 23.7377 5.25999 27.9929 11.0766 28.0376C11.0766 28.0376 11.0612 28.033 11.0388 28.026C10.6444 28.002 10.2512 27.9614 9.86393 27.8823C7.75557 27.4516 5.89528 26.0758 4.94318 23.9529H4.94318Z" fill="url(#paint15_linear_5018_2493)"/>
<path style="mix-blend-mode:multiply" opacity="0.6" d="M23.6448 13.4473C23.8044 13.4675 23.9624 13.4731 24.1187 13.4706C24.1187 13.4706 24.0143 11.3926 23.7591 10.3264C23.5039 9.26018 23.1276 8.55414 22.7142 8.15452C22.418 7.86824 21.4831 7.5117 20.756 9.70881C20.5213 11.5389 21.8149 13.2125 23.6448 13.4473Z" fill="url(#paint16_linear_5018_2493)"/>
<path style="mix-blend-mode:multiply" opacity="0.5" d="M12.1274 20.771C12.0651 20.6226 11.991 20.4831 11.9107 20.3489C11.9107 20.3489 10.1633 21.4784 9.3675 22.2325C8.57173 22.9865 8.14846 23.6655 8.00908 24.2233C7.90923 24.6229 8.06793 25.6109 10.3342 25.142C12.0364 24.4302 12.839 22.4731 12.1274 20.771Z" fill="url(#paint17_linear_5018_2493)"/>
<path style="mix-blend-mode:multiply" opacity="0.6" d="M24.2279 27.082C24.1306 27.2102 24.0468 27.3441 23.9707 27.4808C23.9707 27.4808 25.8226 28.4293 26.8735 28.7415C27.9244 29.0536 28.7241 29.0807 29.2769 28.9225C29.6729 28.8091 30.4491 28.1777 28.9099 26.4495C27.4424 25.3312 25.3462 25.6147 24.2279 27.082Z" fill="url(#paint18_linear_5018_2493)"/>
<path style="mix-blend-mode:multiply" opacity="0.3" d="M23.5079 18.4663C23.087 19.8637 22.4967 21.1317 21.7754 22.2516C21.7361 22.3103 21.7004 22.3693 21.6598 22.4279C21.6584 22.4301 21.6568 22.4322 21.6554 22.4344C21.1782 23.1227 20.6106 23.8013 19.9443 24.4577C20.4022 24.9449 20.8973 25.4165 21.441 25.8639C22.1239 26.4028 22.7932 26.836 23.3985 27.1792C24.9237 25.596 26.0106 23.9206 26.7782 22.2641C27.0788 21.6529 27.3446 21.0212 27.5733 20.3724C26.8697 19.8544 26.1569 19.4422 25.5001 19.1621C24.8208 18.8726 24.1568 18.6452 23.5079 18.4663Z" fill="url(#paint19_linear_5018_2493)"/>
<path style="mix-blend-mode:multiply" opacity="0.3" d="M9.82428 32.2929C13.6167 32.809 17.2648 31.606 19.75 30.1294C19.455 29.9238 19.1547 29.7063 18.8473 29.4721C17.8881 28.7412 17.025 27.9176 16.2603 27.0244C14.3905 27.8423 12.038 28.322 9.85653 27.8765C7.74817 27.4458 5.88789 26.07 4.93578 23.9471C4.7553 23.5447 4.61457 23.0854 4.52637 22.6497C5.07735 26.5159 7.02829 29.8933 9.82428 32.2929Z" fill="url(#paint20_linear_5018_2493)"/>
<path style="mix-blend-mode:multiply" opacity="0.3" d="M19.9448 24.4578C18.946 23.3952 18.1437 22.2508 17.535 21.067C17.5038 21.0036 17.4705 20.9432 17.44 20.8787C17.4389 20.8764 17.4378 20.874 17.4366 20.8716C17.079 20.1139 16.775 19.2827 16.5396 18.3772C15.8902 18.53 15.2357 18.7226 14.5779 18.9692C13.7715 19.2905 13.0629 19.6527 12.4639 20.0045C13.0723 22.1156 13.9725 23.9011 15.0227 25.3933C15.4009 25.958 15.8142 26.5029 16.2608 27.0245C17.0624 26.6738 17.7769 26.2621 18.3485 25.8327C18.9379 25.39 19.466 24.9295 19.9448 24.4578Z" fill="url(#paint21_linear_5018_2493)"/>
<path style="mix-blend-mode:multiply" opacity="0.3" d="M14.8141 5.6963C12.4709 8.7225 11.6886 12.4834 11.7248 15.3739C12.0516 15.2206 12.3915 15.0686 12.7496 14.9189C13.8609 14.4542 15.0043 14.1187 16.1588 13.903C16.3856 11.8751 17.1464 9.59851 18.6226 7.93243C20.0498 6.32187 22.1715 5.39874 24.486 5.63564C24.9248 5.68054 25.393 5.78827 25.8144 5.92982C25.8338 5.93632 25.8544 5.94182 25.8735 5.94848C25.8738 5.94811 25.8742 5.9476 25.8745 5.94722C23.7421 5.07855 21.3865 4.66799 18.9388 4.83449C17.5012 4.93228 16.1237 5.22639 14.8258 5.68209C14.8221 5.68691 14.8178 5.69146 14.8141 5.69627L14.8141 5.6963Z" fill="url(#paint22_linear_5018_2493)"/>
<path style="mix-blend-mode:multiply" opacity="0.3" d="M35.3566 23.314C33.9066 19.7698 31.0386 17.2111 28.5163 15.7976C28.4857 16.1571 28.4473 16.5274 28.398 16.9121C28.2448 18.1068 27.9637 19.2649 27.5732 20.3725C29.2173 21.5828 30.8104 23.3811 31.5157 25.4942C32.197 27.5354 31.9356 29.8344 30.5732 31.7204C30.3149 32.0779 29.9875 32.4296 29.6542 32.7238C29.6493 32.7281 29.6446 32.7325 29.6398 32.737C32.576 30.4292 34.6528 27.1031 35.3649 23.3362C35.3619 23.329 35.3595 23.3213 35.3566 23.314V23.314Z" fill="url(#paint23_linear_5018_2493)"/>
<path style="mix-blend-mode:multiply" opacity="0.3" d="M16.1469 16.3082C16.2356 17.0396 16.3702 17.727 16.5392 18.3771C17.9604 18.0427 19.3541 17.9198 20.6851 17.9846C20.7556 17.9893 20.8245 17.9906 20.8956 17.9965C20.8982 17.9967 20.9008 17.9969 20.9034 17.9971C21.7371 18.0661 22.6075 18.2181 23.5079 18.4663C23.7005 17.8271 23.861 17.1635 23.9765 16.4699C24.102 15.6078 24.1423 14.8106 24.1367 14.1141C22.0046 13.5858 20.0117 13.4824 18.1945 13.6457C17.515 13.691 16.835 13.7766 16.1588 13.903C16.0615 14.7731 16.0608 15.5981 16.1469 16.3082V16.3082Z" fill="url(#paint24_linear_5018_2493)"/>
<path d="M113.541 14.4199L110.534 22.7956H110.557L113.559 14.47L113.541 14.4199Z" fill="white"/>
<path d="M60.147 14.4199L57.1406 22.7956H57.1498L60.1584 14.4516L60.147 14.4199Z" fill="white"/>
<path d="M60.898 16.5118L63.1537 22.7954H58.6324L57.4902 25.9632H64.3079L66.2408 31.3318H70.5628L62.6818 11.5645L60.898 16.5118Z" fill="white"/>
<path d="M57.1408 22.7955L60.1472 14.4198L60.1585 14.4515L61.4282 10.9299H58.107L50 31.3318H54.0721L57.15 22.7955H57.1408Z" fill="white"/>
<path d="M83.6635 20.8221C82.6792 20.2413 81.3728 19.6992 79.7443 19.1981C78.8138 18.8943 78.0841 18.6124 77.5564 18.3523C77.0283 18.0936 76.6616 17.798 76.456 17.4671C76.25 17.1361 76.1472 16.7466 76.1472 16.2993C76.1472 15.5114 76.4512 14.9033 77.06 14.4736C77.6681 14.044 78.5182 13.8295 79.6101 13.8295C80.5049 13.8295 81.4399 13.9636 82.4153 14.2319C83.3904 14.5002 84.2542 14.8672 85.006 15.3323L85.5695 12.0311C84.8 11.5653 83.865 11.1942 82.7643 10.917C81.6639 10.6392 80.5672 10.501 79.476 10.501C77.9902 10.501 76.7018 10.742 75.6102 11.2255C74.5187 11.709 73.673 12.3981 73.0737 13.2922C72.4738 14.1876 72.1742 15.2431 72.1742 16.46C72.1742 17.4984 72.3757 18.3973 72.7782 19.1579C73.181 19.9185 73.8388 20.5763 74.7512 21.1313C75.664 21.6862 76.8629 22.1874 78.3483 22.6341C79.4222 22.9562 80.2543 23.2613 80.845 23.5473C81.4354 23.8333 81.8471 24.1513 82.0799 24.4999C82.3121 24.8492 82.4289 25.2653 82.4289 25.7481C82.4289 26.5897 82.084 27.2475 81.3953 27.7215C80.7061 28.1954 79.7531 28.4324 78.5363 28.4324C77.4801 28.4324 76.3753 28.2676 75.2211 27.936C74.0669 27.605 73.0601 27.1801 72.2011 26.6612L71.8252 30.0701C72.326 30.4105 72.9528 30.7054 73.7043 30.956C74.456 31.2066 75.2657 31.4034 76.1339 31.5464C77.0018 31.6894 77.8652 31.7615 78.7242 31.7615C81.1402 31.7615 83.037 31.2113 84.4153 30.1103C85.7932 29.0098 86.4823 27.4845 86.4823 25.5336C86.4823 24.4958 86.2582 23.5963 85.8112 22.8357C85.3638 22.0751 84.6478 21.4043 83.6635 20.8221Z" fill="white"/>
<path d="M105.085 10.9299H87.8242V14.257H105.085V10.9299Z" fill="white"/>
<path d="M98.5085 15.6516H94.4014V31.3318H98.5085V15.6516Z" fill="white"/>
<path d="M110.534 22.7955L113.541 14.4198L113.559 14.4698L114.835 10.9299H111.501L103.394 31.3318H107.474L109.407 25.9632H109.415L110.557 22.7955H110.534Z" fill="white"/>
<path d="M114.299 16.5298L116.548 22.7955H112.04L110.897 25.9633H117.702L119.635 31.3319H123.957L116.083 11.5808L114.299 16.5298Z" fill="white"/>
<path d="M137.245 23.0638C138.229 22.5095 139.034 21.7618 139.661 20.8221C140.287 19.883 140.6 18.7867 140.6 17.5338C140.6 16.1739 140.296 15.0013 139.688 14.0174C139.079 13.0334 138.212 12.2721 137.084 11.7355C135.956 11.1982 134.614 10.9299 133.057 10.9299H131.631V14.0174H132.52C135.241 14.0174 136.6 15.1804 136.6 17.5072C136.6 19.8333 135.196 20.9971 132.386 20.9971H131.631V24.0838H133.728L138.024 31.3318H142.614L137.245 23.0638V23.0638Z" fill="white"/>
<path d="M130.236 10.9299H126.346V31.3318H130.236V10.9299Z" fill="white"/>
<defs>
<linearGradient id="paint0_linear_5018_2493" x1="6.35118" y1="34.0838" x2="31.8545" y2="8.58049" gradientUnits="userSpaceOnUse">
<stop offset="0.001139" stop-color="#E6007A"/>
<stop offset="0.207149" stop-color="#703AC2"/>
<stop offset="0.456011" stop-color="#0070EB"/>
<stop offset="0.768132" stop-color="#0297FB"/>
<stop offset="1" stop-color="#0AE2FF"/>
</linearGradient>
<radialGradient id="paint1_radial_5018_2493" cx="0" cy="0" r="1" gradientUnits="userSpaceOnUse" gradientTransform="translate(25.7011 16.3856) scale(7.60439 7.60439)">
<stop stop-color="white"/>
<stop offset="1" stop-color="white" stop-opacity="0"/>
</radialGradient>
<radialGradient id="paint2_radial_5018_2493" cx="0" cy="0" r="1" gradientUnits="userSpaceOnUse" gradientTransform="translate(14.4612 30.4927) scale(4.4243)">
<stop stop-color="white"/>
<stop offset="1" stop-color="white" stop-opacity="0"/>
</radialGradient>
<linearGradient id="paint3_linear_5018_2493" x1="7.82137" y1="29.7444" x2="12.0861" y2="29.6852" gradientUnits="userSpaceOnUse">
<stop stop-color="white" stop-opacity="0"/>
<stop offset="1" stop-color="white"/>
</linearGradient>
<radialGradient id="paint4_radial_5018_2493" cx="0" cy="0" r="1" gradientUnits="userSpaceOnUse" gradientTransform="translate(13.6436 17.5212) rotate(-120) scale(7.60439 7.60439)">
<stop stop-color="white"/>
<stop offset="1" stop-color="white" stop-opacity="0"/>
</radialGradient>
<radialGradient id="paint5_radial_5018_2493" cx="0" cy="0" r="1" gradientUnits="userSpaceOnUse" gradientTransform="translate(31.4804 20.2021) rotate(-120) scale(4.4243)">
<stop stop-color="white"/>
<stop offset="1" stop-color="white" stop-opacity="0"/>
</radialGradient>
<linearGradient id="paint6_linear_5018_2493" x1="34.1523" y1="26.3262" x2="31.9686" y2="22.6625" gradientUnits="userSpaceOnUse">
<stop stop-color="white" stop-opacity="0"/>
<stop offset="1" stop-color="white"/>
</linearGradient>
<radialGradient id="paint7_radial_5018_2493" cx="0" cy="0" r="1" gradientUnits="userSpaceOnUse" gradientTransform="translate(20.2952 27.0428) rotate(120) scale(7.60439 7.60439)">
<stop stop-color="white"/>
<stop offset="1" stop-color="white" stop-opacity="0"/>
</radialGradient>
<radialGradient id="paint8_radial_5018_2493" cx="0" cy="0" r="1" gradientUnits="userSpaceOnUse" gradientTransform="translate(14.0577 10.6066) rotate(120) scale(4.4243 4.4243)">
<stop stop-color="white"/>
<stop offset="1" stop-color="white" stop-opacity="0"/>
</radialGradient>
<linearGradient id="paint9_linear_5018_2493" x1="18.0253" y1="5.23073" x2="15.9442" y2="8.95372" gradientUnits="userSpaceOnUse">
<stop stop-color="white" stop-opacity="0"/>
<stop offset="1" stop-color="white"/>
</linearGradient>
<linearGradient id="paint10_linear_5018_2493" x1="18.9522" y1="3.33829" x2="12.4366" y2="5.23373" gradientUnits="userSpaceOnUse">
<stop stop-color="#231F20"/>
<stop offset="1" stop-color="white"/>
</linearGradient>
<linearGradient id="paint11_linear_5018_2493" x1="6.63885" y1="28.1881" x2="12.0882" y2="33.8744" gradientUnits="userSpaceOnUse">
<stop stop-color="#231F20"/>
<stop offset="1" stop-color="white"/>
</linearGradient>
<linearGradient id="paint12_linear_5018_2493" x1="35.8858" y1="27.3311" x2="37.7812" y2="21.5659" gradientUnits="userSpaceOnUse">
<stop stop-color="#231F20"/>
<stop offset="1" stop-color="white"/>
</linearGradient>
<linearGradient id="paint13_linear_5018_2493" x1="21.921" y1="6.63517" x2="30.6566" y2="8.63536" gradientUnits="userSpaceOnUse">
<stop stop-color="#231F20"/>
<stop offset="1" stop-color="white"/>
</linearGradient>
<linearGradient id="paint14_linear_5018_2493" x1="30.9899" y1="28.9972" x2="24.8899" y2="35.5623" gradientUnits="userSpaceOnUse">
<stop stop-color="#231F20"/>
<stop offset="1" stop-color="white"/>
</linearGradient>
<linearGradient id="paint15_linear_5018_2493" x1="7.0914" y1="25.6744" x2="4.45586" y2="17.1092" gradientUnits="userSpaceOnUse">
<stop stop-color="#231F20"/>
<stop offset="1" stop-color="white"/>
</linearGradient>
<linearGradient id="paint16_linear_5018_2493" x1="23.831" y1="9.85699" x2="21.0668" y2="12.6212" gradientUnits="userSpaceOnUse">
<stop stop-color="#231F20"/>
<stop offset="1" stop-color="white"/>
</linearGradient>
<linearGradient id="paint17_linear_5018_2493" x1="8.92505" y1="22.4049" x2="12.701" y2="23.4166" gradientUnits="userSpaceOnUse">
<stop stop-color="#231F20"/>
<stop offset="1" stop-color="white"/>
</linearGradient>
<linearGradient id="paint18_linear_5018_2493" x1="27.2441" y1="29.0384" x2="26.2323" y2="25.2625" gradientUnits="userSpaceOnUse">
<stop stop-color="#231F20"/>
<stop offset="1" stop-color="white"/>
</linearGradient>
<linearGradient id="paint19_linear_5018_2493" x1="21.4959" y1="25.6811" x2="23.1544" y2="23.3907" gradientUnits="userSpaceOnUse">
<stop stop-color="#231F20"/>
<stop offset="1" stop-color="white"/>
</linearGradient>
<linearGradient id="paint20_linear_5018_2493" x1="15.7851" y1="24.6895" x2="12.4681" y2="26.2691" gradientUnits="userSpaceOnUse">
<stop stop-color="#231F20"/>
<stop offset="1" stop-color="white"/>
</linearGradient>
<linearGradient id="paint21_linear_5018_2493" x1="14.5819" y1="19.1681" x2="15.6086" y2="21.3005" gradientUnits="userSpaceOnUse">
<stop stop-color="#231F20"/>
<stop offset="1" stop-color="white"/>
</linearGradient>
<linearGradient id="paint22_linear_5018_2493" x1="19.3576" y1="12.5824" x2="18.6468" y2="10.1342" gradientUnits="userSpaceOnUse">
<stop stop-color="#231F20"/>
<stop offset="1" stop-color="white"/>
</linearGradient>
<linearGradient id="paint23_linear_5018_2493" x1="27.0181" y1="23.7919" x2="29.0715" y2="24.2658" gradientUnits="userSpaceOnUse">
<stop stop-color="#231F20"/>
<stop offset="1" stop-color="white"/>
</linearGradient>
<linearGradient id="paint24_linear_5018_2493" x1="23.7956" y1="16.8552" x2="21.1894" y2="16.3814" gradientUnits="userSpaceOnUse">
<stop stop-color="#231F20"/>
<stop offset="1" stop-color="white"/>
</linearGradient>
</defs>
</svg>
