<?xml version="1.0" encoding="UTF-8" standalone="no"?>
<!-- Created with Inkscape (http://www.inkscape.org/) -->

<svg
   width="10.583282mm"
   height="10.583389mm"
   viewBox="0 0 10.583282 10.583389"
   version="1.1"
   id="svg2159"
   xmlns:inkscape="http://www.inkscape.org/namespaces/inkscape"
   xmlns:sodipodi="http://sodipodi.sourceforge.net/DTD/sodipodi-0.dtd"
   xmlns="http://www.w3.org/2000/svg"
   xmlns:svg="http://www.w3.org/2000/svg">
  <sodipodi:namedview
     id="namedview2161"
     pagecolor="#ffffff"
     bordercolor="#000000"
     borderopacity="0.25"
     inkscape:showpageshadow="2"
     inkscape:pageopacity="0.0"
     inkscape:pagecheckerboard="0"
     inkscape:deskcolor="#d1d1d1"
     inkscape:document-units="mm"
     showgrid="false" />
  <defs
     id="defs2156">
    <linearGradient
       id="paint0_linear_5018_2493"
       x1="6.3511801"
       y1="34.083801"
       x2="31.8545"
       y2="8.5804901"
       gradientUnits="userSpaceOnUse"
       gradientTransform="matrix(0.26458333,0,0,0.26458333,33.170846,190.08715)">
      <stop
         offset="0.001139"
         stop-color="#E6007A"
         id="stop1721" />
      <stop
         offset="0.207149"
         stop-color="#703AC2"
         id="stop1723" />
      <stop
         offset="0.456011"
         stop-color="#0070EB"
         id="stop1725" />
      <stop
         offset="0.768132"
         stop-color="#0297FB"
         id="stop1727" />
      <stop
         offset="1"
         stop-color="#0AE2FF"
         id="stop1729" />
    </linearGradient>
    <radialGradient
       id="paint1_radial_5018_2493"
       cx="0"
       cy="0"
       r="1"
       gradientUnits="userSpaceOnUse"
       gradientTransform="matrix(2.0119948,0,0,2.0119948,39.970929,194.42251)">
      <stop
         stop-color="white"
         id="stop1732" />
      <stop
         offset="1"
         stop-color="white"
         stop-opacity="0"
         id="stop1734" />
    </radialGradient>
    <radialGradient
       id="paint2_radial_5018_2493"
       cx="0"
       cy="0"
       r="1"
       gradientUnits="userSpaceOnUse"
       gradientTransform="matrix(1.170596,0,0,1.170596,36.997038,198.15501)">
      <stop
         stop-color="white"
         id="stop1737" />
      <stop
         offset="1"
         stop-color="white"
         stop-opacity="0"
         id="stop1739" />
    </radialGradient>
    <linearGradient
       id="paint3_linear_5018_2493"
       x1="7.8213701"
       y1="29.7444"
       x2="12.0861"
       y2="29.6852"
       gradientUnits="userSpaceOnUse"
       gradientTransform="matrix(0.26458333,0,0,0.26458333,33.170846,190.08715)">
      <stop
         stop-color="white"
         stop-opacity="0"
         id="stop1742" />
      <stop
         offset="1"
         stop-color="white"
         id="stop1744" />
    </linearGradient>
    <radialGradient
       id="paint4_radial_5018_2493"
       cx="0"
       cy="0"
       r="1"
       gradientUnits="userSpaceOnUse"
       gradientTransform="matrix(-1.0059974,-1.7424386,1.7424386,-1.0059974,36.780715,194.72297)">
      <stop
         stop-color="white"
         id="stop1747" />
      <stop
         offset="1"
         stop-color="white"
         stop-opacity="0"
         id="stop1749" />
    </radialGradient>
    <radialGradient
       id="paint5_radial_5018_2493"
       cx="0"
       cy="0"
       r="1"
       gradientUnits="userSpaceOnUse"
       gradientTransform="matrix(-0.58529801,-1.0137659,1.0137659,-0.58529801,41.500035,195.43229)">
      <stop
         stop-color="white"
         id="stop1752" />
      <stop
         offset="1"
         stop-color="white"
         stop-opacity="0"
         id="stop1754" />
    </radialGradient>
    <linearGradient
       id="paint6_linear_5018_2493"
       x1="34.152302"
       y1="26.3262"
       x2="31.968599"
       y2="22.6625"
       gradientUnits="userSpaceOnUse"
       gradientTransform="matrix(0.26458333,0,0,0.26458333,33.170846,190.08715)">
      <stop
         stop-color="white"
         stop-opacity="0"
         id="stop1757" />
      <stop
         offset="1"
         stop-color="white"
         id="stop1759" />
    </linearGradient>
    <radialGradient
       id="paint7_radial_5018_2493"
       cx="0"
       cy="0"
       r="1"
       gradientUnits="userSpaceOnUse"
       gradientTransform="matrix(-1.0059974,1.7424386,-1.7424386,-1.0059974,38.540618,197.24222)">
      <stop
         stop-color="white"
         id="stop1762" />
      <stop
         offset="1"
         stop-color="white"
         stop-opacity="0"
         id="stop1764" />
    </radialGradient>
    <radialGradient
       id="paint8_radial_5018_2493"
       cx="0"
       cy="0"
       r="1"
       gradientUnits="userSpaceOnUse"
       gradientTransform="matrix(-0.58529801,1.0137659,-1.0137659,-0.58529801,36.890279,192.89348)">
      <stop
         stop-color="white"
         id="stop1767" />
      <stop
         offset="1"
         stop-color="white"
         stop-opacity="0"
         id="stop1769" />
    </radialGradient>
    <linearGradient
       id="paint9_linear_5018_2493"
       x1="18.025299"
       y1="5.2307301"
       x2="15.9442"
       y2="8.9537201"
       gradientUnits="userSpaceOnUse"
       gradientTransform="matrix(0.26458333,0,0,0.26458333,33.170846,190.08715)">
      <stop
         stop-color="white"
         stop-opacity="0"
         id="stop1772" />
      <stop
         offset="1"
         stop-color="white"
         id="stop1774" />
    </linearGradient>
    <linearGradient
       id="paint10_linear_5018_2493"
       x1="18.9522"
       y1="3.33829"
       x2="12.4366"
       y2="5.2337298"
       gradientUnits="userSpaceOnUse"
       gradientTransform="matrix(0.26458333,0,0,0.26458333,33.170846,190.08715)">
      <stop
         stop-color="#231F20"
         id="stop1777" />
      <stop
         offset="1"
         stop-color="white"
         id="stop1779" />
    </linearGradient>
    <linearGradient
       id="paint11_linear_5018_2493"
       x1="6.6388502"
       y1="28.188101"
       x2="12.0882"
       y2="33.874401"
       gradientUnits="userSpaceOnUse"
       gradientTransform="matrix(0.26458333,0,0,0.26458333,33.170846,190.08715)">
      <stop
         stop-color="#231F20"
         id="stop1782" />
      <stop
         offset="1"
         stop-color="white"
         id="stop1784" />
    </linearGradient>
    <linearGradient
       id="paint12_linear_5018_2493"
       x1="35.885799"
       y1="27.3311"
       x2="37.7812"
       y2="21.565901"
       gradientUnits="userSpaceOnUse"
       gradientTransform="matrix(0.26458333,0,0,0.26458333,33.170846,190.08715)">
      <stop
         stop-color="#231F20"
         id="stop1787" />
      <stop
         offset="1"
         stop-color="white"
         id="stop1789" />
    </linearGradient>
    <linearGradient
       id="paint13_linear_5018_2493"
       x1="21.921"
       y1="6.63517"
       x2="30.656601"
       y2="8.6353598"
       gradientUnits="userSpaceOnUse"
       gradientTransform="matrix(0.26458333,0,0,0.26458333,33.170846,190.08715)">
      <stop
         stop-color="#231F20"
         id="stop1792" />
      <stop
         offset="1"
         stop-color="white"
         id="stop1794" />
    </linearGradient>
    <linearGradient
       id="paint14_linear_5018_2493"
       x1="30.989901"
       y1="28.9972"
       x2="24.8899"
       y2="35.562302"
       gradientUnits="userSpaceOnUse"
       gradientTransform="matrix(0.26458333,0,0,0.26458333,33.170846,190.08715)">
      <stop
         stop-color="#231F20"
         id="stop1797" />
      <stop
         offset="1"
         stop-color="white"
         id="stop1799" />
    </linearGradient>
    <linearGradient
       id="paint15_linear_5018_2493"
       x1="7.0914001"
       y1="25.6744"
       x2="4.4558601"
       y2="17.1092"
       gradientUnits="userSpaceOnUse"
       gradientTransform="matrix(0.26458333,0,0,0.26458333,33.170846,190.08715)">
      <stop
         stop-color="#231F20"
         id="stop1802" />
      <stop
         offset="1"
         stop-color="white"
         id="stop1804" />
    </linearGradient>
    <linearGradient
       id="paint16_linear_5018_2493"
       x1="23.830999"
       y1="9.8569899"
       x2="21.066799"
       y2="12.6212"
       gradientUnits="userSpaceOnUse"
       gradientTransform="matrix(0.26458333,0,0,0.26458333,33.170846,190.08715)">
      <stop
         stop-color="#231F20"
         id="stop1807" />
      <stop
         offset="1"
         stop-color="white"
         id="stop1809" />
    </linearGradient>
    <linearGradient
       id="paint17_linear_5018_2493"
       x1="8.9250498"
       y1="22.4049"
       x2="12.701"
       y2="23.416599"
       gradientUnits="userSpaceOnUse"
       gradientTransform="matrix(0.26458333,0,0,0.26458333,33.170846,190.08715)">
      <stop
         stop-color="#231F20"
         id="stop1812" />
      <stop
         offset="1"
         stop-color="white"
         id="stop1814" />
    </linearGradient>
    <linearGradient
       id="paint18_linear_5018_2493"
       x1="27.244101"
       y1="29.038401"
       x2="26.2323"
       y2="25.262501"
       gradientUnits="userSpaceOnUse"
       gradientTransform="matrix(0.26458333,0,0,0.26458333,33.170846,190.08715)">
      <stop
         stop-color="#231F20"
         id="stop1817" />
      <stop
         offset="1"
         stop-color="white"
         id="stop1819" />
    </linearGradient>
    <linearGradient
       id="paint19_linear_5018_2493"
       x1="21.495899"
       y1="25.681101"
       x2="23.1544"
       y2="23.390699"
       gradientUnits="userSpaceOnUse"
       gradientTransform="matrix(0.26458333,0,0,0.26458333,33.170846,190.08715)">
      <stop
         stop-color="#231F20"
         id="stop1822" />
      <stop
         offset="1"
         stop-color="white"
         id="stop1824" />
    </linearGradient>
    <linearGradient
       id="paint20_linear_5018_2493"
       x1="15.7851"
       y1="24.689501"
       x2="12.4681"
       y2="26.2691"
       gradientUnits="userSpaceOnUse"
       gradientTransform="matrix(0.26458333,0,0,0.26458333,33.170846,190.08715)">
      <stop
         stop-color="#231F20"
         id="stop1827" />
      <stop
         offset="1"
         stop-color="white"
         id="stop1829" />
    </linearGradient>
    <linearGradient
       id="paint21_linear_5018_2493"
       x1="14.5819"
       y1="19.1681"
       x2="15.6086"
       y2="21.300501"
       gradientUnits="userSpaceOnUse"
       gradientTransform="matrix(0.26458333,0,0,0.26458333,33.170846,190.08715)">
      <stop
         stop-color="#231F20"
         id="stop1832" />
      <stop
         offset="1"
         stop-color="white"
         id="stop1834" />
    </linearGradient>
    <linearGradient
       id="paint22_linear_5018_2493"
       x1="19.357599"
       y1="12.5824"
       x2="18.646799"
       y2="10.1342"
       gradientUnits="userSpaceOnUse"
       gradientTransform="matrix(0.26458333,0,0,0.26458333,33.170846,190.08715)">
      <stop
         stop-color="#231F20"
         id="stop1837" />
      <stop
         offset="1"
         stop-color="white"
         id="stop1839" />
    </linearGradient>
    <linearGradient
       id="paint23_linear_5018_2493"
       x1="27.018101"
       y1="23.791901"
       x2="29.071501"
       y2="24.2658"
       gradientUnits="userSpaceOnUse"
       gradientTransform="matrix(0.26458333,0,0,0.26458333,33.170846,190.08715)">
      <stop
         stop-color="#231F20"
         id="stop1842" />
      <stop
         offset="1"
         stop-color="white"
         id="stop1844" />
    </linearGradient>
    <linearGradient
       id="paint24_linear_5018_2493"
       x1="23.795601"
       y1="16.8552"
       x2="21.1894"
       y2="16.381399"
       gradientUnits="userSpaceOnUse"
       gradientTransform="matrix(0.26458333,0,0,0.26458333,33.170846,190.08715)">
      <stop
         stop-color="#231F20"
         id="stop1847" />
      <stop
         offset="1"
         stop-color="white"
         id="stop1849" />
    </linearGradient>
  </defs>
  <g
     inkscape:label="Layer 1"
     inkscape:groupmode="layer"
     id="layer1"
     transform="translate(-33.170831,-190.20201)">
    <path
       d="m 43.74177,195.13458 c -0.198331,-2.91564 -2.722695,-5.1185 -5.63835,-4.92017 -1.452457,0.0988 -2.727772,0.77506 -3.617724,1.78914 l 5e-6,-1e-5 -0.0025,-0.002 c -0.006,0.008 -0.0116,0.0165 -0.01755,0.0248 -0.88401,1.01904 -1.3812,2.374 -1.28242,3.82624 0.0094,0.13838 0.0257,0.27456 0.04539,0.40955 5e-6,3e-5 5e-6,8e-5 1.1e-5,1.1e-4 8.87e-4,0.006 0.0018,0.0122 0.0026,0.0183 0.01331,0.0891 0.02875,0.1773 0.04638,0.26477 1.2e-5,5e-5 1.8e-5,1.1e-4 3e-5,1.3e-4 3.23e-4,0.002 6.28e-4,0.003 9.39e-4,0.005 0.01605,0.0792 0.03388,0.15767 0.05338,0.23545 l 3.6e-5,1.6e-4 c 1.7e-5,6e-5 3.5e-5,1.4e-4 4.7e-5,1.9e-4 0.611125,2.43715 2.894567,4.16324 5.489494,3.98674 2.915655,-0.19833 5.118497,-2.72272 4.920165,-5.63835 z m -1.151837,0.0783 c 0.02442,0.35896 0.0018,0.71044 -0.0621,1.04855 -7.67e-4,-0.002 -0.0014,-0.004 -0.0022,-0.006 v -2e-5 c -0.383619,-0.93771 -1.14247,-1.6147 -1.809802,-1.98869 0.135043,-1.58891 -0.403993,-2.25831 -1.014069,-2.36722 -0.01659,-0.003 -0.03328,-0.006 -0.05024,-0.008 -0.484214,-0.0621 -0.926995,0.28015 -0.989013,0.76433 -0.06212,0.48421 0.280141,0.92701 0.764302,0.98914 0.04225,0.005 0.08403,0.007 0.125413,0.006 0.0027,0.0536 0.0044,0.11062 0.0048,0.17021 -0.564144,-0.13981 -1.091432,-0.16716 -1.572207,-0.12393 -0.179811,0.012 -0.359701,0.0346 -0.538638,0.0681 0.06001,-0.53655 0.261302,-1.1389 0.651906,-1.57972 0.377587,-0.42613 0.938954,-0.67037 1.551332,-0.60769 0.116099,0.0119 0.239977,0.0404 0.351499,0.0778 0.0051,0.002 0.01056,0.003 0.01564,0.005 5.3e-5,-1e-4 1.58e-4,-2.3e-4 2.38e-4,-3.3e-4 1.418431,0.57784 2.462345,1.92402 2.573099,3.55226 z m -3.688239,0.80825 c -3.7e-4,5.8e-4 -7.93e-4,0.001 -0.0012,0.002 -0.126259,0.18211 -0.276436,0.36166 -0.452702,0.53533 -0.264266,-0.28114 -0.476541,-0.58393 -0.637593,-0.89715 -0.0083,-0.0168 -0.01706,-0.0327 -0.02513,-0.0498 -2.91e-4,-6.1e-4 -5.82e-4,-0.001 -9e-4,-0.002 -0.09461,-0.20047 -0.175048,-0.42039 -0.237331,-0.65997 0.376026,-0.0885 0.744776,-0.12102 1.096936,-0.10388 0.01865,0.001 0.03691,0.002 0.0557,0.003 6.88e-4,5e-5 0.0014,1.3e-4 0.0021,1.6e-4 0.220557,0.0183 0.450877,0.0585 0.689107,0.12417 -0.111389,0.36973 -0.267546,0.70522 -0.458417,1.00153 -0.0104,0.0155 -0.01984,0.0311 -0.03059,0.0466 z m -1.808162,-4.43066 c -9.79e-4,10e-4 -0.0021,0.002 -0.0031,0.004 v 1e-5 c -0.619945,0.80068 -0.826928,1.79575 -0.81735,2.56053 -1.44349,0.67749 -1.753667,1.47897 -1.542947,2.06177 0.0055,0.016 0.01151,0.0318 0.01817,0.0475 0.188322,0.4504 0.706125,0.66272 1.156451,0.47437 0.450374,-0.18833 0.662728,-0.70615 0.474451,-1.1565 -0.01648,-0.0393 -0.03609,-0.0762 -0.05734,-0.1117 0.04561,-0.0295 0.09459,-0.0598 0.146632,-0.0903 0.160972,0.55854 0.39915,1.03098 0.677016,1.42576 0.100065,0.14944 0.209417,0.29361 0.327554,0.43162 -0.494692,0.21638 -1.117124,0.3433 -1.694318,0.22542 -0.557837,-0.11393 -1.050036,-0.47797 -1.301948,-1.03965 -0.04775,-0.10647 -0.08499,-0.22796 -0.108323,-0.34327 -0.01436,-0.10075 -0.02639,-0.20227 -0.0334,-0.30541 -0.128939,-1.89553 1.047065,-3.58303 2.758443,-4.18391 z m 1.64973,8.03058 c -1.125617,0.0766 -2.177812,-0.30736 -2.973033,-0.98983 1.003395,0.13655 1.968648,-0.18174 2.626191,-0.57243 1.308999,0.9121 2.15855,0.78005 2.557991,0.30605 0.01106,-0.0128 0.02178,-0.0258 0.03207,-0.0395 0.295883,-0.3883 0.220874,-0.94289 -0.167429,-1.2387 -0.388276,-0.29588 -0.942895,-0.22087 -1.238779,0.16735 -0.02574,0.0339 -0.04792,0.0693 -0.06805,0.10552 -0.048,-0.0246 -0.0984,-0.0518 -0.150495,-0.0813 0.403542,-0.41889 0.691118,-0.8622 0.894212,-1.30046 0.07953,-0.16171 0.14986,-0.32885 0.21037,-0.50051 0.435001,0.32023 0.856509,0.79603 1.04312,1.35512 0.180234,0.54006 0.111072,1.14834 -0.249396,1.64735 -0.06832,0.0946 -0.15494,0.18761 -0.243153,0.26548 -0.0013,0.001 -0.0025,0.002 -0.0038,0.003 -0.630634,0.49567 -1.410943,0.81393 -2.269807,0.87235 z"
       fill="url(#paint0_linear_5018_2493)"
       id="path1637"
       style="fill:url(#paint0_linear_5018_2493);stroke-width:0.264583" />
    <path
       style="mix-blend-mode:overlay;fill:url(#paint1_radial_5018_2493);stroke-width:0.264583"
       opacity="0.9"
       d="m 39.701821,191.89964 c -0.01656,-0.003 -0.03328,-0.006 -0.05024,-0.008 -0.08567,-0.011 -0.169889,-0.009 -0.25109,0.004 0.506227,0.27538 0.875295,1.04268 0.681249,2.55625 -0.06427,0.50128 -0.213333,0.97835 -0.428598,1.41608 -0.174414,0.3764 -0.411719,0.75636 -0.7307,1.12154 0.153194,0.11488 0.302577,0.21106 0.43934,0.28861 0.403569,-0.41889 0.691145,-0.86217 0.894213,-1.30045 0.215265,-0.43773 0.364331,-0.91477 0.428598,-1.41608 0.231034,-1.80216 -0.336153,-2.54666 -0.982768,-2.66209 z"
       fill="url(#paint1_radial_5018_2493)"
       id="path1639" />
    <g
       style="mix-blend-mode:overlay"
       opacity="0.8"
       id="g1643"
       transform="matrix(0.26458333,0,0,0.26458333,33.170846,190.08715)">
      <path
         d="m 26.1204,16.4971 c 0.7333,-5.7205 -0.6616,-8.62056 -2.5748,-9.66141 -0.0748,0.01185 -0.1481,0.02777 -0.2212,0.04457 1.8731,1.07675 3.2208,3.97404 2.4974,9.61684 -0.2429,1.8947 -0.8063,3.6977 -1.6198,5.3521 -0.6374,1.3755 -1.4995,2.7633 -2.6454,4.1013 0.061,0.0471 0.1215,0.0921 0.1822,0.1376 1.2056,-1.3801 2.1025,-2.8163 2.7617,-4.2389 0.8136,-1.6544 1.377,-3.4574 1.6199,-5.3521 z"
         fill="#e6e9ee"
         id="path1641" />
    </g>
    <path
       style="mix-blend-mode:overlay;fill:url(#paint2_radial_5018_2493);stroke-width:0.264583"
       opacity="0.5"
       d="m 38.157739,197.88492 c -0.04757,-0.0362 -0.09334,-0.0742 -0.139118,-0.11213 -0.747051,0.31168 -1.782656,0.5071 -2.810949,0.26848 0.168389,0.21463 0.356306,0.41283 0.562724,0.58996 1.003387,0.13658 1.96864,-0.18174 2.626182,-0.5724 -0.07805,-0.0544 -0.157506,-0.11194 -0.238839,-0.17391 z"
       fill="url(#paint2_radial_5018_2493)"
       id="path1645" />
    <path
       style="mix-blend-mode:overlay;fill:url(#paint3_linear_5018_2493);stroke-width:0.264583"
       opacity="0.6"
       d="m 38.018542,197.77279 c -0.02289,-0.0189 -0.04593,-0.0377 -0.06834,-0.0571 -0.752713,0.3008 -1.793028,0.48061 -2.819008,0.22489 0.025,0.034 0.05042,0.0676 0.07641,0.10068 1.028284,0.23865 2.06389,0.0432 2.810941,-0.26848 z"
       fill="url(#paint3_linear_5018_2493)"
       id="path1647" />
    <path
       style="mix-blend-mode:overlay;fill:url(#paint4_radial_5018_2493);stroke-width:0.264583"
       opacity="0.9"
       d="m 34.730401,196.21744 c 0.0055,0.016 0.01152,0.0318 0.01817,0.0475 0.03333,0.0797 0.0774,0.1515 0.129157,0.2154 -0.01462,-0.57611 0.465357,-1.27937 1.873168,-1.86812 0.466248,-0.195 0.953928,-0.30443 1.440629,-0.33687 0.413174,-0.0371 0.860902,-0.0216 1.336649,0.072 0.02289,-0.19011 0.03151,-0.36756 0.03027,-0.5248 -0.564541,-0.14005 -1.092226,-0.16746 -1.573318,-0.1242 -0.486728,0.0325 -0.974381,0.1419 -1.440656,0.33687 -1.676228,0.70101 -2.0374,1.56445 -1.814068,2.18215 z"
       fill="url(#paint4_radial_5018_2493)"
       id="path1649" />
    <g
       style="mix-blend-mode:overlay"
       opacity="0.8"
       id="g1653"
       transform="matrix(0.26458333,0,0,0.26458333,33.170846,190.08715)">
      <path
         d="m 13.5311,17.1027 c -5.32085,2.2252 -7.13493,4.8833 -7.07969,7.0606 0.04762,0.0588 0.09805,0.1143 0.14919,0.1693 -0.00405,-2.1605 1.83124,-4.7763 7.0797,-6.9713 1.7623,-0.7369 3.6055,-1.1505 5.445,-1.2732 1.5099,-0.1358 3.1428,-0.0831 4.8745,0.2403 0.0103,-0.0764 0.019,-0.1513 0.0281,-0.2265 -1.798,-0.3541 -3.4903,-0.4128 -5.0518,-0.2724 -1.8396,0.1227 -3.6828,0.5363 -5.445,1.2732 z"
         fill="#e6e9ee"
         id="path1651" />
    </g>
    <path
       style="mix-blend-mode:overlay;fill:url(#paint5_radial_5018_2493);stroke-width:0.264583"
       opacity="0.4"
       d="m 40.68578,194.56213 c -0.0076,0.0593 -0.01757,0.11795 -0.02754,0.17658 0.643466,0.49109 1.33051,1.29024 1.637982,2.3001 0.10168,-0.25315 0.179361,-0.51498 0.229579,-0.78232 -0.383434,-0.93726 -1.14173,-1.61404 -1.808824,-1.98813 -0.0081,0.0948 -0.0182,0.19235 -0.03119,0.29377 z"
       fill="url(#paint5_radial_5018_2493)"
       id="path1655" />
    <path
       style="mix-blend-mode:overlay;fill:url(#paint6_linear_5018_2493);stroke-width:0.264583"
       opacity="0.5"
       d="m 40.65829,194.73868 c -0.005,0.0293 -0.0097,0.0586 -0.01529,0.0877 0.636852,0.50146 1.31273,1.31249 1.604274,2.32886 0.01691,-0.0386 0.03328,-0.0774 0.049,-0.11649 -0.307499,-1.00987 -0.994542,-1.80901 -1.637982,-2.30011 z"
       fill="url(#paint6_linear_5018_2493)"
       id="path1657" />
    <path
       style="mix-blend-mode:overlay;fill:url(#paint7_radial_5018_2493);stroke-width:0.264583"
       opacity="0.9"
       d="m 40.95502,198.36366 c 0.01106,-0.0128 0.02178,-0.0259 0.03207,-0.0395 0.05236,-0.0687 0.0925,-0.14277 0.121973,-0.21953 -0.491622,0.3007 -1.34067,0.23667 -2.554419,-0.68815 -0.402008,-0.30631 -0.740622,-0.67392 -1.012085,-1.07921 -0.238733,-0.33925 -0.449156,-0.73475 -0.605895,-1.19359 -0.176107,0.0752 -0.33409,0.1565 -0.469636,0.23619 0.160999,0.55894 0.401108,1.02963 0.679106,1.42463 0.271463,0.40529 0.610076,0.7729 1.012084,1.07921 1.445181,1.10117 2.373551,0.98221 2.796805,0.47995 z"
       fill="url(#paint7_radial_5018_2493)"
       id="path1659" />
    <g
       style="mix-blend-mode:overlay"
       opacity="0.8"
       id="g1663"
       transform="matrix(0.26458333,0,0,0.26458333,33.170846,190.08715)">
      <path
         d="m 20.3486,27.7014 c 4.5875,3.4954 7.7965,3.7374 9.6545,2.6009 0.0271,-0.0706 0.05,-0.1421 0.072,-0.2138 -1.869,1.0837 -5.0521,0.8022 -9.5772,-2.6456 -1.5193,-1.1577 -2.7991,-2.5471 -3.8251,-4.0789 -0.8725,-1.2397 -1.6434,-2.6802 -2.2291,-4.3415 -0.0714,0.0292 -0.1406,0.0591 -0.2103,0.0889 0.5924,1.7341 1.3877,3.229 2.2901,4.5112 1.026,1.5317 2.3058,2.9211 3.8251,4.0788 z"
         fill="#e6e9ee"
         id="path1661" />
    </g>
    <path
       style="mix-blend-mode:overlay;fill:url(#paint8_radial_5018_2493);stroke-width:0.264583"
       opacity="0.3"
       d="m 36.543834,194.0337 c 0.05519,-0.0231 0.110939,-0.0437 0.166687,-0.0644 0.103585,-0.8028 0.452147,-1.79737 1.172951,-2.56858 -0.270087,0.0385 -0.535675,0.10216 -0.792295,0.19234 -0.619971,0.80069 -0.826929,1.79577 -0.817351,2.56054 0.08612,-0.0404 0.175684,-0.0804 0.270008,-0.11988 z"
       fill="url(#paint8_radial_5018_2493)"
       id="path1665" />
    <path
       style="mix-blend-mode:overlay;fill:url(#paint9_linear_5018_2493);stroke-width:0.264583"
       opacity="0.4"
       d="m 36.710415,193.96928 c 0.02786,-0.0103 0.05564,-0.0209 0.08364,-0.0306 0.115861,-0.80227 0.480298,-1.79311 1.214729,-2.55378 -0.04191,0.005 -0.08371,0.01 -0.125386,0.0158 -0.720805,0.77121 -1.069367,1.76577 -1.172978,2.56857 z"
       fill="url(#paint9_linear_5018_2493)"
       id="path1667" />
    <path
       style="mix-blend-mode:multiply;fill:url(#paint10_linear_5018_2493);stroke-width:0.264583"
       opacity="0.4"
       d="m 38.103394,190.21441 c -1.452457,0.0988 -2.727762,0.77506 -3.617712,1.78914 -0.0067,0.008 -0.01341,0.0154 -0.02008,0.0231 l 5.3e-5,-7e-5 c 0.173262,0.17186 0.73951,0.51075 0.969012,0.65206 0.450623,-0.48461 1.017096,-0.86274 1.658869,-1.08807 0.04482,-0.0578 0.09128,-0.11474 0.140494,-0.17028 0.59772,-0.67449 1.413986,-1.031 2.360771,-1.031 0.105384,0 0.319987,0.0168 0.324591,0.0171 -0.573961,-0.1649 -1.185677,-0.23482 -1.815994,-0.19195 z"
       fill="url(#paint10_linear_5018_2493)"
       id="path1669" />
    <path
       style="mix-blend-mode:multiply;fill:url(#paint11_linear_5018_2493);stroke-width:0.264583"
       opacity="0.4"
       d="m 38.743209,199.62107 c -1.125617,0.0766 -2.177812,-0.30737 -2.973033,-0.98984 h -5e-6 -5e-6 c -0.07402,-0.0101 -0.148202,-0.0222 -0.222507,-0.0373 -0.882991,-0.18042 -1.599869,-0.70906 -2.073254,-1.529 -0.05269,-0.0913 -0.09984,-0.18423 -0.142329,-0.27869 0.611144,2.43713 2.894575,4.1632 5.489476,3.98669 0.01151,-0.26723 -0.06726,-0.88725 -0.07834,-1.15183 z"
       fill="url(#paint11_linear_5018_2493)"
       id="path1671" />
    <path
       style="mix-blend-mode:multiply;fill:url(#paint12_linear_5018_2493);stroke-width:0.264583"
       opacity="0.4"
       d="m 43.741691,195.13458 c -0.16256,-0.0167 -0.956628,0.046 -1.151837,0.0783 0.02442,0.35896 0.0018,0.71044 -0.0621,1.04855 0.02741,0.0673 0.05339,0.13554 0.07673,0.20547 0.285274,0.8549 0.18587,1.74006 -0.287522,2.56 -0.0517,0.0896 -0.107527,0.17534 -0.16682,0.25792 -0.0011,0.002 -0.0024,0.003 -0.0034,0.005 -5.3e-5,6e-5 0.0024,-0.002 0.0038,-0.003 1.07479,-1.04563 1.700821,-2.5383 1.591098,-4.1516 z"
       fill="url(#paint12_linear_5018_2493)"
       id="path1673" />
    <path
       style="mix-blend-mode:multiply;fill:url(#paint13_linear_5018_2493);stroke-width:0.264583"
       opacity="0.5"
       d="m 39.64946,191.57822 c 0.116073,0.0119 0.23995,0.0404 0.351472,0.0778 0.0051,0.002 0.01058,0.003 0.01564,0.005 8e-5,-1e-4 1.85e-4,-2.3e-4 2.65e-4,-3.3e-4 0.456459,0.18596 0.873813,0.45185 1.234096,0.78076 7.67e-4,6.4e-4 0.0015,0.001 0.0023,0.002 0.173646,-0.19851 0.507974,-0.41665 0.507974,-0.41665 0,0 -0.511943,-0.52367 -1.294924,-0.68619 -0.548137,-0.11377 -1.784482,-0.22405 -2.564236,1.10284 0,0 0.0031,-0.003 0.0077,-0.007 0.05768,-0.0872 0.11901,-0.17192 0.188357,-0.25019 0.377613,-0.42613 0.93898,-0.67037 1.551358,-0.60769 z"
       fill="url(#paint13_linear_5018_2493)"
       id="path1675" />
    <path
       style="mix-blend-mode:multiply;fill:url(#paint14_linear_5018_2493);stroke-width:0.264583"
       opacity="0.5"
       d="m 41.259979,198.47931 c -0.06834,0.0946 -0.154967,0.18762 -0.243152,0.26548 -0.004,0.004 -0.008,0.008 -0.01209,0.0111 5.3e-5,1.1e-4 1.06e-4,2.7e-4 1.59e-4,3.7e-4 -0.389282,0.30237 -0.828225,0.53084 -1.293204,0.67839 -9.53e-4,3.7e-4 -0.0018,7.7e-4 -0.0028,0.001 0.08512,0.24963 0.106839,0.64822 0.106839,0.64822 0,0 0.709507,-0.1815 1.241716,-0.77832 0.372613,-0.41783 1.0863,-1.43338 0.327051,-2.77209 0,0 9.79e-4,0.004 0.0023,0.0102 0.04667,0.0936 0.0894,0.18905 0.122502,0.28824 0.180234,0.54007 0.111072,1.14835 -0.249396,1.64735 z"
       fill="url(#paint14_linear_5018_2493)"
       id="path1677" />
    <path
       style="mix-blend-mode:multiply;fill:url(#paint15_linear_5018_2493);stroke-width:0.264583"
       opacity="0.5"
       d="m 34.478729,196.42469 c -0.04776,-0.1065 -0.08501,-0.22802 -0.108336,-0.34333 -0.0011,-0.005 -0.0025,-0.0107 -0.0035,-0.016 -1.22e-4,0 -2.91e-4,-3e-5 -4.13e-4,-6e-5 -0.0672,-0.48828 -0.04559,-0.98266 0.05911,-1.45915 1.67e-4,-9.8e-4 2.41e-4,-0.002 4.1e-4,-0.003 -0.258736,-0.0511 -0.614809,-0.23159 -0.614809,-0.23159 0,0 -0.197541,0.7052 0.0532,1.46453 0.17554,0.53157 0.698201,1.65742 2.237179,1.66925 0,0 -0.0041,-10e-4 -0.01,-0.003 -0.104351,-0.006 -0.208385,-0.0171 -0.310851,-0.038 -0.557836,-0.11395 -1.050038,-0.47797 -1.301948,-1.03965 z"
       fill="url(#paint15_linear_5018_2493)"
       id="path1679" />
    <path
       style="mix-blend-mode:multiply;fill:url(#paint16_linear_5018_2493);stroke-width:0.264583"
       opacity="0.6"
       d="m 39.426866,193.64508 c 0.04223,0.005 0.08403,0.007 0.125386,0.006 0,0 -0.02762,-0.54981 -0.09514,-0.83191 -0.06752,-0.2821 -0.167085,-0.46891 -0.276463,-0.57464 -0.07837,-0.0757 -0.325729,-0.17008 -0.518107,0.41124 -0.0621,0.48421 0.280167,0.92702 0.764328,0.98914 z"
       fill="url(#paint16_linear_5018_2493)"
       id="path1681" />
    <path
       style="mix-blend-mode:multiply;fill:url(#paint17_linear_5018_2493);stroke-width:0.264583"
       opacity="0.5"
       d="m 36.379554,195.58281 c -0.01648,-0.0393 -0.03609,-0.0762 -0.05734,-0.11168 0,0 -0.462333,0.29885 -0.672889,0.49837 -0.210547,0.19949 -0.322537,0.37915 -0.359415,0.52673 -0.02642,0.10573 0.01557,0.36714 0.615188,0.24307 0.450374,-0.18833 0.662728,-0.70614 0.474451,-1.15649 z"
       fill="url(#paint17_linear_5018_2493)"
       id="path1683" />
    <path
       style="mix-blend-mode:multiply;fill:url(#paint18_linear_5018_2493);stroke-width:0.264583"
       opacity="0.6"
       d="m 39.581144,197.2526 c -0.02574,0.0339 -0.04792,0.0693 -0.06805,0.10551 0,0 0.489981,0.25096 0.768032,0.33356 0.278051,0.0826 0.489638,0.0898 0.6359,0.0479 0.104775,-0.03 0.310144,-0.19706 -0.0971,-0.65431 -0.388276,-0.29589 -0.942896,-0.22088 -1.23878,0.16735 z"
       fill="url(#paint18_linear_5018_2493)"
       id="path1685" />
    <path
       style="mix-blend-mode:multiply;fill:url(#paint19_linear_5018_2493);stroke-width:0.264583"
       opacity="0.3"
       d="m 39.390644,194.97303 c -0.111363,0.36972 -0.267546,0.70522 -0.45839,1.00152 -0.0104,0.0155 -0.01984,0.0311 -0.03059,0.0466 -3.7e-4,5.8e-4 -7.94e-4,0.001 -0.0012,0.002 -0.126259,0.18211 -0.276437,0.36166 -0.452729,0.53533 0.121153,0.1289 0.252148,0.25368 0.396002,0.37206 0.180684,0.14258 0.35777,0.2572 0.517922,0.348 0.403543,-0.41889 0.691118,-0.86217 0.894212,-1.30045 0.07953,-0.16171 0.14986,-0.32885 0.210371,-0.50051 -0.186161,-0.13706 -0.374756,-0.24612 -0.548535,-0.32023 -0.179731,-0.0766 -0.355414,-0.13676 -0.527103,-0.18409 z"
       fill="url(#paint19_linear_5018_2493)"
       id="path1687" />
    <path
       style="mix-blend-mode:multiply;fill:url(#paint20_linear_5018_2493);stroke-width:0.264583"
       opacity="0.3"
       d="m 35.770187,198.63131 c 1.003411,0.13655 1.968637,-0.18174 2.62618,-0.57242 -0.07805,-0.0544 -0.157507,-0.11195 -0.23884,-0.17391 -0.253788,-0.19339 -0.48215,-0.4113 -0.684477,-0.64762 -0.494718,0.2164 -1.11715,0.34332 -1.69433,0.22545 -0.557837,-0.11396 -1.050036,-0.47797 -1.301949,-1.03966 -0.04775,-0.10646 -0.08499,-0.22799 -0.108323,-0.34327 0.14578,1.02294 0.661966,1.91654 1.401739,2.55143 z"
       fill="url(#paint20_linear_5018_2493)"
       id="path1689" />
    <path
       style="mix-blend-mode:multiply;fill:url(#paint21_linear_5018_2493);stroke-width:0.264583"
       opacity="0.3"
       d="m 38.447908,196.55828 c -0.264266,-0.28115 -0.476541,-0.58394 -0.637593,-0.89715 -0.0083,-0.0168 -0.01707,-0.0328 -0.02514,-0.0498 -2.91e-4,-6.1e-4 -5.82e-4,-0.001 -8.99e-4,-0.002 -0.09462,-0.20048 -0.175049,-0.4204 -0.237332,-0.65998 -0.17182,0.0404 -0.34499,0.0914 -0.519033,0.15663 -0.21336,0.085 -0.400843,0.18085 -0.559329,0.27393 0.160973,0.55856 0.399151,1.03097 0.677016,1.42578 0.100065,0.14941 0.209418,0.29359 0.327581,0.43159 0.21209,-0.0928 0.401134,-0.20172 0.55237,-0.31533 0.155946,-0.11713 0.295672,-0.23897 0.422355,-0.36377 z"
       fill="url(#paint21_linear_5018_2493)"
       id="path1691" />
    <path
       style="mix-blend-mode:multiply;fill:url(#paint22_linear_5018_2493);stroke-width:0.264583"
       opacity="0.3"
       d="m 37.09041,191.5943 c -0.619972,0.80068 -0.826955,1.79575 -0.817377,2.56053 0.08647,-0.0406 0.176397,-0.0808 0.271145,-0.12039 0.294031,-0.12295 0.596556,-0.21172 0.902017,-0.26879 0.06001,-0.53655 0.261303,-1.13889 0.651881,-1.57971 0.377613,-0.42613 0.938979,-0.67037 1.551357,-0.60769 0.1161,0.0119 0.239977,0.0404 0.351473,0.0778 0.0051,0.002 0.01058,0.003 0.01564,0.005 7.9e-5,-10e-5 1.85e-4,-2.3e-4 2.64e-4,-3.3e-4 -0.564197,-0.22984 -1.18745,-0.33847 -1.83507,-0.29441 -0.380365,0.0259 -0.744829,0.10369 -1.088231,0.22426 -9.79e-4,10e-4 -0.0021,0.002 -0.0031,0.004 z"
       fill="url(#paint22_linear_5018_2493)"
       id="path1693" />
    <path
       style="mix-blend-mode:multiply;fill:url(#paint23_linear_5018_2493);stroke-width:0.264583"
       opacity="0.3"
       d="m 42.525613,196.25565 c -0.383646,-0.93774 -1.142471,-1.61473 -1.809829,-1.98872 -0.0081,0.0951 -0.01826,0.19309 -0.0313,0.29488 -0.04053,0.3161 -0.114908,0.62251 -0.218228,0.91556 0.435002,0.32023 0.856509,0.79603 1.04312,1.35512 0.18026,0.54007 0.111098,1.14834 -0.24937,1.64735 -0.06834,0.0946 -0.154966,0.18764 -0.243152,0.26548 -0.0013,0.001 -0.0025,0.002 -0.0038,0.003 0.77687,-0.6106 1.326356,-1.49063 1.514766,-2.48729 -7.94e-4,-0.002 -0.0014,-0.004 -0.0022,-0.006 z"
       fill="url(#paint23_linear_5018_2493)"
       id="path1695" />
    <path
       style="mix-blend-mode:multiply;fill:url(#paint24_linear_5018_2493);stroke-width:0.264583"
       opacity="0.3"
       d="m 37.443047,194.40203 c 0.02347,0.19351 0.05908,0.37539 0.103796,0.54739 0.376025,-0.0885 0.744775,-0.12099 1.096936,-0.10384 0.01865,10e-4 0.03688,0.002 0.05569,0.003 6.88e-4,6e-5 0.0014,1.1e-4 0.0021,1.6e-4 0.220583,0.0183 0.450877,0.0585 0.689107,0.12415 0.05096,-0.16913 0.09342,-0.3447 0.123984,-0.52822 0.0332,-0.2281 0.04387,-0.43902 0.04239,-0.6233 -0.564118,-0.13978 -1.091406,-0.16714 -1.572207,-0.12394 -0.179784,0.012 -0.359701,0.0346 -0.538612,0.0681 -0.02574,0.23022 -0.02593,0.4485 -0.0031,0.63638 z"
       fill="url(#paint24_linear_5018_2493)"
       id="path1697" />
  </g>
</svg>
