<svg width="1290" height="337" viewBox="0 0 1290 337" fill="none" xmlns="http://www.w3.org/2000/svg">
<g clip-path="url(#clip0_6027_117484)">
<mask id="mask0_6027_117484" style="mask-type:alpha" maskUnits="userSpaceOnUse" x="0" y="0" width="1290" height="359">
<path d="M0 0H1290V359H0V0Z" fill="#D9D9D9"/>
</mask>
<g mask="url(#mask0_6027_117484)">
<path d="M1290 -158H-188.125V867H1290V-158Z" fill="url(#paint0_linear_6027_117484)"/>
<path style="mix-blend-mode:multiply" d="M1296.97 72H-188.125V648H1296.97V72Z" fill="url(#paint1_linear_6027_117484)"/>
<g style="mix-blend-mode:screen">
<path d="M772.41 52.152C772.41 62.724 780.62 71.305 790.705 71.305C800.808 71.305 808.999 62.717 808.999 52.152C808.999 41.588 800.808 33 790.705 33C780.62 33 772.41 41.588 772.41 52.152Z" fill="url(#paint2_radial_6027_117484)"/>
<path d="M1301.42 113.498C1305.31 138.502 1289.1 162.082 1265.22 166.156C1241.35 170.23 1218.82 153.268 1214.93 128.263C1211.04 103.259 1227.25 79.6798 1251.11 75.6058C1275 71.5248 1297.53 88.4938 1301.42 113.498Z" fill="url(#paint3_radial_6027_117484)"/>
<path d="M743.015 42.4978C746.91 67.5018 730.7 91.0818 706.813 95.1558C682.946 99.2298 660.42 82.2678 656.531 57.2628C652.635 32.2588 668.846 8.67981 692.713 4.60582C716.6 0.524815 739.126 17.4938 743.021 42.4978H743.015Z" fill="url(#paint4_radial_6027_117484)"/>
<path d="M386.719 149.167C386.719 158.58 394.014 166.209 402.992 166.209C411.99 166.209 419.266 158.58 419.266 149.167C419.266 139.754 411.99 132.125 402.992 132.125C394.014 132.125 386.719 139.754 386.719 149.167Z" fill="url(#paint5_radial_6027_117484)"/>
<path d="M478.777 56.042C478.777 65.455 486.072 73.084 495.071 73.084C504.049 73.084 511.344 65.455 511.344 56.042C511.344 46.629 504.049 39 495.071 39C486.072 39 478.777 46.629 478.777 56.042Z" fill="url(#paint6_radial_6027_117484)"/>
<path d="M1138.71 15.042C1138.71 24.455 1145.98 32.084 1154.98 32.084C1163.98 32.084 1171.26 24.455 1171.26 15.042C1171.26 5.629 1163.98 -2 1154.98 -2C1145.98 -2 1138.71 5.629 1138.71 15.042Z" fill="url(#paint7_radial_6027_117484)"/>
<path d="M1203.36 197.991C1203.36 207.405 1210.63 215.034 1219.63 215.034C1228.61 215.034 1235.9 207.405 1235.9 197.991C1235.9 188.578 1228.61 180.949 1219.63 180.949C1210.63 180.949 1203.36 188.578 1203.36 197.991Z" fill="url(#paint8_radial_6027_117484)"/>
<path d="M761.461 -4.9578C761.461 4.455 768.737 12.084 777.734 12.084C786.732 12.084 794.009 4.455 794.009 -4.9578C794.009 -14.371 786.732 -22 777.734 -22C768.737 -22 761.461 -14.371 761.461 -4.9578Z" fill="url(#paint9_radial_6027_117484)"/>
<path d="M742.551 186.042C742.551 195.455 749.827 203.084 758.825 203.084C767.822 203.084 775.098 195.455 775.098 186.042C775.098 176.629 767.822 169 758.825 169C749.827 169 742.551 176.629 742.551 186.042Z" fill="url(#paint10_radial_6027_117484)"/>
<path d="M531.531 130.5C531.531 135.739 535.757 140 540.981 140C546.221 140 550.443 135.758 550.443 130.5C550.443 125.242 546.218 121 540.981 121C535.754 121 531.531 125.242 531.531 130.5Z" fill="url(#paint11_radial_6027_117484)"/>
<path d="M646 144.588C646 157.07 655.659 167.175 667.567 167.175C679.5 167.175 689.159 157.07 689.159 144.588C689.159 132.105 679.5 122 667.567 122C655.652 122 646 132.105 646 144.588Z" fill="url(#paint12_radial_6027_117484)"/>
<path d="M1204.4 50.5C1204.4 58.513 1210.64 65 1218.33 65C1226.03 65 1232.27 58.513 1232.27 50.5C1232.27 42.487 1226.03 36 1218.33 36C1210.63 36 1204.4 42.487 1204.4 50.5Z" fill="url(#paint13_radial_6027_117484)"/>
<path d="M1265.12 288.042C1265.12 297.455 1272.41 305.084 1281.39 305.084C1290.39 305.084 1297.67 297.455 1297.67 288.042C1297.67 278.629 1290.39 271 1281.39 271C1272.41 271 1265.12 278.629 1265.12 288.042Z" fill="url(#paint14_radial_6027_117484)"/>
</g>
<g opacity="0.5">
<path d="M1133.49 297.563C1209.09 226 1209.09 109.971 1133.49 38.4181C1057.89 -33.1446 935.314 -33.1446 859.726 38.4181C784.128 109.982 784.128 226 859.726 297.563C935.325 369.127 1057.9 369.127 1133.49 297.563Z" fill="url(#paint15_radial_6027_117484)"/>
<g opacity="0.1">
<path d="M893.639 175.484C896.852 171.34 897.557 165.915 897.3 160.764C897.042 155.635 895.956 150.549 896.012 145.409C896.157 134.123 902.315 123.059 912.054 116.542C915.413 114.306 919.79 112.547 923.563 114.115C930.839 117.167 928.645 128.676 935.027 133.19C937.713 135.087 941.419 135.257 944.665 134.42C947.901 133.582 950.788 131.855 953.666 130.212C968.241 121.894 983.97 115.027 1000.73 112.25C1006.13 111.349 1011.8 110.904 1017.03 112.473C1022.26 114.03 1026.99 118.004 1027.89 123.133C1028.6 127.203 1026.88 131.293 1024.77 134.886C1021.65 140.195 1017.53 145.07 1012.26 148.535C1006.99 151.99 1000.5 153.961 994.102 153.325C987.855 152.7 982.201 149.701 976.212 147.973C970.648 146.363 964.502 145.875 959.084 147.878C953.666 149.881 949.21 154.777 949.143 160.277C949.087 164.993 952.109 169.348 952.345 174.074C952.557 178.313 950.24 182.637 946.412 184.841C942.582 187.045 937.332 186.918 933.717 184.396C930.391 182.075 928.724 178.123 928.174 174.255C927.615 170.365 927.996 166.434 927.907 162.523C927.805 157.808 926.216 152.17 921.425 150.866C916.879 149.637 912.424 153.251 910.096 157.14C907.476 161.453 906.144 166.476 906.3 171.468C906.456 176.141 907.879 180.698 908.148 185.36C908.416 190.034 907.23 195.174 903.322 198.035C898.922 201.246 892.363 200.44 887.717 197.569C883.059 194.697 879.892 190.161 876.846 185.784C876.007 184.566 874.362 181.704 876.522 180.751C877.63 180.263 880.53 181.461 881.907 181.387C886.451 181.132 890.919 178.96 893.639 175.484Z" fill="url(#paint16_linear_6027_117484)"/>
</g>
<g opacity="0.1">
<path d="M1040.43 126.386C1043.01 136.368 1041.48 147.485 1035.08 155.782C1028.69 164.08 1017.18 168.955 1006.6 166.697C1003.88 166.115 1001.24 165.097 998.446 164.928C990.849 164.451 984.4 170.364 980.75 176.701C974.269 187.934 973.462 202.368 980.247 213.463C987.019 224.548 1001.8 231.203 1014.82 227.674C1025.87 224.686 1033.81 215.54 1039.54 206.098C1045.27 196.656 1049.61 186.324 1057.14 178.111C1061.69 173.141 1068.44 168.796 1075.18 170.406C1079.53 171.434 1082.81 174.72 1085.96 177.74C1091.63 183.208 1097.77 188.401 1104.98 191.876C1112.19 195.352 1120.67 196.984 1128.5 195.077C1136.5 193.116 1143.15 187.595 1147.65 181.046C1152.15 174.486 1154.7 166.909 1156.65 159.311C1160.85 143.013 1162.36 124.997 1154.09 110.151C1152.1 106.579 1148.89 102.913 1144.62 102.913C1142.15 102.913 1139.88 104.184 1137.88 105.573C1129.6 111.348 1123.7 119.646 1116.55 126.65C1113.76 129.385 1110.68 131.97 1106.96 133.39C1103.23 134.81 1098.76 134.874 1095.42 132.754C1091.16 130.052 1089.88 124.489 1090.83 119.72C1091.78 114.951 1094.54 110.712 1096.94 106.452C1104.86 92.4002 1109.6 76.1022 1106.3 60.4812C1105.44 56.4332 1103.95 52.3212 1100.88 49.3862C1097.8 46.4512 1092.82 45.0092 1088.93 46.8742C1084.77 48.8672 1083.19 53.6572 1082.29 57.9912C1079.77 70.0292 1079.03 82.9162 1072.01 93.2162C1070.3 95.7382 1067.9 98.2182 1064.77 98.5472C1061.42 98.9072 1058.41 96.7242 1055.76 94.7632C1051.63 91.7432 1047.19 88.9032 1042.13 87.6842C1033.9 85.7032 1020.14 90.9382 1024.53 100.772C1026.06 104.174 1030.12 106.982 1032.38 109.981C1036.1 114.919 1038.95 120.493 1040.47 126.375L1040.44 126.407L1040.43 126.386Z" fill="url(#paint17_linear_6027_117484)"/>
</g>
<g opacity="0.1">
<path d="M934.437 110.288C934.896 107.936 937.394 105.308 939.487 106.643C940.371 107.204 940.695 108.264 941.066 109.207C942.577 113.065 946.383 116.562 950.704 116.191C953.089 115.968 955.193 114.654 957.208 113.425C967.664 106.992 978.87 101.704 990.591 97.6669C993.491 96.6709 997.391 96.0349 999.063 98.4719C1000.31 100.263 999.411 102.796 997.719 104.205C996.017 105.636 993.77 106.208 991.599 106.802C981.042 109.705 970.9 113.902 961.496 119.264C956.358 122.2 949.36 126.576 943.114 124.732C937.158 122.994 933.341 115.862 934.427 110.288H934.437Z" fill="url(#paint18_linear_6027_117484)"/>
</g>
<g opacity="0.1">
<path d="M1050.46 77.9148C1053.21 79.4308 1055.76 81.6028 1058.94 81.8998C1063.91 82.3768 1068.04 77.8828 1069.2 73.2838C1070.34 68.6638 1069.46 63.8628 1069.57 59.1368C1069.73 53.4668 1071.36 47.8608 1074.31 42.9338C1077.07 38.3348 1081.77 34.0428 1087.33 34.3918C1090.64 34.6038 1094.17 36.3848 1096.98 34.7528C1099.17 33.4918 1099.74 30.5238 1098.7 28.3098C1097.66 26.0948 1095.41 24.5788 1093.05 23.6888C1088.77 22.0678 1083.82 22.1528 1079.61 23.9218C1073.59 26.4438 1069.55 32.0398 1067.4 37.9108C1065.24 43.8028 1064.69 50.0758 1063.72 56.2328C1063.16 59.8578 1062.19 63.8418 1058.98 65.8978C1054.64 68.6848 1048.43 66.5548 1043.72 68.7378C1041.13 69.9358 1036.08 76.2198 1040.81 77.5868C1041.96 77.9148 1043.71 76.5588 1044.95 76.4948C1046.85 76.3568 1048.87 77.0358 1050.48 77.9358L1050.46 77.9148Z" fill="url(#paint19_linear_6027_117484)"/>
</g>
<g opacity="0.1">
<path d="M1109.73 104.047C1109.48 106.877 1111.3 110.13 1114.31 110.406C1116.58 110.607 1118.57 109.102 1120.31 107.693C1125.31 103.592 1130.3 99.4898 1135.31 95.3888C1138.34 92.8988 1142.22 90.2498 1146.01 91.4898C1147.76 92.0618 1149.13 93.4078 1150.73 94.2978C1152.34 95.1878 1154.64 95.5058 1155.89 94.2018C1156.59 93.4708 1156.77 92.4008 1156.82 91.4258C1157.22 85.2798 1154.72 79.1858 1151.02 74.1098C1147.3 69.0228 1142.46 64.8058 1137.6 60.6828C1136.02 59.3378 1134.38 57.9808 1132.37 57.2818C1130.37 56.5928 1127.9 56.7518 1126.39 58.1818C1123.62 60.8108 1125.76 65.1658 1127.5 68.5038C1129.33 72.0118 1130.55 76.1768 1128.97 79.8008C1126.64 85.1518 1120.1 82.6508 1117.35 87.2288C1114.75 91.5848 1110.15 99.0448 1109.72 104.068L1109.73 104.047Z" fill="url(#paint20_linear_6027_117484)"/>
</g>
<g opacity="0.1">
<path d="M841.388 209.363C844.041 213.592 847.332 217.576 851.721 220.215C856.097 222.843 861.706 223.977 866.61 222.334C870.618 220.988 873.998 217.905 878.241 217.608C882.507 217.311 886.391 219.971 889.257 222.981C892.134 225.99 894.519 229.487 898 231.829C901.639 234.267 906.396 235.221 910.706 234.171C915.027 233.133 918.767 230.017 920.244 226.054C922.472 220.077 919.595 213.221 921.801 207.244C923.737 202.009 929.939 198.416 935.693 199.455C943.428 200.854 947.492 208.685 951.019 215.361C956.56 225.821 964.228 236.121 975.647 240.572C979.465 242.056 984.021 243.168 985.88 246.655C988.231 251.021 984.85 256.139 981.267 259.668C972.916 267.892 961.833 274.367 949.777 274.663C933.387 275.066 918.9 264.066 909.497 251.339C906.676 247.513 904.067 243.412 900.16 240.604C896.32 237.838 891.563 236.545 886.906 235.316C882.741 234.203 878.387 233.09 874.143 233.906C869.565 234.786 865.792 237.796 861.46 239.459C855 241.939 847.266 241.155 841.499 237.435C838.477 235.475 836.026 232.815 833.764 230.081C829.913 225.418 826.442 220.469 823.431 215.266C820.532 210.275 818.013 204.944 817.364 199.285C816.715 193.616 818.159 187.522 822.312 183.389C824.159 181.567 826.734 180.125 829.365 180.507C834.514 181.27 833.372 188.9 834.234 192.45C835.667 198.363 838.074 204.096 841.354 209.321L841.388 209.353V209.363Z" fill="url(#paint21_linear_6027_117484)"/>
</g>
<g opacity="0.1">
<path d="M861.804 111.096C863.137 110.482 864.592 110.005 866.07 110.164C869.596 110.535 871.589 114.223 872.261 117.518C872.944 120.825 873.033 124.47 875.306 127.056C878.519 130.701 884.799 130.447 889.042 127.904C893.285 125.371 896.016 121.174 898.882 117.275C903.953 110.365 909.831 103.996 916.38 98.2947C921.048 94.2467 927.127 90.2827 933.228 91.8727C936.788 92.7837 939.553 95.4657 942.934 96.8637C951.273 100.351 960.801 95.5187 967.764 89.9437C974.716 84.3807 981.5 77.5557 990.501 76.2947C999.55 75.0227 1009.03 79.7497 1017.72 77.0047C1023.3 75.2457 1027.61 70.2867 1028.35 64.7547C1029.04 59.5407 1026.94 53.6277 1030.09 49.2927C1033.27 44.8737 1039.89 44.7047 1045.38 43.3907C1055.37 40.9747 1063.8 32.4437 1064.25 22.6837C1064.69 12.9237 1055.9 3.22673 1045.58 3.39673C1041.97 3.45973 1038.48 4.59373 1035.29 6.13073C1023.64 11.7257 1015.32 23.1177 1013.92 35.4217C1012.99 43.6027 1014.82 52.4297 1010.72 59.6887C1008.56 63.5147 1004.86 66.5137 1000.52 67.9337C994.195 69.9897 987.098 68.6547 980.716 70.5507C971.425 73.2957 965.828 81.9427 958.954 88.4607C957.14 90.1667 955.058 91.8407 952.527 92.2437C950.524 92.5617 948.475 92.0637 946.617 91.2797C937.526 87.5067 931.134 77.2907 921.216 77.6617C912.495 77.9797 906.842 86.5427 904.378 94.4587C901.916 102.375 900.718 111.255 894.527 117.084C892.769 118.748 890.239 120.125 887.866 119.405C884.743 118.44 884.004 114.636 883.803 111.531C883.556 107.875 883.31 104.208 883.064 100.542C882.784 96.3657 882.336 91.7987 879.246 88.8207C876.381 86.0657 871.824 85.3767 867.816 86.1927C863.82 87.0087 860.249 89.0857 856.845 91.2577C849.759 95.7517 833.862 106.444 834.658 116.173C835.094 121.461 840.882 123.803 845.64 122.001C851.864 119.648 855.849 113.862 861.838 111.086H861.816L861.804 111.096Z" fill="url(#paint22_linear_6027_117484)"/>
</g>
<g opacity="0.1">
<path d="M888.722 15.837C866.824 29.751 848.891 47.162 835.188 66.767C835.882 67.583 836.89 68.145 837.931 68.516C842.006 70.01 846.685 69.151 850.615 67.318C854.543 65.495 857.925 62.804 861.462 60.366C866.365 57.007 871.649 54.124 877.191 51.804C881.847 49.843 888.386 48.773 891.128 52.842C892.528 54.909 892.281 57.579 892.001 60.027C891.117 67.488 890.255 74.959 889.37 82.419C889.057 85.111 888.89 88.205 890.893 90.113C894.062 93.112 899.535 90.611 902.502 87.432C910.283 79.07 912.633 66.714 921.724 59.656C924.142 57.791 927.355 56.339 930.31 57.251C933.624 58.279 935.202 61.712 936.691 64.69C938.561 68.42 940.856 71.96 943.543 75.202C949.946 82.97 955.723 79.558 958.622 71.652C961.409 64.043 968.687 59.349 976.914 58.363C983.004 57.632 989.195 55.778 993.684 51.624C998.16 47.501 998.906 41.408 998.886 35.77C998.886 28.543 999.573 21.941 1004.54 16.112C1009.35 10.443 1016.36 5.727 1023.63 3.406C1027.71 2.113 1032.2 1.912 1036.05 0.046999C1040.04 -1.8607 1042.61 -5.6969 1043.46 -9.8299C992.24 -21.9107 936.02 -14.2277 888.732 15.794L888.722 15.837Z" fill="url(#paint23_linear_6027_117484)"/>
</g>
<g opacity="0.5">
<path d="M1133.49 297.563C1209.09 226 1209.09 109.971 1133.49 38.4181C1057.89 -33.1446 935.314 -33.1446 859.726 38.4181C784.128 109.982 784.128 226 859.726 297.563C935.325 369.127 1057.9 369.127 1133.49 297.563Z" fill="url(#paint24_radial_6027_117484)"/>
</g>
<g opacity="0.2">
<path d="M893.631 175.484C896.844 171.34 897.549 165.915 897.292 160.764C897.034 155.635 895.948 150.549 896.004 145.409C896.15 134.123 902.307 123.059 912.047 116.542C915.405 114.306 919.783 112.547 923.555 114.115C930.831 117.178 928.637 128.676 935.019 133.19C937.705 135.087 941.411 135.257 944.657 134.42C947.893 133.582 950.78 131.855 953.658 130.212C968.233 121.894 983.962 115.027 1000.73 112.25C1006.13 111.349 1011.79 110.904 1017.02 112.473C1022.24 114.03 1026.98 118.004 1027.88 123.133C1028.59 127.203 1026.87 131.293 1024.75 134.886C1021.65 140.195 1017.53 145.07 1012.25 148.535C1006.98 151.99 1000.49 153.961 994.094 153.325C987.847 152.7 982.193 149.701 976.204 147.973C970.64 146.363 964.495 145.875 959.076 147.878C953.658 149.892 949.203 154.777 949.135 160.277C949.079 164.993 952.101 169.348 952.337 174.074C952.549 178.313 950.232 182.637 946.404 184.841C942.575 187.045 937.325 186.918 933.709 184.407C930.383 182.075 928.716 178.123 928.168 174.255C927.607 170.365 927.988 166.434 927.899 162.523C927.798 157.808 926.208 152.17 921.417 150.866C916.871 149.637 912.416 153.251 910.088 157.14C907.468 161.464 906.136 166.476 906.292 171.468C906.45 176.141 907.871 180.698 908.14 185.36C908.408 190.034 907.222 195.184 903.315 198.035C898.916 201.246 892.355 200.44 887.709 197.579C883.052 194.697 879.884 190.172 876.839 185.784C875.999 184.566 874.354 181.704 876.514 180.751C877.623 180.263 880.522 181.461 881.899 181.387C886.444 181.132 890.911 178.96 893.631 175.484Z" stroke="#220E6E" stroke-width="0.967233"/>
<path d="M1040.43 126.386C1043.01 136.368 1041.48 147.485 1035.08 155.782C1028.69 164.08 1017.18 168.955 1006.6 166.697C1003.88 166.115 1001.24 165.097 998.446 164.928C990.849 164.451 984.4 170.364 980.75 176.701C974.269 187.934 973.462 202.378 980.247 213.463C987.019 224.548 1001.8 231.203 1014.82 227.674C1025.87 224.686 1033.81 215.54 1039.54 206.098C1045.27 196.656 1049.61 186.324 1057.14 178.111C1061.69 173.141 1068.44 168.796 1075.18 170.406C1079.53 171.434 1082.81 174.72 1085.96 177.74C1091.63 183.208 1097.77 188.401 1104.98 191.876C1112.19 195.352 1120.67 196.995 1128.5 195.077C1136.5 193.116 1143.15 187.595 1147.65 181.046C1152.15 174.486 1154.7 166.909 1156.65 159.311C1160.85 143.013 1162.36 124.997 1154.09 110.151C1152.1 106.579 1148.89 102.913 1144.62 102.913C1142.15 102.913 1139.88 104.184 1137.88 105.573C1129.6 111.348 1123.7 119.646 1116.55 126.65C1113.76 129.385 1110.68 131.97 1106.96 133.39C1103.23 134.81 1098.76 134.874 1095.42 132.754C1091.16 130.052 1089.88 124.489 1090.83 119.72C1091.78 114.951 1094.54 110.712 1096.94 106.452C1104.86 92.4002 1109.6 76.1022 1106.3 60.4812C1105.44 56.4332 1103.95 52.3212 1100.88 49.3862C1097.8 46.4512 1092.82 45.0092 1088.93 46.8742C1084.77 48.8672 1083.19 53.6572 1082.29 57.9912C1079.77 70.0292 1079.03 82.9162 1072.01 93.2162C1070.3 95.7382 1067.9 98.2182 1064.77 98.5472C1061.42 98.9072 1058.41 96.7242 1055.76 94.7632C1051.63 91.7432 1047.19 88.9032 1042.13 87.6842C1033.9 85.7032 1020.14 90.9382 1024.53 100.772C1026.06 104.174 1030.12 106.982 1032.38 109.981C1036.1 114.919 1038.95 120.493 1040.47 126.386L1040.44 126.417L1040.43 126.386Z" stroke="#220E6E" stroke-width="0.967233"/>
<path d="M934.441 110.288C934.9 107.936 937.396 105.308 939.489 106.643C940.374 107.204 940.699 108.264 941.068 109.207C942.579 113.065 946.385 116.562 950.707 116.191C953.091 115.979 955.196 114.654 957.211 113.425C967.667 106.992 978.873 101.704 990.594 97.6669C993.493 96.6709 997.392 96.0349 999.064 98.4719C1000.31 100.263 999.413 102.796 997.721 104.216C996.028 105.636 993.774 106.219 991.602 106.812C981.045 109.705 970.902 113.902 961.499 119.275C956.36 122.21 949.364 126.587 943.117 124.743C937.172 123.005 933.344 115.873 934.43 110.299L934.441 110.288Z" stroke="#220E6E" stroke-width="0.967233"/>
<path d="M1050.46 77.9148C1053.2 79.4308 1055.76 81.6028 1058.93 81.8998C1063.91 82.3768 1068.04 77.8828 1069.19 73.2838C1070.33 68.6738 1069.45 63.8628 1069.57 59.1368C1069.71 53.4668 1071.35 47.8608 1074.3 42.9338C1077.06 38.3348 1081.76 34.0428 1087.32 34.3918C1090.63 34.6038 1094.17 36.3848 1096.98 34.7528C1099.16 33.4918 1099.74 30.5238 1098.69 28.3098C1097.65 26.0948 1095.4 24.5788 1093.04 23.6888C1088.76 22.0678 1083.81 22.1528 1079.6 23.9218C1073.58 26.4438 1069.54 32.0398 1067.39 37.9108C1065.23 43.8028 1064.68 50.0758 1063.71 56.2328C1063.15 59.8578 1062.18 63.8418 1058.97 65.9088C1054.63 68.6958 1048.42 66.5548 1043.72 68.7378C1041.13 69.9358 1036.08 76.2198 1040.8 77.5868C1041.95 77.9148 1043.71 76.5588 1044.94 76.4948C1046.85 76.3568 1048.86 77.0358 1050.47 77.9358L1050.46 77.9148Z" stroke="#220E6E" stroke-width="0.967233"/>
<path d="M1109.72 104.047C1109.48 106.877 1111.3 110.13 1114.3 110.406C1116.58 110.607 1118.57 109.102 1120.3 107.693C1125.31 103.602 1130.3 99.4898 1135.3 95.3888C1138.34 92.8988 1142.21 90.2498 1146 91.4898C1147.76 92.0618 1149.12 93.4078 1150.73 94.2978C1152.34 95.1878 1154.64 95.5058 1155.9 94.2018C1156.58 93.4708 1156.76 92.4008 1156.82 91.4258C1157.21 85.2798 1154.71 79.1858 1151.01 74.1098C1147.31 69.0228 1142.46 64.8058 1137.6 60.6828C1136.01 59.3378 1134.38 57.9808 1132.37 57.2818C1130.36 56.5928 1127.9 56.7518 1126.39 58.1818C1123.62 60.8108 1125.76 65.1658 1127.49 68.5038C1129.33 72.0118 1130.54 76.1768 1128.97 79.8008C1126.64 85.1518 1120.1 82.6618 1117.34 87.2288C1114.74 91.5848 1110.15 99.0448 1109.71 104.068L1109.72 104.047Z" stroke="#220E6E" stroke-width="0.967233"/>
<path d="M841.388 209.363C844.041 213.592 847.343 217.576 851.721 220.215C856.097 222.843 861.706 223.977 866.61 222.334C870.618 220.988 873.998 217.905 878.241 217.608C882.507 217.311 886.391 219.971 889.257 222.981C892.134 225.99 894.519 229.498 898 231.829C901.639 234.267 906.396 235.221 910.706 234.171C915.027 233.133 918.767 230.017 920.244 226.054C922.472 220.077 919.595 213.221 921.801 207.244C923.737 202.009 929.939 198.416 935.693 199.455C943.428 200.854 947.492 208.685 951.019 215.361C956.56 225.821 964.228 236.121 975.647 240.572C979.465 242.056 984.021 243.168 985.88 246.655C988.231 251.021 984.85 256.139 981.267 259.668C972.916 267.892 961.833 274.367 949.777 274.663C933.387 275.066 918.9 264.066 909.497 251.339C906.676 247.513 904.067 243.412 900.16 240.604C896.32 237.838 891.563 236.545 886.906 235.316C882.741 234.203 878.387 233.09 874.143 233.906C869.565 234.786 865.792 237.796 861.46 239.459C855 241.939 847.266 241.155 841.499 237.435C838.477 235.475 836.026 232.815 833.764 230.081C829.913 225.418 826.442 220.469 823.431 215.266C820.532 210.275 818.013 204.944 817.364 199.285C816.715 193.616 818.159 187.522 822.312 183.389C824.159 181.567 826.734 180.125 829.365 180.507C834.514 181.27 833.372 188.9 834.234 192.45C835.667 198.374 838.074 204.096 841.354 209.321L841.388 209.353V209.363Z" stroke="#220E6E" stroke-width="0.967233"/>
<path d="M861.809 111.096C863.142 110.482 864.597 110.005 866.074 110.164C869.601 110.535 871.594 114.223 872.266 117.518C872.948 120.825 873.038 124.47 875.31 127.056C878.524 130.701 884.803 130.447 889.047 127.904C893.29 125.371 896.021 121.174 898.887 117.275C903.958 110.365 909.835 104.007 916.384 98.2947C921.053 94.2467 927.131 90.2827 933.232 91.8727C936.792 92.7837 939.558 95.4657 942.938 96.8637C951.278 100.351 960.806 95.5187 967.768 89.9437C974.72 84.3807 981.504 77.5557 990.506 76.2947C999.551 75.0227 1009.04 79.7497 1017.72 77.0047C1023.31 75.2457 1027.62 70.2867 1028.36 64.7547C1029.05 59.5407 1026.94 53.6277 1030.09 49.2927C1033.28 44.8737 1039.89 44.7047 1045.38 43.3907C1055.38 40.9747 1063.81 32.4437 1064.26 22.6837C1064.7 12.9237 1055.91 3.22673 1045.59 3.39673C1041.98 3.45973 1038.49 4.59373 1035.29 6.13073C1023.64 11.7257 1015.33 23.1177 1013.92 35.4217C1013 43.6027 1014.82 52.4297 1010.72 59.6997C1008.56 63.5247 1004.86 66.5137 1000.53 67.9337C994.199 69.9897 987.102 68.6547 980.721 70.5507C971.429 73.2957 965.831 81.9427 958.958 88.4607C957.145 90.1667 955.063 91.8407 952.532 92.2437C950.529 92.5617 948.48 92.0637 946.622 91.2797C937.531 87.5067 931.139 77.2907 921.221 77.6617C912.499 77.9797 906.847 86.5427 904.383 94.4587C901.921 102.375 900.722 111.255 894.532 117.084C892.774 118.758 890.244 120.125 887.871 119.405C884.748 118.44 884.009 114.636 883.807 111.531C883.561 107.875 883.315 104.208 883.068 100.542C882.789 96.3657 882.341 91.7987 879.251 88.8317C876.385 86.0657 871.829 85.3767 867.821 86.1927C863.825 87.0087 860.253 89.0857 856.85 91.2577C849.764 95.7517 833.867 106.444 834.662 116.173C835.098 121.461 840.887 123.803 845.644 122.001C851.868 119.648 855.854 113.862 861.843 111.086H861.82L861.809 111.096Z" stroke="#220E6E" stroke-width="0.967233"/>
<path d="M888.718 15.837C866.82 29.751 848.887 47.162 835.184 66.767C835.878 67.583 836.886 68.145 837.927 68.516C842.002 70.01 846.681 69.151 850.611 67.318C854.54 65.495 857.921 62.804 861.458 60.366C866.362 57.007 871.646 54.124 877.187 51.804C881.844 49.843 888.382 48.783 891.124 52.842C892.524 54.909 892.278 57.579 891.997 60.027C891.113 67.488 890.251 74.959 889.367 82.419C889.053 85.111 888.886 88.205 890.89 90.113C894.058 93.112 899.532 90.611 902.498 87.432C910.279 79.07 912.629 66.725 921.72 59.656C924.138 57.791 927.351 56.35 930.306 57.251C933.62 58.279 935.198 61.712 936.687 64.69C938.557 68.42 940.852 71.96 943.539 75.202C949.942 82.97 955.719 79.558 958.619 71.652C961.406 64.043 968.683 59.349 976.91 58.363C983.001 57.632 989.191 55.778 993.68 51.624C998.158 47.501 998.894 41.408 998.884 35.77C998.884 28.543 999.571 21.941 1004.54 16.112C1009.35 10.453 1016.36 5.727 1023.63 3.406C1027.71 2.113 1032.2 1.912 1036.05 0.046999C1040.04 -1.8607 1042.61 -5.6969 1043.46 -9.8299C992.236 -21.9107 936.016 -14.2277 888.729 15.794L888.718 15.837Z" stroke="#220E6E" stroke-width="0.967233"/>
</g>
<path opacity="0.6" d="M729.464 259.063C732.755 266.682 744.936 270.54 764.851 270.54C779.023 270.54 797.126 268.59 818.72 264.658C870.429 255.248 936.12 235.675 1003.68 209.542C1071.26 183.409 1132.62 153.832 1176.5 126.279C1220.54 98.5989 1241.71 76.1759 1236.07 63.1409C1232.96 55.9139 1222.02 52.0669 1203.55 51.7069C1189.54 51.4419 1171.79 53.1689 1150.65 56.8679C1150.86 57.1429 1151.08 57.4189 1151.29 57.6939C1199.67 49.3009 1229.91 51.2929 1235.18 63.4909C1237.9 69.7959 1233.96 78.5069 1223.47 89.3799C1213.23 99.9979 1197.24 112.153 1175.96 125.527C1132.14 153.059 1070.83 182.593 1003.31 208.705C935.796 234.816 870.172 254.379 818.53 263.768C793.442 268.335 773.034 270.254 757.865 269.459C742.327 268.653 733.069 265.04 730.348 258.734C724.304 244.714 751.618 218.698 804.144 187.839C804.111 187.5 804.077 187.171 804.033 186.832C781.307 200.174 762.835 212.891 749.973 224.081C732.789 239.045 725.881 250.818 729.442 259.084L729.464 259.063ZM716.501 271.801C720.811 281.783 736.551 286.859 762.052 286.859C776.191 286.859 793.341 285.291 813.201 282.144C868.649 273.327 938.729 253.181 1010.53 225.406C1082.34 197.631 1147.26 165.563 1193.37 135.096C1239.64 104.513 1261.44 79.1319 1254.74 63.6179C1247.64 47.1709 1209.46 44.0979 1149.02 54.7799C1149.24 55.0549 1149.46 55.3309 1149.67 55.6059C1175.51 51.0919 1197.82 49.0149 1214.93 49.5769C1236.64 50.2969 1250.09 55.2669 1253.85 63.9679C1257.12 71.5339 1253.28 81.6229 1242.44 93.9579C1231.89 105.975 1215.19 119.571 1192.82 134.355C1146.78 164.779 1081.9 196.825 1010.16 224.569C938.427 252.312 868.425 272.447 813.034 281.243C786.132 285.524 764.157 286.891 747.723 285.302C730.852 283.68 720.654 279.018 717.385 271.451C713.164 261.67 721.09 247.3 740.3 229.91C755.369 216.261 777.109 201.001 803.875 185.211C803.843 184.872 803.809 184.533 803.775 184.193C776.763 200.1 754.832 215.498 739.629 229.253C720.105 246.929 712.112 261.638 716.489 271.801H716.501ZM693.081 289.191C698.242 301.166 717.015 307.291 747.298 307.291C762.231 307.291 779.964 305.797 800.237 302.787C861.418 293.705 938.561 271.907 1017.44 241.387C1096.32 210.877 1167.52 175.302 1217.91 141.232C1268.47 107.045 1292.07 78.3689 1284.36 60.4809C1279.48 49.1739 1262 42.9319 1233.82 42.4339C1210.92 42.0309 1181.13 45.3799 1146.83 52.1729C1147.07 52.4379 1147.28 52.7029 1147.51 52.9679C1181.53 46.2599 1211.09 42.9429 1233.8 43.3449C1261.56 43.8329 1278.74 49.8729 1283.46 60.8199C1287.24 69.5839 1283.19 81.1139 1271.44 95.0809C1260 108.677 1241.79 123.948 1217.35 140.48C1167.01 174.518 1095.89 210.051 1017.07 240.528C938.258 271.017 861.194 292.794 800.081 301.865C770.392 306.274 746.099 307.429 727.886 305.309C709.156 303.137 697.749 297.584 693.965 288.82C688.76 276.782 698.577 259.211 722.333 238.006C741.622 220.786 769.452 201.732 803.608 182.275C803.585 181.936 803.551 181.597 803.518 181.258C769.116 200.82 741.073 220.012 721.661 237.339C697.593 258.83 687.696 276.75 693.07 289.17L693.081 289.191ZM1310.24 56.9949C1304.51 43.7379 1283.73 36.6369 1250.14 36.4679C1222.26 36.3299 1186.1 40.9079 1144.71 49.7779C1144.94 50.0429 1145.17 50.3079 1145.4 50.5619C1185.91 41.9039 1221.34 37.3789 1248.87 37.3789C1249.28 37.3789 1249.71 37.3789 1250.13 37.3789C1283.3 37.5489 1303.78 44.4479 1309.34 57.3339C1313.55 67.0939 1309.3 79.8109 1296.71 95.1659C1284.46 110.087 1264.9 126.799 1238.58 144.835C1184.41 181.968 1107.72 220.542 1022.62 253.457C937.542 286.372 854.253 309.675 788.114 319.075C755.984 323.642 729.655 324.67 709.873 322.138C689.532 319.531 677.083 313.268 672.863 303.518C666.829 289.541 678.393 269.183 706.279 244.64C729.397 224.304 762.679 201.986 803.395 179.456C803.372 179.117 803.35 178.778 803.327 178.439C762.366 201.085 728.87 223.52 705.63 243.972C677.42 268.791 665.777 289.509 671.979 303.868C677.845 317.464 699.081 324.427 733.248 324.427C748.932 324.427 767.358 322.954 788.259 319.986C854.477 310.576 937.844 287.252 1022.99 254.305C1108.16 221.369 1184.93 182.752 1239.16 145.577C1293.56 108.285 1318.81 76.8219 1310.24 56.9949Z" fill="url(#paint25_linear_6027_117484)"/>
</g>
<path d="M845.309 103.722L872.389 101.539L863.444 104.019L878.087 111.712L861.374 119.374L845.309 103.733V103.722Z" fill="url(#paint26_linear_6027_117484)" stroke="#220E6E" stroke-width="0.416135"/>
<path d="M859.695 121.325L845.309 103.723L861.374 119.364L859.695 121.314V121.325Z" fill="url(#paint27_linear_6027_117484)" stroke="#220E6E" stroke-width="0.416135"/>
<path d="M920.698 102.748C920.406 104.995 916.376 110.166 910.622 116.291C902.652 124.78 891.378 135.101 882.21 142.021C884.169 140.315 885.96 138.418 887.293 136.246C888.21 134.752 888.904 133.141 889.285 131.445C889.475 130.587 889.554 129.739 889.61 128.86C889.655 128.128 889.397 127.429 889.676 126.719C889.9 126.147 890.303 125.659 890.707 125.182C893.416 121.971 896.125 118.76 898.834 115.549C900.547 113.525 902.249 111.501 903.961 109.477C900.625 112.031 897.188 114.437 893.674 116.747C891.244 118.358 888.771 119.916 886.285 121.452C885.658 121.834 884.963 122.141 884.259 122.258C883.61 122.364 882.949 122.342 882.3 122.109C880.631 121.505 878.952 120.933 877.228 120.467C875.661 120.043 874.071 119.693 872.481 119.407C870.086 118.983 867.679 118.718 865.238 118.58C864.175 118.517 863.078 118.549 862.082 118.898C861.958 118.941 861.847 118.994 861.734 119.047C872.403 113.737 884.483 108.799 898.912 104.338C900.581 103.829 902.271 103.32 904.006 102.812C906.581 102.07 909.335 102.017 911.91 102.748H911.955C913.376 102.621 914.787 102.547 916.186 102.525C917.709 102.504 919.22 102.578 920.709 102.748H920.698Z" fill="url(#paint28_linear_6027_117484)" stroke="#220E6E" stroke-width="0.416135"/>
<path d="M877.239 120.465C875.671 120.041 874.082 119.691 872.492 119.405C875.492 117.551 878.682 115.866 882.22 115.718C885.311 115.59 888.322 116.661 891.4 116.798C892.162 116.83 892.934 116.82 893.684 116.745C891.255 118.356 888.791 119.914 886.295 121.451C885.669 121.832 884.985 122.139 884.269 122.256C883.619 122.362 882.959 122.341 882.31 122.108C880.642 121.504 878.963 120.931 877.239 120.465Z" fill="url(#paint29_linear_6027_117484)" stroke="#220E6E" stroke-width="0.416135"/>
<path d="M920.699 102.746C920.408 104.993 916.378 110.164 910.624 116.289C902.653 124.778 891.38 135.099 882.211 142.019C884.171 140.313 885.962 138.416 887.293 136.244C888.212 134.75 888.906 133.139 889.286 131.443C889.477 130.585 889.555 129.737 889.612 128.858C889.656 128.126 889.399 127.427 889.678 126.717C889.902 126.145 890.305 125.657 890.708 125.18C893.418 121.969 896.126 118.758 898.836 115.547C901.769 114.509 904.59 112.951 907.288 111.436C909.179 110.376 911.027 109.232 912.785 107.981C914.083 107.059 916.434 105.978 916.636 104.304C916.713 103.689 916.534 103.043 916.165 102.523C917.688 102.502 919.199 102.566 920.688 102.735L920.699 102.746Z" fill="url(#paint30_linear_6027_117484)" stroke="#220E6E" stroke-width="0.416135"/>
<path d="M900.425 125.289C895.869 130.037 890.697 134.223 885.547 138.387C886.767 135.071 887.977 131.743 889.197 128.426C889.521 127.546 889.846 126.656 890.371 125.872C891.054 124.855 892.04 124.049 893.025 123.276C895.32 121.464 897.649 119.694 899.977 117.935C901.824 116.536 903.683 115.137 905.53 113.728C906.437 113.039 907.354 112.35 908.261 111.661C909.101 111.025 910.03 110.072 910.982 109.648C911.105 109.595 910.926 110.22 910.937 110.199C910.836 110.538 910.634 110.877 910.478 111.195C910.175 111.82 909.874 112.445 909.537 113.06C907.824 116.282 905.686 119.291 903.302 122.099C902.373 123.191 901.41 124.251 900.425 125.279V125.289Z" fill="#CCB1E0"/>
<path d="M911.597 109.094C908.909 111.574 906.301 113.884 903.76 116.046C898.868 120.2 894.2 123.803 889.61 126.961L888.602 126.58L903.961 109.486C904.342 109.423 904.723 109.359 905.092 109.306C907.275 108.999 909.436 108.957 911.585 109.094H911.597Z" fill="url(#paint31_linear_6027_117484)" stroke="#220E6E" stroke-width="0.416135"/>
<path d="M903.315 105.472C901.154 106.542 898.938 107.697 896.789 108.821C894.64 109.933 892.423 111.089 890.262 112.169H890.228H890.194C888.818 111.608 887.161 110.972 885.393 110.485C879.291 112.964 872.82 115.667 866.641 118.899L866.574 118.782C872.764 115.539 879.246 112.837 885.359 110.347H885.381H885.404C887.172 110.834 888.829 111.47 890.206 112.032C892.355 110.961 894.561 109.817 896.699 108.704C898.848 107.591 901.065 106.436 903.226 105.355L903.292 105.472H903.315Z" fill="#220E6E"/>
<path d="M897.487 108.45C897.263 108.344 897.039 108.227 896.826 108.111C896.624 108.005 896.412 107.888 896.21 107.793C894.934 108.27 893.848 108.948 892.851 109.605L893.792 110.22L893.713 110.326L892.605 109.594L892.695 109.541C893.736 108.853 894.867 108.143 896.199 107.645H896.233H896.266C896.489 107.751 896.714 107.867 896.926 107.984C897.139 108.1 897.352 108.217 897.575 108.323L897.509 108.439L897.487 108.45Z" fill="#220E6E"/>
<path d="M911.636 104.2L911.546 104.242C911.01 104.486 910.405 104.814 909.822 105.132C909.555 105.281 909.286 105.418 909.039 105.556L908.994 105.577L908.96 105.546C908.245 104.867 907.718 104.783 906.856 104.634L906.711 104.613L906.733 104.475L906.879 104.496C907.763 104.645 908.301 104.74 909.028 105.408C909.263 105.291 909.509 105.153 909.756 105.016C910.315 104.708 910.886 104.401 911.401 104.157C910.998 103.786 910.416 103.627 909.632 103.67V103.532C910.494 103.479 911.132 103.67 911.569 104.125L911.636 104.189V104.2Z" fill="#220E6E"/>
<path d="M911.959 102.759C909.172 103.882 907.235 104.55 904.157 106.044C902.444 104.92 900.988 104.55 898.918 104.338C900.585 103.818 902.276 103.32 904.011 102.812C906.586 102.07 909.34 102.017 911.915 102.748H911.959V102.759Z" fill="#3215AB" stroke="#220E6E" stroke-width="0.416135" stroke-linejoin="round"/>
<path d="M911.32 102.864C910.335 103.171 909.451 103.5 908.532 103.966C907.1 103.372 905.7 103.118 904.145 103.002C906.641 102.217 909.283 102.366 911.32 102.874V102.864Z" fill="url(#paint32_linear_6027_117484)"/>
<path d="M892.175 118.059C886.433 119.066 880.208 117.084 876.133 113.121C872.518 114.689 868.89 116.268 865.274 117.837C864.502 118.176 863.762 118.727 862.957 118.981C869.943 119.162 876.681 120.836 883.007 123.655C883.701 123.962 884.462 124.301 885.213 124.132C885.671 124.026 886.052 123.75 886.421 123.475C888.537 121.885 890.239 119.829 892.186 118.059H892.175Z" fill="#CCB1E0"/>
<path d="M909.623 109.075L904.417 112.71C903.365 113.822 901.562 116.132 901.54 116.164L901.528 116.185C901.495 116.207 897.79 118.21 895.853 119.036L895.797 118.909C897.666 118.114 901.204 116.207 901.439 116.069C901.573 115.889 903.286 113.706 904.327 112.614L909.544 108.969L909.634 109.075H909.623Z" fill="#220E6E"/>
<path d="M905.335 109.368C905.122 110.195 904.91 111.032 904.697 111.859C904.361 113.162 903.779 114.593 903.779 115.928C903.779 115.97 903.779 116.013 903.779 116.045C898.887 120.199 894.219 123.802 889.629 126.96L888.633 126.578L903.991 109.485C904.373 109.421 904.753 109.358 905.122 109.305C905.201 109.326 905.268 109.336 905.346 109.368H905.335Z" fill="#CCB1E0"/>
<path d="M868.027 144.182L857.023 151.356L865.364 140.695L868.039 144.182H868.027Z" fill="url(#paint33_linear_6027_117484)" stroke="#220E6E" stroke-width="0.416135"/>
<path d="M884.277 122.269C883.628 122.385 882.967 122.353 882.318 122.12C880.65 121.516 878.971 120.944 877.247 120.478C873.317 119.407 869.32 118.824 865.256 118.591C864.193 118.528 863.096 118.56 862.1 118.909C860.096 119.619 859.29 121.802 859.122 123.678C858.976 125.416 859.346 127.164 859.849 128.849C860.835 132.188 862.279 135.399 864.037 138.44C865.514 141.004 867.115 143.972 869.824 145.561C871.224 146.377 872.835 146.685 874.458 146.462C876.788 146.144 878.791 144.788 880.605 143.368C883.202 141.322 885.609 139.012 887.311 136.257C888.228 134.763 888.922 133.152 889.303 131.456C889.494 130.598 889.572 129.74 889.628 128.871C889.673 128.139 889.415 127.44 889.695 126.73C889.919 126.158 890.333 125.67 890.725 125.193C895.147 119.958 899.558 114.723 903.979 109.488C898.326 113.812 892.393 117.701 886.303 121.463C885.676 121.845 884.982 122.141 884.277 122.269Z" fill="url(#paint34_linear_6027_117484)" stroke="#220E6E" stroke-width="0.416135"/>
<path d="M870.414 138.693C870.772 138.979 871.063 139.286 871.309 139.583C871.366 139.657 871.421 139.721 871.477 139.795C872.038 140.558 872.283 141.289 872.384 141.84C872.418 142.021 872.429 142.18 872.44 142.307C872.463 142.625 872.44 142.815 872.44 142.815C872.239 143.727 871.59 144.606 870.783 145.465L864.57 139.075C864.57 139.075 866.843 137.379 869.081 137.994C869.239 138.036 869.406 138.1 869.563 138.163C869.854 138.29 870.145 138.46 870.425 138.693H870.414Z" fill="#3215AB" stroke="#220E6E" stroke-width="0.416135" stroke-linejoin="round"/>
<path d="M869.558 138.162C868.382 138.352 867.251 138.882 866.389 139.645L866.199 139.455C866.994 138.745 868.013 138.236 869.076 137.992C869.233 138.035 869.4 138.098 869.558 138.162Z" fill="#3215AB" stroke="#220E6E" stroke-width="0.416135" stroke-linejoin="round"/>
<path d="M871.312 139.582C871.368 139.656 871.424 139.72 871.48 139.794C870.763 140.356 869.991 140.854 869.173 141.299L869.039 141.076C869.834 140.642 870.595 140.144 871.312 139.593V139.582Z" fill="#3215AB" stroke="#220E6E" stroke-width="0.416135" stroke-linejoin="round"/>
<path d="M872.373 141.84C872.406 142.02 872.418 142.179 872.429 142.306C872.306 142.518 872.16 142.719 872.015 142.91C871.612 143.429 871.119 143.885 870.56 144.256L870.402 144.044C871.242 143.482 871.936 142.719 872.373 141.84Z" fill="#4966CE" stroke="#220E6E" stroke-width="0.416135" stroke-linejoin="round"/>
<path d="M863.483 141.206C863.349 140.273 863.65 139.425 864.77 138.969C865.99 138.471 867.423 139.118 868.408 139.785C870.031 140.866 872.707 145.19 869.662 146.25C868.318 146.716 866.886 145.858 865.878 145.052C864.983 144.342 863.684 142.657 863.471 141.195L863.483 141.206Z" fill="#3215AB" stroke="#220E6E" stroke-width="0.416135" stroke-linejoin="round"/>
<path d="M868.31 140.049C869.172 140.622 870.37 142.211 870.65 143.61C870.851 144.606 870.605 145.496 869.463 145.888C869.026 146.037 868.579 146.037 868.143 145.931C867.985 145.899 867.829 145.846 867.672 145.782C867.068 145.549 866.496 145.168 866.026 144.797C865.847 144.649 865.646 144.468 865.456 144.246C865.355 144.14 865.254 144.023 865.153 143.896C864.549 143.154 863.978 142.19 863.844 141.3C863.821 141.12 863.81 140.95 863.821 140.791C863.865 140.155 864.202 139.604 865.008 139.286C865.322 139.159 865.646 139.117 865.971 139.138C866.81 139.18 867.661 139.604 868.299 140.039L868.31 140.049Z" fill="#3D7985" stroke="#220E6E" stroke-width="0.416135" stroke-linejoin="round"/>
<path d="M865.866 140.051L866.011 140.485C865.273 140.697 864.545 140.983 863.851 141.312C863.829 141.142 863.818 140.973 863.828 140.814C864.489 140.506 865.172 140.252 865.866 140.051Z" fill="#4B99A3" stroke="#220E6E" stroke-width="0.416135" stroke-linejoin="round"/>
<path d="M867.44 142.316L867.664 142.709C866.846 143.122 866.096 143.641 865.458 144.266C865.357 144.16 865.257 144.044 865.156 143.917C865.828 143.27 866.6 142.73 867.44 142.316Z" fill="#4B99A3" stroke="#220E6E" stroke-width="0.416135" stroke-linejoin="round"/>
<path d="M869.46 143.41C869.146 144.311 868.698 145.169 868.138 145.943C867.981 145.911 867.825 145.858 867.668 145.794C868.239 145.021 868.698 144.162 869.012 143.262L869.46 143.399V143.41Z" fill="#4B99A3" stroke="#220E6E" stroke-width="0.416135" stroke-linejoin="round"/>
<path d="M868.307 140.048C869.079 140.567 870.132 141.913 870.535 143.216C870.58 143.354 870.613 143.481 870.636 143.619C870.378 143.725 870.099 143.778 869.807 143.799C869.583 143.81 869.348 143.799 869.124 143.757C868.542 143.651 867.994 143.396 867.513 143.057C866.964 142.665 866.516 142.167 866.192 141.605C865.889 141.086 865.565 140.334 865.699 139.74C865.744 139.539 865.834 139.338 865.945 139.168C866.237 139.179 866.538 139.242 866.818 139.338C867.356 139.507 867.859 139.783 868.273 140.069L868.307 140.048Z" fill="#53CFC5" stroke="#220E6E" stroke-width="0.416135" stroke-linejoin="round"/>
<path d="M868.313 140.048C869.096 140.567 870.148 141.913 870.551 143.216C869.981 143.46 868.996 143.259 868.424 142.835C868.168 142.644 867.988 142.421 867.965 142.167C867.955 141.945 868.067 141.711 868.257 141.574C867.82 141.107 866.802 140.122 866.858 139.316C867.395 139.486 867.899 139.761 868.313 140.048Z" fill="#7FEBE2" stroke="#220E6E" stroke-width="0.416135" stroke-linejoin="round"/>
<path d="M875.962 124.398C876.075 124.493 876.186 124.599 876.287 124.694C877.407 125.743 878.335 126.973 878.974 128.276C879.03 128.382 879.086 128.499 879.131 128.605C879.287 128.954 879.433 129.315 879.545 129.664C879.545 129.664 879.545 129.675 879.545 129.686C879.813 130.512 879.959 131.36 880.004 132.208C880.004 132.388 880.004 132.579 880.004 132.759C879.993 133.861 879.769 134.952 879.332 135.98C879.276 136.107 879.22 136.235 879.165 136.351C879.12 136.436 879.086 136.51 879.052 136.584C878.985 136.712 878.918 136.828 878.828 136.955C877.552 138.905 874.272 141.035 874.272 141.035C874.272 141.035 860.816 124.514 860.805 124.514C860.782 124.482 862.394 123.497 862.484 123.444C863.816 122.691 865.328 122.003 866.85 121.663C868.495 121.293 870.152 121.42 871.697 121.918C871.977 122.003 872.269 122.109 872.537 122.225C873.78 122.734 874.944 123.476 875.951 124.376L875.962 124.398Z" fill="#3215AB" stroke="#220E6E" stroke-width="0.416135" stroke-linejoin="round"/>
<path d="M872.543 122.244C869.711 122.297 866.889 123.145 864.55 124.628L864.348 124.342C866.52 122.964 869.084 122.127 871.703 121.938C871.983 122.021 872.274 122.127 872.543 122.244Z" fill="#4966CE" stroke="#220E6E" stroke-width="0.416135" stroke-linejoin="round"/>
<path d="M875.97 124.398C876.082 124.494 876.194 124.6 876.295 124.695C874.336 125.024 872.455 125.734 870.787 126.762L870.586 126.476C872.209 125.469 874.056 124.759 875.97 124.409V124.398Z" fill="#4966CE" stroke="#220E6E" stroke-width="0.416135" stroke-linejoin="round"/>
<path d="M878.979 128.277C879.034 128.383 879.09 128.5 879.135 128.606C877.725 129.75 876.135 130.672 874.4 131.34L874.266 131.022C875.99 130.365 877.579 129.443 878.979 128.277Z" fill="#4966CE" stroke="#220E6E" stroke-width="0.416135" stroke-linejoin="round"/>
<path d="M880.011 132.219C880.011 132.399 880.011 132.59 880.011 132.77C879.898 132.908 879.775 133.035 879.652 133.162C878.599 134.285 877.323 135.207 875.879 135.885L875.723 135.578C877.413 134.794 878.88 133.639 880.011 132.219Z" fill="#4966CE" stroke="#220E6E" stroke-width="0.416135" stroke-linejoin="round"/>
<path d="M874.848 139.214C876.527 138.419 878.083 137.317 879.348 135.992C879.292 136.119 879.236 136.247 879.181 136.363C879.136 136.448 879.102 136.522 879.068 136.596C879.001 136.723 878.934 136.84 878.856 136.967C877.725 137.984 876.426 138.853 875.038 139.51L874.871 139.203L874.848 139.214Z" fill="#4966CE" stroke="#220E6E" stroke-width="0.416135" stroke-linejoin="round"/>
<path d="M873.58 128.974C874.933 130.807 875.953 133.276 876.076 135.692C876.177 137.642 875.673 139.56 874.274 141.065C871.922 143.587 868.295 142.305 865.91 140.567C863.907 139.105 862.116 137.038 860.896 134.728C859.127 131.39 857.335 124.714 862.877 123.707C864.075 123.484 865.295 123.633 866.471 123.982C866.874 124.099 867.265 124.247 867.657 124.406C870.03 125.381 872.102 126.981 873.58 128.995V128.974Z" fill="#3215AB" stroke="#220E6E" stroke-width="0.416135" stroke-linejoin="round"/>
<path d="M872.975 129.504C874.375 131.327 875.472 133.796 875.606 136.117C875.674 137.421 875.45 138.671 874.801 139.752C874.622 140.059 874.398 140.345 874.14 140.621C874.095 140.674 874.04 140.716 873.995 140.769C873.749 141.013 873.468 141.214 873.188 141.363C871.71 142.158 869.841 141.776 868.185 140.96C868.028 140.886 867.882 140.812 867.737 140.727C867.255 140.462 866.796 140.165 866.371 139.847C865.285 139.042 864.266 138.078 863.348 136.986C863.248 136.859 863.147 136.732 863.046 136.605C862.464 135.873 861.927 135.1 861.468 134.294C861.154 133.733 860.83 133.076 860.538 132.366C860.483 132.217 860.415 132.069 860.359 131.921C859.834 130.501 859.475 128.932 859.587 127.576C859.598 127.396 859.632 127.226 859.654 127.046C859.911 125.742 860.696 124.715 862.341 124.333C862.497 124.301 862.665 124.269 862.834 124.238C863.807 124.1 864.814 124.238 865.8 124.513C866.304 124.662 866.807 124.842 867.289 125.054C869.528 126.039 871.52 127.586 872.975 129.494V129.504Z" fill="#3D7985" stroke="#220E6E" stroke-width="0.416135" stroke-linejoin="round"/>
<path d="M865.378 126.536L865.311 127.002C863.408 126.759 861.415 126.96 859.602 127.575C859.613 127.394 859.646 127.225 859.668 127.045C861.493 126.451 863.453 126.282 865.378 126.526V126.536Z" fill="#4B99A3" stroke="#220E6E" stroke-width="0.416135" stroke-linejoin="round"/>
<path d="M865.745 129.98L865.868 130.447C864.021 130.892 862.229 131.538 860.539 132.375C860.484 132.227 860.427 132.079 860.371 131.93C862.073 131.083 863.875 130.436 865.745 129.98Z" fill="#4B99A3" stroke="#220E6E" stroke-width="0.416135" stroke-linejoin="round"/>
<path d="M868.457 133.319L868.748 133.701C867.013 134.877 865.199 135.99 863.341 136.986C863.24 136.859 863.14 136.732 863.039 136.604C864.897 135.598 866.722 134.495 868.457 133.309V133.319Z" fill="#4B99A3" stroke="#220E6E" stroke-width="0.416135" stroke-linejoin="round"/>
<path d="M871.5 135.855C870.65 137.699 869.541 139.415 868.186 140.963C868.03 140.889 867.885 140.814 867.738 140.73C869.082 139.193 870.202 137.487 871.041 135.664L871.5 135.855Z" fill="#4B99A3" stroke="#220E6E" stroke-width="0.416135" stroke-linejoin="round"/>
<path d="M874.132 135.957C874.636 137.536 874.58 139.232 873.998 140.768C873.751 141.012 873.471 141.213 873.191 141.362C874.02 139.751 874.199 137.812 873.65 136.095L874.132 135.957Z" fill="#4B99A3" stroke="#220E6E" stroke-width="0.416135" stroke-linejoin="round"/>
<path d="M872.978 129.505C874.075 130.936 874.982 132.759 875.396 134.592C875.507 135.101 875.586 135.609 875.609 136.118C874.97 136.627 874.131 136.923 873.179 136.913C872.239 136.892 871.321 136.563 870.493 136.139C867.728 134.73 865.645 132.144 864.962 129.24C864.683 128.064 864.626 126.792 865.085 125.669C865.253 125.256 865.5 124.864 865.812 124.535C866.227 124.652 866.642 124.8 867.033 124.97C867.122 125.001 867.212 125.044 867.291 125.076C869.529 126.061 871.522 127.608 872.978 129.516V129.505Z" fill="#53CFC5" stroke="#220E6E" stroke-width="0.416135" stroke-linejoin="round"/>
<path d="M872.973 129.506C874.071 130.937 874.977 132.759 875.392 134.593C875.302 134.73 875.179 134.858 875.033 134.953C874.562 135.26 873.902 135.207 873.399 134.953C872.94 134.73 872.637 134.381 872.268 134.073C871.899 133.766 871.831 134.01 871.395 133.925C871.54 134.211 871.731 134.476 871.91 134.752C871.988 134.889 872.078 135.038 872.033 135.186C871.954 135.44 871.596 135.462 871.327 135.409C870.04 135.144 868.965 134.105 868.697 132.887C868.652 132.706 868.652 132.484 868.82 132.388C869.01 132.272 869.245 132.441 869.413 132.59C869.089 132.24 868.764 131.89 868.496 131.498C868.327 131.244 867.824 130.598 867.869 130.29C867.835 130.534 867.768 130.82 867.532 130.926C867.252 131.064 866.917 130.873 866.693 130.661C865.786 129.824 865.338 128.69 865.405 127.503C865.405 127.344 865.428 127.185 865.517 127.047C865.719 126.73 866.211 126.698 866.559 126.878C866.894 127.058 867.118 127.376 867.308 127.694C867.252 127.111 866.973 126.645 866.883 126.062C866.827 125.691 866.86 125.278 867.039 124.949C867.129 124.981 867.219 125.023 867.297 125.055C869.536 126.041 871.529 127.588 872.985 129.495L872.973 129.506Z" fill="#7FEBE2" stroke="#220E6E" stroke-width="0.416135" stroke-linejoin="round"/>
<path d="M885.045 126.611C885.392 126.95 885.671 127.289 885.895 127.629C885.951 127.713 886.008 127.787 886.053 127.862C886.567 128.709 886.746 129.504 886.791 130.098C886.802 130.288 886.802 130.458 886.791 130.596C886.78 130.935 886.725 131.136 886.725 131.136C886.422 132.079 885.639 132.938 884.709 133.775L878.82 126.484C878.82 126.484 881.384 124.905 883.679 125.763C883.847 125.827 884.004 125.901 884.171 125.986C884.463 126.145 884.754 126.357 885.022 126.622L885.045 126.611Z" fill="#3215AB" stroke="#220E6E" stroke-width="0.416135" stroke-linejoin="round"/>
<path d="M884.195 125.975C882.93 126.071 881.699 126.516 880.703 127.247L880.523 127.024C881.43 126.346 882.55 125.901 883.703 125.742C883.871 125.806 884.039 125.88 884.195 125.965V125.975Z" fill="#4966CE" stroke="#220E6E" stroke-width="0.416135" stroke-linejoin="round"/>
<path d="M885.911 127.628C885.968 127.713 886.013 127.787 886.069 127.861C885.251 128.38 884.389 128.846 883.494 129.228L883.371 128.974C884.255 128.582 885.106 128.136 885.911 127.617V127.628Z" fill="#4966CE" stroke="#220E6E" stroke-width="0.416135" stroke-linejoin="round"/>
<path d="M886.802 130.098C886.813 130.288 886.813 130.458 886.802 130.596C886.644 130.808 886.477 131.009 886.298 131.2C885.816 131.708 885.257 132.143 884.63 132.482L884.484 132.238C885.424 131.73 886.23 130.977 886.79 130.098H886.802Z" fill="#4966CE" stroke="#220E6E" stroke-width="0.416135" stroke-linejoin="round"/>
<path d="M877.507 128.626C877.462 127.629 877.866 126.771 879.097 126.4C880.43 125.987 881.874 126.803 882.847 127.587C884.437 128.88 886.811 133.67 883.508 134.507C882.053 134.878 880.62 133.839 879.646 132.907C878.783 132.07 877.586 130.194 877.507 128.626Z" fill="#3215AB" stroke="#220E6E" stroke-width="0.416135" stroke-linejoin="round"/>
<path d="M882.707 127.853C883.558 128.542 884.644 130.312 884.801 131.816C884.913 132.876 884.555 133.798 883.324 134.105C882.853 134.222 882.383 134.18 881.935 134.031C881.768 133.978 881.61 133.915 881.454 133.84C880.838 133.544 880.279 133.088 879.82 132.654C879.652 132.484 879.461 132.272 879.27 132.028C879.17 131.912 879.08 131.774 878.991 131.636C878.431 130.799 877.928 129.729 877.883 128.786C877.883 128.595 877.883 128.415 877.917 128.245C878.028 127.577 878.431 127.037 879.315 126.761C879.652 126.655 879.998 126.645 880.345 126.687C881.218 126.804 882.069 127.323 882.707 127.842V127.853Z" fill="#3D7985" stroke="#220E6E" stroke-width="0.416135" stroke-linejoin="round"/>
<path d="M880.132 127.629L880.234 128.096C879.428 128.255 878.644 128.488 877.883 128.774C877.883 128.594 877.883 128.414 877.917 128.255C878.632 128 879.383 127.788 880.132 127.64V127.629Z" fill="#4B99A3" stroke="#220E6E" stroke-width="0.416135" stroke-linejoin="round"/>
<path d="M881.548 130.152L881.739 130.587C880.832 130.937 880.004 131.424 879.264 132.028C879.174 131.911 879.074 131.774 878.984 131.636C879.757 131.021 880.619 130.523 881.548 130.152Z" fill="#4B99A3" stroke="#220E6E" stroke-width="0.416135" stroke-linejoin="round"/>
<path d="M883.584 131.485C883.158 132.407 882.61 133.265 881.938 134.039C881.771 133.986 881.613 133.922 881.457 133.848C882.14 133.085 882.699 132.227 883.124 131.305L883.584 131.495V131.485Z" fill="#4B99A3" stroke="#220E6E" stroke-width="0.416135" stroke-linejoin="round"/>
<path d="M882.706 127.852C883.467 128.467 884.441 129.982 884.732 131.381C884.766 131.529 884.788 131.667 884.799 131.815C884.52 131.9 884.217 131.932 883.915 131.921C883.68 131.921 883.434 131.879 883.198 131.815C882.594 131.656 882.045 131.328 881.575 130.925C881.038 130.47 880.624 129.897 880.332 129.272C880.075 128.7 879.807 127.873 880.008 127.259C880.075 127.047 880.187 126.856 880.332 126.676C880.646 126.718 880.948 126.814 881.239 126.93C881.777 127.153 882.28 127.492 882.694 127.831L882.706 127.852Z" fill="#53CFC5" stroke="#220E6E" stroke-width="0.416135" stroke-linejoin="round"/>
<path d="M882.698 127.854C883.46 128.469 884.433 129.984 884.725 131.383C884.098 131.584 883.089 131.277 882.53 130.789C882.272 130.567 882.116 130.312 882.116 130.048C882.116 129.804 882.272 129.571 882.485 129.454C882.082 128.924 881.109 127.79 881.243 126.953C881.781 127.176 882.284 127.515 882.698 127.854Z" fill="#7FEBE2" stroke="#220E6E" stroke-width="0.416135" stroke-linejoin="round"/>
<path d="M873.813 109.531L863.01 111.863L862.987 111.842C859.315 108.917 852.33 103.353 852.129 103.237L852.163 103.184V103.109C852.163 103.109 852.252 103.109 863.055 111.714L873.791 109.394L873.824 109.521L873.813 109.531Z" fill="#220E6E"/>
<path d="M870.786 112.826L861.55 115.539L863.946 117.944L863.845 118.04L861.293 115.475L870.562 112.752L868.995 110.516L869.118 110.441L870.786 112.826Z" fill="#220E6E"/>
<path d="M846.266 104.2L855.781 103.543C859.98 108.1 865.868 111.226 872.686 113.547L861.312 118.464L846.266 104.2Z" fill="#CCB1E0"/>
<path d="M916.19 102.524C914.79 102.535 913.38 102.62 911.958 102.757H911.913C911.768 102.705 911.611 102.662 911.466 102.63C909.025 102.026 906.439 102.111 904.01 102.81C903.651 102.916 903.305 103.022 902.947 103.128C901.592 103.531 900.237 103.934 898.916 104.336C891.348 106.678 884.43 109.148 878.016 111.744L878.071 111.712L873.783 109.466L873.761 109.402L873.683 109.423L863.876 104.273L862.98 104.517L873.247 109.911L873.324 109.889L873.347 109.953L877.634 112.2L877.579 112.231C883.994 109.646 890.912 107.166 898.479 104.824C899.8 104.411 901.144 104.019 902.51 103.616C902.868 103.51 903.215 103.404 903.573 103.298C905.991 102.599 908.577 102.514 911.018 103.118C911.163 103.16 911.32 103.192 911.466 103.234H911.51C912.932 103.107 914.343 103.033 915.742 103.012C917.264 102.991 918.776 103.065 920.253 103.234C920.007 105.163 917.029 109.211 912.574 114.171C917.264 108.989 920.444 104.729 920.69 102.747C919.201 102.577 917.701 102.514 916.167 102.535L916.19 102.524Z" fill="white"/>
<path d="M851.72 103.66V103.596C851.72 103.596 851.72 103.596 851.809 103.66L870.09 102.187L872.396 101.551L852.257 103.183C852.168 103.119 852.168 103.119 852.157 103.119V103.183L845.316 103.734L845.664 104.158L851.72 103.67V103.66Z" fill="white"/>
<path d="M863.86 139.698C863.86 139.698 863.827 139.667 863.815 139.656C863.782 139.709 863.737 139.762 863.715 139.804C863.759 139.772 863.816 139.73 863.86 139.698Z" fill="white"/>
<path d="M911.768 109.243C911.13 109.221 910.492 109.211 909.854 109.221C909.216 109.221 908.578 109.274 907.951 109.306C906.685 109.37 905.409 109.518 904.155 109.73L904.2 109.709C901.502 111.691 898.782 113.651 896.028 115.548C894.639 116.502 893.252 117.434 891.852 118.356L890.8 119.045C890.453 119.278 890.073 119.48 889.714 119.692C888.987 120.115 888.259 120.539 887.52 120.942C888.225 120.486 888.931 120.031 889.625 119.564C889.972 119.331 890.319 119.087 890.677 118.865C891.035 118.642 891.383 118.409 891.729 118.187C893.139 117.275 894.528 116.332 895.905 115.389C898.659 113.492 901.379 111.532 904.078 109.55H904.099L904.122 109.529C905.386 109.317 906.664 109.168 907.94 109.094C908.578 109.062 909.216 109.073 909.865 109.094C910.503 109.115 911.141 109.168 911.78 109.232L911.768 109.243Z" fill="white"/>
<g opacity="0.42">
<path d="M861.503 124.588C856.521 128.477 853.442 133.394 851.046 138.195L-482.37 572.056L-508.633 671.278L852.01 140.261C858.603 142.529 864.872 142.857 872.373 141.829C872.373 141.829 879.258 139.222 873.122 129.706C866.809 122.171 861.492 124.588 861.492 124.588H861.503Z" fill="url(#paint35_linear_6027_117484)"/>
</g>
<path d="M845.309 103.722L872.389 101.539L863.444 104.019L878.087 111.712L861.374 119.374L845.309 103.733V103.722Z" stroke="#220E6E" stroke-width="0.416135" stroke-linejoin="round"/>
<path d="M920.698 102.748C920.406 104.995 916.376 110.166 910.622 116.291C902.652 124.78 891.378 135.101 882.21 142.021C884.169 140.315 885.96 138.418 887.293 136.246C888.21 134.752 888.904 133.141 889.285 131.445C889.475 130.587 889.554 129.739 889.61 128.86C889.655 128.128 889.397 127.429 889.676 126.719C889.9 126.147 890.303 125.659 890.707 125.182C893.416 121.971 896.125 118.76 898.834 115.549C900.547 113.525 902.249 111.501 903.961 109.477C900.625 112.031 897.188 114.437 893.674 116.747C891.244 118.358 888.771 119.916 886.285 121.452C885.658 121.834 884.963 122.141 884.259 122.258C883.61 122.364 882.949 122.342 882.3 122.109C880.631 121.505 878.952 120.933 877.228 120.467C875.661 120.043 874.071 119.693 872.481 119.407C870.086 118.983 867.679 118.718 865.238 118.58C864.175 118.517 863.078 118.549 862.082 118.898C861.958 118.941 861.847 118.994 861.734 119.047C872.403 113.737 884.483 108.799 898.912 104.338C900.581 103.829 902.271 103.32 904.006 102.812C906.581 102.07 909.335 102.017 911.91 102.748H911.955C913.376 102.621 914.787 102.547 916.186 102.525C917.709 102.504 919.22 102.578 920.709 102.748H920.698Z" stroke="#220E6E" stroke-width="0.416135" stroke-linejoin="round"/>
<path d="M911.597 109.094C908.909 111.574 906.301 113.884 903.76 116.046C898.868 120.2 894.2 123.803 889.61 126.961L888.602 126.58L903.961 109.486C904.342 109.423 904.723 109.359 905.092 109.306C907.275 108.999 909.436 108.957 911.585 109.094H911.597Z" stroke="#220E6E" stroke-width="0.416135" stroke-linejoin="round"/>
</g>
</g>
<defs>
<linearGradient id="paint0_linear_6027_117484" x1="-94.8448" y1="-60.1543" x2="1207.63" y2="521.464" gradientUnits="userSpaceOnUse">
<stop stop-color="#E6007A"/>
<stop offset="0.04" stop-color="#DB0580"/>
<stop offset="0.1" stop-color="#BE1392"/>
<stop offset="0.19" stop-color="#8F2AAE"/>
<stop offset="0.24" stop-color="#703AC2"/>
<stop offset="0.5" stop-color="#0070EB"/>
<stop offset="0.79" stop-color="#0297FB"/>
<stop offset="1" stop-color="#0AE2FF"/>
</linearGradient>
<linearGradient id="paint1_linear_6027_117484" x1="554.417" y1="103.428" x2="554.417" y2="523.141" gradientUnits="userSpaceOnUse">
<stop stop-color="#081029" stop-opacity="0"/>
<stop offset="0.63" stop-color="#081029" stop-opacity="0.72"/>
<stop offset="1" stop-color="#081029"/>
</linearGradient>
<radialGradient id="paint2_radial_6027_117484" cx="0" cy="0" r="1" gradientUnits="userSpaceOnUse" gradientTransform="translate(796.116 59.096) rotate(86.42) scale(19.1754 19.4178)">
<stop stop-color="#22E0FF"/>
<stop offset="0.03" stop-color="#1CB8D2"/>
<stop offset="0.07" stop-color="#158DA1"/>
<stop offset="0.11" stop-color="#0F6776"/>
<stop offset="0.15" stop-color="#0A4751"/>
<stop offset="0.2" stop-color="#062D33"/>
<stop offset="0.24" stop-color="#03191C"/>
<stop offset="0.29" stop-color="#010B0C"/>
<stop offset="0.35" stop-color="#000203"/>
<stop offset="0.42"/>
</radialGradient>
<radialGradient id="paint3_radial_6027_117484" cx="0" cy="0" r="1" gradientUnits="userSpaceOnUse" gradientTransform="translate(1242.14 129.501) rotate(86.42) scale(45.9097 46.4793)">
<stop stop-color="#22E0FF"/>
<stop offset="0.03" stop-color="#1CB8D2"/>
<stop offset="0.07" stop-color="#158DA1"/>
<stop offset="0.11" stop-color="#0F6776"/>
<stop offset="0.15" stop-color="#0A4751"/>
<stop offset="0.2" stop-color="#062D33"/>
<stop offset="0.24" stop-color="#03191C"/>
<stop offset="0.29" stop-color="#010B0C"/>
<stop offset="0.35" stop-color="#000203"/>
<stop offset="0.42"/>
</radialGradient>
<radialGradient id="paint4_radial_6027_117484" cx="0" cy="0" r="1" gradientUnits="userSpaceOnUse" gradientTransform="translate(683.737 58.5008) rotate(86.42) scale(45.9097 46.4793)">
<stop stop-color="#22E0FF"/>
<stop offset="0.03" stop-color="#1CB8D2"/>
<stop offset="0.07" stop-color="#158DA1"/>
<stop offset="0.11" stop-color="#0F6776"/>
<stop offset="0.15" stop-color="#0A4751"/>
<stop offset="0.2" stop-color="#062D33"/>
<stop offset="0.24" stop-color="#03191C"/>
<stop offset="0.29" stop-color="#010B0C"/>
<stop offset="0.35" stop-color="#000203"/>
<stop offset="0.42"/>
</radialGradient>
<radialGradient id="paint5_radial_6027_117484" cx="0" cy="0" r="1" gradientUnits="userSpaceOnUse" gradientTransform="translate(399.621 154.717) rotate(86.42) scale(17.0064 17.2158)">
<stop stop-color="#22E0FF"/>
<stop offset="0.03" stop-color="#1CB8D2"/>
<stop offset="0.07" stop-color="#158DA1"/>
<stop offset="0.11" stop-color="#0F6776"/>
<stop offset="0.15" stop-color="#0A4751"/>
<stop offset="0.2" stop-color="#062D33"/>
<stop offset="0.24" stop-color="#03191C"/>
<stop offset="0.29" stop-color="#010B0C"/>
<stop offset="0.35" stop-color="#000203"/>
<stop offset="0.42"/>
</radialGradient>
<radialGradient id="paint6_radial_6027_117484" cx="0" cy="0" r="1" gradientUnits="userSpaceOnUse" gradientTransform="translate(492.265 61.57) rotate(86.42) scale(17.0573 17.2674)">
<stop stop-color="#22E0FF"/>
<stop offset="0.03" stop-color="#1CB8D2"/>
<stop offset="0.07" stop-color="#158DA1"/>
<stop offset="0.11" stop-color="#0F6776"/>
<stop offset="0.15" stop-color="#0A4751"/>
<stop offset="0.2" stop-color="#062D33"/>
<stop offset="0.24" stop-color="#03191C"/>
<stop offset="0.29" stop-color="#010B0C"/>
<stop offset="0.35" stop-color="#000203"/>
<stop offset="0.42"/>
</radialGradient>
<radialGradient id="paint7_radial_6027_117484" cx="0" cy="0" r="1" gradientUnits="userSpaceOnUse" gradientTransform="translate(1150.29 20.641) rotate(86.42) scale(17.0573 17.2674)">
<stop stop-color="#22E0FF"/>
<stop offset="0.03" stop-color="#1CB8D2"/>
<stop offset="0.07" stop-color="#158DA1"/>
<stop offset="0.11" stop-color="#0F6776"/>
<stop offset="0.15" stop-color="#0A4751"/>
<stop offset="0.2" stop-color="#062D33"/>
<stop offset="0.24" stop-color="#03191C"/>
<stop offset="0.29" stop-color="#010B0C"/>
<stop offset="0.35" stop-color="#000203"/>
<stop offset="0.42"/>
</radialGradient>
<radialGradient id="paint8_radial_6027_117484" cx="0" cy="0" r="1" gradientUnits="userSpaceOnUse" gradientTransform="translate(1213.87 203.668) rotate(86.42) scale(17.0573 17.2674)">
<stop stop-color="#22E0FF"/>
<stop offset="0.03" stop-color="#1CB8D2"/>
<stop offset="0.07" stop-color="#158DA1"/>
<stop offset="0.11" stop-color="#0F6776"/>
<stop offset="0.15" stop-color="#0A4751"/>
<stop offset="0.2" stop-color="#062D33"/>
<stop offset="0.24" stop-color="#03191C"/>
<stop offset="0.29" stop-color="#010B0C"/>
<stop offset="0.35" stop-color="#000203"/>
<stop offset="0.42"/>
</radialGradient>
<radialGradient id="paint9_radial_6027_117484" cx="0" cy="0" r="1" gradientUnits="userSpaceOnUse" gradientTransform="translate(771.752 0.774) rotate(86.42) scale(17.0573 17.2674)">
<stop stop-color="#22E0FF"/>
<stop offset="0.03" stop-color="#1CB8D2"/>
<stop offset="0.07" stop-color="#158DA1"/>
<stop offset="0.11" stop-color="#0F6776"/>
<stop offset="0.15" stop-color="#0A4751"/>
<stop offset="0.2" stop-color="#062D33"/>
<stop offset="0.24" stop-color="#03191C"/>
<stop offset="0.29" stop-color="#010B0C"/>
<stop offset="0.35" stop-color="#000203"/>
<stop offset="0.42"/>
</radialGradient>
<radialGradient id="paint10_radial_6027_117484" cx="0" cy="0" r="1" gradientUnits="userSpaceOnUse" gradientTransform="translate(754.152 191.651) rotate(86.42) scale(17.0573 17.2674)">
<stop stop-color="#22E0FF"/>
<stop offset="0.03" stop-color="#1CB8D2"/>
<stop offset="0.07" stop-color="#158DA1"/>
<stop offset="0.11" stop-color="#0F6776"/>
<stop offset="0.15" stop-color="#0A4751"/>
<stop offset="0.2" stop-color="#062D33"/>
<stop offset="0.24" stop-color="#03191C"/>
<stop offset="0.29" stop-color="#010B0C"/>
<stop offset="0.35" stop-color="#000203"/>
<stop offset="0.42"/>
</radialGradient>
<radialGradient id="paint11_radial_6027_117484" cx="0" cy="0" r="1" gradientUnits="userSpaceOnUse" gradientTransform="translate(547.15 128.34) rotate(86.268) scale(9.50371 10.0409)">
<stop stop-color="white"/>
<stop offset="0.03" stop-color="#D2D2D2"/>
<stop offset="0.07" stop-color="#A1A1A1"/>
<stop offset="0.11" stop-color="#767676"/>
<stop offset="0.15" stop-color="#515151"/>
<stop offset="0.2" stop-color="#333333"/>
<stop offset="0.24" stop-color="#1C1C1C"/>
<stop offset="0.29" stop-color="#0C0C0C"/>
<stop offset="0.35" stop-color="#030303"/>
<stop offset="0.42"/>
</radialGradient>
<radialGradient id="paint12_radial_6027_117484" cx="0" cy="0" r="1" gradientUnits="userSpaceOnUse" gradientTransform="translate(660.446 150.456) rotate(86.42) scale(22.5417 22.82)">
<stop stop-color="white"/>
<stop offset="0.03" stop-color="#D2D2D2"/>
<stop offset="0.07" stop-color="#A1A1A1"/>
<stop offset="0.11" stop-color="#767676"/>
<stop offset="0.15" stop-color="#515151"/>
<stop offset="0.2" stop-color="#333333"/>
<stop offset="0.24" stop-color="#1C1C1C"/>
<stop offset="0.29" stop-color="#0C0C0C"/>
<stop offset="0.35" stop-color="#030303"/>
<stop offset="0.42"/>
</radialGradient>
<radialGradient id="paint13_radial_6027_117484" cx="0" cy="0" r="1" gradientUnits="userSpaceOnUse" gradientTransform="translate(1213.73 54.267) rotate(86.3989) scale(14.4709 14.7357)">
<stop stop-color="white"/>
<stop offset="0.03" stop-color="#D2D2D2"/>
<stop offset="0.07" stop-color="#A1A1A1"/>
<stop offset="0.11" stop-color="#767676"/>
<stop offset="0.15" stop-color="#515151"/>
<stop offset="0.2" stop-color="#333333"/>
<stop offset="0.24" stop-color="#1C1C1C"/>
<stop offset="0.29" stop-color="#0C0C0C"/>
<stop offset="0.35" stop-color="#030303"/>
<stop offset="0.42"/>
</radialGradient>
<radialGradient id="paint14_radial_6027_117484" cx="0" cy="0" r="1" gradientUnits="userSpaceOnUse" gradientTransform="translate(1276.04 293.657) rotate(86.42) scale(17.0573 17.2674)">
<stop stop-color="#22E0FF"/>
<stop offset="0.03" stop-color="#1CB8D2"/>
<stop offset="0.07" stop-color="#158DA1"/>
<stop offset="0.11" stop-color="#0F6776"/>
<stop offset="0.15" stop-color="#0A4751"/>
<stop offset="0.2" stop-color="#062D33"/>
<stop offset="0.24" stop-color="#03191C"/>
<stop offset="0.29" stop-color="#010B0C"/>
<stop offset="0.35" stop-color="#000203"/>
<stop offset="0.42"/>
</radialGradient>
<radialGradient id="paint15_radial_6027_117484" cx="0" cy="0" r="1" gradientUnits="userSpaceOnUse" gradientTransform="translate(955.626 -25.6726) rotate(-32.4311) scale(348.605 341.002)">
<stop stop-color="#FC49EF"/>
<stop offset="0.09" stop-color="#F446E9" stop-opacity="0.96"/>
<stop offset="0.23" stop-color="#DE3FDA" stop-opacity="0.86"/>
<stop offset="0.42" stop-color="#BC34C2" stop-opacity="0.68"/>
<stop offset="0.64" stop-color="#8C25A0" stop-opacity="0.45"/>
<stop offset="0.89" stop-color="#4F1276" stop-opacity="0.15"/>
<stop offset="1" stop-color="#320962" stop-opacity="0"/>
</radialGradient>
<linearGradient id="paint16_linear_6027_117484" x1="969.719" y1="184.216" x2="928.84" y2="104.448" gradientUnits="userSpaceOnUse">
<stop stop-color="#3F195B"/>
<stop offset="1" stop-color="#742586"/>
</linearGradient>
<linearGradient id="paint17_linear_6027_117484" x1="1095.01" y1="217.84" x2="1037.69" y2="89.2864" gradientUnits="userSpaceOnUse">
<stop stop-color="#3F195B"/>
<stop offset="1" stop-color="#742586"/>
</linearGradient>
<linearGradient id="paint18_linear_6027_117484" x1="968.839" y1="116.318" x2="965.588" y2="97.794" gradientUnits="userSpaceOnUse">
<stop stop-color="#8D2C9A"/>
<stop offset="1" stop-color="#A431AC"/>
</linearGradient>
<linearGradient id="paint19_linear_6027_117484" x1="1072.82" y1="61.4148" x2="1066.76" y2="45.7306" gradientUnits="userSpaceOnUse">
<stop stop-color="#8D2C9A"/>
<stop offset="1" stop-color="#A431AC"/>
</linearGradient>
<linearGradient id="paint20_linear_6027_117484" x1="1137.94" y1="106.644" x2="1122.71" y2="66.7378" gradientUnits="userSpaceOnUse">
<stop stop-color="#3F195B"/>
<stop offset="1" stop-color="#742586"/>
</linearGradient>
<linearGradient id="paint21_linear_6027_117484" x1="907.269" y1="285.049" x2="897.612" y2="160.784" gradientUnits="userSpaceOnUse">
<stop stop-color="#3F195B"/>
<stop offset="1" stop-color="#742586"/>
</linearGradient>
<linearGradient id="paint22_linear_6027_117484" x1="960.778" y1="95.9947" x2="942.367" y2="45.0482" gradientUnits="userSpaceOnUse">
<stop stop-color="#8D2C9A"/>
<stop offset="1" stop-color="#A431AC"/>
</linearGradient>
<linearGradient id="paint23_linear_6027_117484" x1="946.576" y1="68.208" x2="934.432" y2="-6.05833" gradientUnits="userSpaceOnUse">
<stop stop-color="#8B2B98"/>
<stop offset="1" stop-color="#BE3AC0"/>
</linearGradient>
<radialGradient id="paint24_radial_6027_117484" cx="0" cy="0" r="1" gradientUnits="userSpaceOnUse" gradientTransform="translate(918.628 19.6911) rotate(-27.5414) scale(190.978 81.5202)">
<stop stop-color="white"/>
<stop offset="0.12" stop-color="#FEE3FC" stop-opacity="0.85"/>
<stop offset="0.36" stop-color="#FDADF7" stop-opacity="0.55"/>
<stop offset="0.58" stop-color="#FC82F4" stop-opacity="0.32"/>
<stop offset="0.77" stop-color="#FC63F1" stop-opacity="0.14"/>
<stop offset="0.91" stop-color="#FC50EF" stop-opacity="0.04"/>
<stop offset="1" stop-color="#FC49EF" stop-opacity="0"/>
</radialGradient>
<linearGradient id="paint25_linear_6027_117484" x1="755.066" y1="211.068" x2="1301.77" y2="131.931" gradientUnits="userSpaceOnUse">
<stop stop-color="#E6007A"/>
<stop offset="0.21" stop-color="#703AC2"/>
<stop offset="0.46" stop-color="#0070EB"/>
<stop offset="0.77" stop-color="#0297FB"/>
<stop offset="1" stop-color="#0AE2FF"/>
</linearGradient>
<linearGradient id="paint26_linear_6027_117484" x1="863.55" y1="100.471" x2="858.787" y2="119.647" gradientUnits="userSpaceOnUse">
<stop stop-color="#6D59FF"/>
<stop offset="0.78" stop-color="#1564AB"/>
</linearGradient>
<linearGradient id="paint27_linear_6027_117484" x1="858.124" y1="104.361" x2="848.688" y2="119.732" gradientUnits="userSpaceOnUse">
<stop stop-color="#6340AE"/>
<stop offset="0.68" stop-color="#1524AB"/>
</linearGradient>
<linearGradient id="paint28_linear_6027_117484" x1="889.576" y1="106.712" x2="895.314" y2="124.986" gradientUnits="userSpaceOnUse">
<stop stop-color="#E7E3FF"/>
<stop offset="1" stop-color="#8ED0D1"/>
</linearGradient>
<linearGradient id="paint29_linear_6027_117484" x1="883.367" y1="114.907" x2="882.382" y2="122.724" gradientUnits="userSpaceOnUse">
<stop stop-color="#6D59FF"/>
<stop offset="0.78" stop-color="#1564AB"/>
</linearGradient>
<linearGradient id="paint30_linear_6027_117484" x1="910.964" y1="103.512" x2="894.22" y2="139.71" gradientUnits="userSpaceOnUse">
<stop stop-color="#6D59FF"/>
<stop offset="0.78" stop-color="#1564AB"/>
</linearGradient>
<linearGradient id="paint31_linear_6027_117484" x1="905.379" y1="105.84" x2="899.919" y2="119.314" gradientUnits="userSpaceOnUse">
<stop stop-color="#F3D4FF"/>
<stop offset="1" stop-color="#828CD1"/>
</linearGradient>
<linearGradient id="paint32_linear_6027_117484" x1="904.396" y1="99.449" x2="907.989" y2="103.914" gradientUnits="userSpaceOnUse">
<stop stop-color="#3D4A4A"/>
<stop offset="0.3" stop-color="#3A4747"/>
<stop offset="0.51" stop-color="#333D3D"/>
<stop offset="0.69" stop-color="#262E2E"/>
<stop offset="0.86" stop-color="#141818"/>
<stop offset="1"/>
</linearGradient>
<linearGradient id="paint33_linear_6027_117484" x1="865.639" y1="141.222" x2="861.198" y2="151.171" gradientUnits="userSpaceOnUse">
<stop stop-color="#6340AE"/>
<stop offset="0.68" stop-color="#1524AB"/>
</linearGradient>
<linearGradient id="paint34_linear_6027_117484" x1="884.984" y1="107.63" x2="871.182" y2="143.889" gradientUnits="userSpaceOnUse">
<stop stop-color="#6340AE"/>
<stop offset="0.68" stop-color="#1524AB"/>
</linearGradient>
<linearGradient id="paint35_linear_6027_117484" x1="853.935" y1="98.6349" x2="-364.646" y2="631.73" gradientUnits="userSpaceOnUse">
<stop stop-color="#30BF9B"/>
<stop offset="0.09" stop-color="#30BF9B" stop-opacity="0.83"/>
<stop offset="0.31" stop-color="#30BF9B" stop-opacity="0.48"/>
<stop offset="0.48" stop-color="#30BF9B" stop-opacity="0.22"/>
<stop offset="0.62" stop-color="#30BF9B" stop-opacity="0.06"/>
<stop offset="0.69" stop-color="#30BF9B" stop-opacity="0"/>
</linearGradient>
<clipPath id="clip0_6027_117484">
<rect width="1290" height="337" fill="white"/>
</clipPath>
</defs>
</svg>
