<svg width="64" height="64" viewBox="0 0 64 64" fill="none" xmlns="http://www.w3.org/2000/svg">
<path d="M33.9338 38.1785C33.9338 38.8897 33.4357 39.7552 32.8097 40.1175L13.5646 51.1877C12.9454 51.55 12.4405 51.2615 12.4338 50.5503L12.3665 25.5316L17.0112 22.8547C17.6304 22.4991 18.1286 21.6336 18.1286 20.9224L18.1151 15.602L32.7154 7.20207C33.3414 6.83973 33.8462 7.12829 33.8462 7.83948L33.9338 38.1786L33.9338 38.1785Z" fill="url(#paint0_linear_3408_51579)" stroke="#29256A" stroke-width="0.3" stroke-linejoin="round"/>
<path d="M31.5057 22.5136L31.509 24.5038L14.7649 34.1392L14.7616 32.149L31.5057 22.5136Z" fill="#CCCEFD" stroke="#29256A" stroke-width="0.3" stroke-linejoin="round"/>
<path d="M31.5057 27.4849L31.509 29.475L14.7649 39.1104L14.7616 37.1202L31.5057 27.4849Z" fill="#CCCEFD" stroke="#29256A" stroke-width="0.3" stroke-linejoin="round"/>
<path d="M20.8458 39.0848L20.8491 41.07L14.8021 44.5498L14.7988 42.5645L20.8458 39.0848Z" fill="#CCCEFD" stroke="#29256A" stroke-width="0.3" stroke-linejoin="round"/>
<path d="M28.939 17.9594L28.9435 20.363L17.3053 27.0602L17.3008 24.6565L28.939 17.9594Z" fill="#65C8FF" stroke="#29256A" stroke-width="0.3" stroke-linejoin="round"/>
<path d="M12.3657 25.5296L9.00281 24.4262L14.7516 14.5016L18.1145 15.605L12.3657 25.5296Z" fill="#8C8FD9" stroke="#29256A" stroke-width="0.3" stroke-linejoin="round"/>
<path d="M33.5231 7.1222C33.3146 7.00144 33.0317 7.02155 32.7154 7.20272L18.115 15.6027L14.7487 14.499C14.7487 14.499 28.9975 6.25559 29.3558 6.09904C29.714 5.94248 29.9729 6.01838 30.1567 6.01851L33.5231 7.1222Z" fill="#CCCEFD" stroke="#29256A" stroke-width="0.3" stroke-linejoin="round"/>
<path d="M12.7636 51.269L9.40379 50.1654C9.20195 50.0513 9.07414 49.803 9.07414 49.4475L9 24.4288L12.3664 25.5325L12.4338 50.5511C12.4405 50.9067 12.5616 51.155 12.7636 51.269Z" fill="#CCCEFD" stroke="#29256A" stroke-width="0.3" stroke-linejoin="round"/>
<path d="M18.1144 15.6047L18.1295 20.9256C18.1315 21.6344 17.6304 22.4996 17.0114 22.8558L12.3656 25.5292L18.1144 15.6047L18.1144 15.6047Z" fill="#CCCEFD" stroke="#29256A" stroke-width="0.3" stroke-linejoin="round"/>
<path d="M43.36 43.8341C43.36 44.5453 42.8619 45.4108 42.2359 45.7731L22.9908 56.8433C22.3716 57.2056 21.8667 56.9171 21.86 56.2059L21.7926 31.1873L26.4374 28.5103C27.0566 28.1547 27.5547 27.2892 27.5547 26.578L27.5412 21.2576L42.1416 12.8577C42.7675 12.4954 43.2724 12.7839 43.2724 13.4951L43.36 43.8342L43.36 43.8341Z" fill="url(#paint1_linear_3408_51579)" stroke="#29256A" stroke-width="0.3" stroke-linejoin="round"/>
<path d="M40.9319 28.1693L40.9352 30.1595L24.191 39.7949L24.1877 37.8047L40.9319 28.1693Z" fill="#CCCEFD" stroke="#29256A" stroke-width="0.3" stroke-linejoin="round"/>
<path d="M40.9319 33.1406L40.9352 35.1307L24.191 44.7661L24.1877 42.7759L40.9319 33.1406Z" fill="#CCCEFD" stroke="#29256A" stroke-width="0.3" stroke-linejoin="round"/>
<path d="M30.2719 44.7404L30.2752 46.7257L24.2283 50.2054L24.225 48.2202L30.2719 44.7404Z" fill="#CCCEFD" stroke="#29256A" stroke-width="0.3" stroke-linejoin="round"/>
<path d="M38.3652 23.6151L38.3697 26.0187L26.7314 32.7159L26.7269 30.3122L38.3652 23.6151Z" fill="#65C8FF" stroke="#29256A" stroke-width="0.3" stroke-linejoin="round"/>
<path d="M21.7918 31.1853L18.429 30.0819L24.1777 20.1573L27.5406 21.2607L21.7918 31.1853Z" fill="#8C8FD9" stroke="#29256A" stroke-width="0.3" stroke-linejoin="round"/>
<path d="M42.9493 12.7778C42.7407 12.6571 42.4579 12.6772 42.1415 12.8584L27.5412 21.2583L24.1748 20.1546C24.1748 20.1546 38.4236 11.9112 38.7819 11.7547C39.1402 11.5981 39.3991 11.674 39.5829 11.6741L42.9493 12.7778Z" fill="#CCCEFD" stroke="#29256A" stroke-width="0.3" stroke-linejoin="round"/>
<path d="M22.1897 56.9246L18.8299 55.821C18.6281 55.7069 18.5003 55.4587 18.5003 55.1031L18.4261 30.0844L21.7925 31.1881L21.8599 56.2068C21.8667 56.5624 21.9878 56.8106 22.1897 56.9246Z" fill="#CCCEFD" stroke="#29256A" stroke-width="0.3" stroke-linejoin="round"/>
<path d="M27.5406 21.2603L27.5557 26.5812C27.5577 27.29 27.0565 28.1553 26.4375 28.5114L21.7917 31.1848L27.5405 21.2603L27.5406 21.2603Z" fill="#CCCEFD" stroke="#29256A" stroke-width="0.3" stroke-linejoin="round"/>
<path d="M44.1614 49.373C47.4049 47.5011 50.0328 42.9675 50.0328 39.2463C50.0328 37.8662 49.6674 36.7982 49.0463 36.0899C50.8254 36.2192 52.0284 37.7088 52.0284 40.2215C52.0284 43.9428 49.4004 48.4764 46.1569 50.3483C44.1192 51.5231 42.3317 51.3629 41.2805 50.16C42.1321 50.2218 43.113 49.9745 44.1614 49.3702L44.1614 49.373Z" fill="#66BDFF" stroke="#220E6E" stroke-width="0.3" stroke-linecap="round" stroke-linejoin="round"/>
<path d="M38.4548 48.1449C38.4548 47.6783 38.4942 47.2033 38.556 46.7227L36.1838 46.422C36.4255 45.2274 36.7909 44.0189 37.2603 42.83L39.9641 42.0121C40.4363 41.0002 41.0041 40.0221 41.6477 39.1087L40.9984 36.3795C41.7995 35.379 42.668 34.4571 43.587 33.6504L45.043 35.5335C45.4308 35.2412 45.8271 34.9658 46.2319 34.7325C46.6366 34.4992 47.0329 34.3165 47.4208 34.1619L48.8767 30.5981C49.7958 30.3451 50.6642 30.2608 51.4653 30.3367L50.816 33.8134C51.4597 33.9821 52.0274 34.3053 52.4996 34.7719L55.2034 32.4671C55.6728 33.1164 56.0382 33.9034 56.2799 34.8168L53.9077 37.8579C53.9667 38.2683 54.0089 38.7011 54.0089 39.1649C54.0089 39.6286 53.9696 40.1065 53.9077 40.5871L56.2799 40.8878C56.0382 42.0823 55.6728 43.2909 55.2034 44.4798L52.4996 45.2977C52.0274 46.3095 51.4597 47.2876 50.816 48.2011L51.4653 50.9302C50.6642 51.9308 49.7958 52.8527 48.8767 53.6594L47.4208 51.7762C47.0329 52.0686 46.6366 52.344 46.2319 52.5773C45.8271 52.8106 45.4308 52.9933 45.043 53.1478L43.587 56.7117C42.668 56.9647 41.7995 57.049 40.9984 56.9731L41.6477 53.4964C41.0041 53.3277 40.4363 53.0045 39.9641 52.5379L37.2603 54.8427C36.7909 54.1934 36.4255 53.4064 36.1838 52.493L38.556 49.4518C38.497 49.0415 38.4548 48.6087 38.4548 48.1449ZM46.156 50.3484C49.3994 48.4765 52.0274 43.943 52.0274 40.2217C52.0274 36.5004 49.3994 35.0023 46.156 36.8742C42.9125 38.7461 40.2845 43.2797 40.2845 47.001C40.2845 50.7223 42.9125 52.2203 46.156 50.3484Z" fill="#ABD9FF" stroke="#220E6E" stroke-width="0.3" stroke-linecap="round" stroke-linejoin="round"/>
<path d="M45.1478 32.8522L46.6037 29.2883L48.8775 30.5952L47.4244 34.1591L45.1478 32.8522Z" fill="#66BDFF" stroke="#220E6E" stroke-width="0.3" stroke-linecap="round" stroke-linejoin="round"/>
<path d="M47.4246 34.1591C47.0367 34.3136 46.6404 34.4963 46.2357 34.7296C45.8309 34.9629 45.4346 35.2383 45.0468 35.5307L43.5908 33.6475C43.5908 33.6475 43.8354 33.4929 43.9618 33.4227C44.3666 33.1894 44.7629 33.0067 45.1508 32.8521L47.4246 34.1591Z" fill="#D1EBFF" stroke="#220E6E" stroke-width="0.3" stroke-linecap="round" stroke-linejoin="round"/>
<path d="M46.6044 29.2882C47.5235 29.0353 48.392 28.951 49.193 29.0268L51.4668 30.3338C50.6658 30.2579 49.7973 30.3422 48.8782 30.5952L46.6044 29.2882Z" fill="#D1EBFF" stroke="#220E6E" stroke-width="0.3" stroke-linecap="round" stroke-linejoin="round"/>
<path d="M38.7245 35.0726C39.5255 34.072 40.394 33.1501 41.3131 32.3434L43.5869 33.6504C42.6678 34.457 41.7993 35.3789 40.9983 36.3795L38.7245 35.0726Z" fill="#D1EBFF" stroke="#220E6E" stroke-width="0.3" stroke-linecap="round" stroke-linejoin="round"/>
<path d="M40.998 36.3796L41.6444 39.1087L39.3706 37.8018L38.7213 35.0726L40.998 36.3796Z" fill="#66BDFF" stroke="#220E6E" stroke-width="0.3" stroke-linecap="round" stroke-linejoin="round"/>
<path d="M41.6444 39.1086C41.0008 40.0221 40.433 41.0002 39.9608 42.012L37.687 40.7051C38.1592 39.6933 38.727 38.7152 39.3706 37.8017L41.6444 39.1086Z" fill="#66BDFF" stroke="#220E6E" stroke-width="0.3" stroke-linecap="round" stroke-linejoin="round"/>
<path d="M39.9606 42.012L37.2568 42.8299L34.983 41.5229L37.6868 40.705L39.9606 42.012Z" fill="#D1EBFF" stroke="#220E6E" stroke-width="0.3" stroke-linecap="round" stroke-linejoin="round"/>
<path d="M37.2584 42.8299C36.789 44.0188 36.4237 45.2274 36.182 46.4219L33.9081 45.115C34.1499 43.9204 34.5152 42.7119 34.9846 41.5229L37.2584 42.8299Z" fill="#66BDFF" stroke="#220E6E" stroke-width="0.3" stroke-linecap="round" stroke-linejoin="round"/>
<path d="M50.8196 33.8106L51.0079 32.7988L52.9332 31.1573L55.207 32.4643L52.5031 34.769C52.0309 34.3025 51.4632 33.9792 50.8196 33.8106Z" fill="#66BDFF" stroke="#220E6E" stroke-width="0.3" stroke-linecap="round" stroke-linejoin="round"/>
<path d="M36.185 52.4927C36.4267 53.4089 36.7921 54.1931 37.2615 54.8424L34.9877 53.5354C34.5183 52.8862 34.1529 52.0992 33.9112 51.1857L36.185 52.4927Z" fill="#66BDFF" stroke="#220E6E" stroke-width="0.3" stroke-linecap="round" stroke-linejoin="round"/>
<path d="M36.2833 48.1477C36.2243 47.7373 36.1821 47.3045 36.1821 46.8407C36.1821 46.703 36.1906 46.5653 36.199 46.4247L38.5571 46.7227C38.4981 47.2033 38.4559 47.6811 38.4559 48.1449C38.4559 48.6086 38.4953 49.0415 38.5571 49.4518L36.2833 48.1449L36.2833 48.1477Z" fill="#66BDFF" stroke="#220E6E" stroke-width="0.3" stroke-linecap="round" stroke-linejoin="round"/>
<path d="M38.5571 49.4517L36.1849 52.4928L33.9083 51.1858L36.2833 48.1475L38.5571 49.4517Z" fill="#D1EBFF" stroke="#220E6E" stroke-width="0.3" stroke-linecap="round" stroke-linejoin="round"/>
<path d="M39.9608 52.5407C40.433 53.0073 41.0008 53.3305 41.6444 53.4991L40.9952 56.9759L38.7213 55.669L39.1795 53.204L39.958 52.5407L39.9608 52.5407Z" fill="#66BDFF" stroke="#220E6E" stroke-width="0.3" stroke-linecap="round" stroke-linejoin="round"/>
<path d="M53.9951 39.5469L56.283 40.8904L53.9108 40.5897C53.9557 40.2384 53.981 39.8926 53.9951 39.5469Z" fill="#D1EBFF" stroke="#220E6E" stroke-width="0.3" stroke-linecap="round" stroke-linejoin="round"/>
<path d="M47.4246 51.7761L48.8806 53.6592L46.5899 52.3551C46.8709 52.1752 47.152 51.984 47.4246 51.7761Z" fill="#66BDFF" stroke="#220E6E" stroke-width="0.3" stroke-linecap="round" stroke-linejoin="round"/>
<defs>
<linearGradient id="paint0_linear_3408_51579" x1="17.2806" y1="16.2703" x2="36.2695" y2="19.196" gradientUnits="userSpaceOnUse">
<stop stop-color="#F8EDFF"/>
<stop offset="0.40625" stop-color="#EBEFFF"/>
<stop offset="1" stop-color="#E9FBFF"/>
</linearGradient>
<linearGradient id="paint1_linear_3408_51579" x1="26.7067" y1="21.9259" x2="45.6957" y2="24.8517" gradientUnits="userSpaceOnUse">
<stop stop-color="#F8EDFF"/>
<stop offset="0.40625" stop-color="#EBEFFF"/>
<stop offset="1" stop-color="#E9FBFF"/>
</linearGradient>
</defs>
</svg>
