<svg width="64" height="64" viewBox="0 0 64 64" fill="none" xmlns="http://www.w3.org/2000/svg">
<path d="M46.7386 14.2636L41.0239 11.2045C47.134 14.6899 48.2372 25.0079 43.3508 35.015L43.3557 35.0101C38.2317 45.5022 28.4555 51.6871 21.4766 48.8786L27.777 52.2843C34.7609 55.1742 44.5939 48.9828 49.7375 38.4484L49.7326 38.4533C54.8777 27.9205 53.2977 17.391 46.7402 14.2636L46.7386 14.2636Z" fill="url(#paint0_linear_3408_51530)" stroke="#29256A" stroke-width="0.2" stroke-linejoin="round"/>
<path d="M27.0563 51.8707C34.4193 53.5776 43.3151 48.0875 48.4586 37.5548L48.4537 37.5596C53.5989 27.0269 51.0377 16.7854 46.5613 14.1754" stroke="#29256A" stroke-width="0.2" stroke-miterlimit="10" stroke-linejoin="round"/>
<path d="M25.4763 51.0555C32.6961 52.6827 41.5919 47.0657 46.7355 36.5313L46.7306 36.5362C51.8757 26.0034 49.2901 16.1606 45.0302 13.3358" stroke="#29256A" stroke-width="0.2" stroke-miterlimit="10" stroke-linejoin="round"/>
<path d="M23.7059 50.0762C31.1975 52.2387 39.9322 46.0457 45.0773 35.5129L45.0725 35.5178C50.2176 24.9851 47.9038 15.1585 42.9734 12.2377" stroke="#29256A" stroke-width="0.2" stroke-miterlimit="10" stroke-linejoin="round"/>
<path d="M46.7387 14.2636L41.024 11.2045C47.1341 14.6899 48.2373 25.0079 43.3509 35.015L43.3558 35.0101C38.2318 45.5022 28.4557 51.6871 21.4767 48.8786L27.7771 52.2843C34.761 55.1742 44.5941 48.9828 49.7376 38.4484L49.7327 38.4533C54.8779 27.9205 53.2979 17.391 46.7403 14.2636L46.7387 14.2636Z" stroke="#29256A" stroke-width="0.2" stroke-miterlimit="10" stroke-linejoin="round"/>
<path d="M43.3492 35.0134C48.4944 24.4807 47.0006 13.5997 40.0168 10.7098C36.5362 9.26976 32.3511 10.0866 28.3906 12.5648L28.3873 12.555C28.358 12.5762 28.3287 12.5973 28.3011 12.6201C24.3421 15.1292 20.6175 19.2981 18.0547 24.5441C17.809 25.0437 17.5861 25.5432 17.3713 26.0444C17.3599 26.0672 17.3534 26.0883 17.342 26.1111C17.202 26.4414 17.067 26.7734 16.9401 27.1004C16.9368 27.1069 16.9336 27.1134 16.9336 27.1183C16.8197 27.4161 16.7074 27.7155 16.6032 28.0149C13.3131 37.3663 15.173 46.2686 21.392 48.8412C28.3759 51.7311 38.209 45.5396 43.3525 35.0053L43.3476 35.0102L43.3492 35.0134ZM39.6686 35.3958C39.6686 35.3958 39.8459 32.9908 39.5319 30.6444C39.3252 29.0953 38.5458 27.3347 38.2724 26.9247C39.0161 25.5432 39.9566 23.1708 40.2771 21.5355C40.7148 19.2948 40.3211 17.845 39.3203 17.3455C38.6792 17.0249 36.9983 17.3145 35.8593 19.2281C34.9025 20.8358 35.0392 22.2335 35.2817 22.7347C35.6608 23.5174 36.297 23.7435 36.3442 23.7663C36.2482 23.9583 36.162 24.2821 36.0399 24.479C35.6559 24.1243 34.5218 23.3742 33.5357 23.0829C32.2877 22.7135 31.0705 22.6289 30.9094 22.6126C31.9866 20.6389 33.6415 18.1949 35.6608 16.8589C36.891 16.0388 38.5914 15.5832 40.0477 16.3578C42.0914 17.4431 42.9669 21.2767 42.9473 24.2821C42.9164 28.9277 40.9882 33.3748 39.6686 35.3942L39.6686 35.3958ZM28.8673 33.601C28.5565 32.1886 28.7323 28.5584 29.2188 27.0272C29.4254 27.0191 30.488 26.9947 31.5636 27.3071C32.8555 27.6797 33.5748 28.3045 33.814 28.5275C32.976 30.0359 30.335 32.7874 28.8673 33.601ZM33.4625 14.423C31.9785 15.4758 28.4996 20.071 27.3361 23.2619C22.5099 24.562 20.8144 27.3689 20.2839 29.3248C19.9243 30.6493 20.2123 32.2147 21.5125 32.4278C22.5815 32.6035 24.3291 31.5133 24.9914 29.5802C25.1915 28.9977 25.3428 28.0084 25.3428 28.0084C25.3428 28.0084 25.6911 27.901 25.87 27.8571C25.4665 29.3134 25.2875 30.6526 25.2403 32.4604C25.2045 33.3944 25.3119 34.8181 25.3607 35.4527C23.3089 35.8481 21.5971 35.77 20.3767 34.6099C18.468 32.6296 19.1921 29.3378 20.2026 26.8856C22.6791 20.8781 28.5435 15.0153 33.4657 14.4247L33.4625 14.423ZM18.9448 39.1855C20.1098 40.0235 22.9493 40.5654 26.4119 39.0895C26.8382 40.2659 27.9756 42.448 29.6305 42.8906C30.7597 43.1298 31.7783 42.697 32.535 41.9127C33.9344 40.4612 34.6926 38.175 33.6431 36.8472C32.4699 35.3616 30.6003 37.0474 30.3204 37.394C30.2765 37.3305 30.0291 36.979 30.0015 36.9351C32.9857 34.9239 35.5388 31.4629 35.7129 31.144C36.4142 33.0592 36.5671 36.0825 35.8398 38.2401C35.2768 39.9145 33.8058 42.7523 31.1128 44.067C28.4198 45.3818 25.7513 45.73 23.3951 44.7619C20.0545 43.3885 19.0001 39.633 18.9431 39.1855L18.9448 39.1855Z" stroke="#29256A" stroke-width="0.2" stroke-miterlimit="10" stroke-linejoin="round"/>
<mask id="mask0_3408_51530" style="mask-type:luminance" maskUnits="userSpaceOnUse" x="21" y="11" width="32" height="43">
<path d="M46.7387 14.2636L41.024 11.2045C47.1341 14.6899 48.2373 25.0079 43.3509 35.015L43.3558 35.0101C38.2318 45.5022 28.4557 51.6871 21.4767 48.8786L27.7771 52.2843C34.761 55.1742 44.5941 48.9828 49.7376 38.4484L49.7327 38.4533C54.8778 27.9205 53.2979 17.391 46.7403 14.2636L46.7387 14.2636Z" fill="white" stroke="white" stroke-width="0.2" stroke-linejoin="round"/>
</mask>
<g mask="url(#mask0_3408_51530)">
<path d="M30.8623 27.2189L52.0189 38.754" stroke="#29256A" stroke-width="0.2" stroke-miterlimit="10" stroke-linejoin="round"/>
<path d="M28.6135 32.8671L49.7701 44.4022" stroke="#29256A" stroke-width="0.2" stroke-miterlimit="10" stroke-linejoin="round"/>
<path d="M24.7831 37.4622L45.9413 48.9973" stroke="#29256A" stroke-width="0.2" stroke-miterlimit="10" stroke-linejoin="round"/>
<path d="M21.8639 40.7163L43.0205 52.253" stroke="#29256A" stroke-width="0.2" stroke-miterlimit="10" stroke-linejoin="round"/>
<path d="M19.1042 42.7114L40.2609 54.2465" stroke="#29256A" stroke-width="0.2" stroke-miterlimit="10" stroke-linejoin="round"/>
<path d="M15.9768 43.478L37.1334 55.0131" stroke="#29256A" stroke-width="0.2" stroke-miterlimit="10" stroke-linejoin="round"/>
<path d="M13.9982 43.9238L35.1548 55.4605" stroke="#29256A" stroke-width="0.2" stroke-miterlimit="10" stroke-linejoin="round"/>
<path d="M32.4894 21.5241L53.6476 33.0592" stroke="#29256A" stroke-width="0.2" stroke-miterlimit="10" stroke-linejoin="round"/>
<path d="M34.1167 16.9288L55.2749 28.4639" stroke="#29256A" stroke-width="0.2" stroke-miterlimit="10" stroke-linejoin="round"/>
<path d="M34.5479 13.0511L55.7045 24.5862" stroke="#29256A" stroke-width="0.2" stroke-miterlimit="10" stroke-linejoin="round"/>
<path d="M34.2777 10.1793L55.4343 21.7144" stroke="#29256A" stroke-width="0.2" stroke-miterlimit="10" stroke-linejoin="round"/>
<path d="M33.1599 7.83289L54.3165 19.3696" stroke="#29256A" stroke-width="0.2" stroke-miterlimit="10" stroke-linejoin="round"/>
</g>
<path d="M43.3492 35.0134C48.4944 24.4807 47.0006 13.5997 40.0168 10.7098C36.5362 9.26976 32.3511 10.0866 28.3906 12.5648L28.3873 12.555C28.358 12.5762 28.3287 12.5973 28.3011 12.6201C24.3421 15.1292 20.6175 19.2981 18.0547 24.5441C17.809 25.0437 17.5861 25.5432 17.3713 26.0444C17.3599 26.0672 17.3534 26.0883 17.342 26.1111C17.202 26.4414 17.067 26.7734 16.9401 27.1004C16.9368 27.1069 16.9336 27.1134 16.9336 27.1183C16.8197 27.4161 16.7074 27.7155 16.6032 28.0149C13.3131 37.3663 15.173 46.2686 21.392 48.8412C28.3759 51.7311 38.209 45.5396 43.3525 35.0053L43.3476 35.0101L43.3492 35.0134ZM39.6686 35.3958C39.6686 35.3958 39.8459 32.9908 39.5319 30.6444C39.3252 29.0953 38.5458 27.3347 38.2724 26.9247C39.0161 25.5432 39.9566 23.1708 40.2771 21.5355C40.7148 19.2948 40.3211 17.845 39.3203 17.3455C38.6792 17.0249 36.9983 17.3145 35.8593 19.2281C34.9025 20.8358 35.0392 22.2335 35.2817 22.7347C35.6608 23.5174 36.297 23.7435 36.3442 23.7663C36.2482 23.9583 36.162 24.2821 36.0399 24.479C35.6559 24.1243 34.5218 23.3742 33.5357 23.0829C32.2877 22.7135 31.0705 22.6289 30.9094 22.6126C31.9866 20.6389 33.6415 18.1949 35.6608 16.8589C36.891 16.0388 38.5914 15.5832 40.0477 16.3578C42.0914 17.4431 42.9669 21.2767 42.9473 24.2821C42.9164 28.9277 40.9882 33.3748 39.6686 35.3942L39.6686 35.3958ZM28.8673 33.601C28.5565 32.1886 28.7323 28.5584 29.2188 27.0272C29.4254 27.0191 30.488 26.9947 31.5636 27.3071C32.8555 27.6797 33.5748 28.3045 33.8139 28.5275C32.976 30.0359 30.335 32.7874 28.8673 33.601ZM33.4625 14.423C31.9785 15.4758 28.4996 20.071 27.3361 23.2619C22.5099 24.562 20.8144 27.3689 20.2839 29.3248C19.9243 30.6493 20.2123 32.2147 21.5125 32.4278C22.5815 32.6035 24.3291 31.5133 24.9914 29.5802C25.1915 28.9977 25.3428 28.0084 25.3428 28.0084C25.3428 28.0084 25.6911 27.901 25.87 27.8571C25.4665 29.3134 25.2875 30.6526 25.2403 32.4604C25.2045 33.3944 25.3119 34.8181 25.3607 35.4527C23.3089 35.8481 21.5971 35.77 20.3767 34.6099C18.468 32.6296 19.1921 29.3378 20.2026 26.8856C22.6791 20.8781 28.5435 15.0153 33.4657 14.4247L33.4625 14.423ZM18.9448 39.1855C20.1098 40.0235 22.9493 40.5653 26.4119 39.0895C26.8382 40.2659 27.9756 42.448 29.6305 42.8906C30.7597 43.1298 31.7783 42.697 32.535 41.9127C33.9344 40.4612 34.6926 38.175 33.6431 36.8472C32.4699 35.3616 30.6003 37.0474 30.3204 37.394C30.2765 37.3305 30.0291 36.979 30.0015 36.9351C32.9857 34.9239 35.5388 31.4629 35.7129 31.144C36.4142 33.0592 36.5671 36.0825 35.8398 38.2401C35.2768 39.9145 33.8058 42.7523 31.1128 44.067C28.4198 45.3818 25.7513 45.73 23.3951 44.7619C20.0545 43.3885 19.0001 39.633 18.9431 39.1855L18.9448 39.1855Z" fill="url(#paint1_linear_3408_51530)" stroke="#29256A" stroke-width="0.2"/>
<path d="M21.2919 30.7981C20.7676 31.4972 20.7676 31.9633 21.1171 32.3128C22.4571 33.0119 24.2048 31.2059 24.5544 30.5651C24.9039 29.9243 25.137 28.9921 25.2535 28.06C23.3892 28.7008 21.9365 29.9387 21.2919 30.7981Z" fill="black" fill-opacity="0.3" stroke="#29256A" stroke-width="0.2" stroke-linejoin="round"/>
<path d="M33.2348 36.4488C32.1628 35.6565 30.885 36.779 30.3801 37.4392C30.8074 38.0218 31.8832 39.2918 32.7687 39.7113C33.6542 40.1307 33.9533 39.6919 33.9921 39.42C34.1863 38.7597 34.3067 37.2412 33.2348 36.4488Z" fill="black" fill-opacity="0.3" stroke="#29256A" stroke-width="0.2" stroke-linejoin="round"/>
<path d="M35.0991 21.6515C35.0125 22.9077 35.9341 23.5934 36.3225 23.7488C36.6138 22.972 37.3711 21.1271 37.6042 20.3115C37.8777 19.3543 38.245 17.923 37.779 17.7482C37.3129 17.5734 36.9123 17.9158 36.6721 18.156C36.2642 18.5638 35.2156 19.962 35.0991 21.6515Z" fill="black" fill-opacity="0.3" stroke="#29256A" stroke-width="0.2" stroke-linejoin="round"/>
<path d="M36.3442 23.7677C36.3442 23.7677 37.3905 21.1008 37.6753 20.1505C38.0577 18.8748 38.3131 17.438 37.2278 17.7569" stroke="#29256A" stroke-width="0.2" stroke-miterlimit="10" stroke-linejoin="round"/>
<path d="M30.3204 37.3938C30.3204 37.3938 31.5327 38.9461 32.4114 39.5043C33.29 40.0624 33.7522 39.8069 33.9751 39.392" stroke="#29256A" stroke-width="0.2" stroke-miterlimit="10" stroke-linejoin="round"/>
<path d="M25.3429 28.0081C25.3429 28.0081 22.9183 28.9568 21.7207 30.2504C20.5231 31.544 20.9072 32.1005 21.0992 32.2762" stroke="#29256A" stroke-width="0.2" stroke-miterlimit="10" stroke-linejoin="round"/>
<path d="M15.4833 9.19636C17.4787 9.19636 19.0963 8.25697 19.0963 7.09818C19.0963 5.93939 17.4787 5 15.4833 5C13.4879 5 11.8704 5.93939 11.8704 7.09818C11.8704 8.25697 13.4879 9.19636 15.4833 9.19636Z" fill="#EF3F9C" stroke="#29256A" stroke-width="0.2"/>
<path d="M15.4833 25.0001C17.4787 25.0001 19.0963 24.0607 19.0963 22.9019C19.0963 21.7431 17.4787 20.8037 15.4833 20.8037C13.4879 20.8037 11.8704 21.7431 11.8704 22.9019C11.8704 24.0607 13.4879 25.0001 15.4833 25.0001Z" fill="#EF3F9C" stroke="#29256A" stroke-width="0.2"/>
<path d="M10.4477 12.0982C11.4453 10.3735 11.439 8.50568 10.4335 7.92629C9.42805 7.34689 7.80416 8.27535 6.80647 10.0001C5.80879 11.7248 5.81511 13.5926 6.82059 14.172C7.82607 14.7514 9.44996 13.823 10.4477 12.0982Z" fill="#EF3F9C" stroke="#29256A" stroke-width="0.2"/>
<path d="M24.1603 19.9997C25.158 18.275 25.1517 16.4072 24.1462 15.8278C23.1407 15.2484 21.5168 16.1768 20.5191 17.9015C19.5214 19.6263 19.5278 21.4941 20.5332 22.0735C21.5387 22.6529 23.1626 21.7244 24.1603 19.9997Z" fill="#EF3F9C" stroke="#29256A" stroke-width="0.2"/>
<path d="M10.4335 22.0735C11.439 21.4941 11.4453 19.6263 10.4477 17.9016C9.44996 16.1769 7.82607 15.2484 6.82059 15.8278C5.81511 16.4072 5.80879 18.275 6.80647 19.9998C7.80416 21.7245 9.42805 22.6529 10.4335 22.0735Z" fill="#EF3F9C" stroke="#29256A" stroke-width="0.2"/>
<path d="M24.1462 14.172C25.1517 13.5926 25.158 11.7248 24.1603 10.0001C23.1626 8.27538 21.5387 7.34692 20.5332 7.92631C19.5278 8.50571 19.5214 10.3736 20.5191 12.0983C21.5168 13.823 23.1407 14.7514 24.1462 14.172Z" fill="#EF3F9C" stroke="#29256A" stroke-width="0.2"/>
<path d="M54.0508 53.7893L59.5301 50.542C59.8205 50.3695 60 50.0496 60 49.7063L60 43.2117C60 42.8684 59.8205 42.5485 59.5301 42.376L54.0508 39.1287C53.7604 38.9562 53.3998 38.9579 53.111 39.1287L47.6317 42.376C47.3413 42.5485 47.1618 42.8684 47.1618 43.2117L47.1618 54.8176L43.3191 57.0935L39.4765 54.8176L39.4765 50.264L43.3191 47.988L45.8532 49.4903L45.8532 46.4356L43.7891 45.2113C43.6471 45.1276 43.4839 45.0824 43.3191 45.0824C43.1543 45.0824 42.9912 45.1276 42.8492 45.2113L37.37 48.4586C37.0795 48.6311 36.9 48.951 36.9 49.2943L36.9 55.7889C36.9 56.1322 37.0795 56.4521 37.37 56.6246L42.8492 59.8719C43.1397 60.0427 43.4986 60.0427 43.7891 59.8719L49.2683 56.6246C49.5588 56.4521 49.7383 56.1322 49.7383 55.7889L49.7383 44.1814L49.8068 44.1412L53.5793 41.9054L57.4219 44.1814L57.4219 48.735L53.5793 51.0109L51.0485 49.512L51.0485 52.5667L53.1093 53.7876C53.3998 53.9584 53.7604 53.9584 54.0492 53.7876L54.0508 53.7893Z" fill="#7C51ED" stroke="#29256A" stroke-width="0.2"/>
<defs>
<linearGradient id="paint0_linear_3408_51530" x1="11.2163" y1="29.8087" x2="62.1689" y2="14.7777" gradientUnits="userSpaceOnUse">
<stop offset="0.137756" stop-color="#E6007A"/>
<stop offset="0.231884" stop-color="#703AC2"/>
<stop offset="0.373706" stop-color="#0070EB"/>
<stop offset="0.537267" stop-color="#0297FB"/>
<stop offset="0.776765" stop-color="#0AE2FF"/>
</linearGradient>
<linearGradient id="paint1_linear_3408_51530" x1="7.22478" y1="43.4443" x2="61.6911" y2="32.9332" gradientUnits="userSpaceOnUse">
<stop offset="0.137756" stop-color="#E6007A"/>
<stop offset="0.231884" stop-color="#703AC2"/>
<stop offset="0.373706" stop-color="#0070EB"/>
<stop offset="0.537267" stop-color="#0297FB"/>
<stop offset="0.776765" stop-color="#0AE2FF"/>
<stop offset="1" stop-color="#0AE2FF"/>
</linearGradient>
</defs>
</svg>
