<svg width="64" height="64" viewBox="0 0 64 64" fill="none" xmlns="http://www.w3.org/2000/svg">
<path d="M28.4745 23.5956L27.5336 21.8283L28.2902 19.645L28.2902 18.3104L25.9757 19.645L25.9757 20.9795L26.9696 22.7021C26.9864 22.7301 27.0115 22.7496 27.0366 22.7636L28.4717 23.5928L28.4745 23.5956Z" fill="#C985F2" stroke="#220E6E" stroke-width="0.3" stroke-linejoin="round"/>
<path opacity="0.2" d="M28.4745 23.5956L27.5336 21.8283L28.2902 19.645L28.2902 18.3104L25.9757 19.645L25.9757 20.9795L26.9696 22.7021C26.9864 22.7301 27.0115 22.7496 27.0366 22.7636L28.4717 23.5928L28.4745 23.5956Z" fill="black" stroke="#220E6E" stroke-width="0.3" stroke-linejoin="round"/>
<path d="M34 7.69261C34 7.25148 33.6901 6.71264 33.3076 6.49208L32.7436 6.16542C32.3611 5.94486 31.7385 5.94486 31.356 6.16542L22.6955 11.1741C22.313 11.3947 22.0031 11.9336 22.0031 12.3747L22.0031 21.9035C22.0031 22.3447 22.313 22.8835 22.6955 23.1041L23.2594 23.4307C23.6419 23.6513 24.2645 23.6513 24.647 23.4307L27.4334 21.8226L28.4245 23.5424C28.4887 23.6513 28.6506 23.6373 28.6925 23.5173L29.7423 20.488L33.3076 18.422C33.6901 18.2014 34 17.6626 34 17.2215L34 7.69261Z" fill="#C985F2" stroke="#220E6E" stroke-width="0.3" stroke-linejoin="round"/>
<path opacity="0.2" d="M22 21.9036C22 22.3447 22.3099 22.8835 22.6924 23.1041L23.2564 23.4307C23.6026 23.6318 24.1414 23.6485 24.5239 23.4866C24.1972 23.6094 23.9488 23.4252 23.9488 23.0315L23.9488 13.5026C23.9488 13.2821 24.0269 13.0364 24.1526 12.8186L22.201 11.6907C22.0782 11.9084 22 12.1541 22 12.3747L22 21.9036Z" fill="black" stroke="#220E6E" stroke-width="0.3" stroke-linejoin="round"/>
<path opacity="0.3" d="M33.9774 7.49438C33.8965 7.20123 33.6284 7.1063 33.3074 7.29057L24.644 12.3021C24.4542 12.411 24.2783 12.6008 24.1554 12.8186L22.2039 11.6934C22.3295 11.4729 22.5026 11.2858 22.6924 11.1769L31.3502 6.16542C31.7355 5.94486 32.3553 5.94486 32.7378 6.16542L33.3046 6.49208C33.6312 6.67914 33.9076 7.10072 33.9746 7.49438L33.9774 7.49438Z" fill="white" stroke="#220E6E" stroke-width="0.3" stroke-linejoin="round"/>
<path d="M22 21.9036C22 22.3447 22.3099 22.8835 22.6924 23.1041L23.2564 23.4307C23.6026 23.6318 24.1414 23.6485 24.5239 23.4866C24.1972 23.6094 23.9488 23.4252 23.9488 23.0315L23.9488 13.5026C23.9488 13.2821 24.0269 13.0364 24.1526 12.8186L22.201 11.6907C22.0782 11.9084 22 12.1541 22 12.3747L22 21.9036Z" stroke="#220E6E" stroke-width="0.3" stroke-linejoin="round"/>
<path d="M33.9774 7.49438C33.8965 7.20123 33.6284 7.1063 33.3074 7.29057L24.644 12.3021C24.4542 12.411 24.2783 12.6008 24.1554 12.8186L22.2039 11.6934C22.3295 11.4729 22.5026 11.2858 22.6924 11.1769L31.3502 6.16542C31.7355 5.94486 32.3553 5.94486 32.7378 6.16542L33.3046 6.49208C33.6312 6.67914 33.9076 7.10072 33.9746 7.49438L33.9774 7.49438Z" stroke="#220E6E" stroke-width="0.3" stroke-linejoin="round"/>
<path d="M28.8598 18.9552C25.8836 18.2377 25.6491 15.7696 26.5201 13.9995C27.2991 12.4137 28.7202 12.3523 28.8737 13.8907C29.0357 12.1708 30.4596 10.6018 31.2329 11.2998C32.0956 12.0759 31.8499 14.8176 28.8598 18.9552Z" fill="white" stroke="#220E6E" stroke-width="0.3" stroke-linejoin="round"/>
<path d="M15.6686 48.793L17.3139 45.7015L15.989 41.8826L15.989 39.5444L20.0374 41.8826L20.0374 44.2207L18.2968 47.2343C18.2665 47.2862 18.2232 47.3165 18.1799 47.3382L15.6686 48.793Z" fill="#526FF6" stroke="#220E6E" stroke-width="0.3" stroke-linejoin="round"/>
<path opacity="0.2" d="M15.6686 48.793L17.3139 45.7015L15.989 41.8826L15.989 39.5444L20.0374 41.8826L20.0374 44.2207L18.2968 47.2343C18.2665 47.2862 18.2232 47.3165 18.1799 47.3382L15.6686 48.793Z" fill="black" stroke="#220E6E" stroke-width="0.3" stroke-linejoin="round"/>
<path d="M6 20.9649C6 20.1898 6.54124 19.2502 7.21237 18.8606L8.19958 18.289C8.87071 17.9037 9.9575 17.9037 10.6286 18.289L25.7832 27.057C26.4543 27.4424 26.9956 28.3863 26.9956 29.1613L26.9956 45.8357C26.9956 46.6107 26.45 47.5503 25.7832 47.94L24.796 48.5115C24.1248 48.8969 23.038 48.8969 22.3669 48.5115L17.4915 45.6971L15.7552 48.7064C15.6426 48.8969 15.3569 48.8709 15.2876 48.6631L13.4517 43.3633L7.21237 39.7479C6.54124 39.3625 6 38.4186 6 37.6479L6 20.9735L6 20.9649Z" fill="#526FF6" stroke="#220E6E" stroke-width="0.3" stroke-linejoin="round"/>
<path opacity="0.2" d="M26.9999 45.8401C26.9999 46.6152 26.4543 47.5548 25.7875 47.9445L24.8003 48.516C24.1941 48.8667 23.2502 48.897 22.5791 48.6156C23.1506 48.8321 23.5836 48.5073 23.5836 47.8189L23.5836 31.1446C23.5836 30.7592 23.4494 30.3306 23.2286 29.9495L26.6449 27.9794C26.8657 28.3605 26.9999 28.7891 26.9999 29.1745L26.9999 45.8488L26.9999 45.8401Z" fill="black" stroke="#220E6E" stroke-width="0.3" stroke-linejoin="round"/>
<path opacity="0.3" d="M6.03918 20.6231C6.18207 20.1078 6.64969 19.9433 7.21258 20.268L22.3714 29.036C22.7048 29.2265 23.0123 29.5556 23.2244 29.9409L26.6407 27.9709C26.4199 27.5855 26.1211 27.2564 25.7877 27.0659L10.6332 18.2979C9.95771 17.9126 8.87092 17.9126 8.20412 18.2979L7.21258 18.8695C6.64103 19.1985 6.16042 19.9346 6.03918 20.6231Z" fill="white" stroke="#220E6E" stroke-width="0.3" stroke-linejoin="round"/>
<path d="M6.03918 20.6231C6.18207 20.1078 6.64969 19.9433 7.21258 20.268L22.3714 29.036C22.7048 29.2265 23.0123 29.5556 23.2244 29.9409L26.6407 27.9709C26.4199 27.5855 26.1211 27.2564 25.7877 27.0659L10.6332 18.2979C9.95771 17.9126 8.87092 17.9126 8.20412 18.2979L7.21258 18.8695C6.64103 19.1985 6.16042 19.9346 6.03918 20.6231Z" stroke="#220E6E" stroke-width="0.3" stroke-linejoin="round"/>
<path d="M27 45.84C27 46.6151 26.4545 47.5547 25.7877 47.9443L24.8004 48.5159C24.1943 48.8666 23.2504 48.8969 22.5792 48.6155C23.1508 48.832 23.5838 48.5072 23.5838 47.8188L23.5838 31.1444C23.5838 30.7591 23.4495 30.3304 23.2287 29.9494L26.645 27.9793C26.8658 28.3603 27 28.789 27 29.1744L27 45.8487L27 45.84Z" stroke="#220E6E" stroke-width="0.3" stroke-linejoin="round"/>
<path d="M20.1976 39.8302C20.1976 40.2242 19.7517 40.6442 19.31 40.3887C19.31 40.3887 19.4399 40.8217 19.4399 41.3023C19.4442 41.8825 18.9636 42.177 18.2709 41.7786C17.5867 41.3846 13.0057 38.7477 13.0057 38.7477L13.0057 31.8675C13.0057 31.8675 14.4476 30.2438 14.5818 29.9191C14.7204 29.5987 14.5818 27.7715 14.5818 27.4511C14.5818 27.1956 15.4478 27.568 15.9933 28.4686C16.1189 28.6721 16.2272 28.9059 16.3051 29.1657C16.4653 29.7026 16.5692 30.1832 16.6212 30.6292C16.7034 31.309 16.6645 31.8935 16.5129 32.4607L19.6954 34.3009C19.9595 34.4481 20.1673 34.682 20.3102 34.9288C20.544 35.3098 20.6436 35.7384 20.6436 35.9982C20.6436 36.6174 20.3016 36.7646 20.1327 36.7776C20.1327 36.7776 20.7649 37.3145 20.7649 38.1675C20.7649 38.6524 20.4748 38.9988 19.9898 38.8343C19.9898 38.8343 20.1976 39.237 20.1976 39.8345L20.1976 39.8302Z" fill="#FAFAFA" stroke="#220E6E" stroke-width="0.3" stroke-linejoin="round"/>
<path d="M9.94885 30.2046L9.95751 37.626C9.95751 37.7905 10.0744 37.9897 10.2173 38.072L11.9926 39.0981C12.1354 39.1804 12.2523 39.1155 12.2523 38.9509L12.2523 31.5425C12.2523 31.378 12.1354 31.1788 11.9926 31.0922L10.2086 30.0531C10.0657 29.9708 9.94885 30.0357 9.94885 30.2003L9.94885 30.2046Z" fill="#FAFAFA" stroke="#220E6E" stroke-width="0.3" stroke-linejoin="round"/>
<path d="M49.2589 16.8864C46.7892 15.4842 43.3847 15.6989 39.6265 17.8654C32.0658 22.23 25.939 32.8415 25.939 41.5707C25.939 45.9289 27.4675 48.9924 29.9435 50.4262C30.9731 51.0199 33.5881 52.5232 34.6176 53.1169C37.0936 54.5444 40.5108 54.336 44.2879 52.1569C51.8486 47.7923 57.9755 37.1745 57.9755 28.4453C57.9755 24.0933 56.4532 21.0362 53.9835 19.6024C52.9477 19.0024 50.3011 17.4801 49.2589 16.8864Z" fill="#465FDA" stroke="#220E6E" stroke-width="0.4" stroke-linejoin="round"/>
<path opacity="0.45" d="M49.2589 16.8864C46.7892 15.4842 43.3847 15.6989 39.6265 17.8654C32.0658 22.23 25.939 32.8415 25.939 41.5707C25.939 45.9289 27.4675 48.9924 29.9435 50.4262C30.9731 51.0199 33.5881 52.5232 34.6176 53.1169C37.0936 54.5444 40.5108 54.336 44.2879 52.1569C51.8486 47.7923 57.9755 37.1745 57.9755 28.4453C57.9755 24.0933 56.4532 21.0362 53.9835 19.6024C52.9477 19.0024 50.3011 17.4801 49.2589 16.8864Z" fill="white" stroke="#220E6E" stroke-width="0.4" stroke-linejoin="round"/>
<path d="M36.683 53.3066C36.1145 54.273 35.085 55.5362 33.2595 56.6984C31.5415 57.7912 29.5139 58.0059 28.1244 57.9933C28.0359 57.9933 27.9538 57.968 27.8843 57.9364C27.6064 57.7722 23.2923 55.2962 23.2292 55.2583C22.9449 55.0941 22.9007 54.6456 23.2355 54.4498C26.4379 52.5612 27.3159 49.8578 27.5117 48.0198L36.683 53.3129L36.683 53.3066Z" fill="#465FDA" stroke="#220E6E" stroke-width="0.4" stroke-linejoin="round"/>
<path opacity="0.25" d="M36.683 53.3066C36.1145 54.273 35.085 55.5362 33.2595 56.6984C31.5415 57.7912 29.5139 58.0059 28.1244 57.9933C28.0359 57.9933 27.9538 57.968 27.8843 57.9364C27.6064 57.7722 23.2923 55.2962 23.2292 55.2583C22.9449 55.0941 22.9007 54.6456 23.2355 54.4498C26.4379 52.5612 27.3159 49.8578 27.5117 48.0198L36.683 53.3129L36.683 53.3066Z" fill="white" stroke="#220E6E" stroke-width="0.4" stroke-linejoin="round"/>
<path d="M44.2878 20.5434C36.7272 24.908 30.6003 35.5258 30.6003 44.2549C30.6003 46.9015 31.1688 49.0743 32.1668 50.6913C31.9773 52.5357 31.1056 55.2391 27.8969 57.1277C27.4864 57.3677 27.6506 57.993 28.1243 57.9993C29.5202 58.0119 31.5478 57.7972 33.2658 56.7045C34.7944 55.7381 35.7544 54.6959 36.3608 53.8116C38.5968 54.3611 41.3318 53.8684 44.2941 52.163C51.8548 47.7984 57.9817 37.1806 57.9817 28.4514C57.9817 19.7223 51.8485 16.1788 44.2878 20.5434Z" fill="#FAFAFA" stroke="#220E6E" stroke-width="0.4" stroke-linejoin="round"/>
<path d="M36.6324 41.5076C36.6324 41.1981 36.6767 40.8823 36.7588 40.5601C36.8472 40.238 36.9672 39.9348 37.1188 39.6442C37.2704 39.3537 37.4473 39.0947 37.6494 38.861C37.8515 38.6273 38.0726 38.4441 38.3 38.3115C38.5337 38.1789 38.7484 38.1094 38.9569 38.1094C39.159 38.1094 39.3358 38.1662 39.4874 38.2799C39.639 38.3936 39.759 38.5642 39.8475 38.7852C39.9359 39.0063 39.9801 39.2716 39.9801 39.5811C39.9801 39.8906 39.9359 40.2064 39.8475 40.5285C39.759 40.8507 39.639 41.1539 39.4874 41.4444C39.3358 41.735 39.159 41.9939 38.9569 42.2276C38.7547 42.4613 38.5337 42.6445 38.3 42.7772C38.0663 42.9098 37.8515 42.9793 37.6494 42.9793C37.4473 42.9793 37.2704 42.9224 37.1188 42.8087C36.9672 42.695 36.8472 42.5245 36.7588 42.3034C36.6703 42.0824 36.6324 41.8171 36.6324 41.5076Z" fill="#465FDA" stroke="#220E6E" stroke-width="0.4" stroke-linejoin="round"/>
<path d="M43.1699 37.7302C43.1699 37.4207 43.2141 37.1048 43.2962 36.7827C43.3847 36.4606 43.5047 36.1574 43.6563 35.8668C43.8079 35.5763 43.9847 35.3173 44.1869 35.0836C44.389 34.8499 44.61 34.6667 44.8438 34.5341C45.0775 34.4014 45.2922 34.332 45.4943 34.332C45.6965 34.332 45.8733 34.3888 46.0249 34.5025C46.1765 34.6162 46.2965 34.7867 46.3849 35.0078C46.4734 35.2289 46.5113 35.4942 46.5113 35.8037C46.5113 36.1132 46.4671 36.429 46.3849 36.7511C46.2965 37.0733 46.1765 37.3764 46.0249 37.667C45.8733 37.9576 45.6965 38.2165 45.4943 38.4502C45.2922 38.6839 45.0711 38.8671 44.8438 38.9997C44.61 39.1324 44.3953 39.2019 44.1869 39.2082C43.9847 39.2082 43.8079 39.1513 43.6563 39.0376C43.5047 38.924 43.3847 38.7534 43.2962 38.5323C43.2078 38.3113 43.1699 38.046 43.1699 37.7365L43.1699 37.7302Z" fill="#465FDA" stroke="#220E6E" stroke-width="0.4" stroke-linejoin="round"/>
<path d="M49.7009 33.9597C49.7009 33.6502 49.7451 33.3343 49.8273 33.0122C49.9157 32.6901 50.0294 32.3869 50.1873 32.0963C50.3389 31.8058 50.5157 31.5468 50.7179 31.3131C50.92 31.0794 51.1411 30.8962 51.3748 30.7636C51.6085 30.6309 51.8232 30.5615 52.0253 30.5615C52.2275 30.5615 52.4043 30.6183 52.5559 30.732C52.7075 30.8457 52.8275 31.0162 52.9159 31.2373C53.0044 31.4584 53.0423 31.7237 53.0423 32.0332C53.0423 32.3427 52.9981 32.6585 52.9159 32.9806C52.8275 33.3028 52.7075 33.6059 52.5559 33.8965C52.4043 34.187 52.2275 34.446 52.0253 34.6797C51.8232 34.9134 51.6021 35.0966 51.3748 35.2292C51.1411 35.3619 50.9263 35.4314 50.7179 35.4314C50.5157 35.4314 50.3389 35.3745 50.1873 35.2608C50.0357 35.1471 49.9157 34.9766 49.8273 34.7555C49.7388 34.5344 49.7009 34.2692 49.7009 33.9597Z" fill="#465FDA" stroke="#220E6E" stroke-width="0.4" stroke-linejoin="round"/>
</svg>
