<svg width="64" height="64" viewBox="0 0 64 64" fill="none" xmlns="http://www.w3.org/2000/svg">
<path fill-rule="evenodd" clip-rule="evenodd" d="M52.695 22.3344C51.0399 19.0379 48.6478 16.2809 45.7883 14.2083C41.9672 11.4363 37.317 9.88672 32.4965 9.88672L32.4965 13.6506C35.4373 13.6476 38.3586 14.3394 41.0537 15.7126C41.9416 16.1648 42.7827 16.6804 43.574 17.2532C45.2095 18.4349 46.6294 19.8624 47.7946 21.4858L52.6935 22.3329L52.695 22.3329L52.695 22.3344ZM54.0034 25.5165L54.0004 25.5165L54.0034 25.5165ZM54.0004 25.5165C55.5364 30.242 55.4309 35.1047 54.0004 39.4912C52.888 42.9038 50.9736 46.0255 48.4051 48.5715L47.6966 43.6424C48.289 42.8314 48.8226 41.9677 49.2869 41.0558C49.7391 40.168 50.1159 39.256 50.4204 38.3275C51.6534 34.5636 51.667 30.5194 50.4189 26.6801L54.0004 25.5165ZM38.3224 50.421C36.4111 51.042 34.4485 51.3495 32.4965 51.351C30.5037 51.3525 28.5186 51.0345 26.6087 50.3999L22.1425 52.5961C25.3064 54.227 28.8532 55.1149 32.4965 55.1149C34.8118 55.1149 37.1663 54.7576 39.4876 54.004C41.8059 53.2503 43.9192 52.1574 45.7898 50.7978L43.577 47.753C41.9973 48.897 40.2307 49.7999 38.3224 50.421ZM13.65 32.4322C13.644 34.4068 13.9515 36.392 14.5801 38.3245C15.8282 42.1607 18.2143 45.4241 21.4219 47.7454L19.2091 50.7918C15.4754 48.0831 12.5316 44.2122 10.9971 39.4881C9.84245 35.9383 9.61635 32.3086 10.1816 28.8628L13.65 32.4322ZM21.4174 17.2532C19.0388 18.9791 17.0853 21.2537 15.7121 23.9473C15.2584 24.8367 14.8815 25.7501 14.5771 26.6801L10.9956 25.5165C12.4577 21.0291 15.3051 17.0406 19.2046 14.2083C21.0768 12.8472 23.1916 11.7513 25.5129 10.9976C26.6917 10.6148 27.8779 10.3359 29.0642 10.152L26.7369 14.564L26.6781 14.5821C24.7668 15.2032 22.9986 16.1061 21.4174 17.2532Z" fill="url(#paint0_linear_3408_51661)"/>
<path d="M53.9069 25.7051C55.3389 30.2106 55.3224 34.9573 53.8602 39.4447C52.7855 42.7413 50.9405 45.7786 48.5136 48.2506L47.8564 43.6818C48.4443 42.8709 48.9719 42.0117 49.4226 41.1254C49.8718 40.2436 50.2561 39.3181 50.5651 38.376C51.8012 34.6 51.8163 30.592 50.6089 26.7784L53.8768 25.6192M54.0034 25.5167L50.4189 26.6819C51.667 30.5211 51.6535 34.5654 50.4204 38.3292C50.116 39.2578 49.7391 40.1697 49.2869 41.0575C48.8226 41.9695 48.289 42.8332 47.6967 43.6442L48.4051 48.5732C50.9736 46.0273 52.888 42.9056 54.0004 39.4929C55.4309 35.105 55.5364 30.2423 54.0004 25.5167L54.0034 25.5167Z" fill="#2A3039"/>
<path d="M43.5439 47.9642L45.6527 50.7136C43.7821 52.0521 41.6431 53.1465 39.4409 53.8625C37.1874 54.595 34.851 54.9658 32.4965 54.9658C29.0447 54.9658 25.5883 54.1489 22.4801 52.5993L26.6193 50.5644C28.5201 51.1869 30.4917 51.5034 32.4799 51.5034L32.4965 51.5034C34.4832 51.5019 36.4593 51.1854 38.3692 50.5659C40.2292 49.9614 41.9687 49.0872 43.5439 47.9657M43.5771 47.7562C41.9974 48.9002 40.2307 49.8032 38.3224 50.4242C36.4111 51.0452 34.4485 51.3527 32.4965 51.3542L32.4799 51.3542C30.4917 51.3542 28.5141 51.0347 26.6073 50.4031L22.141 52.5993C25.3049 54.2302 28.8502 55.1181 32.495 55.1181C34.8103 55.1181 37.1648 54.7608 39.4861 54.0072C41.8044 53.2535 43.9177 52.1607 45.7884 50.801L43.5756 47.7562L43.5771 47.7562Z" fill="#2A3039"/>
<path d="M10.2841 29.1839L13.5008 32.4925C13.5008 34.4807 13.8173 36.4568 14.4384 38.3697C15.6759 42.1773 18.0168 45.4271 21.2124 47.7786L19.2438 50.629C15.4468 47.8359 12.6024 43.9394 11.1403 39.4414C10.0505 36.089 9.76256 32.6402 10.2841 29.1839ZM10.1816 28.8628C9.61635 32.3086 9.84245 35.9383 10.9971 39.4881C12.5316 44.2122 15.4754 48.0831 19.2091 50.7918L21.4219 47.7454C18.2143 45.4241 15.8282 42.1607 14.5801 38.3229C13.9515 36.3905 13.644 34.4053 13.65 32.4307L10.1816 28.8628Z" fill="#2A3039"/>
<path d="M32.5568 10.0375C34.8751 10.0525 37.2612 10.4264 39.474 11.1514C41.7049 11.8825 43.8001 12.9512 45.6994 14.3289C48.5076 16.3653 50.8274 19.059 52.4237 22.134L47.882 21.3486C46.7078 19.7252 45.2879 18.3068 43.6629 17.1326C42.8595 16.5507 42.0049 16.0292 41.123 15.58C38.4535 14.2204 35.6031 13.5209 32.6472 13.5014L32.5568 10.0375ZM32.504 9.88672L32.4965 9.88672L32.4965 13.6506L32.5206 13.6506C35.4539 13.6506 38.3661 14.3425 41.0552 15.7126C41.943 16.1648 42.7842 16.6804 43.5755 17.2532C45.211 18.4349 46.6309 19.8624 47.7961 21.4858L52.695 22.3329C51.0399 19.0364 48.6478 16.2794 45.7883 14.2068C41.9687 11.4393 37.3215 9.88672 32.504 9.88672Z" fill="#2A3039"/>
<path d="M28.7899 10.3482L26.6329 14.4377L26.6314 14.4377C24.7216 15.0587 22.9369 15.9646 21.3285 17.1313C18.8941 18.8964 16.9587 21.1665 15.578 23.8782C15.1499 24.7178 14.7821 25.5951 14.4821 26.4905L11.1599 25.5047C11.8865 23.325 12.9627 21.1921 14.3088 19.3305C15.7016 17.4041 17.3777 15.7219 19.2936 14.3306C21.1989 12.9469 23.3062 11.8737 25.5597 11.1411C26.6133 10.7989 27.6986 10.5321 28.7899 10.3482ZM29.0643 10.1508C27.878 10.3347 26.6917 10.6135 25.5129 10.9964C23.1916 11.7501 21.0768 12.8459 19.2047 14.207C15.3051 17.0409 12.4577 21.0293 10.9956 25.5167L14.5771 26.6804C14.8816 25.7504 15.2584 24.8369 15.7121 23.9476C17.0853 21.2539 19.0388 18.9793 21.4174 17.2534C22.9987 16.1063 24.7668 15.2034 26.6781 14.5824C26.6977 14.5763 26.7173 14.5703 26.7369 14.5643L29.0643 10.1523L29.0643 10.1508Z" fill="#2A3039"/>
<path d="M54.0245 39.5394L50.443 38.3757C50.1385 39.3043 49.7617 40.2162 49.3095 41.104C48.8452 42.016 48.3116 42.8797 47.7192 43.6907L48.4277 48.6197C50.9962 46.0738 52.9106 42.9521 54.023 39.5394L54.0245 39.5394Z" fill="url(#paint1_linear_3408_51661)"/>
<path d="M32.4965 55.1164L32.4965 51.3526C30.5037 51.3541 28.5186 51.036 26.6087 50.4014L22.1425 52.5976C25.3064 54.2286 28.8532 55.1164 32.4965 55.1164Z" fill="url(#paint2_linear_3408_51661)"/>
<path d="M10.9971 39.4881L14.5816 38.3229C13.953 36.3905 13.6455 34.4053 13.6515 32.4307L10.1816 28.8628C9.61635 32.3086 9.84245 35.9383 10.9971 39.4881Z" fill="url(#paint3_linear_3408_51661)"/>
<path d="M45.7884 14.2084L43.5756 17.2548C45.211 18.4366 46.631 19.864 47.7962 21.4874L52.6951 22.3346C51.04 19.038 48.6478 16.281 45.7884 14.2084Z" fill="url(#paint4_linear_3408_51661)"/>
<path d="M25.5129 10.9976C23.1915 11.7513 21.0767 12.8471 19.2046 14.2083L21.4174 17.2531C22.9986 16.106 24.7667 15.2031 26.6781 14.5821C26.6976 14.5761 26.7172 14.57 26.7368 14.564L29.0642 10.152C27.8779 10.3359 26.6916 10.6147 25.5129 10.9976Z" fill="url(#paint5_linear_3408_51661)"/>
<path d="M43.6705 36.1329L43.7383 36.0636L53.9838 25.5211L39.4981 23.0144L39.4017 22.9978L39.3565 22.9119L32.4965 9.90948L25.6365 22.9119L25.5913 22.9978L25.4948 23.0144L11.0092 25.5211L21.2546 36.0636L21.3225 36.1329L21.3089 36.2294L19.2167 50.7814L32.4091 44.2952L32.4965 44.2515L32.5839 44.2937L45.7763 50.7799L43.6841 36.2294L43.6705 36.1329ZM34.0958 40.5676L34.0144 40.5269L32.5884 39.8274L31.164 40.5284L31.0811 40.5691L24.2769 43.9154L25.3577 36.4042L25.3697 36.3138L25.5928 34.7462L24.4909 33.6081L24.4231 33.5388L19.1383 28.1017L26.6088 26.8084L26.6977 26.7934L28.2653 26.522L29.007 25.1157L29.0492 25.0358L32.5869 18.3296L36.1247 25.0358L36.1669 25.1157L36.9085 26.522L38.4762 26.7934L38.5651 26.8084L46.037 28.1017L40.7523 33.5388L40.6889 33.6036L39.581 34.7446L39.8071 36.3183L39.8207 36.4073L40.9 43.9124L34.0928 40.5645L34.0958 40.5676Z" fill="url(#paint6_linear_3408_51661)"/>
<path d="M39.9488 34.3693L34.2043 32.5032L45.2517 28.9127L46.0401 28.1017L44.9261 27.9088L33.8772 31.4993L37.4285 26.6124L36.9115 26.5235L36.607 25.9462L33.024 30.8782L33.024 19.1541L32.5884 18.3295L31.9689 19.5053L31.9689 30.8782L28.4929 26.0939L28.2653 26.5235L27.5855 26.6411L31.1157 31.4993L20.1317 27.9299L19.1383 28.1017L20.0111 29.0016L30.7886 32.5032L25.1828 34.3241L25.5913 34.7461L25.5084 35.328L31.1142 33.5071L24.4547 42.6748L24.2754 43.9154L25.1798 43.4707L31.9689 34.1266L31.9689 40.1319L32.5869 39.8289L33.024 40.043L33.024 34.1266L39.7092 43.329L40.903 43.9154L40.7688 42.9913L33.8772 33.5071L39.676 35.3898L39.5841 34.7461L39.9488 34.3693Z" fill="url(#paint7_radial_3408_51661)"/>
<path d="M25.5912 22.9978L25.4948 23.0144L15.8206 24.6891L19.1382 28.1017L26.6087 26.8099L26.6976 26.7933L28.1643 26.5416L25.5912 22.9978Z" fill="url(#paint8_linear_3408_51661)"/>
<path d="M24.2934 43.7932L25.3561 36.4042L25.3681 36.3137L25.5912 34.7461L21.3224 36.1329L21.3088 36.2293L19.8934 46.0708L24.1653 43.9696L24.2934 43.7932Z" fill="url(#paint9_linear_3408_51661)"/>
<path d="M40.7236 43.8277L34.0943 40.5673L34.0129 40.5266L32.5869 39.8287L32.4965 39.8724L32.4965 44.2513L32.5839 44.2935L41.5933 48.7236L40.9301 44.1111L40.7236 43.8277Z" fill="url(#paint10_linear_3408_51661)"/>
<path d="M46.0401 28.1545L40.7553 33.5915L40.692 33.6563L39.5841 34.7974L39.5932 34.8592L43.6705 36.1842L43.7384 36.1148L50.6918 28.9594L46.0401 28.1545Z" fill="url(#paint11_linear_3408_51661)"/>
<path d="M39.3564 22.9632L34.7634 14.2582L32.5898 18.3809L36.1276 25.0871L36.1698 25.167L36.8813 26.5175L39.4016 23.0491L39.3564 22.9632Z" fill="url(#paint12_linear_3408_51661)"/>
<path d="M19.0945 28.1663L15.709 24.7055L15.8884 24.6768L19.203 28.0608L19.0945 28.1663Z" fill="url(#paint13_linear_3408_51661)"/>
<path d="M19.8815 46.155L19.9056 45.9817L24.2061 43.8669L24.1985 44.0372L19.8815 46.155Z" fill="url(#paint14_linear_3408_51661)"/>
<path d="M41.5195 48.6859L40.8322 43.9649L40.998 44.0448L41.6778 48.7643L41.5195 48.6859Z" fill="url(#paint15_linear_3408_51661)"/>
<path d="M50.6254 28.9759L46.0265 28.177L46.0521 28.0292L50.7551 28.8462L50.6254 28.9759Z" fill="url(#paint16_linear_3408_51661)"/>
<path d="M32.6563 18.3642L32.5221 18.2949L34.7198 14.1255L34.8072 14.2838L32.6563 18.3642Z" fill="url(#paint17_linear_3408_51661)"/>
<path d="M40.9978 44.0449L32.5883 39.9117L24.1818 44.0449L25.5128 34.7717L24.3702 33.5914L18.986 28.0519L28.2185 26.4556L32.5913 18.1682L36.9627 26.4556L46.1952 28.0534L39.6638 34.7732L40.9978 44.0479L40.9978 44.0449ZM19.292 28.1514L25.6726 34.7204L25.4314 36.4147L24.3717 43.7841L32.5883 39.7444L34.1288 40.4996L40.8079 43.7841L39.5041 34.7189L45.8877 28.1514L36.8632 26.5897L36.0613 25.0703L32.5898 18.4907L28.3165 26.5912L19.2935 28.1514L19.292 28.1514Z" fill="#3B424C"/>
<circle cx="32.5" cy="32.5" r="26.35" stroke="#29256A" stroke-width="0.3"/>
<defs>
<linearGradient id="paint0_linear_3408_51661" x1="16.404" y1="16.4045" x2="48.8121" y2="48.8126" gradientUnits="userSpaceOnUse">
<stop stop-color="#7C838E"/>
<stop offset="0.21" stop-color="#BCC2CC"/>
<stop offset="0.37" stop-color="#ACB5C1"/>
<stop offset="0.8" stop-color="#69707C"/>
<stop offset="1" stop-color="#323A45"/>
</linearGradient>
<linearGradient id="paint1_linear_3408_51661" x1="47.9845" y1="45.9336" x2="52.2051" y2="39.8288" gradientUnits="userSpaceOnUse">
<stop stop-color="#0A0D10"/>
<stop offset="1" stop-color="#0A0D10" stop-opacity="0"/>
</linearGradient>
<linearGradient id="paint2_linear_3408_51661" x1="24.5316" y1="51.9977" x2="31.7669" y2="53.279" gradientUnits="userSpaceOnUse">
<stop stop-color="#0A0D10"/>
<stop offset="1" stop-color="#0A0D10" stop-opacity="0"/>
</linearGradient>
<linearGradient id="paint3_linear_3408_51661" x1="12.0341" y1="30.9128" x2="12.3356" y2="38.0727" gradientUnits="userSpaceOnUse">
<stop stop-color="#252C36"/>
<stop offset="1" stop-color="#252C36" stop-opacity="0"/>
</linearGradient>
<linearGradient id="paint4_linear_3408_51661" x1="50.0225" y1="21.8779" x2="45.5758" y2="16.1499" gradientUnits="userSpaceOnUse">
<stop stop-color="#252C36"/>
<stop offset="1" stop-color="#252C36" stop-opacity="0"/>
</linearGradient>
<linearGradient id="paint5_linear_3408_51661" x1="27.6729" y1="12.2773" x2="20.4376" y2="15.3674" gradientUnits="userSpaceOnUse">
<stop stop-color="#252C36"/>
<stop offset="1" stop-color="#252C36" stop-opacity="0"/>
</linearGradient>
<linearGradient id="paint6_linear_3408_51661" x1="15.7799" y1="17.3317" x2="48.1127" y2="49.6644" gradientUnits="userSpaceOnUse">
<stop stop-color="#7C838E"/>
<stop offset="0.21" stop-color="#BCC2CC"/>
<stop offset="0.37" stop-color="#ACB5C1"/>
<stop offset="0.8" stop-color="#69707C"/>
<stop offset="1" stop-color="#323A45"/>
</linearGradient>
<radialGradient id="paint7_radial_3408_51661" cx="0" cy="0" r="1" gradientUnits="userSpaceOnUse" gradientTransform="translate(32.6081 34.8287) rotate(-90) scale(12.4191 13.0567)">
<stop stop-color="#8795A3"/>
<stop offset="0.71" stop-color="#3E4852"/>
<stop offset="1" stop-color="#171A1F"/>
</radialGradient>
<linearGradient id="paint8_linear_3408_51661" x1="19.506" y1="28.1002" x2="22.6715" y2="24.9348" gradientUnits="userSpaceOnUse">
<stop stop-color="#22262C"/>
<stop offset="0.12" stop-color="#454D58"/>
<stop offset="1" stop-color="#454D58" stop-opacity="0"/>
</linearGradient>
<linearGradient id="paint9_linear_3408_51661" x1="24.2557" y1="43.5717" x2="21.7686" y2="38.3713" gradientUnits="userSpaceOnUse">
<stop stop-color="#22262C"/>
<stop offset="0.12" stop-color="#454D58"/>
<stop offset="1" stop-color="#454D58" stop-opacity="0"/>
</linearGradient>
<linearGradient id="paint10_linear_3408_51661" x1="40.7432" y1="43.8277" x2="36.4472" y2="44.3553" gradientUnits="userSpaceOnUse">
<stop stop-color="#101215"/>
<stop offset="0.12" stop-color="#2D333C"/>
<stop offset="1" stop-color="#2D333C" stop-opacity="0"/>
</linearGradient>
<linearGradient id="paint11_linear_3408_51661" x1="45.7778" y1="28.2962" x2="45.0241" y2="32.5168" gradientUnits="userSpaceOnUse">
<stop stop-color="#22262C"/>
<stop offset="0.12" stop-color="#454D58"/>
<stop offset="1" stop-color="#454D58" stop-opacity="0"/>
</linearGradient>
<linearGradient id="paint12_linear_3408_51661" x1="32.7315" y1="18.5467" x2="36.2738" y2="20.657" gradientUnits="userSpaceOnUse">
<stop stop-color="#22262C"/>
<stop offset="0.12" stop-color="#454D58"/>
<stop offset="1" stop-color="#454D58" stop-opacity="0"/>
</linearGradient>
<linearGradient id="paint13_linear_3408_51661" x1="15.8387" y1="24.7341" x2="19.7268" y2="25.9097" gradientUnits="userSpaceOnUse">
<stop offset="0.702552" stop-color="white"/>
<stop offset="1" stop-color="white" stop-opacity="0"/>
</linearGradient>
<linearGradient id="paint14_linear_3408_51661" x1="19.9087" y1="46.0631" x2="20.4377" y2="43.3171" gradientUnits="userSpaceOnUse">
<stop offset="0.702552" stop-color="white"/>
<stop offset="1" stop-color="white" stop-opacity="0"/>
</linearGradient>
<linearGradient id="paint15_linear_3408_51661" x1="41.4638" y1="48.701" x2="43.4808" y2="46.4046" gradientUnits="userSpaceOnUse">
<stop offset="0.702552" stop-color="white"/>
<stop offset="1" stop-color="white" stop-opacity="0"/>
</linearGradient>
<linearGradient id="paint16_linear_3408_51661" x1="50.6587" y1="28.8793" x2="50.1894" y2="29.9198" gradientUnits="userSpaceOnUse">
<stop offset="0.702552" stop-color="white"/>
<stop offset="1" stop-color="white" stop-opacity="0"/>
</linearGradient>
<linearGradient id="paint17_linear_3408_51661" x1="34.7561" y1="14.2582" x2="32.6458" y2="18.1773" gradientUnits="userSpaceOnUse">
<stop offset="0.702552" stop-color="white"/>
<stop offset="1" stop-color="white" stop-opacity="0"/>
</linearGradient>
</defs>
</svg>
