<svg width="20" height="32" viewBox="0 0 20 32" fill="none" xmlns="http://www.w3.org/2000/svg">
<g clip-path="url(#clip0_102_13350)">
<path d="M15.4511 18.5622C17.6335 17.2972 19.1006 14.935 19.1006 12.2291V9.12526C19.1006 4.10367 15.0308 0.0318298 10.0092 0.0318298C4.98761 0.0318298 0.915771 4.10367 0.915771 9.12526V12.4514H6.45872V12.6677C5.78581 12.8354 5.14927 13.0961 4.56527 13.4376C2.38285 14.7026 0.915771 17.0648 0.915771 19.7707V22.8745C0.915771 27.8961 4.98558 31.968 10.0072 31.968C15.0288 31.968 19.1006 27.8961 19.1006 22.8745V19.5484H13.5577V19.3321C14.2306 19.1644 14.8671 18.9037 15.4511 18.5622ZM11.7834 23.9839C11.7834 24.964 10.9893 25.7582 10.0092 25.7582C9.02912 25.7582 8.235 24.964 8.235 23.9839V8.01586C8.235 7.03581 9.02912 6.24163 10.0092 6.24163C10.9893 6.24163 11.7834 7.03581 11.7834 8.01586V23.9839Z" fill="#0A0A0A"/>
</g>
<defs>
<clipPath id="clip0_102_13350">
<rect width="18.2036" height="32" fill="white" transform="translate(0.898193 -9.15527e-05)"/>
</clipPath>
</defs>
</svg>
