<svg xmlns="http://www.w3.org/2000/svg" width="1024" height="1024" viewBox="0 0 1024 1024"><defs><style>.a{fill:#6286ff;}.b{fill:#fff;}</style></defs><rect class="a" x="128" y="128" width="768" height="768" rx="64"/><path class="b" d="M663.23,768.05l1.26-298.76a24.36,24.36,0,0,1,32.85-22.73l110.11,41a24.36,24.36,0,0,0,32.43-27.31L777.79,128H748.41l25,230.76a24.36,24.36,0,0,1-31.34,25.92L596.43,340.17a24.36,24.36,0,0,0-30.82,17.63L529,511.25a24.36,24.36,0,0,1-34.49,16.17L128,346.19V647.94L632.2,791.38A24.37,24.37,0,0,0,663.23,768.05Z"/></svg>