<svg width="23" height="32" viewBox="0 0 23 32" fill="none" xmlns="http://www.w3.org/2000/svg">
<path d="M3.50273 31.9965H0V22.3686C0.686207 22.3372 1.28365 22.2849 1.88109 22.2849C6.20659 22.2779 10.5287 22.2884 14.8542 22.2779C17.3668 22.2709 19.009 20.8227 18.9987 18.6696C18.9885 16.5305 17.3429 15.0857 14.82 15.0543C12.659 15.0264 10.4945 15.0439 8.33349 15.0543C7.08739 15.0578 6.13148 14.6077 6.17586 13.1979C6.21341 11.9206 7.10787 11.4461 8.2891 11.4495C10.7369 11.46 13.1847 11.3867 15.6291 11.4705C19.4869 11.5996 22.5117 14.8275 22.5185 18.7115C22.5253 22.5989 19.504 25.764 15.5813 25.8478C12.1674 25.9211 8.74999 25.9525 5.34285 25.8303C3.77584 25.7745 3.3491 26.3294 3.47883 27.8229C3.5949 29.142 3.50273 30.482 3.50273 32V31.9965Z" fill="white"/>
<path d="M22.4673 0V9.57906C21.8187 9.61047 21.2212 9.65932 20.6204 9.66281C16.2983 9.66979 11.9728 9.65583 7.65071 9.67328C5.13121 9.68375 3.50616 11.1389 3.53006 13.299C3.55396 15.3823 5.15169 16.8375 7.55854 16.8864C9.77761 16.9282 11.9967 16.9108 14.2158 16.8933C15.3936 16.8829 16.3154 17.3121 16.3495 18.6033C16.387 19.9817 15.4789 20.5016 14.2089 20.4947C11.7611 20.4807 9.31331 20.547 6.87233 20.4702C3.00089 20.3516 1.96327e-05 17.1376 0.00684757 13.2292C0.0136755 9.42552 2.99748 6.22203 6.79381 6.11734C10.317 6.01963 13.8471 6.03359 17.3737 6.10338C18.613 6.12781 19.1421 5.80327 19.0431 4.45278C18.9373 3.01505 19.0192 1.56336 19.0192 0H22.4673Z" fill="white"/>
</svg>
