<svg width="20" height="28" viewBox="0 0 20 28" fill="none" xmlns="http://www.w3.org/2000/svg">
<path d="M12.76 9.10002C10.83 9.10002 9.04997 9.10002 7.27997 9.10002C6.78997 9.10002 6.30997 9.14002 5.83997 9.30002C4.63997 9.71002 3.92997 10.65 3.85997 11.93C3.79997 13.1 4.47997 14.18 5.59997 14.67C6.13997 14.91 6.71997 15.02 7.30997 15.02C9.18997 15.02 11.06 15.02 12.94 15.02C13.95 15.02 14.49 15.44 14.67 16.27C14.86 17.17 14.39 17.9 13.49 18.12C12.95 18.25 12.4 18.22 11.86 18.22C10.04 18.21 8.22997 18.26 6.40997 18.16C3.63997 18 1.20997 15.71 0.809969 12.96C0.319969 9.66002 2.64997 5.91002 7.03997 5.91002C9.63997 5.91002 12.24 5.91002 14.84 5.91002C15.17 5.91002 15.5 5.91002 15.84 5.91002C16.58 5.88002 16.82 5.65002 16.82 4.91002C16.82 3.80002 16.81 2.69002 16.81 1.57002C16.81 0.820019 16.86 0.78002 17.61 0.77002C18.2 0.77002 18.78 0.77002 19.37 0.77002C19.73 0.77002 19.9 0.920018 19.9 1.30002C19.9 3.70002 19.9 6.10002 19.9 8.50002C19.9 8.92002 19.67 9.00002 19.31 9.03002C17.08 9.21002 14.86 9.04002 12.78 9.12002L12.76 9.10002Z" fill="black"/>
<path d="M7.38002 19.58C9.26002 19.58 11.13 19.58 13.01 19.58C13.48 19.58 13.95 19.53 14.41 19.44C15.95 19.14 16.84 17.96 16.78 16.36C16.72 15.01 15.61 13.88 14.12 13.69C13.52 13.61 12.92 13.57 12.31 13.57C10.73 13.58 9.14002 13.58 7.56002 13.57C6.54002 13.56 6.00002 13.02 5.99002 12.08C5.98002 11.11 6.53002 10.48 7.53002 10.47C9.82002 10.44 12.11 10.38 14.39 10.49C17.25 10.63 19.77 13.27 19.9 16.11C20.06 19.38 18.05 22.05 15.02 22.6C14.61 22.67 14.21 22.7 13.8 22.71C10.99 22.8 8.17002 22.78 5.36002 22.71C4.08002 22.68 3.78002 22.97 3.83002 24.24C3.87002 25.23 3.83002 26.23 3.83002 27.22C3.83002 27.69 3.69002 27.9 3.20002 27.88C2.56002 27.85 1.91002 27.86 1.26002 27.88C0.900023 27.88 0.710022 27.75 0.710022 27.37C0.710022 24.95 0.710022 22.53 0.710022 20.11C0.710022 19.62 1.04002 19.61 1.39002 19.61C3.38002 19.61 5.38002 19.61 7.37002 19.61C7.37002 19.61 7.37002 19.61 7.37002 19.6L7.38002 19.58Z" fill="black"/>
</svg>
