<svg width="194" height="194" viewBox="0 0 194 194" fill="none" xmlns="http://www.w3.org/2000/svg">
<path fill-rule="evenodd" clip-rule="evenodd" d="M42.9759 79.9204L43.884 44.0467C43.884 25.1434 54.9444 15.7791 70.9435 20.5215C72.3503 20.9384 74.3711 22.8327 74.3711 24.5137L74.6992 58.8988C74.7144 60.4956 76.0132 61.782 77.6101 61.782C79.2178 61.782 80.5211 60.4787 80.5211 58.871V17.291C80.5211 8.07912 87.9888 0.61145 97.2006 0.61145C106.412 0.61145 113.88 8.07912 113.88 17.291V58.871C113.88 60.4787 115.183 61.782 116.791 61.782C118.388 61.782 119.687 60.4956 119.702 58.8988L120.03 24.5324C120.03 22.8364 122.152 20.9361 123.571 20.5215C137.437 16.4695 150.178 24.0285 150.178 43.6781L151.059 79.5971C136.119 87.2226 121.745 88.7925 105.264 83.6697C98.9744 80.586 94.4435 81.1297 87.9627 83.6663C71.6184 87.338 57.7212 87.5033 42.9759 79.9204ZM38.9123 83.3108C42.0335 84.8064 45.1557 86.3025 48.3797 87.4035L54.9725 89.6551C66.172 93.1839 77.226 91.7571 88.0761 88.3792C93.7185 85.5489 99.5447 85.9967 105.318 88.3792C116.736 93.0914 126.682 93.0802 138.777 89.7387L138.79 89.6551L145.383 87.4035C148.607 86.3024 151.73 84.8064 154.851 83.3107C163.453 79.1891 176.845 80.468 185.89 90.7814C190.036 95.5087 186.828 102.349 180.86 104.328C177.982 105.283 175.376 106.9 172.94 108.704C172.664 108.909 172.383 109.113 172.099 109.317C164.582 114.711 159.745 122.79 159.264 132.029L159.042 136.292C159.058 137.783 159.029 139.279 158.951 140.778C156.752 161.811 143.183 179.94 123.621 187.977C106.535 194.997 87.3706 194.997 70.2849 187.977C50.7232 179.94 37.1535 161.811 34.9544 140.778L34.4987 132.029C34.0175 122.79 29.1807 114.711 21.6644 109.317C21.3799 109.113 21.0992 108.909 20.8231 108.704C18.3869 106.9 15.7805 105.283 12.9027 104.328C6.93458 102.349 3.72658 95.5087 7.87258 90.7814C16.9177 80.468 30.3106 79.1892 38.9123 83.3108Z" fill="#FD4848"/>
<path fill-rule="evenodd" clip-rule="evenodd" d="M70.2079 123.435C66.725 126.594 63.8494 129.798 61.7794 132.312C60.8456 133.445 60.3523 134.056 60.0501 134.563C59.8223 134.945 59.7991 135.111 59.7991 135.304C59.7991 135.496 59.8223 135.663 60.0501 136.044C60.3523 136.551 60.8456 137.162 61.7794 138.296C63.9128 140.886 66.9021 144.21 70.53 147.462C68.8411 143.692 67.8995 139.497 67.8995 135.076C67.8995 130.944 68.7218 127.01 70.2079 123.435ZM123.523 146.856C126.851 143.8 129.604 140.725 131.605 138.296C132.539 137.162 133.032 136.551 133.335 136.044C133.562 135.663 133.586 135.496 133.586 135.304C133.586 135.111 133.562 134.945 133.335 134.563C133.032 134.056 132.539 133.445 131.605 132.312C129.664 129.955 127.014 126.99 123.819 124.025C125.155 127.441 125.89 131.17 125.89 135.076C125.89 139.261 125.046 143.244 123.523 146.856ZM96.6923 105.181C87.5974 105.181 79.3291 109.184 72.6536 113.987C65.9552 118.806 60.6113 124.608 57.3032 128.625C57.2054 128.743 57.1069 128.862 57.008 128.982C55.538 130.754 54 132.608 54 135.304C54 137.999 55.538 139.853 57.008 141.626C57.1069 141.745 57.2054 141.864 57.3032 141.982C60.6113 145.999 65.9552 151.801 72.6536 156.62C79.3291 161.423 87.5974 165.427 96.6923 165.427C105.787 165.427 114.055 161.423 120.731 156.62C127.429 151.801 132.773 145.999 136.081 141.982C136.179 141.864 136.278 141.745 136.377 141.626C137.847 139.853 139.385 137.999 139.385 135.304C139.385 132.608 137.847 130.754 136.377 128.982C136.278 128.862 136.179 128.743 136.081 128.625C132.773 124.608 127.429 118.806 120.731 113.987C114.055 109.184 105.787 105.181 96.6923 105.181ZM96.8948 158.997C109.572 158.997 120.091 148.423 120.091 135.076C120.091 121.729 109.572 111.155 96.8948 111.155C84.218 111.155 73.6985 121.729 73.6985 135.076C73.6985 148.423 84.218 158.997 96.8948 158.997ZM109.794 135.317C109.794 142.524 103.953 148.365 96.7464 148.365C89.5403 148.365 83.6985 142.524 83.6985 135.317C83.6985 128.111 89.5403 122.27 96.7464 122.27C103.953 122.27 109.794 128.111 109.794 135.317ZM115.593 135.317C115.593 145.726 107.155 154.164 96.7464 154.164C86.3375 154.164 77.8995 145.726 77.8995 135.317C77.8995 124.909 86.3375 116.47 96.7464 116.47C107.155 116.47 115.593 124.909 115.593 135.317ZM99.8995 135C99.8995 136.657 98.5563 138 96.8995 138C95.2426 138 93.8995 136.657 93.8995 135C93.8995 133.343 95.2426 132 96.8995 132C98.5563 132 99.8995 133.343 99.8995 135ZM104.899 135C104.899 139.418 101.318 143 96.8995 143C92.4812 143 88.8995 139.418 88.8995 135C88.8995 130.582 92.4812 127 96.8995 127C101.318 127 104.899 130.582 104.899 135Z" fill="#D6FE81"/>
</svg>
