<svg width="28" height="28" viewBox="0 0 28 28" fill="none" xmlns="http://www.w3.org/2000/svg">
<path d="M25.9719 13.1857C25.5221 6.57386 19.7976 1.57839 13.1857 2.02814C9.89191 2.25217 6.99986 3.78575 4.98171 6.0854L4.98172 6.08539L4.97609 6.08133C4.96249 6.10014 4.94979 6.11871 4.93628 6.13751C2.9316 8.44839 1.80412 11.521 2.02812 14.8143C2.04947 15.1281 2.08641 15.437 2.13104 15.7431C2.13106 15.7432 2.13106 15.7432 2.13107 15.7433C2.13308 15.7571 2.13513 15.7709 2.13708 15.7848C2.16725 15.9868 2.20229 16.1869 2.24226 16.3852C2.24229 16.3853 2.2423 16.3854 2.24233 16.3855C2.24306 16.3891 2.24375 16.3927 2.24446 16.3964C2.28085 16.576 2.32128 16.7539 2.36552 16.9303L2.3656 16.9307C2.36564 16.9308 2.36568 16.931 2.3657 16.9311C3.75156 22.4579 8.92977 26.3722 14.8143 25.9719C21.4262 25.5222 26.4216 19.7976 25.9719 13.1857H25.9719ZM23.3598 13.3634C23.4152 14.1774 23.364 14.9744 23.219 15.7412C23.2172 15.7368 23.2158 15.7322 23.214 15.7278V15.7278C22.3441 13.6013 20.6232 12.0661 19.1099 11.218C19.4161 7.6148 18.1938 6.0968 16.8103 5.84981C16.7727 5.84257 16.7348 5.83639 16.6964 5.83162C15.5983 5.69079 14.5942 6.46693 14.4535 7.5649C14.3127 8.66294 15.0888 9.6671 16.1868 9.80799C16.2826 9.82011 16.3773 9.82348 16.4711 9.822C16.4772 9.94363 16.481 10.0728 16.4821 10.208C15.2028 9.89094 14.0071 9.8289 12.9168 9.92692C12.5091 9.9541 12.1011 10.0055 11.6953 10.0813C11.8314 8.86459 12.2879 7.4986 13.1737 6.49895C14.0299 5.53262 15.303 4.97874 16.6917 5.12088C16.9549 5.14782 17.2358 5.21245 17.4887 5.29738C17.5004 5.30129 17.5127 5.30459 17.5242 5.30858C17.5244 5.30836 17.5246 5.30805 17.5248 5.30782C20.7414 6.6182 23.1087 9.67095 23.3598 13.3634ZM14.996 15.1962C14.9951 15.1975 14.9942 15.1988 14.9933 15.2002C14.707 15.6131 14.3664 16.0203 13.9667 16.4141C13.3674 15.7766 12.886 15.0899 12.5208 14.3796C12.5021 14.3416 12.4821 14.3053 12.4638 14.2667C12.4631 14.2653 12.4625 14.2638 12.4618 14.2624C12.2472 13.8078 12.0648 13.3091 11.9236 12.7658C12.7763 12.5651 13.6125 12.4913 14.4111 12.5302C14.4534 12.533 14.4948 12.5339 14.5374 12.5374C14.539 12.5375 14.5406 12.5376 14.5421 12.5377C15.0423 12.5792 15.5646 12.6703 16.1048 12.8193C15.8523 13.6577 15.4981 14.4185 15.0653 15.0904C15.0417 15.1257 15.0203 15.1611 14.996 15.1962ZM10.8956 5.14875C10.8933 5.15164 10.8908 5.15437 10.8885 5.15726L10.8885 5.15727C9.48264 6.973 9.01327 9.22956 9.03497 10.9639C5.76157 12.5002 5.05818 14.3178 5.53603 15.6393C5.54855 15.6755 5.56215 15.7114 5.57723 15.7471C6.0043 16.7685 7.17853 17.25 8.19972 16.8228C9.22107 16.3958 9.70262 15.2215 9.27566 14.2002C9.23826 14.1112 9.19381 14.0275 9.14562 13.947C9.24907 13.8801 9.36017 13.8114 9.47814 13.7421C9.84321 15.0088 10.3833 16.0801 11.0134 16.9754C11.2404 17.3142 11.4883 17.6412 11.7563 17.9541C10.6344 18.4448 9.22289 18.7327 7.91401 18.4654C6.64899 18.207 5.53283 17.3815 4.96156 16.1077C4.85327 15.8663 4.76883 15.5907 4.71591 15.3293C4.68336 15.1008 4.65607 14.8705 4.64017 14.6367C4.34777 10.3381 7.01462 6.51139 10.8956 5.14875ZM14.6367 23.3599C12.0841 23.5335 9.698 22.6628 7.89466 21.1152C10.1701 21.4249 12.359 20.7031 13.8501 19.8171C16.8186 21.8855 18.7451 21.586 19.6509 20.5111C19.676 20.4822 19.7003 20.4525 19.7236 20.4216C20.3946 19.541 20.2245 18.2834 19.344 17.6126C18.4635 16.9416 17.2058 17.1117 16.5348 17.9921C16.4764 18.069 16.4261 18.1493 16.3805 18.2313C16.2716 18.1755 16.1573 18.114 16.0392 18.047C16.9543 17.0971 17.6064 16.0918 18.067 15.098C18.2473 14.7313 18.4068 14.3522 18.5441 13.9629C19.5305 14.6891 20.4864 15.7681 20.9095 17.036C21.3183 18.2607 21.1614 19.6401 20.344 20.7717C20.189 20.9862 19.9926 21.1972 19.7926 21.3737C19.7897 21.3763 19.7868 21.379 19.784 21.3816C18.3538 22.5057 16.5843 23.2274 14.6367 23.3599Z" fill="#B7B7B7"/>
<path style="mix-blend-mode:overlay" opacity="0.9" d="M16.8124 5.84957C16.7748 5.84232 16.7369 5.83614 16.6984 5.83138C16.5041 5.80646 16.3131 5.8116 16.129 5.8408C17.277 6.46531 18.1139 8.20535 17.6739 11.6377C17.5281 12.7745 17.1901 13.8563 16.702 14.849C16.3065 15.7025 15.7683 16.5642 15.0449 17.3923C15.3923 17.6528 15.7311 17.8709 16.0412 18.0468C16.9564 17.0969 17.6085 16.0916 18.0691 15.0977C18.5572 14.1051 18.8952 13.0233 19.041 11.8865C19.5649 7.79968 18.2787 6.11134 16.8124 5.84957Z" fill="url(#paint0_radial_6741_20170)"/>
<g style="mix-blend-mode:overlay" opacity="0.8">
<path d="M17.6738 11.6377C18.1138 8.20536 17.2769 6.46533 16.1289 5.84082C16.0841 5.84793 16.0401 5.85748 15.9962 5.86756C17.12 6.51361 17.9287 8.25201 17.4947 11.6377C17.3489 12.7745 17.0109 13.8563 16.5227 14.849C16.1403 15.6743 15.6231 16.5069 14.9355 17.3097C14.9721 17.338 15.0084 17.365 15.0448 17.3923C15.7682 16.5642 16.3063 15.7025 16.7019 14.849C17.19 13.8563 17.528 12.7745 17.6738 11.6377Z" fill="white"/>
</g>
<path style="mix-blend-mode:overlay" opacity="0.5" d="M13.313 19.4227C13.2051 19.3405 13.1013 19.2545 12.9975 19.1685C11.3034 19.8753 8.95492 20.3184 6.62305 19.7773C7.0049 20.264 7.43105 20.7135 7.89914 21.1152C10.1746 21.4249 12.3635 20.7031 13.8546 19.8171C13.6776 19.6938 13.4974 19.5633 13.313 19.4227Z" fill="url(#paint1_radial_6741_20170)"/>
<path style="mix-blend-mode:overlay" opacity="0.6" d="M12.9949 19.1686C12.9431 19.1256 12.8908 19.083 12.84 19.0391C11.133 19.7212 8.77391 20.129 6.44727 19.5491C6.50395 19.6261 6.5616 19.7023 6.62054 19.7774C8.95241 20.3186 11.3009 19.8754 12.9949 19.1686Z" fill="url(#paint2_linear_6741_20170)"/>
<path style="mix-blend-mode:overlay" opacity="0.9" d="M5.53761 15.6413C5.55013 15.6775 5.56372 15.7134 5.57882 15.749C5.65439 15.9298 5.75434 16.0926 5.8717 16.2375C5.83856 14.9311 6.927 13.3362 10.1195 12.0011C11.1769 11.5589 12.2827 11.3108 13.3865 11.2372C14.3234 11.1529 15.3388 11.1882 16.4176 11.4006C16.4695 10.9695 16.489 10.567 16.4862 10.2105C15.206 9.8929 14.0094 9.83077 12.9184 9.92885C11.8146 10.0024 10.7088 10.2506 9.65138 10.6928C5.85019 12.2825 5.03115 14.2405 5.53761 15.6413L5.53761 15.6413Z" fill="url(#paint3_radial_6741_20170)"/>
<g style="mix-blend-mode:overlay" opacity="0.8">
<path d="M10.1196 12.0011C6.92712 13.3362 5.83868 14.931 5.87183 16.2374C5.90039 16.2727 5.93066 16.306 5.96134 16.339C5.95891 15.0427 7.06008 13.4732 10.2092 12.1562C11.2666 11.714 12.3724 11.4659 13.4762 11.3923C14.3821 11.3108 15.3618 11.3424 16.4008 11.5364C16.4071 11.4906 16.4123 11.4457 16.4177 11.4005C15.3389 11.1881 14.3236 11.1529 13.3866 11.2371C12.2829 11.3107 11.177 11.5589 10.1196 12.0011Z" fill="white"/>
</g>
<path style="mix-blend-mode:overlay" opacity="0.4" d="M19.0429 11.8874C19.0257 12.0219 19.0031 12.1549 18.9805 12.2878C20.4396 13.4015 21.9976 15.2138 22.6949 17.5038C22.9255 16.9297 23.1017 16.336 23.2155 15.7297C22.346 13.6043 20.6264 12.0695 19.1136 11.2212C19.0953 11.4362 19.0724 11.6574 19.0429 11.8874Z" fill="url(#paint4_radial_6741_20170)"/>
<path style="mix-blend-mode:overlay" opacity="0.5" d="M18.978 12.2881C18.9667 12.3545 18.956 12.4211 18.9434 12.4871C20.3876 13.6242 21.9203 15.4634 22.5814 17.7683C22.6197 17.6807 22.6569 17.5927 22.6925 17.5041C21.9952 15.214 20.4372 13.4018 18.978 12.2881Z" fill="url(#paint5_linear_6741_20170)"/>
<path style="mix-blend-mode:overlay" opacity="0.9" d="M19.6541 20.5081C19.6791 20.4791 19.7034 20.4494 19.7268 20.4185C19.8455 20.2627 19.9366 20.0947 20.0033 19.9206C18.8885 20.6025 16.9631 20.4573 14.2107 18.3601C13.2991 17.6655 12.5312 16.8318 11.9156 15.9128C11.3742 15.1435 10.897 14.2466 10.5415 13.2061C10.1422 13.3766 9.78394 13.561 9.47656 13.7416C9.84164 15.0091 10.3861 16.0765 11.0166 16.9723C11.6322 17.8914 12.4001 18.725 13.3117 19.4197C16.589 21.9168 18.6942 21.647 19.6541 20.5081Z" fill="url(#paint6_radial_6741_20170)"/>
<g style="mix-blend-mode:overlay" opacity="0.8">
<path d="M14.2101 18.3602C16.9626 20.4575 18.888 20.6027 20.0028 19.9207C20.0191 19.8784 20.0328 19.8355 20.046 19.7924C18.9246 20.4427 17.0148 20.2738 14.2997 18.2051C13.3881 17.5105 12.6202 16.6768 12.0046 15.7578C11.4811 15.0139 11.0186 14.1496 10.6672 13.1528C10.6244 13.1704 10.5828 13.1883 10.541 13.2062C10.8965 14.2467 11.3736 15.1436 11.9151 15.9129C12.5307 16.832 13.2985 17.6656 14.2101 18.3602V18.3602Z" fill="white"/>
</g>
<path style="mix-blend-mode:overlay" opacity="0.3" d="M9.65015 10.6892C9.77528 10.6369 9.90171 10.59 10.0281 10.5431C10.263 8.72255 11.0535 6.46715 12.6881 4.71826C12.0756 4.80559 11.4733 4.94992 10.8914 5.15444C9.48545 6.97018 9.01611 9.22674 9.03782 10.9611C9.23314 10.8694 9.43624 10.7787 9.65015 10.6892Z" fill="url(#paint7_radial_6741_20170)"/>
<path style="mix-blend-mode:overlay" opacity="0.4" d="M10.0273 10.5429C10.0905 10.5194 10.1535 10.4955 10.217 10.4734C10.4797 8.65408 11.3061 6.40713 12.9716 4.68213C12.8766 4.69273 12.7818 4.70456 12.6873 4.71804C11.0527 6.46693 10.2623 8.72233 10.0273 10.5429V10.5429Z" fill="url(#paint8_linear_6741_20170)"/>
<path style="mix-blend-mode:multiply" opacity="0.4" d="M13.187 2.028C9.89325 2.25203 7.0012 3.78562 4.98304 6.08527C4.96779 6.10265 4.95264 6.12006 4.9375 6.13753L4.93762 6.13737C5.33053 6.52711 6.61462 7.2956 7.13506 7.61607C8.15692 6.51711 9.44154 5.65961 10.8969 5.14861C10.9985 5.01765 11.1039 4.88843 11.2155 4.76248C12.571 3.23292 14.422 2.42447 16.569 2.42447C16.808 2.42447 17.2947 2.4625 17.3052 2.46328C16.0036 2.08933 14.6164 1.93077 13.187 2.028Z" fill="url(#paint9_linear_6741_20170)"/>
<path style="mix-blend-mode:multiply" opacity="0.4" d="M14.6381 23.3598C12.0855 23.5334 9.69945 22.6628 7.89611 21.1151H7.89609L7.89608 21.1151C7.72823 21.0923 7.56001 21.0649 7.3915 21.0304C5.38912 20.6213 3.76345 19.4225 2.68995 17.5631C2.57046 17.3562 2.46354 17.1453 2.36719 16.9312C3.75309 22.4579 8.93127 26.3721 14.8158 25.9718C14.8419 25.3658 14.6632 23.9598 14.6381 23.3598Z" fill="url(#paint10_linear_6741_20170)"/>
<path style="mix-blend-mode:multiply" opacity="0.4" d="M25.9762 13.1855C25.6075 13.1477 23.8068 13.2899 23.3641 13.3632C23.4195 14.1772 23.3683 14.9742 23.2233 15.741C23.2855 15.8935 23.3444 16.0483 23.3973 16.2069C24.0442 18.1456 23.8188 20.1529 22.7453 22.0123C22.628 22.2154 22.5015 22.4099 22.367 22.5972C22.3645 22.6007 22.3615 22.6048 22.3594 22.6078C22.3592 22.6079 22.3649 22.6031 22.368 22.6002C24.8053 20.2289 26.225 16.844 25.9762 13.1855Z" fill="url(#paint11_linear_6741_20170)"/>
<path style="mix-blend-mode:multiply" opacity="0.5" d="M16.693 5.12078C16.9563 5.14772 17.2372 5.21235 17.4901 5.29728C17.5017 5.30119 17.5141 5.30449 17.5255 5.30848C17.5257 5.30826 17.5259 5.30795 17.5261 5.30772C18.5613 5.72942 19.5077 6.33241 20.3247 7.07827C20.3265 7.07973 20.3282 7.08093 20.33 7.0824C20.7237 6.63223 21.4819 6.13757 21.4819 6.13757C21.4819 6.13757 20.321 4.95002 18.5454 4.58148C17.3024 4.32348 14.4987 4.07339 12.7305 7.0824C12.7305 7.0824 12.7375 7.07576 12.7478 7.06622C12.8787 6.86851 13.0177 6.67634 13.175 6.49885C14.0313 5.53252 15.3043 4.97864 16.693 5.12078Z" fill="url(#paint12_linear_6741_20170)"/>
<path style="mix-blend-mode:multiply" opacity="0.5" d="M20.3454 20.7709C20.1905 20.9854 19.994 21.1964 19.794 21.3729C19.7848 21.381 19.7758 21.3901 19.7666 21.398C19.7667 21.3983 19.7669 21.3986 19.767 21.3989C18.8842 22.0845 17.8888 22.6026 16.8343 22.9373C16.8322 22.9381 16.8303 22.939 16.8281 22.9398C17.0211 23.5059 17.0704 24.4098 17.0704 24.4098C17.0704 24.4098 18.6793 23.9982 19.8863 22.6447C20.7312 21.6972 22.3496 19.3942 20.6279 16.3584C20.6279 16.3584 20.6301 16.3678 20.6332 16.3815C20.739 16.5937 20.8359 16.8102 20.911 17.0352C21.3197 18.2599 21.1629 19.6393 20.3454 20.7709Z" fill="url(#paint13_linear_6741_20170)"/>
<path style="mix-blend-mode:multiply" opacity="0.5" d="M4.96864 16.1113C4.86034 15.8698 4.77586 15.5942 4.72297 15.3327C4.72053 15.3207 4.71722 15.3084 4.71493 15.2964C4.71466 15.2964 4.71427 15.2964 4.714 15.2963C4.56162 14.189 4.61061 13.0679 4.84803 11.9874C4.84842 11.9851 4.84858 11.983 4.84896 11.9808C4.26223 11.8648 3.45475 11.4556 3.45475 11.4556C3.45475 11.4556 3.00679 13.0548 3.57541 14.7767C3.97348 15.9822 5.15873 18.5353 8.64872 18.5621C8.64872 18.5621 8.63946 18.5594 8.62602 18.5552C8.38939 18.5407 8.15344 18.5164 7.92109 18.4689C6.65608 18.2105 5.5399 17.385 4.96864 16.1113Z" fill="url(#paint14_linear_6741_20170)"/>
<path style="mix-blend-mode:multiply" opacity="0.6" d="M16.1853 9.80802C16.2811 9.82014 16.3758 9.82351 16.4697 9.82203C16.4697 9.82203 16.407 8.57519 16.2539 7.93547C16.1008 7.29576 15.875 6.87213 15.6269 6.63236C15.4492 6.46059 14.8883 6.24667 14.452 7.56494C14.3112 8.66297 15.0874 9.66713 16.1853 9.80802Z" fill="url(#paint15_linear_6741_20170)"/>
<path style="mix-blend-mode:multiply" opacity="0.5" d="M9.2751 14.2025C9.23769 14.1135 9.19324 14.0297 9.14505 13.9492C9.14505 13.9492 8.09659 14.6269 7.61913 15.0794C7.14167 15.5318 6.88771 15.9392 6.80408 16.2739C6.74417 16.5137 6.83939 17.1064 8.19916 16.8251C9.2205 16.398 9.70206 15.2238 9.2751 14.2025Z" fill="url(#paint16_linear_6741_20170)"/>
<path style="mix-blend-mode:multiply" opacity="0.6" d="M16.5352 17.9889C16.4768 18.0658 16.4265 18.1462 16.3809 18.2282C16.3809 18.2282 17.492 18.7973 18.1226 18.9846C18.7531 19.1718 19.2329 19.1881 19.5646 19.0932C19.8022 19.0252 20.2679 18.6463 19.3444 17.6094C18.4639 16.9384 17.2062 17.1085 16.5352 17.9889Z" fill="url(#paint17_linear_6741_20170)"/>
<path style="mix-blend-mode:multiply" opacity="0.3" d="M16.1069 12.8193C15.8543 13.6578 15.5002 14.4186 15.0674 15.0905C15.0438 15.1257 15.0224 15.1611 14.998 15.1963C14.9972 15.1976 14.9962 15.1989 14.9954 15.2002C14.709 15.6132 14.3685 16.0204 13.9688 16.4142C14.2435 16.7065 14.5405 16.9895 14.8668 17.2579C15.2765 17.5813 15.6781 17.8412 16.0412 18.0471C16.9564 17.0971 17.6085 16.0919 18.0691 15.098C18.2494 14.7313 18.4089 14.3523 18.5461 13.963C18.124 13.6522 17.6963 13.4049 17.3022 13.2368C16.8946 13.0631 16.4963 12.9267 16.1069 12.8193Z" fill="url(#paint18_linear_6741_20170)"/>
<path style="mix-blend-mode:multiply" opacity="0.3" d="M7.89554 21.115C10.171 21.4247 12.3599 20.7029 13.851 19.8169C13.674 19.6936 13.4938 19.5631 13.3094 19.4226C12.7338 18.984 12.2159 18.4899 11.7571 17.954C10.6353 18.4447 9.22377 18.7325 7.91489 18.4652C6.64988 18.2068 5.53371 17.3813 4.96244 16.1076C4.85415 15.8661 4.76972 15.5906 4.7168 15.3291C5.04739 17.6488 6.21795 19.6753 7.89554 21.115Z" fill="url(#paint19_linear_6741_20170)"/>
<path style="mix-blend-mode:multiply" opacity="0.3" d="M13.967 16.414C13.3678 15.7764 12.8864 15.0898 12.5212 14.3795C12.5025 14.3414 12.4825 14.3052 12.4642 14.2665C12.4635 14.2651 12.4629 14.2637 12.4622 14.2623C12.2476 13.8077 12.0652 13.309 11.924 12.7656C11.5343 12.8573 11.1416 12.9729 10.7469 13.1208C10.2631 13.3136 9.83791 13.5309 9.47852 13.742C9.84359 15.0086 10.3837 16.08 11.0138 16.9753C11.2407 17.3141 11.4887 17.6411 11.7566 17.954C12.2376 17.7436 12.6663 17.4965 13.0093 17.239C13.3629 16.9733 13.6798 16.697 13.967 16.414Z" fill="url(#paint20_linear_6741_20170)"/>
<path style="mix-blend-mode:multiply" opacity="0.3" d="M10.8894 5.15708C9.48354 6.97281 9.01417 9.22937 9.03587 10.9637C9.23193 10.8717 9.4359 10.7805 9.65071 10.6907C10.3175 10.4118 11.0036 10.2105 11.6962 10.0811C11.8323 8.8644 12.2888 7.49842 13.1746 6.49876C14.0308 5.53243 15.3039 4.97855 16.6926 5.12069C16.9558 5.14763 17.2367 5.21227 17.4896 5.2972C17.5013 5.3011 17.5136 5.3044 17.5251 5.3084C17.5253 5.30817 17.5255 5.30786 17.5257 5.30764C16.2463 4.78644 14.8329 4.5401 13.3642 4.64C12.5017 4.69867 11.6752 4.87514 10.8965 5.14856C10.8942 5.15145 10.8917 5.15418 10.8894 5.15707L10.8894 5.15708Z" fill="url(#paint21_linear_6741_20170)"/>
<path style="mix-blend-mode:multiply" opacity="0.3" d="M23.2149 15.7276C22.345 13.6011 20.6241 12.0659 19.1107 11.2178C19.0924 11.4335 19.0694 11.6556 19.0398 11.8865C18.9479 12.6033 18.7792 13.2982 18.5449 13.9627C19.5314 14.6889 20.4872 15.7679 20.9104 17.0357C21.3191 18.2605 21.1623 19.6399 20.3449 20.7715C20.1899 20.986 19.9935 21.197 19.7935 21.3735C19.7906 21.3761 19.7877 21.3787 19.7848 21.3814C21.5466 19.9967 22.7926 18.0011 23.2199 15.741C23.2181 15.7366 23.2167 15.732 23.2149 15.7276V15.7276Z" fill="url(#paint22_linear_6741_20170)"/>
<path style="mix-blend-mode:multiply" opacity="0.3" d="M11.6881 11.5244C11.7413 11.9632 11.8221 12.3756 11.9235 12.7657C12.7762 12.5651 13.6124 12.4913 14.411 12.5302C14.4534 12.533 14.4947 12.5338 14.5374 12.5373C14.5389 12.5374 14.5405 12.5376 14.5421 12.5377C15.0422 12.5791 15.5645 12.6703 16.1048 12.8193C16.2203 12.4357 16.3166 12.0375 16.3859 11.6214C16.4612 11.1041 16.4854 10.6258 16.482 10.2079C15.2028 9.89091 14.007 9.82887 12.9167 9.92689C12.509 9.95407 12.101 10.0054 11.6953 10.0813C11.6369 10.6033 11.6365 11.0983 11.6881 11.5244H11.6881Z" fill="url(#paint23_linear_6741_20170)"/>
<defs>
<radialGradient id="paint0_radial_6741_20170" cx="0" cy="0" r="1" gradientUnits="userSpaceOnUse" gradientTransform="translate(17.4226 11.5707) scale(4.56263 4.56264)">
<stop stop-color="white"/>
<stop offset="1" stop-color="white" stop-opacity="0"/>
</radialGradient>
<radialGradient id="paint1_radial_6741_20170" cx="0" cy="0" r="1" gradientUnits="userSpaceOnUse" gradientTransform="translate(10.6808 20.0352) scale(2.65458 2.65458)">
<stop stop-color="white"/>
<stop offset="1" stop-color="white" stop-opacity="0"/>
</radialGradient>
<linearGradient id="paint2_linear_6741_20170" x1="6.69458" y1="19.5863" x2="9.25343" y2="19.5508" gradientUnits="userSpaceOnUse">
<stop stop-color="white" stop-opacity="0"/>
<stop offset="1" stop-color="white"/>
</linearGradient>
<radialGradient id="paint3_radial_6741_20170" cx="0" cy="0" r="1" gradientUnits="userSpaceOnUse" gradientTransform="translate(10.1871 12.2522) rotate(-120) scale(4.56264 4.56263)">
<stop stop-color="white"/>
<stop offset="1" stop-color="white" stop-opacity="0"/>
</radialGradient>
<radialGradient id="paint4_radial_6741_20170" cx="0" cy="0" r="1" gradientUnits="userSpaceOnUse" gradientTransform="translate(20.8894 13.8607) rotate(-120) scale(2.65458 2.65458)">
<stop stop-color="white"/>
<stop offset="1" stop-color="white" stop-opacity="0"/>
</radialGradient>
<linearGradient id="paint5_linear_6741_20170" x1="22.49" y1="17.5355" x2="21.1798" y2="15.3372" gradientUnits="userSpaceOnUse">
<stop stop-color="white" stop-opacity="0"/>
<stop offset="1" stop-color="white"/>
</linearGradient>
<radialGradient id="paint6_radial_6741_20170" cx="0" cy="0" r="1" gradientUnits="userSpaceOnUse" gradientTransform="translate(14.1788 17.965) rotate(120) scale(4.56264 4.56263)">
<stop stop-color="white"/>
<stop offset="1" stop-color="white" stop-opacity="0"/>
</radialGradient>
<radialGradient id="paint7_radial_6741_20170" cx="0" cy="0" r="1" gradientUnits="userSpaceOnUse" gradientTransform="translate(10.4358 8.10344) rotate(120) scale(2.65458 2.65458)">
<stop stop-color="white"/>
<stop offset="1" stop-color="white" stop-opacity="0"/>
</radialGradient>
<linearGradient id="paint8_linear_6741_20170" x1="12.8157" y1="4.8777" x2="11.5671" y2="7.11149" gradientUnits="userSpaceOnUse">
<stop stop-color="white" stop-opacity="0"/>
<stop offset="1" stop-color="white"/>
</linearGradient>
<linearGradient id="paint9_linear_6741_20170" x1="13.3727" y1="3.74238" x2="9.46332" y2="4.87964" gradientUnits="userSpaceOnUse">
<stop stop-color="#231F20"/>
<stop offset="1" stop-color="white"/>
</linearGradient>
<linearGradient id="paint10_linear_6741_20170" x1="5.98487" y1="18.6524" x2="9.25451" y2="22.0642" gradientUnits="userSpaceOnUse">
<stop stop-color="#231F20"/>
<stop offset="1" stop-color="white"/>
</linearGradient>
<linearGradient id="paint11_linear_6741_20170" x1="23.536" y1="18.1381" x2="24.6732" y2="14.6789" gradientUnits="userSpaceOnUse">
<stop stop-color="#231F20"/>
<stop offset="1" stop-color="white"/>
</linearGradient>
<linearGradient id="paint12_linear_6741_20170" x1="15.154" y1="5.72056" x2="20.3953" y2="6.92067" gradientUnits="userSpaceOnUse">
<stop stop-color="#231F20"/>
<stop offset="1" stop-color="white"/>
</linearGradient>
<linearGradient id="paint13_linear_6741_20170" x1="20.5955" y1="19.1382" x2="16.9355" y2="23.0772" gradientUnits="userSpaceOnUse">
<stop stop-color="#231F20"/>
<stop offset="1" stop-color="white"/>
</linearGradient>
<linearGradient id="paint14_linear_6741_20170" x1="6.25758" y1="17.1442" x2="4.67624" y2="12.005" gradientUnits="userSpaceOnUse">
<stop stop-color="#231F20"/>
<stop offset="1" stop-color="white"/>
</linearGradient>
<linearGradient id="paint15_linear_6741_20170" x1="16.297" y1="7.65384" x2="14.6385" y2="9.31235" gradientUnits="userSpaceOnUse">
<stop stop-color="#231F20"/>
<stop offset="1" stop-color="white"/>
</linearGradient>
<linearGradient id="paint16_linear_6741_20170" x1="7.35366" y1="15.1828" x2="9.61923" y2="15.7899" gradientUnits="userSpaceOnUse">
<stop stop-color="#231F20"/>
<stop offset="1" stop-color="white"/>
</linearGradient>
<linearGradient id="paint17_linear_6741_20170" x1="18.3449" y1="19.1628" x2="17.7378" y2="16.8972" gradientUnits="userSpaceOnUse">
<stop stop-color="#231F20"/>
<stop offset="1" stop-color="white"/>
</linearGradient>
<linearGradient id="paint18_linear_6741_20170" x1="14.8997" y1="17.1482" x2="15.8948" y2="15.774" gradientUnits="userSpaceOnUse">
<stop stop-color="#231F20"/>
<stop offset="1" stop-color="white"/>
</linearGradient>
<linearGradient id="paint19_linear_6741_20170" x1="11.472" y1="16.553" x2="9.48181" y2="17.5007" gradientUnits="userSpaceOnUse">
<stop stop-color="#231F20"/>
<stop offset="1" stop-color="white"/>
</linearGradient>
<linearGradient id="paint20_linear_6741_20170" x1="10.7493" y1="13.2402" x2="11.3653" y2="14.5196" gradientUnits="userSpaceOnUse">
<stop stop-color="#231F20"/>
<stop offset="1" stop-color="white"/>
</linearGradient>
<linearGradient id="paint21_linear_6741_20170" x1="13.6155" y1="9.28878" x2="13.1891" y2="7.81981" gradientUnits="userSpaceOnUse">
<stop stop-color="#231F20"/>
<stop offset="1" stop-color="white"/>
</linearGradient>
<linearGradient id="paint22_linear_6741_20170" x1="18.2119" y1="16.0144" x2="19.4439" y2="16.2987" gradientUnits="userSpaceOnUse">
<stop stop-color="#231F20"/>
<stop offset="1" stop-color="white"/>
</linearGradient>
<linearGradient id="paint23_linear_6741_20170" x1="16.2774" y1="11.8526" x2="14.7136" y2="11.5683" gradientUnits="userSpaceOnUse">
<stop stop-color="#231F20"/>
<stop offset="1" stop-color="white"/>
</linearGradient>
</defs>
</svg>
