<svg width="24" height="24" viewBox="0 0 24 24" fill="none" xmlns="http://www.w3.org/2000/svg">
<path d="M23.9699 11.1852C23.5202 4.57337 17.7956 -0.422096 11.1837 0.0276471C7.88996 0.25168 4.99791 1.78526 2.97975 4.08491L2.97977 4.0849L2.97413 4.08084C2.96054 4.09965 2.94783 4.11822 2.93433 4.13702C0.92965 6.4479 -0.197837 9.52056 0.0261691 12.8139C0.047515 13.1277 0.0844543 13.4365 0.12909 13.7426C0.129104 13.7427 0.129104 13.7428 0.129117 13.7428C0.131128 13.7566 0.133179 13.7704 0.135123 13.7843C0.165297 13.9863 0.200332 14.1864 0.240308 14.3847C0.240334 14.3848 0.240348 14.3849 0.240374 14.385C0.241107 14.3887 0.241799 14.3923 0.242505 14.3959C0.278898 14.5755 0.319326 14.7534 0.363563 14.9298L0.363643 14.9302C0.363683 14.9303 0.363723 14.9305 0.363749 14.9306C1.74961 20.4574 6.92782 24.3717 12.8124 23.9714C19.4243 23.5217 24.4196 17.7971 23.9699 11.1852H23.9699ZM21.3579 11.3629C21.4132 12.1769 21.362 12.9739 21.2171 13.7407C21.2153 13.7363 21.2139 13.7317 21.2121 13.7274V13.7273C20.3421 11.6008 18.6213 10.0656 17.1079 9.21751C17.4142 5.61431 16.1918 4.09631 14.8083 3.84932C14.7707 3.84208 14.7328 3.8359 14.6944 3.83113C13.5963 3.6903 12.5922 4.46644 12.4516 5.56442C12.3107 6.66245 13.0869 7.66661 14.1848 7.8075C14.2806 7.81962 14.3754 7.82299 14.4692 7.82151C14.4753 7.94314 14.4791 8.07235 14.4802 8.20747C13.2009 7.89045 12.0051 7.82841 10.9149 7.92643C10.5071 7.95361 10.0992 8.00498 9.69339 8.08079C9.82947 6.8641 10.286 5.49811 11.1717 4.49846C12.028 3.53213 13.301 2.97825 14.6897 3.12039C14.953 3.14733 15.2339 3.21197 15.4868 3.2969C15.4984 3.3008 15.5108 3.3041 15.5222 3.3081C15.5224 3.30787 15.5226 3.30756 15.5228 3.30734C18.7394 4.61771 21.1067 7.67046 21.3579 11.3629ZM12.994 13.1958C12.9931 13.1971 12.9922 13.1984 12.9913 13.1997C12.705 13.6126 12.3645 14.0198 11.9647 14.4137C11.3655 13.7761 10.8841 13.0894 10.5188 12.3791C10.5001 12.3411 10.4802 12.3049 10.4619 12.2662C10.4612 12.2648 10.4605 12.2633 10.4598 12.2619C10.2453 11.8073 10.0629 11.3086 9.92163 10.7653C10.7743 10.5646 11.6106 10.4909 12.4092 10.5297C12.4515 10.5326 12.4928 10.5334 12.5355 10.5369C12.537 10.537 12.5386 10.5371 12.5402 10.5372C13.0404 10.5787 13.5626 10.6699 14.1029 10.8188C13.8503 11.6572 13.4962 12.418 13.0633 13.09C13.0398 13.1252 13.0184 13.1606 12.994 13.1958ZM8.8936 3.14826C8.89137 3.15115 8.88882 3.15388 8.88659 3.15677L8.88657 3.15678C7.48068 4.97251 7.01131 7.22907 7.03302 8.96337C3.75962 10.4997 3.05623 12.3173 3.53408 13.6389C3.5466 13.675 3.56019 13.7109 3.57528 13.7466C4.00235 14.768 5.17657 15.2495 6.19777 14.8223C7.21911 14.3953 7.70067 13.221 7.27371 12.1997C7.2363 12.1107 7.19185 12.027 7.14366 11.9465C7.24712 11.8796 7.35821 11.811 7.47618 11.7417C7.84126 13.0083 8.38137 14.0796 9.01147 14.9749C9.23842 15.3137 9.48639 15.6407 9.75431 15.9536C8.63246 16.4443 7.22094 16.7322 5.91206 16.4649C4.64704 16.2065 3.53087 15.381 2.9596 14.1072C2.85132 13.8658 2.76688 13.5902 2.71396 13.3288C2.6814 13.1003 2.65412 12.8701 2.63822 12.6362C2.34582 8.33765 5.01266 4.5109 8.8936 3.14826ZM12.6347 21.3594C10.0821 21.533 7.69605 20.6624 5.89271 19.1147C8.16814 19.4244 10.357 18.7026 11.8481 17.8166C14.8166 19.885 16.7431 19.5855 17.649 18.5106C17.674 18.4817 17.6983 18.452 17.7217 18.4211C18.3927 17.5405 18.2226 16.2829 17.342 15.6121C16.4615 14.9411 15.2038 15.1112 14.5328 15.9916C14.4744 16.0685 14.4241 16.1488 14.3785 16.2309C14.2696 16.1751 14.1553 16.1135 14.0372 16.0465C14.9523 15.0966 15.6045 14.0914 16.065 13.0975C16.2454 12.7308 16.4049 12.3518 16.5421 11.9624C17.5285 12.6886 18.4844 13.7676 18.9076 15.0355C19.3163 16.2602 19.1595 17.6396 18.342 18.7712C18.1871 18.9857 17.9906 19.1967 17.7906 19.3732C17.7878 19.3758 17.7849 19.3785 17.782 19.3811C16.3519 20.5052 14.5824 21.2269 12.6347 21.3594Z" fill="#B7B7B7"/>
<path style="mix-blend-mode:overlay" opacity="0.9" d="M14.8104 3.84908C14.7728 3.84183 14.7349 3.83565 14.6965 3.83089C14.5022 3.80597 14.3112 3.81111 14.127 3.84032C15.275 4.46482 16.112 6.20486 15.6719 9.63719C15.5262 10.774 15.1882 11.8558 14.7 12.8485C14.3045 13.702 13.7663 14.5637 13.043 15.3918C13.3904 15.6523 13.7291 15.8704 14.0393 16.0463C14.9544 15.0964 15.6066 14.0911 16.0671 13.0972C16.5553 12.1046 16.8933 11.0228 17.039 9.88597C17.5629 5.79919 16.2767 4.11085 14.8104 3.84908Z" fill="url(#paint0_radial_6741_20173)"/>
<g style="mix-blend-mode:overlay" opacity="0.8">
<path d="M15.6718 9.63721C16.1118 6.20487 15.2749 4.46484 14.1269 3.84033C14.0821 3.84744 14.0381 3.85699 13.9942 3.86707C15.1181 4.51312 15.9267 6.25152 15.4927 9.63721C15.3469 10.774 15.0089 11.8558 14.5208 12.8485C14.1384 13.6738 13.6211 14.5064 12.9336 15.3092C12.9702 15.3375 13.0065 15.3645 13.0429 15.3918C13.7662 14.5637 14.3044 13.702 14.6999 12.8485C15.1881 11.8558 15.5261 10.774 15.6718 9.63721Z" fill="white"/>
</g>
<path style="mix-blend-mode:overlay" opacity="0.5" d="M11.311 17.4222C11.2031 17.34 11.0993 17.254 10.9955 17.168C9.30142 17.8748 6.95297 18.3179 4.62109 17.7768C5.00295 18.2635 5.4291 18.713 5.89719 19.1147C8.17262 19.4244 10.3615 18.7026 11.8526 17.8166C11.6756 17.6933 11.4955 17.5628 11.311 17.4222Z" fill="url(#paint1_radial_6741_20173)"/>
<path style="mix-blend-mode:overlay" opacity="0.6" d="M10.993 17.1681C10.9411 17.1251 10.8889 17.0825 10.838 17.0386C9.13109 17.7207 6.77195 18.1285 4.44531 17.5486C4.502 17.6256 4.55965 17.7018 4.61858 17.7769C6.95046 18.3181 9.29891 17.8749 10.993 17.1681Z" fill="url(#paint2_linear_6741_20173)"/>
<path style="mix-blend-mode:overlay" opacity="0.9" d="M3.53565 13.6408C3.54818 13.677 3.56177 13.7129 3.57686 13.7485C3.65243 13.9293 3.75238 14.0921 3.86975 14.237C3.8366 12.9306 4.92505 11.3357 8.11753 10.0006C9.17491 9.55846 10.2808 9.31029 11.3845 9.23669C12.3215 9.15246 13.3368 9.18766 14.4156 9.40009C14.4676 8.96897 14.4871 8.56655 14.4843 8.21C13.2041 7.89242 12.0074 7.83028 10.9164 7.92836C9.81269 8.00195 8.7068 8.25013 7.64943 8.69229C3.84823 10.282 3.0292 12.24 3.53565 13.6408L3.53565 13.6408Z" fill="url(#paint3_radial_6741_20173)"/>
<g style="mix-blend-mode:overlay" opacity="0.8">
<path d="M8.11766 10.0006C4.92517 11.3357 3.83673 12.9305 3.86987 14.2369C3.89844 14.2722 3.9287 14.3055 3.95938 14.3385C3.95695 13.0422 5.05813 11.4727 8.20723 10.1557C9.2646 9.71354 10.3705 9.46537 11.4742 9.39178C12.3802 9.31033 13.3599 9.34192 14.3989 9.53596C14.4051 9.49014 14.4103 9.44518 14.4158 9.40003C13.3369 9.18761 12.3216 9.1524 11.3847 9.23663C10.2809 9.31023 9.17503 9.5584 8.11766 10.0006Z" fill="white"/>
</g>
<path style="mix-blend-mode:overlay" opacity="0.4" d="M17.041 9.88692C17.0237 10.0215 17.0011 10.1544 16.9785 10.2873C18.4377 11.401 19.9957 13.2133 20.693 15.5033C20.9236 14.9292 21.0997 14.3355 21.2136 13.7292C20.3441 11.6038 18.6245 10.0691 17.1117 9.2207C17.0934 9.43567 17.0704 9.65694 17.041 9.88692Z" fill="url(#paint4_radial_6741_20173)"/>
<path style="mix-blend-mode:overlay" opacity="0.5" d="M16.9761 10.2876C16.9648 10.354 16.954 10.4206 16.9414 10.4866C18.3856 11.6237 19.9183 13.4629 20.5795 15.7678C20.6178 15.6802 20.6549 15.5922 20.6905 15.5036C19.9933 13.2135 18.4352 11.4013 16.9761 10.2876Z" fill="url(#paint5_linear_6741_20173)"/>
<path style="mix-blend-mode:overlay" opacity="0.9" d="M17.6521 18.5076C17.6772 18.4786 17.7015 18.4489 17.7248 18.418C17.8436 18.2622 17.9346 18.0942 18.0014 17.9201C16.8866 18.6021 14.9612 18.4569 12.2087 16.3596C11.2971 15.665 10.5292 14.8314 9.91363 13.9123C9.3722 13.143 8.89503 12.2461 8.53958 11.2056C8.14025 11.3762 7.78199 11.5605 7.47461 11.7412C7.83969 13.0087 8.3842 14.0761 9.01464 14.9718C9.63024 15.8909 10.3981 16.7246 11.3097 17.4192C14.587 19.9163 16.6923 19.6466 17.6521 18.5076Z" fill="url(#paint6_radial_6741_20173)"/>
<g style="mix-blend-mode:overlay" opacity="0.8">
<path d="M12.2082 16.3597C14.9607 18.457 16.8861 18.6022 18.0009 17.9203C18.0171 17.8779 18.0309 17.835 18.0441 17.792C16.9227 18.4422 15.0128 18.2733 12.2978 16.2046C11.3862 15.51 10.6183 14.6763 10.0027 13.7573C9.47918 13.0134 9.01668 12.1491 8.66522 11.1523C8.62243 11.1699 8.58088 11.1878 8.53906 11.2057C8.89452 12.2462 9.37169 13.1431 9.91311 13.9124C10.5287 14.8315 11.2966 15.6651 12.2082 16.3597V16.3597Z" fill="white"/>
</g>
<path style="mix-blend-mode:overlay" opacity="0.3" d="M7.6482 8.68871C7.77333 8.63638 7.89976 8.5895 8.02617 8.54259C8.26109 6.72206 9.05153 4.46666 10.6861 2.71777C10.0737 2.8051 9.47136 2.94943 8.88941 3.15395C7.4835 4.96969 7.01416 7.22626 7.03587 8.96057C7.23119 8.86894 7.43428 8.77817 7.6482 8.68871Z" fill="url(#paint7_radial_6741_20173)"/>
<path style="mix-blend-mode:overlay" opacity="0.4" d="M8.02539 8.54237C8.08857 8.51894 8.15158 8.495 8.21505 8.4729C8.47776 6.6536 9.30419 4.40665 10.9697 2.68164C10.8747 2.69224 10.7799 2.70407 10.6853 2.71755C9.05075 4.46644 8.26031 6.72184 8.02539 8.54237V8.54237Z" fill="url(#paint8_linear_6741_20173)"/>
<path style="mix-blend-mode:multiply" opacity="0.4" d="M11.1851 0.0275134C7.89129 0.251546 4.99925 1.78513 2.98109 4.08478C2.96584 4.10216 2.95069 4.11958 2.93555 4.13705L2.93567 4.13689C3.32858 4.52662 4.61266 5.29511 5.13311 5.61558C6.15497 4.51662 7.43959 3.65912 8.89494 3.14813C8.9966 3.01716 9.10194 2.88794 9.21353 2.762C10.569 1.23244 12.4201 0.423979 14.5671 0.423979C14.8061 0.423979 15.2928 0.462017 15.3032 0.46279C14.0016 0.0888431 12.6144 -0.0697133 11.1851 0.0275134Z" fill="url(#paint9_linear_6741_20173)"/>
<path style="mix-blend-mode:multiply" opacity="0.4" d="M12.6361 21.3593C10.0836 21.5329 7.69749 20.6623 5.89415 19.1146H5.89414L5.89413 19.1146C5.72628 19.0918 5.55805 19.0644 5.38955 19.03C3.38717 18.6209 1.7615 17.422 0.687994 15.5626C0.568507 15.3557 0.461591 15.1448 0.365234 14.9307C1.75114 20.4574 6.92932 24.3716 12.8138 23.9713C12.8399 23.3654 12.6613 21.9593 12.6361 21.3593Z" fill="url(#paint10_linear_6741_20173)"/>
<path style="mix-blend-mode:multiply" opacity="0.4" d="M23.9742 11.185C23.6056 11.1472 21.8049 11.2894 21.3622 11.3627C21.4175 12.1767 21.3663 12.9737 21.2214 13.7405C21.2835 13.893 21.3424 14.0478 21.3954 14.2064C22.0422 16.1451 21.8169 18.1524 20.7434 20.0118C20.6261 20.2149 20.4995 20.4094 20.3651 20.5967C20.3625 20.6002 20.3596 20.6043 20.3574 20.6073C20.3573 20.6074 20.3629 20.6026 20.3661 20.5997C22.8034 18.2285 24.2231 14.8435 23.9742 11.185Z" fill="url(#paint11_linear_6741_20173)"/>
<path style="mix-blend-mode:multiply" opacity="0.5" d="M14.6911 3.12029C14.9543 3.14723 15.2352 3.21186 15.4881 3.2968C15.4998 3.3007 15.5121 3.304 15.5236 3.30799C15.5237 3.30777 15.524 3.30746 15.5241 3.30724C16.5593 3.72894 17.5057 4.33192 18.3227 5.07778C18.3245 5.07924 18.3263 5.08044 18.328 5.08191C18.7218 4.63174 19.48 4.13708 19.48 4.13708C19.48 4.13708 18.319 2.94953 16.5434 2.58099C15.3004 2.32299 12.4968 2.0729 10.7285 5.08191C10.7285 5.08191 10.7356 5.07528 10.7459 5.06573C10.8767 4.86802 11.0158 4.67585 11.1731 4.49836C12.0293 3.53203 13.3023 2.97815 14.6911 3.12029Z" fill="url(#paint12_linear_6741_20173)"/>
<path style="mix-blend-mode:multiply" opacity="0.5" d="M18.3435 18.7704C18.1885 18.9849 17.9921 19.1959 17.7921 19.3724C17.7829 19.3805 17.7738 19.3896 17.7646 19.3975C17.7648 19.3978 17.7649 19.3981 17.765 19.3984C16.8822 20.084 15.8868 20.6021 14.8324 20.9368C14.8302 20.9376 14.8283 20.9385 14.8262 20.9393C15.0191 21.5054 15.0684 22.4093 15.0684 22.4093C15.0684 22.4093 16.6774 21.9977 17.8843 20.6442C18.7293 19.6968 20.3477 17.3938 18.6259 14.3579C18.6259 14.3579 18.6282 14.3673 18.6313 14.381C18.7371 14.5932 18.834 14.8097 18.909 15.0347C19.3178 16.2594 19.1609 17.6388 18.3435 18.7704Z" fill="url(#paint13_linear_6741_20173)"/>
<path style="mix-blend-mode:multiply" opacity="0.5" d="M2.96669 14.1108C2.85839 13.8693 2.7739 13.5937 2.72101 13.3323C2.71858 13.3202 2.71527 13.3079 2.71298 13.2959C2.7127 13.2959 2.71232 13.2959 2.71204 13.2958C2.55966 12.1885 2.60866 11.0674 2.84608 9.98691C2.84646 9.98465 2.84663 9.98254 2.84701 9.98027C2.26027 9.86435 1.4528 9.45508 1.4528 9.45508C1.4528 9.45508 1.00483 11.0543 1.57345 12.7762C1.97153 13.9817 3.15678 16.5348 6.64677 16.5617C6.64677 16.5617 6.6375 16.5589 6.62407 16.5547C6.38744 16.5403 6.15149 16.5159 5.91914 16.4684C4.65412 16.21 3.53795 15.3845 2.96669 14.1108Z" fill="url(#paint14_linear_6741_20173)"/>
<path style="mix-blend-mode:multiply" opacity="0.6" d="M14.1834 7.80753C14.2791 7.81965 14.3739 7.82302 14.4677 7.82154C14.4677 7.82154 14.405 6.5747 14.2519 5.93499C14.0988 5.29527 13.873 4.87164 13.625 4.63187C13.4473 4.4601 12.8863 4.24618 12.4501 5.56445C12.3093 6.66248 13.0854 7.66665 14.1834 7.80753Z" fill="url(#paint15_linear_6741_20173)"/>
<path style="mix-blend-mode:multiply" opacity="0.5" d="M7.27314 12.2015C7.23574 12.1125 7.19128 12.0288 7.14309 11.9482C7.14309 11.9482 6.09464 12.6259 5.61718 13.0784C5.13972 13.5308 4.88575 13.9382 4.80213 14.2729C4.74222 14.5127 4.83744 15.1055 6.19721 14.8241C7.21855 14.3971 7.7001 13.2228 7.27314 12.2015Z" fill="url(#paint16_linear_6741_20173)"/>
<path style="mix-blend-mode:multiply" opacity="0.6" d="M14.5332 15.9884C14.4748 16.0653 14.4245 16.1457 14.3789 16.2277C14.3789 16.2277 15.49 16.7968 16.1206 16.9841C16.7512 17.1714 17.2309 17.1876 17.5626 17.0927C17.8002 17.0247 18.266 16.6458 17.3424 15.6089C16.4619 14.9379 15.2042 15.108 14.5332 15.9884Z" fill="url(#paint17_linear_6741_20173)"/>
<path style="mix-blend-mode:multiply" opacity="0.3" d="M14.105 10.8188C13.8524 11.6573 13.4982 12.4181 13.0654 13.09C13.0418 13.1252 13.0204 13.1606 12.9961 13.1958C12.9952 13.1971 12.9943 13.1984 12.9934 13.1997C12.7071 13.6127 12.3666 14.0199 11.9668 14.4137C12.2415 14.706 12.5386 14.989 12.8648 15.2574C13.2745 15.5808 13.6761 15.8407 14.0393 16.0466C14.9544 15.0967 15.6066 14.0914 16.0671 13.0975C16.2475 12.7308 16.407 12.3518 16.5442 11.9625C16.122 11.6517 15.6943 11.4044 15.3002 11.2364C14.8927 11.0626 14.4943 10.9262 14.105 10.8188Z" fill="url(#paint18_linear_6741_20173)"/>
<path style="mix-blend-mode:multiply" opacity="0.3" d="M5.89359 19.1145C8.16902 19.4242 10.3579 18.7024 11.849 17.8164C11.672 17.6931 11.4919 17.5626 11.3074 17.4221C10.7319 16.9835 10.214 16.4894 9.7552 15.9535C8.63334 16.4442 7.22182 16.732 5.91294 16.4647C4.64792 16.2063 3.53176 15.3808 2.96049 14.1071C2.8522 13.8656 2.76776 13.5901 2.71484 13.3286C3.04543 15.6483 4.216 17.6748 5.89359 19.1145Z" fill="url(#paint19_linear_6741_20173)"/>
<path style="mix-blend-mode:multiply" opacity="0.3" d="M11.9651 14.4135C11.3659 13.7759 10.8845 13.0893 10.5192 12.379C10.5005 12.341 10.4805 12.3047 10.4623 12.2661C10.4616 12.2646 10.4609 12.2632 10.4602 12.2618C10.2457 11.8072 10.0632 11.3085 9.92201 10.7651C9.53239 10.8568 9.13968 10.9724 8.74496 11.1204C8.26116 11.3131 7.83595 11.5304 7.47656 11.7415C7.84164 13.0082 8.38175 14.0795 9.01185 14.9748C9.23879 15.3136 9.48677 15.6406 9.75469 15.9535C10.2357 15.7431 10.6644 15.4961 11.0073 15.2385C11.361 14.9728 11.6779 14.6965 11.9651 14.4135Z" fill="url(#paint20_linear_6741_20173)"/>
<path style="mix-blend-mode:multiply" opacity="0.3" d="M8.88747 3.1566C7.48158 4.97232 7.01221 7.22888 7.03392 8.96318C7.22997 8.87116 7.43395 8.78 7.64876 8.69017C8.31554 8.41134 9.00163 8.21002 9.69429 8.0806C9.83037 6.86391 10.2869 5.49793 11.1726 4.49828C12.0289 3.53194 13.3019 2.97807 14.6906 3.1202C14.9539 3.14714 15.2348 3.21178 15.4877 3.29671C15.4993 3.30061 15.5117 3.30391 15.5231 3.30791C15.5233 3.30768 15.5235 3.30738 15.5237 3.30715C14.2443 2.78595 12.8309 2.53961 11.3623 2.63951C10.4998 2.69818 9.67325 2.87465 8.8945 3.14807C8.89227 3.15096 8.88972 3.15369 8.88749 3.15658L8.88747 3.1566Z" fill="url(#paint21_linear_6741_20173)"/>
<path style="mix-blend-mode:multiply" opacity="0.3" d="M21.213 13.7271C20.343 11.6006 18.6222 10.0654 17.1088 9.21729C17.0905 9.43301 17.0674 9.65514 17.0378 9.88599C16.9459 10.6028 16.7772 11.2977 16.543 11.9622C17.5294 12.6884 18.4853 13.7674 18.9085 15.0353C19.3172 16.26 19.1604 17.6394 18.3429 18.771C18.188 18.9855 17.9915 19.1965 17.7915 19.373C17.7886 19.3756 17.7858 19.3782 17.7829 19.3809C19.5447 17.9962 20.7907 16.0006 21.2179 13.7405C21.2162 13.7361 21.2147 13.7315 21.213 13.7271V13.7271Z" fill="url(#paint22_linear_6741_20173)"/>
<path style="mix-blend-mode:multiply" opacity="0.3" d="M9.68617 9.52389C9.73939 9.96274 9.82016 10.3751 9.92155 10.7652C10.7743 10.5646 11.6105 10.4908 12.4091 10.5297C12.4514 10.5325 12.4928 10.5334 12.5354 10.5369C12.537 10.537 12.5385 10.5371 12.5401 10.5372C13.0403 10.5787 13.5626 10.6698 14.1028 10.8188C14.2183 10.4353 14.3147 10.0371 14.384 9.62091C14.4592 9.10364 14.4834 8.62532 14.4801 8.20744C13.2008 7.89042 12.005 7.82838 10.9148 7.9264C10.5071 7.95358 10.0991 8.00495 9.69331 8.08076C9.63492 8.6028 9.63455 9.09785 9.68617 9.52389H9.68617Z" fill="url(#paint23_linear_6741_20173)"/>
<rect x="12.7598" y="14.7217" width="10.9928" height="8.33618" rx="1.83213" fill="#081029"/>
<path d="M19.5034 20.3699L19.5061 19.01H19.6723L20.9911 17.4583H22.3019L20.5301 19.513H20.2593L19.5034 20.3699ZM18.4688 21.5463V16.0957H19.6106V21.5463H18.4688ZM21.042 21.5463L19.8304 19.7658L20.5917 18.9647L22.3796 21.5463H21.042Z" fill="white"/>
<path d="M14.1348 21.5464V20.8704L16.1505 18.3927V18.3634H14.2045V17.4585H17.5256V18.1957L15.6332 20.6123V20.6416H17.5953V21.5464H14.1348Z" fill="white"/>
<defs>
<radialGradient id="paint0_radial_6741_20173" cx="0" cy="0" r="1" gradientUnits="userSpaceOnUse" gradientTransform="translate(15.4207 9.57022) scale(4.56263 4.56264)">
<stop stop-color="white"/>
<stop offset="1" stop-color="white" stop-opacity="0"/>
</radialGradient>
<radialGradient id="paint1_radial_6741_20173" cx="0" cy="0" r="1" gradientUnits="userSpaceOnUse" gradientTransform="translate(8.67888 18.0347) scale(2.65458 2.65458)">
<stop stop-color="white"/>
<stop offset="1" stop-color="white" stop-opacity="0"/>
</radialGradient>
<linearGradient id="paint2_linear_6741_20173" x1="4.69263" y1="17.5858" x2="7.25147" y2="17.5503" gradientUnits="userSpaceOnUse">
<stop stop-color="white" stop-opacity="0"/>
<stop offset="1" stop-color="white"/>
</linearGradient>
<radialGradient id="paint3_radial_6741_20173" cx="0" cy="0" r="1" gradientUnits="userSpaceOnUse" gradientTransform="translate(8.18518 10.2517) rotate(-120) scale(4.56264 4.56263)">
<stop stop-color="white"/>
<stop offset="1" stop-color="white" stop-opacity="0"/>
</radialGradient>
<radialGradient id="paint4_radial_6741_20173" cx="0" cy="0" r="1" gradientUnits="userSpaceOnUse" gradientTransform="translate(18.8875 11.8602) rotate(-120) scale(2.65458 2.65458)">
<stop stop-color="white"/>
<stop offset="1" stop-color="white" stop-opacity="0"/>
</radialGradient>
<linearGradient id="paint5_linear_6741_20173" x1="20.488" y1="15.535" x2="19.1778" y2="13.3367" gradientUnits="userSpaceOnUse">
<stop stop-color="white" stop-opacity="0"/>
<stop offset="1" stop-color="white"/>
</linearGradient>
<radialGradient id="paint6_radial_6741_20173" cx="0" cy="0" r="1" gradientUnits="userSpaceOnUse" gradientTransform="translate(12.1769 15.9645) rotate(120) scale(4.56264 4.56263)">
<stop stop-color="white"/>
<stop offset="1" stop-color="white" stop-opacity="0"/>
</radialGradient>
<radialGradient id="paint7_radial_6741_20173" cx="0" cy="0" r="1" gradientUnits="userSpaceOnUse" gradientTransform="translate(8.43383 6.10295) rotate(120) scale(2.65458 2.65458)">
<stop stop-color="white"/>
<stop offset="1" stop-color="white" stop-opacity="0"/>
</radialGradient>
<linearGradient id="paint8_linear_6741_20173" x1="10.8138" y1="2.87721" x2="9.56514" y2="5.111" gradientUnits="userSpaceOnUse">
<stop stop-color="white" stop-opacity="0"/>
<stop offset="1" stop-color="white"/>
</linearGradient>
<linearGradient id="paint9_linear_6741_20173" x1="11.3707" y1="1.74189" x2="7.46137" y2="2.87915" gradientUnits="userSpaceOnUse">
<stop stop-color="#231F20"/>
<stop offset="1" stop-color="white"/>
</linearGradient>
<linearGradient id="paint10_linear_6741_20173" x1="3.98292" y1="16.6519" x2="7.25256" y2="20.0637" gradientUnits="userSpaceOnUse">
<stop stop-color="#231F20"/>
<stop offset="1" stop-color="white"/>
</linearGradient>
<linearGradient id="paint11_linear_6741_20173" x1="21.534" y1="16.1376" x2="22.6713" y2="12.6784" gradientUnits="userSpaceOnUse">
<stop stop-color="#231F20"/>
<stop offset="1" stop-color="white"/>
</linearGradient>
<linearGradient id="paint12_linear_6741_20173" x1="13.152" y1="3.72007" x2="18.3934" y2="4.92018" gradientUnits="userSpaceOnUse">
<stop stop-color="#231F20"/>
<stop offset="1" stop-color="white"/>
</linearGradient>
<linearGradient id="paint13_linear_6741_20173" x1="18.5936" y1="17.1377" x2="14.9336" y2="21.0767" gradientUnits="userSpaceOnUse">
<stop stop-color="#231F20"/>
<stop offset="1" stop-color="white"/>
</linearGradient>
<linearGradient id="paint14_linear_6741_20173" x1="4.25562" y1="15.1437" x2="2.67429" y2="10.0046" gradientUnits="userSpaceOnUse">
<stop stop-color="#231F20"/>
<stop offset="1" stop-color="white"/>
</linearGradient>
<linearGradient id="paint15_linear_6741_20173" x1="14.2951" y1="5.65336" x2="12.6366" y2="7.31186" gradientUnits="userSpaceOnUse">
<stop stop-color="#231F20"/>
<stop offset="1" stop-color="white"/>
</linearGradient>
<linearGradient id="paint16_linear_6741_20173" x1="5.35171" y1="13.1818" x2="7.61727" y2="13.7889" gradientUnits="userSpaceOnUse">
<stop stop-color="#231F20"/>
<stop offset="1" stop-color="white"/>
</linearGradient>
<linearGradient id="paint17_linear_6741_20173" x1="16.3429" y1="17.1623" x2="15.7359" y2="14.8967" gradientUnits="userSpaceOnUse">
<stop stop-color="#231F20"/>
<stop offset="1" stop-color="white"/>
</linearGradient>
<linearGradient id="paint18_linear_6741_20173" x1="12.8977" y1="15.1477" x2="13.8928" y2="13.7735" gradientUnits="userSpaceOnUse">
<stop stop-color="#231F20"/>
<stop offset="1" stop-color="white"/>
</linearGradient>
<linearGradient id="paint19_linear_6741_20173" x1="9.47007" y1="14.5525" x2="7.47986" y2="15.5003" gradientUnits="userSpaceOnUse">
<stop stop-color="#231F20"/>
<stop offset="1" stop-color="white"/>
</linearGradient>
<linearGradient id="paint20_linear_6741_20173" x1="8.74736" y1="11.2397" x2="9.36338" y2="12.5191" gradientUnits="userSpaceOnUse">
<stop stop-color="#231F20"/>
<stop offset="1" stop-color="white"/>
</linearGradient>
<linearGradient id="paint21_linear_6741_20173" x1="11.6136" y1="7.28829" x2="11.1871" y2="5.81932" gradientUnits="userSpaceOnUse">
<stop stop-color="#231F20"/>
<stop offset="1" stop-color="white"/>
</linearGradient>
<linearGradient id="paint22_linear_6741_20173" x1="16.2099" y1="14.0139" x2="17.4419" y2="14.2982" gradientUnits="userSpaceOnUse">
<stop stop-color="#231F20"/>
<stop offset="1" stop-color="white"/>
</linearGradient>
<linearGradient id="paint23_linear_6741_20173" x1="14.2754" y1="9.85211" x2="12.7117" y2="9.5678" gradientUnits="userSpaceOnUse">
<stop stop-color="#231F20"/>
<stop offset="1" stop-color="white"/>
</linearGradient>
</defs>
</svg>
