<svg width="301" height="300" viewBox="0 0 301 300" fill="none" xmlns="http://www.w3.org/2000/svg">
<path d="M169.603 231.123C155.769 234.445 141.315 234.167 127.62 230.313C113.924 226.46 101.445 219.161 91.3716 209.112C78.0351 196.375 69.4621 179.454 67.0798 161.165C64.6975 142.876 68.6495 124.323 78.2781 108.594C84.6014 98.3403 92.2195 88.9448 100.944 80.6394C128.635 53.052 179.469 2.86643 179.469 2.86643C141.679 -4.62833 102.455 2.70349 69.9211 23.3432C37.3876 43.9829 14.0378 76.3489 4.70844 113.737C-4.62097 151.125 0.784922 190.67 19.8063 224.18C38.8277 257.69 70.007 282.599 106.886 293.745L169.603 231.123Z" fill="white"/>
<path d="M130.982 68.9371C144.816 65.6111 159.271 65.8881 172.966 69.7416C186.662 73.5951 199.142 80.8965 209.213 90.9484C236.647 118.389 242.002 159.11 222.197 191.32C215.862 201.576 208.245 210.983 199.531 219.311C171.84 246.861 121.006 297.083 121.006 297.083C158.83 304.652 198.116 297.36 230.706 276.72C263.297 256.079 286.688 223.678 296.023 186.242C305.359 148.806 299.921 109.211 280.84 75.6795C261.759 42.1477 230.499 17.2546 193.552 6.16846L130.982 68.9371Z" fill="white"/>
</svg>
