<svg width="32" height="32" viewBox="0 0 32 32" fill="none" xmlns="http://www.w3.org/2000/svg">
<path d="M17.5539 22.4943C16.447 22.7616 15.29 22.74 14.1938 22.4315C13.0977 22.1231 12.0991 21.5382 11.2939 20.7329C10.2267 19.7138 9.54069 18.3598 9.35006 16.8963C9.15943 15.4328 9.47567 13.9482 10.2461 12.6896C10.7521 11.8691 11.3617 11.1173 12.0599 10.4527C14.2756 8.24518 18.3433 4.22937 18.3433 4.22937C15.3194 3.62964 12.1807 4.21633 9.57742 5.86791C6.97412 7.51948 5.10569 10.1094 4.35916 13.1011C3.61262 16.0929 4.0452 19.2572 5.56728 21.9387C7.08935 24.6202 9.5843 26.6133 12.5353 27.5052L17.5539 22.4943Z" fill="#0085FF"/>
<path d="M14.4635 9.5161C15.5704 9.24995 16.7271 9.27211 17.8231 9.58047C18.919 9.88882 19.9176 10.4731 20.7235 11.2774C21.7871 12.2971 22.4701 13.65 22.6591 15.1115C22.8481 16.573 22.5317 18.0552 21.7624 19.312C21.2564 20.1324 20.6468 20.8843 19.9487 21.5489C17.7329 23.7564 13.6652 27.7722 13.6652 27.7722C16.6883 28.3695 19.8253 27.7813 22.4269 26.1293C25.0284 24.4773 26.8954 21.888 27.6412 18.8974C28.3871 15.9067 27.9548 12.7437 26.4339 10.0631C24.9129 7.38241 22.4197 5.38932 19.4703 4.49634L14.4635 9.5161Z" fill="#0085FF"/>
</svg>
