<?xml version="1.0" encoding="UTF-8"?>
<svg id="Layer_1" data-name="Layer 1" xmlns="http://www.w3.org/2000/svg" viewBox="0 0 500 500">
  <defs>
    <style>
      .cls-1, .cls-2 {
        stroke-width: 0px;
      }

      .cls-2 {
        fill: #fff;
      }
    </style>
  </defs>
  <circle class="cls-1" cx="250" cy="250" r="250"/>
  <path class="cls-2" d="m324.09,384.31h-149.46v-36.22h149.46v36.22Z"/>
  <path class="cls-2" d="m324.48,244.73c-.25,34.56-27.16,65.96-61.89,71.58-24.42,3.95-45.98-2.21-64.18-18.69-12.43-11.26-20.8-25.42-22.82-42.29-1.43-11.91-1.24-24.01-1.78-36.03.2,0,.39-.01.59-.02,0-8.51-.05-17.01,0-25.52.24-34.22,26.7-65.75,61.4-71.52,26.4-4.39,49.35,2.7,67.92,21.84,13.49,13.91,20.82,30.89,20.78,50.64-.03,16.67.09,33.34-.03,50.01Z"/>
</svg>