<?xml version="1.0" encoding="UTF-8"?><svg id="b" xmlns="http://www.w3.org/2000/svg" viewBox="0 0 48 48"><g id="c"><rect width="48" height="48" style="fill:#2e0d41; stroke-width:0px;"/><path d="M23.06,23.83l-10.64-10.64c-.16-.16-.42-.05-.42.17v21.27c0,.22.27.33.42.17l10.64-10.64c.1-.1.1-.25,0-.35Z" style="fill:#ff2284; stroke-width:0px;"/><path d="M23.83,23.06c.1.1.25.1.35,0l10.64-10.63c.16-.16.05-.42-.17-.42H13.36c-.22,0-.33.27-.17.42l10.64,10.64h0Z" style="fill:#ffcca9; stroke-width:0px;"/><path d="M23.83,24.94l-4.12,4.12c-.16.16-.05.42.17.42h8.24c.22,0,.33-.27.17-.42l-4.12-4.12c-.1-.1-.25-.1-.35,0Z" style="fill:#b3004a; stroke-width:0px;"/><path d="M35.58,13.19l-4.6,4.61c-.1.1-.1.25,0,.35l4.6,4.6c.16.16.42.05.42-.17v-9.21c0-.22-.27-.33-.42-.17Z" style="fill:#d6ff80; stroke-width:0px;"/><path d="M28.12,30.58h-9.83c-.07,0-.13.03-.17.07l-4.93,4.93c-.16.16-.05.42.17.42h9.83c.07,0,.13-.03.17-.07l4.93-4.93c.16-.16.05-.42-.17-.42Z" style="fill:#82acff; stroke-width:0px;"/><path d="M35.58,25.25l-10.33,10.33c-.16.16-.05.42.17.42h10.33c.14,0,.25-.11.25-.25v-10.33c0-.22-.27-.33-.42-.17Z" style="fill:#61ffb6; stroke-width:0px;"/><rect x="26.31" y="20.28" width="7.44" height="7.44" rx=".25" ry=".25" transform="translate(-8.17 28.26) rotate(-44.99)" style="fill:#ffd208; stroke-width:0px;"/></g></svg>