<svg fill="none" height="66" viewBox="0 0 66 66" width="66" xmlns="http://www.w3.org/2000/svg" xmlns:xlink="http://www.w3.org/1999/xlink"><linearGradient id="a"><stop offset="0" stop-color="#7aedcf"/><stop offset=".201333" stop-color="#68cefa"/><stop offset=".403244" stop-color="#689cf8"/><stop offset=".602076" stop-color="#ac57c0"/><stop offset=".801867" stop-color="#e65659"/><stop offset="1" stop-color="#f2c241"/></linearGradient><linearGradient id="b" gradientUnits="userSpaceOnUse" x1="54" x2="54" xlink:href="#a" y1="44" y2="64"/><linearGradient id="c" gradientUnits="userSpaceOnUse" x1="32.0001" x2="32.0001" xlink:href="#a" y1="0" y2="64"/><mask id="d" fill="#000" height="24" maskUnits="userSpaceOnUse" width="24" x="42" y="42"><path d="m42 42h24v24h-24z" fill="#fff"/><path d="m64 54c0 5.5228-4.4772 10-10 10s-10-4.4772-10-10 4.4772-10 10-10 10 4.4772 10 10z" fill="#000"/></mask><rect fill="#fff" height="64" rx="32" width="64"/><path clip-rule="evenodd" d="m39.4504 15.4255c0 2.4441-3.4067 4.4254-7.6092 4.4254-4.2024 0-7.6091-1.9813-7.6091-4.4254 0-2.4442 3.4067-4.4255 7.6091-4.4255 4.2025 0 7.6092 1.9813 7.6092 4.4255zm0 33.3452c0 2.4441-3.4067 4.4254-7.6092 4.4254-4.2024 0-7.6091-1.9813-7.6091-4.4254 0-2.4442 3.4067-4.4255 7.6091-4.4255 4.2025 0 7.6092 1.9813 7.6092 4.4255zm-18.2133-22.7938c2.1012-3.6393 2.0876-7.5809-.0304-8.8037-2.1181-1.2229-5.5385.736-7.6397 4.3753s-2.0875 7.5808.0305 8.8037 5.5384-.736 7.6396-4.3753zm28.8471 7.8683c2.1166 1.222 2.1291 5.1629.0279 8.8022s-5.5204 5.5989-7.637 4.3768c-2.1166-1.222-2.1291-5.1629-.0279-8.8022s5.5204-5.5989 7.637-4.3768zm-28.8762 13.1779c2.1181-1.2229 2.1317-5.1645.0305-8.8038s-5.5216-5.5982-7.6396-4.3753c-2.1181 1.2229-2.1317 5.1645-.0305 8.8038s5.5216 5.5982 7.6396 4.3753zm28.9059-25.4723c2.1013 3.6393 2.0888 7.5803-.0278 8.8023-2.1166 1.2221-5.5358-.7375-7.6371-4.3768-2.1012-3.6393-2.0887-7.5802.0279-8.8023 2.1166-1.222 5.5358.7375 7.637 4.3768z" fill="#e6007a" fill-rule="evenodd"/><path d="m64 54c0 5.5228-4.4772 10-10 10s-10-4.4772-10-10 4.4772-10 10-10 10 4.4772 10 10z" fill="url(#b)"/><path d="m62 54c0 4.4183-3.5817 8-8 8v4c6.6274 0 12-5.3726 12-12zm-8 8c-4.4183 0-8-3.5817-8-8h-4c0 6.6274 5.3726 12 12 12zm-8-8c0-4.4183 3.5817-8 8-8v-4c-6.6274 0-12 5.3726-12 12zm8-8c4.4183 0 8 3.5817 8 8h4c0-6.6274-5.3726-12-12-12z" fill="#fff" mask="url(#d)"/><path d="m53.5842 58.376-4.0658-6.0986c-.2215-.3323.0167-.7774.416-.7774h1.8078c.1618 0 .3137.0783.4075.2102l1.443 2.0293c.1993.2803.6156.2803.815 0l1.443-2.0293c.0938-.1319.2456-.2102.4075-.2102h1.8077c.3994 0 .6376.4451.416.7773l-4.0657 6.0987c-.1979.2968-.6341.2968-.832 0z" fill="#fff"/><path clip-rule="evenodd" d="m42.6493 57.9038c-3.2829 1.351-6.8791 2.0962-10.6493 2.0962-15.464 0-28-12.536-28-28s12.536-28 28-28 28 12.536 28 28c0 3.7702-.7452 7.3664-2.0962 10.6493 1.2899.4435 2.4804 1.1007 3.5292 1.9294 1.6523-3.8612 2.567-8.1131 2.567-12.5787 0-17.6731-14.3269-32-32-32s-32 14.3269-32 32 14.3269 32 32 32c4.4656 0 8.7175-.9147 12.5787-2.567-.8287-1.0488-1.4859-2.2393-1.9294-3.5292z" fill="url(#c)" fill-rule="evenodd"/></svg>