<svg fill="none" height="66" viewBox="0 0 66 66" width="66" xmlns="http://www.w3.org/2000/svg" xmlns:xlink="http://www.w3.org/1999/xlink"><linearGradient id="a"><stop offset="0" stop-color="#7aedcf"/><stop offset=".201333" stop-color="#68cefa"/><stop offset=".403244" stop-color="#689cf8"/><stop offset=".602076" stop-color="#ac57c0"/><stop offset=".801867" stop-color="#e65659"/><stop offset="1" stop-color="#f2c241"/></linearGradient><linearGradient id="b" gradientUnits="userSpaceOnUse" x1="54" x2="54" xlink:href="#a" y1="44" y2="64"/><linearGradient id="c" gradientUnits="userSpaceOnUse" x1="32.0001" x2="32.0001" xlink:href="#a" y1="0" y2="64"/><mask id="d" fill="#000" height="24" maskUnits="userSpaceOnUse" width="24" x="42" y="42"><path d="m42 42h24v24h-24z" fill="#fff"/><path d="m64 54c0 5.5228-4.4772 10-10 10s-10-4.4772-10-10 4.4772-10 10-10 10 4.4772 10 10z" fill="#000"/></mask><rect fill="#fff" height="64" rx="32" width="64"/><path d="m51.4159 20.3916c-.6594-.5014-1.4537-1.1901-2.8871-1.37-1.3532-.17-2.7241.7022-3.6534 1.2813-.9293.5778-2.6872 2.2805-3.4179 2.7942-.7294.5138-2.5879.9955-5.5743 2.7302s-14.7333 9.0233-14.7333 9.0233l3.0526.032-13.6055 6.8082h1.3608l-1.9578 1.4452s1.7249.4496 3.185-.4497l.005.4065s16.2125-6.1847 19.3542-4.5794l-1.9056.5446c.1655 0 3.2524.1934 3.2524.1934s.0993 1.8628 1.9578 3.0505c1.8585 1.1876 1.8916 1.8308 1.8916 1.8308s-.9623.3856-.9623.8673c0 0 1.427-.4177 2.7547-.3856 1.3277.032 2.4886.3856 2.4886.3856s-.0993-.5138-1.3939-.8673c-1.2933-.3524-2.5548-1.7015-3.1862-2.4407-.6301-.7392-1.054-2.055-.527-3.372.4481-1.1175 1.9985-1.7359 5.2051-3.34 3.7845-1.8912 4.6463-3.308 5.1772-4.3996.5308-1.0916 1.3277-3.2759 1.7668-4.3034.5627-1.3171 1.2526-2.023 1.8166-2.4407.5639-.4176 3.12-1.349 3.12-1.349s-1.9489-1.614-2.5841-2.0957z" fill="#1b2026"/><path d="m64 54c0 5.5228-4.4772 10-10 10s-10-4.4772-10-10 4.4772-10 10-10 10 4.4772 10 10z" fill="url(#b)"/><path d="m62 54c0 4.4183-3.5817 8-8 8v4c6.6274 0 12-5.3726 12-12zm-8 8c-4.4183 0-8-3.5817-8-8h-4c0 6.6274 5.3726 12 12 12zm-8-8c0-4.4183 3.5817-8 8-8v-4c-6.6274 0-12 5.3726-12 12zm8-8c4.4183 0 8 3.5817 8 8h4c0-6.6274-5.3726-12-12-12z" fill="#fff" mask="url(#d)"/><path d="m53.5842 58.376-4.0658-6.0986c-.2215-.3323.0167-.7774.416-.7774h1.8078c.1618 0 .3137.0783.4075.2102l1.443 2.0293c.1993.2803.6156.2803.815 0l1.443-2.0293c.0938-.1319.2456-.2102.4075-.2102h1.8077c.3994 0 .6376.4451.416.7773l-4.0657 6.0987c-.1979.2968-.6341.2968-.832 0z" fill="#fff"/><path clip-rule="evenodd" d="m42.6493 57.9038c-3.2829 1.351-6.8791 2.0962-10.6493 2.0962-15.464 0-28-12.536-28-28s12.536-28 28-28 28 12.536 28 28c0 3.7702-.7452 7.3664-2.0962 10.6493 1.2899.4435 2.4804 1.1007 3.5292 1.9294 1.6523-3.8612 2.567-8.1131 2.567-12.5787 0-17.6731-14.3269-32-32-32s-32 14.3269-32 32 14.3269 32 32 32c4.4656 0 8.7175-.9147 12.5787-2.567-.8287-1.0488-1.4859-2.2393-1.9294-3.5292z" fill="url(#c)" fill-rule="evenodd"/></svg>