<?xml version="1.0" encoding="utf-8"?>
<!-- Generator: Adobe Illustrator 28.0.0, SVG Export Plug-In . SVG Version: 6.00 Build 0)  -->
<svg version="1.1" id="Layer_1" xmlns="http://www.w3.org/2000/svg" xmlns:xlink="http://www.w3.org/1999/xlink" x="0px" y="0px"
	 viewBox="0 0 512 433" style="enable-background:new 0 0 512 433;" xml:space="preserve">
<style type="text/css">
	.st0{opacity:0.951;fill-rule:evenodd;clip-rule:evenodd;fill:#FFFFFF;enable-background:new    ;}
</style>
<g>
	<path class="st0" d="M229.5-0.5c17.3,0,34.7,0,52,0c36.7,5.2,70.4,18.4,101,39.5c1,0.7,1.1,1.6,0.5,2.5c-13.5,6.9-27,13.9-40.5,21
		c-62.6-32.4-123.9-30.3-184,6.5c-57.8,41.2-83.7,97.3-77.5,168.5c143.6-72.9,287.1-145.9,430.5-219c0,15.3,0,30.7,0,46
		c-170.4,87.2-341.1,173.9-512,260c0-15.3,0-30.7,0-46c12.2-4,22.7-10.7,31.5-20c5-7.4,7.5-15.5,7.5-24.5c-4.3-75,21.7-137,78-186
		C149.7,21.4,187.4,5.2,229.5-0.5z"/>
</g>
<g>
	<path class="st0" d="M511.5,107.5c0,15.3,0,30.7,0,46c-12.8,4.1-23.6,11.1-32.5,21c-4.3,7.2-6.4,15.1-6.5,23.5
		c3.5,96-36.5,167-120,213c-23,10.7-47,17.9-72,21.5c-16.7,0-33.3,0-50,0c-37.3-5-71.3-18.3-102-40c-0.9-0.8-1.2-1.8-1-3
		c14-5.8,27.6-12.5,41-20c62.1,32.2,123.1,30.3,183-5.5c58.6-41.4,84.6-97.9,78-169.5c-143.3,73-286.7,146-430,219
		c0-15.7,0-31.3,0-47c159.3-80.3,318.3-161.1,477-242.5C488.1,118.2,499.8,112.7,511.5,107.5z"/>
</g>
</svg>
