<svg width="32" height="32" viewBox="0 0 32 32" fill="none" xmlns="http://www.w3.org/2000/svg">
<path d="M9.68457 9.68457L10.0381 10.0381L9.68457 9.68457C9.42411 9.94504 9.27778 10.2983 9.27778 10.6667V21.3333C9.27778 21.7017 9.42411 22.055 9.68457 22.3154C9.94504 22.5759 10.2983 22.7222 10.6667 22.7222H21.3333C21.7017 22.7222 22.055 22.5759 22.3154 22.3154C22.5759 22.055 22.7222 21.7017 22.7222 21.3333V16C22.7222 15.8969 22.7632 15.7979 22.8361 15.725C22.9091 15.6521 23.008 15.6111 23.1111 15.6111C23.2143 15.6111 23.3132 15.6521 23.3861 15.725C23.459 15.7979 23.5 15.8969 23.5 16V21.3333C23.5 21.908 23.2717 22.4591 22.8654 22.8654C22.4591 23.2717 21.908 23.5 21.3333 23.5H10.6667C10.092 23.5 9.54093 23.2717 9.1346 22.8654C8.72827 22.4591 8.5 21.908 8.5 21.3333V10.6667C8.5 10.092 8.72827 9.54093 9.1346 9.1346C9.54093 8.72827 10.092 8.5 10.6667 8.5H16C16.1031 8.5 16.2021 8.54097 16.275 8.6139C16.3479 8.68683 16.3889 8.78575 16.3889 8.88889C16.3889 8.99203 16.3479 9.09094 16.275 9.16387C16.2021 9.23681 16.1031 9.27778 16 9.27778H10.6667C10.2983 9.27778 9.94504 9.42411 9.68457 9.68457Z" fill="#191D1F" stroke="#0085FF"/>
<path d="M21.2772 10.1544L22.1314 9.30076H20.9238H19.5026C19.3968 9.30076 19.2953 9.2587 19.2203 9.18367C19.1453 9.10862 19.1031 9.00673 19.1031 8.90038C19.1031 8.79403 19.1453 8.69214 19.2203 8.61709C19.2953 8.54206 19.3968 8.5 19.5026 8.5H23.1005C23.2063 8.5 23.3079 8.54206 23.3828 8.61709C23.4578 8.69214 23.5 8.79403 23.5 8.90038V12.5019C23.5 12.6082 23.4578 12.7101 23.3828 12.7852C23.3079 12.8602 23.2063 12.9023 23.1005 12.9023C22.9947 12.9023 22.8932 12.8602 22.8182 12.7852C22.7433 12.7101 22.701 12.6082 22.701 12.5019V11.0793V9.87269L21.8476 10.7256L16.1899 16.38L16.1881 16.3817C16.151 16.4192 16.1068 16.449 16.0582 16.4693C16.0095 16.4896 15.9574 16.5 15.9047 16.5C15.852 16.5 15.7999 16.4896 15.7512 16.4693C15.7026 16.449 15.6584 16.4192 15.6212 16.3817L15.6183 16.3788C15.5809 16.3416 15.5511 16.2974 15.5308 16.2485C15.5105 16.1997 15.5 16.1473 15.5 16.0944C15.5 16.0415 15.5105 15.9891 15.5308 15.9403C15.5511 15.8914 15.5809 15.8472 15.6183 15.81L15.6195 15.8088L21.2772 10.1544Z" fill="#191D1F" stroke="#0085FF"/>
</svg>
