<svg width="240" height="128" viewBox="0 0 240 128" fill="none" xmlns="http://www.w3.org/2000/svg">
<g clip-path="url(#clip0_5680_109116)">
<rect y="0.000488281" width="240" height="127.591" rx="6" fill="#060B23"/>
<rect y="0.000488281" width="240" height="127.591" rx="6" fill="url(#paint0_linear_5680_109116)"/>
<rect y="0.410156" width="240" height="127.591" rx="6" fill="url(#paint1_linear_5680_109116)" fill-opacity="0.2"/>
<path d="M102.404 124.528C128.839 98.0928 128.839 55.2329 102.404 28.7977C75.9688 2.36255 33.1089 2.36255 6.6737 28.7977C-19.7615 55.2329 -19.7615 98.0928 6.6737 124.528C33.1089 150.963 75.9688 150.963 102.404 124.528Z" fill="url(#paint2_radial_5680_109116)"/>
<g opacity="0.1">
<path d="M-6.30262 71.7153C-6.57862 72.2531 -6.82985 72.8016 -7.05985 73.3642C-7.79231 75.1653 -6.44769 77.5219 -4.32462 77.2388C-3.4117 77.1185 -2.67924 76.4568 -1.87955 75.9968C-1.07986 75.5368 0.0312139 75.3033 0.689367 75.9473C1.24137 76.4922 1.19891 77.3768 1.15291 78.1517C0.993675 81.0072 1.46783 84.0716 3.37152 86.2088C5.27167 88.3425 8.89858 89.082 11.0252 87.1677C11.747 86.5166 12.253 85.5152 12.0018 84.5776C11.6409 83.24 9.92474 82.5288 9.76551 81.1523C9.64166 80.066 10.5794 79.1425 11.5595 78.6506C12.5397 78.1588 13.6543 77.9005 14.4858 77.1893C15.742 76.11 16.0286 74.2736 15.9401 72.614C15.9083 72.0019 15.8198 71.3473 15.4235 70.8802C14.461 69.7337 12.6281 70.4414 11.3047 71.135C9.98135 71.8285 7.95028 72.2106 7.33459 70.8519C6.98782 70.0947 7.3452 69.2277 7.55043 68.421C7.75566 67.6142 7.67782 66.5456 6.90644 66.2342C6.51367 66.075 6.06075 66.1811 5.67152 66.358C3.74306 67.232 2.83367 69.5851 0.926445 70.5087C0.742446 70.6007 0.540753 70.675 0.3426 70.6537C-0.0253995 70.6183 -0.29786 70.2822 -0.414629 69.9319C-0.747244 68.9553 -0.138628 67.9574 -0.304935 66.949C-0.333243 66.772 -0.386322 66.5845 -0.531399 66.4748C-0.637553 66.397 -0.768476 66.3793 -0.899399 66.3757C-2.2334 66.3156 -3.34447 67.363 -4.17247 68.4104C-4.98631 69.4436 -5.70108 70.5547 -6.30262 71.7223L-6.30262 71.7153Z" fill="url(#paint3_linear_5680_109116)" style="mix-blend-mode:multiply"/>
</g>
<g opacity="0.1">
<path d="M18.5296 79.4287C19.6549 77.9001 19.899 75.8938 19.8105 73.9937C19.7221 72.1006 19.3399 70.2181 19.3612 68.3215C19.4107 64.1532 21.5656 60.0663 24.9696 57.6602C26.1444 56.8322 27.6765 56.1846 28.9928 56.7649C31.537 57.8937 30.7691 62.1434 33.0019 63.81C33.9431 64.5106 35.2382 64.5743 36.3705 64.2629C37.5028 63.9515 38.5113 63.3181 39.5162 62.7095C44.6116 59.6381 50.1139 57.1011 55.9736 56.0749C57.8631 55.7423 59.8446 55.5795 61.674 56.1563C63.5034 56.7331 65.1594 58.198 65.4708 60.0946C65.7185 61.5949 65.1169 63.1094 64.3774 64.4363C63.2876 66.3966 61.8474 68.1977 60.0039 69.4751C58.1603 70.7524 55.8886 71.4814 53.6559 71.2443C51.4727 71.0143 49.4947 69.9068 47.3999 69.2698C45.4537 68.6754 43.3059 68.4949 41.4093 69.238C39.5162 69.9775 37.9557 71.7857 37.9345 73.8167C37.9168 75.5612 38.9713 77.1677 39.0527 78.9121C39.127 80.4797 38.3167 82.0755 36.9791 82.8893C35.6416 83.7032 33.8051 83.6572 32.5419 82.7266C31.3778 81.8667 30.7975 80.4089 30.6028 78.9758C30.4082 77.5427 30.5391 76.0884 30.5108 74.6447C30.4755 72.9038 29.9199 70.8197 28.2462 70.342C26.6575 69.8855 25.1005 71.2231 24.2832 72.6561C23.3667 74.252 22.8996 76.1061 22.9562 77.9461C23.0128 79.6729 23.5082 81.3572 23.6038 83.0804C23.6993 84.8036 23.2818 86.7073 21.9159 87.7618C20.3767 88.9472 18.0838 88.65 16.4596 87.592C14.8319 86.5304 13.7244 84.8567 12.6593 83.2397C12.3656 82.7903 11.7889 81.7323 12.5461 81.3784C12.9318 81.198 13.9473 81.6403 14.4286 81.612C16.0173 81.5164 17.5813 80.7167 18.5296 79.4287V79.4287Z" fill="url(#paint4_linear_5680_109116)" style="mix-blend-mode:multiply"/>
</g>
<g opacity="0.1">
<path d="M69.8626 61.2943C70.7614 64.9814 70.2271 69.0895 67.9908 72.1539C65.7545 75.2182 61.7312 77.0192 58.03 76.1842C57.0782 75.9683 56.1582 75.5932 55.1815 75.5295C52.5242 75.3562 50.2702 77.5394 48.9928 79.8783C46.7246 84.0289 46.4451 89.3614 48.8159 93.4589C51.1831 97.5529 56.3528 100.012 60.9032 98.71C64.7672 97.606 67.5449 94.2267 69.5477 90.7378C71.5504 87.2489 73.072 83.4344 75.7046 80.3985C77.2934 78.562 79.6535 76.9591 82.0101 77.5535C83.5316 77.9357 84.6781 79.1458 85.7786 80.2605C87.7636 82.2809 89.908 84.1987 92.4309 85.4832C94.9538 86.7677 97.9155 87.3728 100.654 86.6651C103.453 85.9397 105.778 83.9051 107.353 81.4812C108.927 79.0574 109.815 76.2585 110.498 73.4525C111.967 67.4335 112.494 60.7777 109.603 55.2966C108.906 53.9768 107.784 52.6216 106.291 52.6216C105.424 52.6251 104.631 53.0922 103.934 53.6053C101.036 55.739 98.977 58.8033 96.4753 61.3899C95.5022 62.3983 94.4266 63.3537 93.1244 63.8774C91.8223 64.4011 90.2547 64.4259 89.0906 63.6439C87.6044 62.646 87.1515 60.5937 87.4841 58.8316C87.8167 57.0694 88.7792 55.5054 89.6213 53.9273C92.3884 48.7399 94.0479 42.7139 92.8944 36.9462C92.5936 35.4494 92.0735 33.9315 91.0013 32.8451C89.9256 31.7624 88.1812 31.2281 86.8189 31.9181C85.3681 32.6541 84.8161 34.4233 84.4977 36.0227C83.6166 40.4705 83.3583 45.2297 80.9026 49.0371C80.3046 49.9677 79.466 50.8842 78.369 51.0045C77.1978 51.1354 76.1469 50.3322 75.2163 49.6068C73.7726 48.4887 72.2228 47.4413 70.4535 46.9883C67.5768 46.2559 62.7609 48.1914 64.3002 51.8254C64.8345 53.0816 66.2534 54.1183 67.0424 55.2259C68.3411 57.0482 69.3389 59.1076 69.8732 61.2837L69.8626 61.2943Z" fill="url(#paint5_linear_5680_109116)" style="mix-blend-mode:multiply"/>
</g>
<g opacity="0.1">
<path d="M32.8018 55.3495C32.9611 54.4826 33.8351 53.5095 34.5675 54.0013C34.8754 54.2101 34.9886 54.5993 35.1195 54.9496C35.6468 56.3756 36.9772 57.6707 38.4917 57.5292C39.3267 57.4513 40.0627 56.963 40.7669 56.5066C44.4221 54.1323 48.3427 52.179 52.4403 50.6858C53.4523 50.3178 54.8181 50.0843 55.4055 50.983C55.8407 51.6447 55.5258 52.5824 54.9349 53.1026C54.3404 53.6263 53.5513 53.8421 52.7941 54.0615C49.1035 55.1336 45.558 56.6835 42.2672 58.665C40.4697 59.7478 38.0246 61.3649 35.8378 60.6855C33.7572 60.0415 32.4197 57.4089 32.8018 55.3495V55.3495Z" fill="url(#paint6_linear_5680_109116)" style="mix-blend-mode:multiply"/>
</g>
<g opacity="0.1">
<path d="M73.3739 43.3899C74.3328 43.9525 75.2245 44.7522 76.3321 44.8619C78.073 45.0388 79.5202 43.3793 79.9201 41.6773C80.3199 39.9753 80.0085 38.199 80.051 36.451C80.1041 34.3598 80.6773 32.2862 81.7105 30.4675C82.673 28.769 84.3184 27.1803 86.2645 27.3076C87.418 27.3855 88.6565 28.0436 89.6402 27.4421C90.4045 26.975 90.6027 25.8781 90.2382 25.0607C89.8737 24.2433 89.0882 23.6843 88.2602 23.3517C86.7634 22.7537 85.0331 22.7855 83.5611 23.4366C81.4558 24.3672 80.0404 26.4337 79.2902 28.6063C78.5365 30.7824 78.3419 33.1001 78.0058 35.3753C77.8076 36.7129 77.4679 38.1849 76.3462 38.9456C74.8282 39.9753 72.6591 39.1862 71.0102 39.993C70.1079 40.4353 68.3387 42.7565 69.9912 43.2625C70.3945 43.3829 71.0067 42.8839 71.4384 42.8556C72.1036 42.8061 72.8078 43.0573 73.3739 43.3899V43.3899Z" fill="url(#paint7_linear_5680_109116)" style="mix-blend-mode:multiply"/>
</g>
<g opacity="0.1">
<path d="M94.0958 53.0428C94.0109 54.0902 94.6478 55.2933 95.6952 55.3923C96.4913 55.4666 97.1884 54.9111 97.7935 54.391C99.5415 52.8765 101.289 51.362 103.037 49.8476C104.099 48.9276 105.454 47.9474 106.781 48.4039C107.397 48.6162 107.867 49.1151 108.434 49.4407C108.996 49.7697 109.799 49.8865 110.238 49.4053C110.482 49.1328 110.543 48.74 110.564 48.3791C110.702 46.1039 109.828 43.857 108.533 41.9816C107.238 40.1062 105.543 38.5457 103.844 37.0242C103.289 36.5253 102.715 36.0228 102.015 35.7681C101.314 35.5133 100.451 35.5699 99.9236 36.0971C98.9541 37.0667 99.7007 38.6767 100.309 39.908C100.95 41.2067 101.378 42.7459 100.826 44.0834C100.012 46.0579 97.7262 45.1379 96.7638 46.8293C95.8509 48.4357 94.2479 51.1922 94.0922 53.0463L94.0958 53.0428Z" fill="url(#paint8_linear_5680_109116)" style="mix-blend-mode:multiply"/>
</g>
<g opacity="0.1">
<path d="M0.261215 91.9444C1.18829 93.5084 2.34182 94.9804 3.87397 95.9535C5.40613 96.9266 7.36643 97.3441 9.07905 96.7355C10.4803 96.2401 11.6621 95.1007 13.1447 94.9911C14.638 94.8849 15.9932 95.8651 16.9981 96.9761C18.003 98.0872 18.8381 99.3823 20.0553 100.246C21.3256 101.148 22.9923 101.498 24.4996 101.109C26.0106 100.723 27.3198 99.5769 27.8364 98.112C28.6149 95.904 27.6099 93.3704 28.3813 91.1624C29.0572 89.2269 31.2262 87.9 33.2396 88.2857C35.943 88.8023 37.3655 91.6967 38.5968 94.1595C40.5359 98.0235 43.2145 101.827 47.2094 103.473C48.5434 104.021 50.1357 104.432 50.7868 105.72C51.6077 107.333 50.4259 109.223 49.1733 110.525C46.2541 113.564 42.3759 115.956 38.1616 116.066C32.4293 116.215 27.3658 112.149 24.075 107.45C23.0878 106.038 22.1749 104.524 20.809 103.483C19.4679 102.461 17.8013 101.983 16.1737 101.53C14.7158 101.12 13.1943 100.709 11.7117 101.01C10.1123 101.336 8.79243 102.45 7.27797 103.066C5.02044 103.979 2.31352 103.692 0.300135 102.316C-0.757863 101.59 -1.61417 100.607 -2.40324 99.5981C-3.75139 97.8749 -4.96509 96.0455 -6.01601 94.1241C-7.03154 92.2806 -7.90908 90.3132 -8.13908 88.222C-8.36554 86.1272 -7.86308 83.8768 -6.40878 82.3517C-5.76478 81.6794 -4.86247 81.1451 -3.94247 81.2866C-2.1414 81.5661 -2.54125 84.3863 -2.24048 85.6991C-1.73802 87.8858 -0.89586 90.0018 0.2506 91.9338L0.261215 91.9444Z" fill="url(#paint9_linear_5680_109116)" style="mix-blend-mode:multiply"/>
</g>
<g opacity="0.1">
<path d="M7.40101 55.6471C7.86809 55.4206 8.37763 55.2437 8.8907 55.3039C10.1256 55.4419 10.8192 56.8006 11.0562 58.0214C11.2933 59.2422 11.3252 60.5903 12.1213 61.5422C13.243 62.8903 15.4404 62.7948 16.923 61.8571C18.4056 60.9194 19.361 59.3696 20.3624 57.9294C22.1351 55.3782 24.191 53.0251 26.4804 50.9197C28.1116 49.423 30.2382 47.9616 32.3719 48.5454C33.6174 48.8851 34.5834 49.8723 35.7653 50.389C38.681 51.677 42.0142 49.8936 44.4486 47.8342C46.8796 45.7783 49.2503 43.259 52.3996 42.7919C55.5629 42.3248 58.8785 44.0693 61.9145 43.0573C63.8677 42.4062 65.3751 40.5733 65.6334 38.5316C65.8775 36.6031 65.1415 34.4234 66.242 32.8205C67.3566 31.1893 69.6708 31.1256 71.5886 30.6373C75.0846 29.7456 78.0321 26.5928 78.1878 22.9907C78.34 19.385 75.2686 15.8041 71.6594 15.8678C70.3997 15.889 69.1789 16.3101 68.0608 16.8762C63.9845 18.9427 61.0758 23.1535 60.5875 27.6968C60.262 30.7187 60.8989 33.9811 59.4694 36.6633C58.7157 38.0751 57.4171 39.1827 55.9026 39.7064C53.6911 40.4671 51.2106 39.9753 48.9779 40.6724C45.7296 41.6844 43.7728 44.8796 41.3667 47.2857C40.7333 47.9191 40.0043 48.5348 39.1197 48.6834C38.4191 48.8037 37.7008 48.6162 37.0533 48.3296C33.8757 46.9354 31.6394 43.1634 28.1717 43.2979C25.1216 43.4182 23.1436 46.578 22.2838 49.5043C21.4239 52.4306 21.0028 55.7108 18.8373 57.8622C18.2216 58.4779 17.337 58.9874 16.509 58.7185C15.4156 58.3611 15.1573 56.9563 15.0865 55.8099C15.0016 54.4582 14.9131 53.103 14.8282 51.7513C14.7292 50.2085 14.5735 48.5242 13.4942 47.4237C12.4929 46.4011 10.897 46.1499 9.49931 46.4507C8.10162 46.7514 6.85255 47.5193 5.66363 48.319C3.18671 49.982 -2.3722 53.9274 -2.0962 57.5225C-1.94405 59.4793 0.0799481 60.3426 1.74302 59.6774C3.91917 58.8105 5.31332 56.6733 7.40809 55.6471L7.40101 55.6471Z" fill="url(#paint10_linear_5680_109116)" style="mix-blend-mode:multiply"/>
</g>
<g opacity="0.1">
<path d="M16.8145 20.4597C9.15733 25.5976 2.88719 32.0305 -1.90388 39.2702C-1.65973 39.5709 -1.30942 39.7797 -0.944961 39.9177C0.481036 40.4662 2.1158 40.1477 3.48872 39.4754C4.86164 38.8031 6.04349 37.8052 7.28195 36.9065C8.9981 35.6645 10.8452 34.6029 12.7807 33.7431C14.4084 33.0212 16.6942 32.6249 17.6532 34.1288C18.1415 34.8931 18.0565 35.8768 17.9575 36.7826C17.6496 39.5391 17.3453 42.2991 17.0375 45.0555C16.9278 46.0498 16.8676 47.1928 17.5718 47.8969C18.6793 49.0044 20.5936 48.0809 21.6304 46.9097C24.3515 43.8206 25.1724 39.256 28.3534 36.6482C29.1991 35.9582 30.3208 35.4239 31.3576 35.76C32.5147 36.1386 33.0702 37.4089 33.5904 38.5094C34.245 39.8858 35.0482 41.1915 35.9859 42.3911C38.2257 45.2608 40.2462 43.9975 41.2582 41.0818C42.2313 38.2688 44.779 36.5349 47.6557 36.1705C49.7859 35.9015 51.9514 35.2151 53.5189 33.6829C55.0829 32.1614 55.3412 29.9074 55.3377 27.8303C55.3342 25.1588 55.5783 22.7208 57.3157 20.5659C58.9965 18.4747 61.4486 16.7302 63.9892 15.8739C65.4188 15.3927 66.9863 15.3183 68.3345 14.6354C69.7286 13.9277 70.6274 12.5123 70.9211 10.9873C53.0129 6.52528 33.3533 9.36313 16.8181 20.4562L16.8145 20.4597Z" fill="url(#paint11_linear_5680_109116)" style="mix-blend-mode:multiply"/>
</g>
<g opacity="0.1">
<path d="M9.18878 43.7823C4.70556 45.1021 1.18126 48.7113 -1.05858 52.8124C-2.06351 54.6524 -2.91981 56.6976 -4.60765 57.9396C-4.96504 58.205 -5.41442 58.435 -5.84611 58.3289C-6.32027 58.2156 -6.61396 57.745 -6.76965 57.285C-7.13765 56.2093 -7.02088 55.0098 -6.61396 53.9447C-6.2035 52.8832 -5.52765 51.9455 -4.7775 51.0892C-2.48458 48.4566 0.470028 46.514 3.18048 44.313C5.13017 42.7314 6.96309 41.0117 8.66509 39.1611C9.57801 38.1703 10.4874 37.1194 11.694 36.5214C12.9042 35.9269 14.5212 35.9163 15.4518 36.8894C16.2975 37.7704 16.3365 39.1328 16.2338 40.3464C16.1277 41.592 15.9225 42.8234 15.6217 44.0371C15.4023 44.9217 14.9918 46.0964 14.1532 44.904C13.6048 44.1291 13.5163 43.708 12.4477 43.5098C11.372 43.3046 10.2362 43.4709 9.19586 43.7752L9.18878 43.7823Z" fill="url(#paint12_linear_5680_109116)" style="mix-blend-mode:multiply"/>
</g>
<g opacity="0.5">
<path d="M102.404 124.528C128.839 98.0928 128.839 55.2329 102.404 28.7977C75.9688 2.36255 33.1089 2.36255 6.6737 28.7977C-19.7615 55.2329 -19.7615 98.0928 6.6737 124.528C33.1089 150.963 75.9688 150.963 102.404 124.528Z" fill="url(#paint13_radial_5680_109116)" style="mix-blend-mode:screen"/>
</g>
<g opacity="0.2">
<path d="M-6.30262 71.7155C-6.57862 72.2534 -6.82985 72.8018 -7.05985 73.3644C-7.79231 75.1655 -6.44769 77.5221 -4.32462 77.239C-3.4117 77.1187 -2.67924 76.457 -1.87955 75.997C-1.07986 75.537 0.0312139 75.3035 0.689367 75.9475C1.24137 76.4924 1.19891 77.377 1.15291 78.152C0.993675 81.0075 1.46783 84.0718 3.37152 86.209C5.27167 88.3427 8.89858 89.0823 11.0252 87.1679C11.747 86.5169 12.253 85.5155 12.0018 84.5778C11.6409 83.2403 9.92474 82.529 9.76551 81.1526C9.64166 80.0663 10.5794 79.1427 11.5595 78.6509C12.5397 78.159 13.6543 77.9007 14.4858 77.1895C15.742 76.1103 16.0286 74.2738 15.9401 72.6143C15.9083 72.0021 15.8198 71.3475 15.4235 70.8804C14.461 69.734 12.6281 70.4417 11.3047 71.1352C9.98135 71.8287 7.95028 72.2109 7.33459 70.8521C6.98782 70.0949 7.3452 69.228 7.55043 68.4212C7.75566 67.6144 7.67782 66.5458 6.90644 66.2344C6.51367 66.0752 6.06075 66.1814 5.67152 66.3583C3.74306 67.2323 2.83367 69.5854 0.926445 70.5089C0.742446 70.6009 0.540753 70.6752 0.3426 70.654C-0.0253995 70.6186 -0.29786 70.2824 -0.414629 69.9321C-0.747244 68.9555 -0.138628 67.9577 -0.304935 66.9492C-0.333243 66.7723 -0.386322 66.5848 -0.531399 66.4751C-0.637553 66.3972 -0.768476 66.3795 -0.899399 66.376C-2.2334 66.3158 -3.34447 67.3632 -4.17247 68.4106C-4.98631 69.4438 -5.70108 70.5549 -6.30262 71.7226L-6.30262 71.7155Z" stroke="#220E6E" stroke-width="0.337637"/>
<path d="M18.5296 79.429C19.6549 77.9004 19.899 75.8941 19.8105 73.9939C19.7221 72.1008 19.3399 70.2184 19.3612 68.3218C19.4107 64.1535 21.5656 60.0665 24.9696 57.6604C26.1444 56.8324 27.6765 56.1849 28.9928 56.7652C31.537 57.8939 30.7691 62.1436 33.0019 63.8102C33.9431 64.5108 35.2382 64.5745 36.3705 64.2632C37.5028 63.9518 38.5113 63.3184 39.5162 62.7098C44.6116 59.6384 50.1139 57.1013 55.9736 56.0752C57.8631 55.7426 59.8446 55.5798 61.674 56.1566C63.5034 56.7333 65.1594 58.1982 65.4708 60.0949C65.7185 61.5952 65.1169 63.1096 64.3774 64.4365C63.2876 66.3968 61.8474 68.1979 60.0039 69.4753C58.1603 70.7527 55.8886 71.4816 53.6559 71.2445C51.4727 71.0145 49.4947 69.907 47.3999 69.2701C45.4537 68.6756 43.3059 68.4952 41.4093 69.2382C39.5162 69.9778 37.9557 71.7859 37.9345 73.817C37.9168 75.5615 38.9713 77.1679 39.0527 78.9124C39.127 80.4799 38.3167 82.0757 36.9791 82.8896C35.6416 83.7034 33.8051 83.6574 32.5419 82.7268C31.3778 81.867 30.7975 80.4091 30.6028 78.9761C30.4082 77.543 30.5391 76.0887 30.5108 74.645C30.4755 72.9041 29.9199 70.8199 28.2462 70.3422C26.6575 69.8858 25.1005 71.2233 24.2832 72.6564C23.3667 74.2522 22.8996 76.1064 22.9562 77.9464C23.0128 79.6731 23.5082 81.3574 23.6038 83.0807C23.6993 84.8039 23.2818 86.7076 21.9159 87.762C20.3767 88.9474 18.0838 88.6502 16.4596 87.5922C14.8319 86.5307 13.7244 84.857 12.6593 83.2399C12.3656 82.7905 11.7889 81.7325 12.5461 81.3787C12.9318 81.1982 13.9473 81.6405 14.4286 81.6122C16.0173 81.5167 17.5813 80.717 18.5296 79.429V79.429Z" stroke="#220E6E" stroke-width="0.337637"/>
<path d="M69.8626 61.2946C70.7614 64.9816 70.2271 69.0898 67.9908 72.1541C65.7545 75.2184 61.7312 77.0195 58.03 76.1844C57.0782 75.9685 56.1582 75.5935 55.1815 75.5298C52.5242 75.3564 50.2702 77.5396 48.9928 79.8785C46.7246 84.0292 46.4451 89.3616 48.8159 93.4591C51.1831 97.5531 56.3528 100.012 60.9032 98.7102C64.7672 97.6062 67.5449 94.227 69.5477 90.7381C71.5504 87.2491 73.072 83.4347 75.7046 80.3987C77.2934 78.5622 79.6535 76.9593 82.0101 77.5538C83.5316 77.9359 84.6781 79.1461 85.7786 80.2607C87.7636 82.2812 89.908 84.199 92.4309 85.4834C94.9538 86.7679 97.9155 87.373 100.654 86.6653C103.453 85.9399 105.778 83.9053 107.353 81.4815C108.927 79.0576 109.815 76.2587 110.498 73.4527C111.967 67.4338 112.494 60.778 109.603 55.2969C108.906 53.977 107.784 52.6218 106.291 52.6218C105.424 52.6254 104.631 53.0924 103.934 53.6055C101.036 55.7392 98.977 58.8035 96.4753 61.3901C95.5022 62.3986 94.4266 63.354 93.1244 63.8777C91.8223 64.4013 90.2547 64.4261 89.0906 63.6441C87.6044 62.6463 87.1515 60.594 87.4841 58.8318C87.8167 57.0697 88.7792 55.5057 89.6213 53.9275C92.3884 48.7401 94.0479 42.7141 92.8944 36.9465C92.5936 35.4497 92.0735 33.9317 91.0013 32.8454C89.9256 31.7626 88.1812 31.2283 86.8189 31.9183C85.3681 32.6543 84.8161 34.4235 84.4977 36.0229C83.6166 40.4708 83.3583 45.23 80.9026 49.0374C80.3046 49.968 79.466 50.8844 78.369 51.0047C77.1978 51.1357 76.1469 50.3324 75.2163 49.6071C73.7726 48.4889 72.2228 47.4415 70.4535 46.9886C67.5768 46.2561 62.7609 48.1917 64.3002 51.8257C64.8345 53.0818 66.2534 54.1186 67.0424 55.2261C68.3411 57.0484 69.3389 59.1078 69.8732 61.284L69.8626 61.2946Z" stroke="#220E6E" stroke-width="0.337637"/>
<path d="M32.8018 55.3497C32.9611 54.4828 33.8351 53.5097 34.5675 54.0016C34.8754 54.2103 34.9886 54.5996 35.1195 54.9499C35.6468 56.3759 36.9772 57.671 38.4917 57.5294C39.3267 57.4516 40.0627 56.9633 40.7669 56.5068C44.4221 54.1325 48.3427 52.1793 52.4403 50.686C53.4523 50.318 54.8181 50.0845 55.4055 50.9833C55.8407 51.645 55.5258 52.5827 54.9349 53.1028C54.3404 53.6265 53.5513 53.8424 52.7941 54.0617C49.1035 55.1339 45.558 56.6837 42.2672 58.6653C40.4697 59.748 38.0246 61.3651 35.8378 60.6857C33.7572 60.0417 32.4197 57.4091 32.8018 55.3497V55.3497Z" stroke="#220E6E" stroke-width="0.337637"/>
<path d="M73.3739 43.3902C74.3328 43.9528 75.2245 44.7525 76.3321 44.8622C78.073 45.0391 79.5202 43.3796 79.9201 41.6776C80.3199 39.9756 80.0085 38.1993 80.051 36.4513C80.1041 34.36 80.6773 32.2865 81.7105 30.4677C82.673 28.7693 84.3184 27.1805 86.2645 27.3079C87.418 27.3857 88.6565 28.0439 89.6402 27.4424C90.4045 26.9753 90.6027 25.8783 90.2382 25.061C89.8737 24.2436 89.0882 23.6845 88.2602 23.3519C86.7634 22.7539 85.0331 22.7857 83.5611 23.4368C81.4558 24.3674 80.0404 26.4339 79.2902 28.6065C78.5365 30.7827 78.3419 33.1003 78.0058 35.3756C77.8076 36.7131 77.4679 38.1851 76.3462 38.9459C74.8282 39.9756 72.6591 39.1865 71.0102 39.9933C70.1079 40.4356 68.3387 42.7568 69.9912 43.2628C70.3945 43.3831 71.0067 42.8842 71.4384 42.8559C72.1036 42.8063 72.8078 43.0576 73.3739 43.3902V43.3902Z" stroke="#220E6E" stroke-width="0.337637"/>
<path d="M94.0958 53.043C94.0109 54.0904 94.6478 55.2935 95.6952 55.3926C96.4913 55.4669 97.1884 54.9114 97.7935 54.3912C99.5415 52.8767 101.289 51.3623 103.037 49.8478C104.099 48.9278 105.454 47.9477 106.781 48.4041C107.397 48.6164 107.867 49.1154 108.434 49.4409C108.996 49.77 109.799 49.8867 110.238 49.4055C110.482 49.133 110.543 48.7403 110.564 48.3794C110.702 46.1041 109.828 43.8572 108.533 41.9818C107.238 40.1064 105.543 38.546 103.844 37.0245C103.289 36.5255 102.715 36.0231 102.015 35.7683C101.314 35.5135 100.451 35.5701 99.9236 36.0974C98.9541 37.0669 99.7007 38.6769 100.309 39.9083C100.95 41.2069 101.378 42.7461 100.826 44.0837C100.012 46.0581 97.7262 45.1381 96.7638 46.8295C95.8509 48.436 94.2479 51.1924 94.0922 53.0466L94.0958 53.043Z" stroke="#220E6E" stroke-width="0.337637"/>
<path d="M0.261215 91.9447C1.18829 93.5087 2.34182 94.9807 3.87397 95.9538C5.40613 96.9268 7.36643 97.3444 9.07905 96.7358C10.4803 96.2404 11.6621 95.101 13.1447 94.9913C14.638 94.8851 15.9932 95.8653 16.9981 96.9764C18.003 98.0874 18.8381 99.3825 20.0553 100.246C21.3256 101.148 22.9923 101.499 24.4996 101.109C26.0106 100.724 27.3198 99.5771 27.8364 98.1122C28.6149 95.9042 27.6099 93.3707 28.3813 91.1627C29.0572 89.2271 31.2262 87.9002 33.2396 88.2859C35.943 88.8025 37.3655 91.697 38.5968 94.1598C40.5359 98.0237 43.2145 101.828 47.2094 103.473C48.5434 104.021 50.1357 104.432 50.7868 105.72C51.6077 107.333 50.4259 109.223 49.1733 110.525C46.2541 113.565 42.3759 115.957 38.1616 116.066C32.4293 116.215 27.3658 112.149 24.075 107.45C23.0878 106.038 22.1749 104.524 20.809 103.484C19.4679 102.461 17.8013 101.983 16.1737 101.53C14.7158 101.12 13.1943 100.709 11.7117 101.01C10.1123 101.336 8.79243 102.45 7.27797 103.066C5.02044 103.979 2.31352 103.692 0.300135 102.316C-0.757863 101.591 -1.61417 100.607 -2.40324 99.5984C-3.75139 97.8751 -4.96509 96.0458 -6.01601 94.1244C-7.03154 92.2808 -7.90908 90.3135 -8.13908 88.2222C-8.36554 86.1275 -7.86308 83.877 -6.40878 82.3519C-5.76478 81.6796 -4.86247 81.1453 -3.94247 81.2869C-2.1414 81.5664 -2.54125 84.3865 -2.24048 85.6993C-1.73802 87.8861 -0.89586 90.0021 0.2506 91.9341L0.261215 91.9447Z" stroke="#220E6E" stroke-width="0.337637"/>
<path d="M7.40101 55.6474C7.86809 55.4209 8.37763 55.244 8.8907 55.3041C10.1256 55.4421 10.8192 56.8009 11.0562 58.0217C11.2933 59.2424 11.3252 60.5906 12.1213 61.5424C13.243 62.8906 15.4404 62.795 16.923 61.8573C18.4056 60.9196 19.361 59.3698 20.3624 57.9297C22.1351 55.3784 24.191 53.0254 26.4804 50.92C28.1116 49.4232 30.2382 47.9618 32.3719 48.5457C33.6174 48.8854 34.5834 49.8726 35.7653 50.3892C38.681 51.6772 42.0142 49.8938 44.4486 47.8344C46.8796 45.7786 49.2503 43.2592 52.3996 42.7921C55.5629 42.3251 58.8785 44.0695 61.9145 43.0575C63.8677 42.4064 65.3751 40.5735 65.6334 38.5318C65.8775 36.6034 65.1415 34.4237 66.242 32.8208C67.3566 31.1895 69.6708 31.1258 71.5886 30.6375C75.0846 29.7458 78.0321 26.5931 78.1878 22.9909C78.34 19.3852 75.2686 15.8043 71.6594 15.868C70.3997 15.8893 69.1789 16.3103 68.0608 16.8765C63.9845 18.9429 61.0758 23.1537 60.5875 27.6971C60.262 30.7189 60.8989 33.9814 59.4694 36.6635C58.7157 38.0754 57.4171 39.1829 55.9026 39.7066C53.6911 40.4674 51.2106 39.9755 48.9779 40.6726C45.7296 41.6846 43.7728 44.8798 41.3667 47.286C40.7333 47.9194 40.0043 48.5351 39.1197 48.6837C38.4191 48.804 37.7008 48.6164 37.0533 48.3298C33.8757 46.9357 31.6394 43.1637 28.1717 43.2981C25.1216 43.4184 23.1436 46.5783 22.2838 49.5046C21.4239 52.4309 21.0028 55.711 18.8373 57.8624C18.2216 58.4781 17.337 58.9876 16.509 58.7187C15.4156 58.3613 15.1573 56.9566 15.0865 55.8101C15.0016 54.4584 14.9131 53.1032 14.8282 51.7515C14.7292 50.2087 14.5735 48.5244 13.4942 47.424C12.4929 46.4014 10.897 46.1501 9.49931 46.4509C8.10162 46.7517 6.85255 47.5195 5.66363 48.3192C3.18671 49.9823 -2.3722 53.9277 -2.0962 57.5227C-1.94405 59.4795 0.0799481 60.3429 1.74302 59.6776C3.91917 58.8107 5.31332 56.6735 7.40809 55.6473L7.40101 55.6474Z" stroke="#220E6E" stroke-width="0.337637"/>
<path d="M16.8145 20.46C9.15733 25.5978 2.88719 32.0307 -1.90388 39.2704C-1.65973 39.5712 -1.30942 39.7799 -0.944961 39.9179C0.481036 40.4664 2.1158 40.1479 3.48872 39.4756C4.86164 38.8033 6.04349 37.8055 7.28195 36.9067C8.9981 35.6647 10.8452 34.6032 12.7807 33.7433C14.4084 33.0215 16.6942 32.6252 17.6532 34.129C18.1415 34.8933 18.0565 35.877 17.9575 36.7829C17.6496 39.5393 17.3453 42.2993 17.0375 45.0558C16.9278 46.0501 16.8676 47.193 17.5718 47.8972C18.6793 49.0047 20.5936 48.0812 21.6304 46.9099C24.3515 43.8208 25.1724 39.2562 28.3534 36.6484C29.1991 35.9584 30.3208 35.4241 31.3576 35.7603C32.5147 36.1389 33.0702 37.4092 33.5904 38.5096C34.245 39.8861 35.0482 41.1918 35.9859 42.3913C38.2257 45.261 40.2462 43.9978 41.2582 41.0821C42.2313 38.269 44.779 36.5352 47.6557 36.1707C49.7859 35.9018 51.9514 35.2153 53.5189 33.6832C55.0829 32.1616 55.3412 29.9076 55.3377 27.8306C55.3342 25.159 55.5783 22.721 57.3157 20.5661C58.9965 18.4749 61.4486 16.7304 63.9892 15.8741C65.4188 15.3929 66.9863 15.3186 68.3345 14.6357C69.7286 13.928 70.6274 12.5126 70.9211 10.9875C53.0129 6.52553 33.3533 9.36337 16.8181 20.4564L16.8145 20.46Z" stroke="#220E6E" stroke-width="0.337637"/>
<path d="M9.18878 43.7825C4.70556 45.1024 1.18126 48.7116 -1.05858 52.8127C-2.06351 54.6527 -2.91981 56.6979 -4.60765 57.9399C-4.96504 58.2053 -5.41442 58.4353 -5.84611 58.3291C-6.32027 58.2159 -6.61396 57.7453 -6.76965 57.2853C-7.13765 56.2096 -7.02088 55.01 -6.61396 53.945C-6.2035 52.8834 -5.52765 51.9457 -4.7775 51.0894C-2.48458 48.4568 0.470028 46.5142 3.18048 44.3133C5.13017 42.7316 6.96309 41.0119 8.66509 39.1613C9.57801 38.1705 10.4874 37.1196 11.694 36.5216C12.9042 35.9272 14.5212 35.9165 15.4518 36.8896C16.2975 37.7707 16.3365 39.133 16.2338 40.3467C16.1277 41.5922 15.9225 42.8236 15.6217 44.0373C15.4023 44.9219 14.9918 46.0967 14.1532 44.9042C13.6048 44.1293 13.5163 43.7082 12.4477 43.5101C11.372 43.3048 10.2362 43.4711 9.19586 43.7754L9.18878 43.7825Z" stroke="#220E6E" stroke-width="0.337637"/>
</g>
<g opacity="0.5">
<path d="M-11.5391 61.9748C-47.4229 81.716 -69.6481 101.705 -65.225 112.533C-59.0999 127.518 -4.24629 119.281 57.2986 94.1325C118.843 68.9845 163.775 36.4517 157.65 21.4662C153.56 11.4593 127.746 11.8096 92.7188 20.6311" stroke="url(#paint14_linear_5680_109116)" stroke-width="0.337637" stroke-miterlimit="10"/>
<path d="M-11.8633 63.1357C-42.7897 80.5663 -61.6711 97.7563 -57.8459 107.108C-52.3365 120.601 -1.65125 112.653 55.3573 89.3595C112.366 66.0656 154.109 36.2468 148.6 22.7545C145.118 14.2338 123.611 14.2622 93.8667 21.3179" stroke="url(#paint15_linear_5680_109116)" stroke-width="0.337637" stroke-miterlimit="10"/>
<path d="M-12.1754 64.311C-37.5641 79.0276 -52.776 93.0506 -49.6586 100.683C-44.8852 112.371 1.05141 104.657 52.9398 83.4542C104.828 62.2516 143.023 35.5927 138.246 23.9086C135.464 17.1076 118.741 16.8741 95.0159 22.0509" stroke="url(#paint16_linear_5680_109116)" stroke-width="0.337637" stroke-miterlimit="10"/>
<path d="M-12.4666 65.5201C-34.4937 78.2481 -47.6144 89.8826 -45.1268 95.9794C-41.1248 105.778 1.70857 97.5434 50.5432 77.5899C99.3779 57.6364 135.718 33.5181 131.716 23.7271C129.54 18.4017 115.878 18.4052 96.0163 22.7257" stroke="url(#paint17_linear_5680_109116)" stroke-width="0.337637" stroke-miterlimit="10"/>
</g>
<path d="M178.105 127.275C193.438 127.275 205.868 114.845 205.868 99.5121C205.868 84.179 193.438 71.749 178.105 71.749C162.772 71.749 150.342 84.179 150.342 99.5121C150.342 114.845 162.772 127.275 178.105 127.275Z" fill="url(#paint18_radial_5680_109116)"/>
<g opacity="0.1">
<path d="M161.658 80.6358C161.423 80.7123 161.191 80.8025 160.964 80.9037C160.234 81.2236 159.952 82.2981 160.657 82.8231C160.961 83.05 161.366 83.0664 161.732 83.1594C162.098 83.2523 162.492 83.5039 162.5 83.8785C162.506 84.1956 162.24 84.4444 162.005 84.6577C161.141 85.4506 160.406 86.4869 160.351 87.6571C160.296 88.8273 161.152 90.0823 162.325 90.1288C162.724 90.1452 163.159 89.9948 163.353 89.6475C163.632 89.1499 163.331 88.45 163.679 87.9988C163.952 87.6434 164.493 87.6434 164.923 87.7774C165.349 87.9141 165.751 88.1574 166.2 88.1848C166.878 88.2285 167.487 87.7719 167.936 87.2579C168.102 87.0692 168.264 86.8532 168.28 86.6017C168.324 85.9892 167.586 85.6721 167.001 85.4971C166.413 85.3194 165.707 84.8546 165.915 84.2749C166.03 83.9523 166.385 83.8046 166.675 83.6242C166.968 83.4465 167.249 83.1102 167.113 82.7985C167.042 82.6399 166.878 82.5415 166.714 82.4813C165.899 82.186 164.955 82.6153 164.13 82.3419C164.05 82.3173 163.968 82.279 163.916 82.2161C163.818 82.1013 163.834 81.9263 163.9 81.7896C164.083 81.4095 164.548 81.2892 164.789 80.9447C164.832 80.8846 164.871 80.8135 164.857 80.7397C164.849 80.6877 164.816 80.644 164.778 80.6057C164.403 80.2038 163.777 80.1956 163.236 80.2666C162.7 80.3377 162.175 80.458 161.661 80.6276L161.658 80.6358Z" fill="url(#paint19_linear_5680_109116)" style="mix-blend-mode:multiply"/>
</g>
<g opacity="0.1">
<path d="M166.742 90.0113C167.51 89.8828 168.158 89.366 168.675 88.7837C169.192 88.2013 169.618 87.5396 170.168 86.9901C171.376 85.7816 173.181 85.1965 174.868 85.4671C175.453 85.5601 176.084 85.8089 176.306 86.3585C176.73 87.4166 175.289 88.4474 175.464 89.5738C175.54 90.0496 175.901 90.4378 176.325 90.6702C176.746 90.9054 177.225 91.0065 177.692 91.1132C180.068 91.6682 182.411 92.5021 184.424 93.8801C185.074 94.3231 185.703 94.8426 186.075 95.537C186.447 96.2315 186.512 97.1338 186.061 97.7818C185.703 98.2931 185.093 98.5638 184.497 98.7442C183.617 99.0067 182.679 99.1243 181.771 98.9711C180.864 98.818 179.989 98.3806 179.401 97.6724C178.827 96.9779 178.562 96.0893 178.13 95.3019C177.728 94.5719 177.151 93.902 176.382 93.5767C175.614 93.2513 174.638 93.336 174.053 93.9266C173.547 94.4324 173.397 95.2062 172.921 95.7421C172.494 96.2233 171.797 96.4612 171.171 96.3163C170.545 96.1714 170.017 95.6327 169.916 94.9957C169.823 94.4106 170.066 93.8173 170.419 93.3388C170.772 92.8603 171.229 92.4748 171.633 92.0428C172.12 91.5233 172.555 90.7495 172.199 90.1316C171.863 89.5438 171.023 89.4918 170.37 89.675C169.643 89.8828 168.976 90.2929 168.467 90.8507C167.989 91.3729 167.652 92.01 167.185 92.5431C166.717 93.0763 166.053 93.5165 165.347 93.4345C164.554 93.3415 163.969 92.5978 163.794 91.8213C163.619 91.0448 163.772 90.2355 163.926 89.4535C163.967 89.2375 164.103 88.7618 164.423 88.8739C164.59 88.9313 164.759 89.3524 164.91 89.4809C165.405 89.9101 166.091 90.1207 166.739 90.014L166.742 90.0113Z" fill="url(#paint20_linear_5680_109116)" style="mix-blend-mode:multiply"/>
</g>
<g opacity="0.1">
<path d="M187.005 99.3872C186.212 100.727 184.88 101.78 183.346 102.039C181.812 102.299 180.115 101.673 179.267 100.371C179.051 100.035 178.884 99.6606 178.619 99.3626C177.889 98.5505 176.601 98.5478 175.554 98.8677C173.7 99.4364 172.09 100.921 171.617 102.805C171.141 104.686 171.953 106.887 173.662 107.808C175.114 108.593 176.896 108.391 178.482 107.942C180.071 107.491 181.607 106.808 183.251 106.668C184.243 106.583 185.394 106.789 185.916 107.639C186.253 108.188 186.245 108.869 186.247 109.512C186.253 110.671 186.332 111.849 186.704 112.949C187.076 114.048 187.773 115.073 188.782 115.65C189.813 116.238 191.076 116.309 192.23 116.046C193.383 115.784 194.447 115.218 195.453 114.589C197.608 113.244 199.669 111.439 200.388 109.003C200.561 108.415 200.623 107.696 200.181 107.27C199.926 107.021 199.56 106.933 199.204 106.884C197.742 106.679 196.26 106.991 194.786 107.032C194.212 107.048 193.621 107.021 193.091 106.802C192.56 106.583 192.09 106.141 191.973 105.58C191.822 104.861 192.276 104.128 192.878 103.707C193.479 103.286 194.209 103.103 194.909 102.879C197.209 102.149 199.42 100.855 200.733 98.8321C201.072 98.3072 201.356 97.7111 201.351 97.0878C201.345 96.4589 200.987 95.8054 200.388 95.6168C199.751 95.4172 199.081 95.7808 198.532 96.1609C197.001 97.2163 195.56 98.5369 193.75 98.9524C193.31 99.0536 192.798 99.0837 192.443 98.8048C192.063 98.5068 191.984 97.9736 191.918 97.4924C191.817 96.7515 191.661 95.9996 191.27 95.3625C190.636 94.3235 188.667 93.5142 188.079 95.0207C187.874 95.543 187.994 96.2538 187.91 96.8034C187.77 97.7084 187.472 98.6025 187.005 99.3926V99.3872Z" fill="url(#paint21_linear_5680_109116)" style="mix-blend-mode:multiply"/>
</g>
<g opacity="0.1">
<path d="M177.826 87.0258C178.121 86.818 178.657 86.7797 178.728 87.1351C178.758 87.2855 178.682 87.4332 178.619 87.5726C178.364 88.144 178.386 88.9041 178.87 89.2951C179.138 89.5139 179.494 89.5795 179.833 89.6451C181.585 89.9923 183.297 90.5446 184.926 91.2774C185.328 91.4606 185.796 91.7805 185.711 92.2152C185.651 92.5324 185.29 92.7183 184.965 92.7046C184.642 92.6882 184.347 92.5242 184.06 92.3738C182.668 91.6328 181.183 91.0723 179.652 90.7114C178.816 90.5146 177.632 90.2876 177.186 89.4646C176.76 88.6772 177.12 87.5234 177.823 87.0285L177.826 87.0258Z" fill="url(#paint22_linear_5680_109116)" style="mix-blend-mode:multiply"/>
</g>
<g opacity="0.1">
<path d="M193.165 95.135C193.288 95.5752 193.318 96.0646 193.614 96.4146C194.076 96.9641 194.975 96.8903 195.579 96.5048C196.184 96.1193 196.602 95.5096 197.116 95.0065C197.731 94.4077 198.491 93.9648 199.317 93.7242C200.085 93.5027 201.023 93.5054 201.559 94.1015C201.873 94.4542 202.051 95.0038 202.51 95.1076C202.866 95.1897 203.24 94.9245 203.366 94.58C203.495 94.2382 203.421 93.8472 203.276 93.5109C203.008 92.9094 202.491 92.42 201.873 92.1903C200.99 91.8595 199.981 92.0645 199.139 92.4856C198.294 92.9094 197.575 93.5355 196.823 94.1069C196.383 94.4432 195.858 94.7768 195.314 94.6811C194.576 94.5499 194.16 93.6968 193.449 93.4617C193.058 93.3332 191.875 93.5109 192.214 94.1288C192.296 94.2819 192.618 94.3093 192.755 94.4241C192.966 94.6018 193.099 94.878 193.171 95.135L193.165 95.135Z" fill="url(#paint23_linear_5680_109116)" style="mix-blend-mode:multiply"/>
</g>
<g opacity="0.1">
<path d="M196.484 103.9C196.158 104.182 196.002 104.721 196.281 105.049C196.492 105.298 196.858 105.336 197.183 105.355C198.129 105.41 199.078 105.467 200.024 105.522C200.598 105.555 201.279 105.656 201.536 106.17C201.657 106.41 201.651 106.689 201.722 106.946C201.793 107.203 201.996 107.471 202.261 107.452C202.411 107.444 202.54 107.343 202.649 107.244C203.344 106.615 203.729 105.705 203.885 104.784C204.041 103.862 203.989 102.919 203.929 101.984C203.91 101.68 203.885 101.366 203.751 101.09C203.617 100.814 203.349 100.584 203.043 100.589C202.482 100.598 202.239 101.284 202.067 101.817C201.883 102.383 201.566 102.957 201.022 103.19C200.218 103.534 199.811 102.613 199.043 102.834C198.315 103.047 197.055 103.395 196.478 103.895L196.484 103.9Z" fill="url(#paint24_linear_5680_109116)" style="mix-blend-mode:multiply"/>
</g>
<g opacity="0.1">
<path d="M157.792 88.4556C157.614 89.1801 157.535 89.943 157.705 90.6703C157.877 91.3948 158.331 92.0784 159.009 92.39C159.564 92.6443 160.236 92.6498 160.701 93.0435C161.171 93.4372 161.286 94.1153 161.264 94.7278C161.243 95.3402 161.114 95.9609 161.226 96.5651C161.341 97.194 161.729 97.7736 162.282 98.0908C162.834 98.4079 163.547 98.4489 164.119 98.1673C164.98 97.7435 165.409 96.7128 166.268 96.2808C167.02 95.9062 168.037 96.1358 168.518 96.8303C169.163 97.7545 168.753 99.0122 168.409 100.089C167.873 101.779 167.569 103.663 168.272 105.29C168.507 105.831 168.854 106.408 168.682 106.974C168.461 107.682 167.572 107.898 166.831 107.923C165.103 107.977 163.28 107.57 162.014 106.397C160.288 104.798 159.966 102.156 160.346 99.8352C160.458 99.1379 160.627 98.4325 160.521 97.7353C160.42 97.0491 160.067 96.4339 159.72 95.8351C159.408 95.2992 159.08 94.7414 158.558 94.4051C157.994 94.0442 157.286 93.9923 156.668 93.7407C155.744 93.3634 155.031 92.5021 154.834 91.5233C154.73 91.0093 154.763 90.4734 154.82 89.9512C154.918 89.0598 155.085 88.1767 155.323 87.31C155.553 86.4788 155.859 85.6476 156.389 84.9695C156.923 84.2887 157.716 83.7747 158.58 83.7419C158.96 83.7282 159.381 83.8321 159.608 84.1356C160.056 84.7317 159.132 85.448 158.842 85.9183C158.361 86.7057 158.005 87.5643 157.787 88.4611L157.792 88.4556Z" fill="url(#paint25_linear_5680_109116)" style="mix-blend-mode:multiply"/>
</g>
<g opacity="0.1">
<path d="M170.283 79.8431C170.485 79.9087 170.685 80.0044 170.819 80.1712C171.141 80.5649 170.958 81.1637 170.677 81.5875C170.395 82.0113 170.02 82.4187 169.982 82.9272C169.927 83.6436 170.597 84.2478 171.303 84.3955C172.008 84.5431 172.73 84.3626 173.438 84.2287C174.69 83.9881 175.967 83.8869 177.241 83.9197C178.149 83.9471 179.193 84.1275 179.653 84.9095C179.921 85.3688 179.921 85.9321 180.12 86.4215C180.61 87.6327 182.097 88.0647 183.399 88.1577C184.703 88.2479 186.119 88.1877 187.177 88.956C188.241 89.7243 188.714 91.1871 189.895 91.7558C190.655 92.1222 191.623 92.0183 192.282 91.4906C192.905 90.993 193.313 90.1427 194.095 89.9895C194.888 89.831 195.585 90.4735 196.29 90.8781C197.573 91.6191 199.339 91.5371 200.419 90.5227C201.496 89.5111 201.619 87.578 200.542 86.5609C200.167 86.2082 199.689 85.9813 199.194 85.8254C197.408 85.2649 195.347 85.6696 193.903 86.8617C192.941 87.6546 192.194 88.7947 191.008 89.172C190.382 89.3716 189.684 89.3251 189.091 89.0435C188.224 88.6361 187.637 87.7803 186.781 87.3456C185.537 86.714 184.049 87.0913 182.652 87.105C182.286 87.1105 181.895 87.0804 181.591 86.8699C181.351 86.7058 181.195 86.4461 181.086 86.1727C180.552 84.8521 180.976 83.1049 179.918 82.1507C178.988 81.3141 177.504 81.6722 176.413 82.2874C175.322 82.9026 174.261 83.7447 173.009 83.7557C172.651 83.7584 172.243 83.6572 172.079 83.3401C171.863 82.9217 172.186 82.4351 172.495 82.0769C172.856 81.6558 173.219 81.232 173.58 80.811C173.993 80.3325 174.431 79.7911 174.428 79.1595C174.425 78.5717 174.031 78.0413 173.534 77.7296C173.036 77.4179 172.451 77.2866 171.874 77.18C170.668 76.9585 167.91 76.5238 166.958 77.6612C166.444 78.2791 166.791 79.1131 167.469 79.3919C168.358 79.7611 169.381 79.5314 170.288 79.8321L170.283 79.8431Z" fill="url(#paint26_linear_5680_109116)" style="mix-blend-mode:multiply"/>
</g>
<g opacity="0.1">
<path d="M183.124 72.2064C179.405 71.5228 175.719 71.6158 172.242 72.3704C172.228 72.5263 172.272 72.6903 172.335 72.8352C172.597 73.4039 173.169 73.7785 173.765 73.9754C174.361 74.1722 174.995 74.216 175.613 74.3089C176.471 74.4347 177.319 74.6534 178.134 74.9542C178.82 75.2085 179.602 75.7444 179.454 76.4607C179.378 76.8271 179.072 77.0896 178.784 77.3275C177.904 78.0493 177.024 78.7711 176.143 79.4929C175.829 79.7527 175.482 80.0725 175.487 80.4827C175.495 81.1252 176.321 81.4041 176.961 81.3549C178.645 81.2291 180.193 80.119 181.874 80.2694C182.317 80.3077 182.804 80.4717 183.009 80.8682C183.238 81.3111 183.039 81.8443 182.878 82.3173C182.675 82.9079 182.538 83.5203 182.47 84.141C182.303 85.6256 183.26 85.8334 184.392 85.2647C185.483 84.7151 186.727 84.9366 187.676 85.6557C188.379 86.1889 189.21 86.6045 190.112 86.6045C191.006 86.6072 191.728 86.0166 192.321 85.4069C193.084 84.6222 193.855 83.9769 194.982 83.8402C196.073 83.7062 197.292 83.8976 198.284 84.3761C198.842 84.6441 199.323 85.0706 199.914 85.2565C200.527 85.4479 201.194 85.2893 201.721 84.9257C197.738 78.4867 191.154 73.691 183.124 72.2118L183.124 72.2064Z" fill="url(#paint27_linear_5680_109116)" style="mix-blend-mode:multiply"/>
</g>
<g opacity="0.1">
<path d="M174.205 76.8709C172.51 75.9741 170.443 76.0233 168.611 76.5865C167.788 76.8408 166.954 77.1935 166.098 77.0759C165.915 77.0513 165.718 76.9912 165.622 76.8353C165.516 76.6685 165.565 76.4443 165.65 76.2666C165.849 75.8428 166.227 75.5257 166.65 75.3315C167.074 75.1374 167.542 75.0581 168.006 75.0198C169.434 74.905 170.855 75.1784 172.283 75.3097C173.308 75.4054 174.339 75.4245 175.367 75.3698C175.916 75.3397 176.485 75.2905 177.013 75.4628C177.538 75.6323 178.016 76.0944 178.011 76.6467C178.008 77.147 177.628 77.5599 177.251 77.888C176.862 78.2215 176.45 78.525 176.015 78.7957C175.698 78.9926 175.241 79.2195 175.334 78.6289C175.397 78.2434 175.49 78.0958 175.233 77.7294C174.976 77.363 174.593 77.0841 174.199 76.8763L174.205 76.8709Z" fill="url(#paint28_linear_5680_109116)" style="mix-blend-mode:multiply"/>
</g>
<g opacity="0.5">
<path d="M178.105 127.275C193.438 127.275 205.868 114.845 205.868 99.5121C205.868 84.179 193.438 71.749 178.105 71.749C162.772 71.749 150.342 84.179 150.342 99.5121C150.342 114.845 162.772 127.275 178.105 127.275Z" fill="url(#paint29_radial_5680_109116)" style="mix-blend-mode:screen"/>
</g>
<g opacity="0.2">
<path d="M161.658 80.6358C161.423 80.7123 161.191 80.8025 160.964 80.9037C160.234 81.2236 159.952 82.2981 160.657 82.8231C160.961 83.05 161.366 83.0664 161.732 83.1594C162.098 83.2523 162.492 83.5039 162.5 83.8785C162.506 84.1956 162.24 84.4444 162.005 84.6577C161.141 85.4506 160.406 86.4869 160.351 87.6571C160.296 88.8273 161.152 90.0823 162.325 90.1288C162.724 90.1452 163.159 89.9948 163.353 89.6475C163.632 89.1499 163.331 88.45 163.679 87.9988C163.952 87.6434 164.493 87.6434 164.923 87.7774C165.349 87.9141 165.751 88.1574 166.2 88.1848C166.878 88.2285 167.487 87.7719 167.936 87.2579C168.102 87.0692 168.264 86.8532 168.28 86.6017C168.324 85.9892 167.586 85.6721 167.001 85.4971C166.413 85.3194 165.707 84.8546 165.915 84.2749C166.03 83.9523 166.385 83.8046 166.675 83.6242C166.968 83.4465 167.249 83.1102 167.113 82.7985C167.042 82.6399 166.878 82.5415 166.714 82.4813C165.899 82.186 164.955 82.6153 164.13 82.3419C164.05 82.3173 163.968 82.279 163.916 82.2161C163.818 82.1013 163.834 81.9263 163.9 81.7896C164.083 81.4095 164.548 81.2892 164.789 80.9447C164.832 80.8846 164.871 80.8135 164.857 80.7397C164.849 80.6877 164.816 80.644 164.778 80.6057C164.403 80.2038 163.777 80.1956 163.236 80.2666C162.7 80.3377 162.175 80.458 161.661 80.6276L161.658 80.6358Z" stroke="#220E6E" stroke-width="0.116462"/>
<path d="M166.742 90.0113C167.51 89.8828 168.158 89.366 168.675 88.7837C169.192 88.2013 169.618 87.5396 170.168 86.9901C171.376 85.7816 173.181 85.1965 174.868 85.4671C175.453 85.5601 176.084 85.8089 176.306 86.3585C176.73 87.4166 175.289 88.4474 175.464 89.5738C175.54 90.0496 175.901 90.4378 176.325 90.6702C176.746 90.9054 177.225 91.0065 177.692 91.1132C180.068 91.6682 182.411 92.5021 184.424 93.8801C185.074 94.3231 185.703 94.8426 186.075 95.537C186.447 96.2315 186.512 97.1338 186.061 97.7818C185.703 98.2931 185.093 98.5638 184.497 98.7442C183.617 99.0067 182.679 99.1243 181.771 98.9711C180.864 98.818 179.989 98.3806 179.401 97.6724C178.827 96.9779 178.562 96.0893 178.13 95.3019C177.728 94.5719 177.151 93.902 176.382 93.5767C175.614 93.2513 174.638 93.336 174.053 93.9266C173.547 94.4324 173.397 95.2062 172.921 95.7421C172.494 96.2233 171.797 96.4612 171.171 96.3163C170.545 96.1714 170.017 95.6327 169.916 94.9957C169.823 94.4106 170.066 93.8173 170.419 93.3388C170.772 92.8603 171.229 92.4748 171.633 92.0428C172.12 91.5233 172.555 90.7495 172.199 90.1316C171.863 89.5438 171.023 89.4918 170.37 89.675C169.643 89.8828 168.976 90.2929 168.467 90.8507C167.989 91.3729 167.652 92.01 167.185 92.5431C166.717 93.0763 166.053 93.5165 165.347 93.4345C164.554 93.3415 163.969 92.5978 163.794 91.8213C163.619 91.0448 163.772 90.2355 163.926 89.4535C163.967 89.2375 164.103 88.7618 164.423 88.8739C164.59 88.9313 164.759 89.3524 164.91 89.4809C165.405 89.9101 166.091 90.1207 166.739 90.014L166.742 90.0113Z" stroke="#220E6E" stroke-width="0.116462"/>
<path d="M187.005 99.3872C186.212 100.727 184.88 101.78 183.346 102.039C181.812 102.299 180.115 101.673 179.267 100.371C179.051 100.035 178.884 99.6606 178.619 99.3626C177.889 98.5505 176.601 98.5478 175.554 98.8677C173.7 99.4364 172.09 100.921 171.617 102.805C171.141 104.686 171.953 106.887 173.662 107.808C175.114 108.593 176.896 108.391 178.482 107.942C180.071 107.491 181.607 106.808 183.251 106.668C184.243 106.583 185.394 106.789 185.916 107.639C186.253 108.188 186.245 108.869 186.247 109.512C186.253 110.671 186.332 111.849 186.704 112.949C187.076 114.048 187.773 115.073 188.782 115.65C189.813 116.238 191.076 116.309 192.23 116.046C193.383 115.784 194.447 115.218 195.453 114.589C197.608 113.244 199.669 111.439 200.388 109.003C200.561 108.415 200.623 107.696 200.181 107.27C199.926 107.021 199.56 106.933 199.204 106.884C197.742 106.679 196.26 106.991 194.786 107.032C194.212 107.048 193.621 107.021 193.091 106.802C192.56 106.583 192.09 106.141 191.973 105.58C191.822 104.861 192.276 104.128 192.878 103.707C193.479 103.286 194.209 103.103 194.909 102.879C197.209 102.149 199.42 100.855 200.733 98.8321C201.072 98.3072 201.356 97.7111 201.351 97.0878C201.345 96.4589 200.987 95.8054 200.388 95.6168C199.751 95.4172 199.081 95.7808 198.532 96.1609C197.001 97.2163 195.56 98.5369 193.75 98.9524C193.31 99.0536 192.798 99.0837 192.443 98.8048C192.063 98.5068 191.984 97.9736 191.918 97.4924C191.817 96.7515 191.661 95.9996 191.27 95.3625C190.636 94.3235 188.667 93.5142 188.079 95.0207C187.874 95.543 187.994 96.2538 187.91 96.8034C187.77 97.7084 187.472 98.6025 187.005 99.3926V99.3872Z" stroke="#220E6E" stroke-width="0.116462"/>
<path d="M177.826 87.0258C178.121 86.818 178.657 86.7797 178.728 87.1351C178.758 87.2855 178.682 87.4332 178.619 87.5726C178.364 88.144 178.386 88.9041 178.87 89.2951C179.138 89.5139 179.494 89.5795 179.833 89.6451C181.585 89.9923 183.297 90.5446 184.926 91.2774C185.328 91.4606 185.796 91.7805 185.711 92.2152C185.651 92.5324 185.29 92.7183 184.965 92.7046C184.642 92.6882 184.347 92.5242 184.06 92.3738C182.668 91.6328 181.183 91.0723 179.652 90.7114C178.816 90.5146 177.632 90.2876 177.186 89.4646C176.76 88.6772 177.12 87.5234 177.823 87.0285L177.826 87.0258Z" stroke="#220E6E" stroke-width="0.116462"/>
<path d="M193.165 95.135C193.288 95.5752 193.318 96.0646 193.614 96.4146C194.076 96.9641 194.975 96.8903 195.579 96.5048C196.184 96.1193 196.602 95.5096 197.116 95.0065C197.731 94.4077 198.491 93.9648 199.317 93.7242C200.085 93.5027 201.023 93.5054 201.559 94.1015C201.873 94.4542 202.051 95.0038 202.51 95.1076C202.866 95.1897 203.24 94.9245 203.366 94.58C203.495 94.2382 203.421 93.8472 203.276 93.5109C203.008 92.9094 202.491 92.42 201.873 92.1903C200.99 91.8595 199.981 92.0645 199.139 92.4856C198.294 92.9094 197.575 93.5355 196.823 94.1069C196.383 94.4432 195.858 94.7768 195.314 94.6811C194.576 94.5499 194.16 93.6968 193.449 93.4617C193.058 93.3332 191.875 93.5109 192.214 94.1288C192.296 94.2819 192.618 94.3093 192.755 94.4241C192.966 94.6018 193.099 94.878 193.171 95.135L193.165 95.135Z" stroke="#220E6E" stroke-width="0.116462"/>
<path d="M196.484 103.9C196.158 104.182 196.002 104.721 196.281 105.049C196.492 105.298 196.858 105.336 197.183 105.355C198.129 105.41 199.078 105.467 200.024 105.522C200.598 105.555 201.279 105.656 201.536 106.17C201.657 106.41 201.651 106.689 201.722 106.946C201.793 107.203 201.996 107.471 202.261 107.452C202.411 107.444 202.54 107.343 202.649 107.244C203.344 106.615 203.729 105.705 203.885 104.784C204.041 103.862 203.989 102.919 203.929 101.984C203.91 101.68 203.885 101.366 203.751 101.09C203.617 100.814 203.349 100.584 203.043 100.589C202.482 100.598 202.239 101.284 202.067 101.817C201.883 102.383 201.566 102.957 201.022 103.19C200.218 103.534 199.811 102.613 199.043 102.834C198.315 103.047 197.055 103.395 196.478 103.895L196.484 103.9Z" stroke="#220E6E" stroke-width="0.116462"/>
<path d="M157.792 88.4556C157.614 89.1801 157.535 89.943 157.705 90.6703C157.877 91.3948 158.331 92.0784 159.009 92.39C159.564 92.6443 160.236 92.6498 160.701 93.0435C161.171 93.4372 161.286 94.1153 161.264 94.7278C161.243 95.3402 161.114 95.9609 161.226 96.5651C161.341 97.194 161.729 97.7736 162.282 98.0908C162.834 98.4079 163.547 98.4489 164.119 98.1673C164.98 97.7435 165.409 96.7128 166.268 96.2808C167.02 95.9062 168.037 96.1358 168.518 96.8303C169.163 97.7545 168.753 99.0122 168.409 100.089C167.873 101.779 167.569 103.663 168.272 105.29C168.507 105.831 168.854 106.408 168.682 106.974C168.461 107.682 167.572 107.898 166.831 107.923C165.103 107.977 163.28 107.57 162.014 106.397C160.288 104.798 159.966 102.156 160.346 99.8352C160.458 99.1379 160.627 98.4325 160.521 97.7353C160.42 97.0491 160.067 96.4339 159.72 95.8351C159.408 95.2992 159.08 94.7414 158.558 94.4051C157.994 94.0442 157.286 93.9923 156.668 93.7407C155.744 93.3634 155.031 92.5021 154.834 91.5233C154.73 91.0093 154.763 90.4734 154.82 89.9512C154.918 89.0598 155.085 88.1767 155.323 87.31C155.553 86.4788 155.859 85.6476 156.389 84.9695C156.923 84.2887 157.716 83.7747 158.58 83.7419C158.96 83.7282 159.381 83.8321 159.608 84.1356C160.056 84.7317 159.132 85.448 158.842 85.9183C158.361 86.7057 158.005 87.5643 157.787 88.4611L157.792 88.4556Z" stroke="#220E6E" stroke-width="0.116462"/>
<path d="M170.283 79.8431C170.485 79.9087 170.685 80.0044 170.819 80.1712C171.141 80.5649 170.958 81.1637 170.677 81.5875C170.395 82.0113 170.02 82.4187 169.982 82.9272C169.927 83.6436 170.597 84.2478 171.303 84.3955C172.008 84.5431 172.73 84.3626 173.438 84.2287C174.69 83.9881 175.967 83.8869 177.241 83.9197C178.149 83.9471 179.193 84.1275 179.653 84.9095C179.921 85.3688 179.921 85.9321 180.12 86.4215C180.61 87.6327 182.097 88.0647 183.399 88.1577C184.703 88.2479 186.119 88.1877 187.177 88.956C188.241 89.7243 188.714 91.1871 189.895 91.7558C190.655 92.1222 191.623 92.0183 192.282 91.4906C192.905 90.993 193.313 90.1427 194.095 89.9895C194.888 89.831 195.585 90.4735 196.29 90.8781C197.573 91.6191 199.339 91.5371 200.419 90.5227C201.496 89.5111 201.619 87.578 200.542 86.5609C200.167 86.2082 199.689 85.9813 199.194 85.8254C197.408 85.2649 195.347 85.6696 193.903 86.8617C192.941 87.6546 192.194 88.7947 191.008 89.172C190.382 89.3716 189.684 89.3251 189.091 89.0435C188.224 88.6361 187.637 87.7803 186.781 87.3456C185.537 86.714 184.049 87.0913 182.652 87.105C182.286 87.1105 181.895 87.0804 181.591 86.8699C181.351 86.7058 181.195 86.4461 181.086 86.1727C180.552 84.8521 180.976 83.1049 179.918 82.1507C178.988 81.3141 177.504 81.6722 176.413 82.2874C175.322 82.9026 174.261 83.7447 173.009 83.7557C172.651 83.7584 172.243 83.6572 172.079 83.3401C171.863 82.9217 172.186 82.4351 172.495 82.0769C172.856 81.6558 173.219 81.232 173.58 80.811C173.993 80.3325 174.431 79.7911 174.428 79.1595C174.425 78.5717 174.031 78.0413 173.534 77.7296C173.036 77.4179 172.451 77.2866 171.874 77.18C170.668 76.9585 167.91 76.5238 166.958 77.6612C166.444 78.2791 166.791 79.1131 167.469 79.3919C168.358 79.7611 169.381 79.5314 170.288 79.8321L170.283 79.8431Z" stroke="#220E6E" stroke-width="0.116462"/>
<path d="M183.124 72.2064C179.405 71.5228 175.719 71.6158 172.242 72.3704C172.228 72.5263 172.272 72.6903 172.335 72.8352C172.597 73.4039 173.169 73.7785 173.765 73.9754C174.361 74.1722 174.995 74.216 175.613 74.3089C176.471 74.4347 177.319 74.6534 178.134 74.9542C178.82 75.2085 179.602 75.7444 179.454 76.4607C179.378 76.8271 179.072 77.0896 178.784 77.3275C177.904 78.0493 177.024 78.7711 176.143 79.4929C175.829 79.7527 175.482 80.0725 175.487 80.4827C175.495 81.1252 176.321 81.4041 176.961 81.3549C178.645 81.2291 180.193 80.119 181.874 80.2694C182.317 80.3077 182.804 80.4717 183.009 80.8682C183.238 81.3111 183.039 81.8443 182.878 82.3173C182.675 82.9079 182.538 83.5203 182.47 84.141C182.303 85.6256 183.26 85.8334 184.392 85.2647C185.483 84.7151 186.727 84.9366 187.676 85.6557C188.379 86.1889 189.21 86.6045 190.112 86.6045C191.006 86.6072 191.728 86.0166 192.321 85.4069C193.084 84.6222 193.855 83.9769 194.982 83.8402C196.073 83.7062 197.292 83.8976 198.284 84.3761C198.842 84.6441 199.323 85.0706 199.914 85.2565C200.527 85.4479 201.194 85.2893 201.721 84.9257C197.738 78.4867 191.154 73.691 183.124 72.2118L183.124 72.2064Z" stroke="#220E6E" stroke-width="0.116462"/>
<path d="M174.205 76.8709C172.51 75.9741 170.443 76.0233 168.611 76.5865C167.788 76.8408 166.954 77.1935 166.098 77.0759C165.915 77.0513 165.718 76.9912 165.622 76.8353C165.516 76.6685 165.565 76.4443 165.65 76.2666C165.849 75.8428 166.227 75.5257 166.65 75.3315C167.074 75.1374 167.542 75.0581 168.006 75.0198C169.434 74.905 170.855 75.1784 172.283 75.3097C173.308 75.4054 174.339 75.4245 175.367 75.3698C175.916 75.3397 176.485 75.2905 177.013 75.4628C177.538 75.6323 178.016 76.0944 178.011 76.6467C178.008 77.147 177.628 77.5599 177.251 77.888C176.862 78.2215 176.45 78.525 176.015 78.7957C175.698 78.9926 175.241 79.2195 175.334 78.6289C175.397 78.2434 175.49 78.0958 175.233 77.7294C174.976 77.363 174.593 77.0841 174.199 76.8763L174.205 76.8709Z" stroke="#220E6E" stroke-width="0.116462"/>
</g>
<g opacity="0.5">
<path d="M162.911 76.2752C146.725 71.7966 134.473 71.3018 132.674 75.7475C130.18 81.8993 148.644 95.1901 173.916 105.43C199.188 115.669 221.695 118.983 224.189 112.831C225.854 108.721 218.176 101.432 205.364 93.9953" stroke="url(#paint30_linear_5680_109116)" stroke-width="0.291155" stroke-miterlimit="10"/>
<path d="M162.485 76.5212C148.412 72.7836 137.948 72.4254 136.39 76.2642C134.145 81.8063 151.299 93.9843 174.712 103.469C198.124 112.954 218.915 116.153 221.16 110.611C222.576 107.111 216.252 100.962 205.501 94.5147" stroke="url(#paint31_linear_5680_109116)" stroke-width="0.291155" stroke-miterlimit="10"/>
<path d="M162.058 76.7781C150.388 73.8306 141.907 73.59 140.638 76.7234C138.694 81.5218 154.388 92.4092 175.693 101.044C196.998 109.678 215.847 112.784 217.791 107.986C218.923 105.191 214.078 100.336 205.629 95.0641" stroke="url(#paint32_linear_5680_109116)" stroke-width="0.291155" stroke-miterlimit="10"/>
<path d="M161.626 77.0518C151.516 74.4817 144.327 74.14 143.316 76.6444C141.686 80.6691 156.617 90.5148 176.672 98.638C196.725 106.764 214.3 110.089 215.93 106.064C216.815 103.877 212.802 99.9668 205.734 95.5457" stroke="url(#paint33_linear_5680_109116)" stroke-width="0.291155" stroke-miterlimit="10"/>
</g>
<path d="M77.5731 117.43L96.2792 109.796C96.4894 109.71 96.5907 109.47 96.5044 109.256C96.4181 109.046 96.1779 108.945 95.964 109.031L77.2579 116.664C77.0478 116.751 76.9465 116.991 77.0328 117.205C77.1191 117.415 77.3592 117.516 77.5731 117.43Z" fill="url(#paint34_linear_5680_109116)"/>
<path style="mix-blend-mode:screen" d="M34.5731 111.43L53.2792 103.796C53.4894 103.71 53.5907 103.47 53.5044 103.256C53.4181 103.046 53.1779 102.945 52.964 103.031L34.2579 110.664C34.0478 110.751 33.9465 110.991 34.0328 111.205C34.1191 111.415 34.3592 111.516 34.5731 111.43Z" fill="url(#paint35_linear_5680_109116)"/>
<path style="mix-blend-mode:screen" d="M206.573 67.4296L225.279 59.796C225.489 59.7098 225.591 59.4697 225.504 59.2559C225.418 59.0458 225.178 58.9445 224.964 59.0308L206.258 66.6644C206.048 66.7507 205.946 66.9907 206.033 67.2045C206.119 67.4146 206.359 67.5159 206.573 67.4296V67.4296Z" fill="url(#paint36_linear_5680_109116)"/>
<path d="M152.565 61.6569L160.855 58.2733C161.065 58.1871 161.166 57.947 161.08 57.7332C160.993 57.5231 160.753 57.4218 160.539 57.5081L152.25 60.8916C152.04 60.9779 151.939 61.218 152.025 61.4318C152.111 61.6419 152.351 61.7431 152.565 61.6569Z" fill="url(#paint37_linear_5680_109116)"/>
<path style="mix-blend-mode:lighten" opacity="0.5" d="M167.573 27.4296L186.279 19.796C186.489 19.7098 186.591 19.4697 186.504 19.2559C186.418 19.0458 186.178 18.9445 185.964 19.0308L167.258 26.6644C167.048 26.7507 166.946 26.9907 167.033 27.2045C167.119 27.4146 167.359 27.5159 167.573 27.4296V27.4296Z" fill="url(#paint38_linear_5680_109116)"/>
<path style="mix-blend-mode:lighten" opacity="0.5" d="M201.573 39.4296L220.279 31.796C220.489 31.7098 220.591 31.4697 220.504 31.2559C220.418 31.0458 220.178 30.9445 219.964 31.0308L201.258 38.6644C201.048 38.7507 200.946 38.9907 201.033 39.2045C201.119 39.4146 201.359 39.5159 201.573 39.4296Z" fill="url(#paint39_linear_5680_109116)"/>
</g>
<defs>
<linearGradient id="paint0_linear_5680_109116" x1="120" y1="0.000488281" x2="120" y2="127.591" gradientUnits="userSpaceOnUse">
<stop stop-color="#010B0C" stop-opacity="0"/>
<stop offset="0.775914" stop-color="#000020"/>
</linearGradient>
<linearGradient id="paint1_linear_5680_109116" x1="-6.11111" y1="-13.6662" x2="128.105" y2="140.921" gradientUnits="userSpaceOnUse">
<stop stop-color="#E6007A"/>
<stop offset="0.239694" stop-color="#703AC2"/>
<stop offset="0.495059" stop-color="#0070EB"/>
<stop offset="0.791212" stop-color="#0297FB"/>
<stop offset="1" stop-color="#0AE2FF"/>
</linearGradient>
<radialGradient id="paint2_radial_5680_109116" cx="0" cy="0" r="1" gradientUnits="userSpaceOnUse" gradientTransform="translate(43.2448 8.06466) rotate(-33.87) scale(124.279 124.279)">
<stop stop-color="#FC49EF"/>
<stop offset="0.09" stop-color="#F446E9" stop-opacity="0.96"/>
<stop offset="0.23" stop-color="#DE3FDA" stop-opacity="0.86"/>
<stop offset="0.42" stop-color="#BC34C2" stop-opacity="0.68"/>
<stop offset="0.64" stop-color="#8C25A0" stop-opacity="0.45"/>
<stop offset="0.89" stop-color="#4F1276" stop-opacity="0.15"/>
<stop offset="1" stop-color="#320962" stop-opacity="0"/>
</radialGradient>
<linearGradient id="paint3_linear_5680_109116" x1="18.3955" y1="81.0872" x2="19.3549" y2="72.3548" gradientUnits="userSpaceOnUse">
<stop stop-color="#8D2C9A"/>
<stop offset="1" stop-color="#A431AC"/>
</linearGradient>
<linearGradient id="paint4_linear_5680_109116" x1="44.8352" y1="82.8195" x2="29.2581" y2="54.0464" gradientUnits="userSpaceOnUse">
<stop stop-color="#3F195B"/>
<stop offset="1" stop-color="#742586"/>
</linearGradient>
<linearGradient id="paint5_linear_5680_109116" x1="92.5232" y1="93.3945" x2="70.5769" y2="46.8009" gradientUnits="userSpaceOnUse">
<stop stop-color="#3F195B"/>
<stop offset="1" stop-color="#742586"/>
</linearGradient>
<linearGradient id="paint6_linear_5680_109116" x1="52.6951" y1="56.1169" x2="51.4284" y2="49.2961" gradientUnits="userSpaceOnUse">
<stop stop-color="#8D2C9A"/>
<stop offset="1" stop-color="#A431AC"/>
</linearGradient>
<linearGradient id="paint7_linear_5680_109116" x1="89.1927" y1="34.0225" x2="86.8592" y2="28.3165" gradientUnits="userSpaceOnUse">
<stop stop-color="#8D2C9A"/>
<stop offset="1" stop-color="#A431AC"/>
</linearGradient>
<linearGradient id="paint8_linear_5680_109116" x1="105.03" y1="53.5695" x2="99.1765" y2="39.0429" gradientUnits="userSpaceOnUse">
<stop stop-color="#3F195B"/>
<stop offset="1" stop-color="#742586"/>
</linearGradient>
<linearGradient id="paint9_linear_5680_109116" x1="37.2405" y1="118.757" x2="33.474" y2="72.8887" gradientUnits="userSpaceOnUse">
<stop stop-color="#3F195B"/>
<stop offset="1" stop-color="#742586"/>
</linearGradient>
<linearGradient id="paint10_linear_5680_109116" x1="67.3686" y1="40.3858" x2="60.2782" y2="21.8159" gradientUnits="userSpaceOnUse">
<stop stop-color="#8D2C9A"/>
<stop offset="1" stop-color="#A431AC"/>
</linearGradient>
<linearGradient id="paint11_linear_5680_109116" x1="44.4102" y1="38.5285" x2="39.6833" y2="11.1801" gradientUnits="userSpaceOnUse">
<stop stop-color="#8B2B98"/>
<stop offset="1" stop-color="#BE3AC0"/>
</linearGradient>
<linearGradient id="paint12_linear_5680_109116" x1="14.0737" y1="46.8286" x2="11.5907" y2="41.8883" gradientUnits="userSpaceOnUse">
<stop stop-color="#8D2C9A"/>
<stop offset="1" stop-color="#A431AC"/>
</linearGradient>
<radialGradient id="paint13_radial_5680_109116" cx="0" cy="0" r="1" gradientUnits="userSpaceOnUse" gradientTransform="translate(25.9805 19.1548) rotate(-28.85) scale(67.8016 29.8327)">
<stop stop-color="white"/>
<stop offset="0.12" stop-color="#FEE3FC" stop-opacity="0.85"/>
<stop offset="0.36" stop-color="#FDADF7" stop-opacity="0.55"/>
<stop offset="0.58" stop-color="#FC82F4" stop-opacity="0.32"/>
<stop offset="0.77" stop-color="#FC63F1" stop-opacity="0.14"/>
<stop offset="0.91" stop-color="#FC50EF" stop-opacity="0.04"/>
<stop offset="1" stop-color="#FC49EF" stop-opacity="0"/>
</radialGradient>
<linearGradient id="paint14_linear_5680_109116" x1="-110.26" y1="44.9499" x2="124.587" y2="-44.298" gradientUnits="userSpaceOnUse">
<stop stop-color="#E6007A"/>
<stop offset="0.21" stop-color="#703AC2"/>
<stop offset="0.46" stop-color="#0070EB"/>
<stop offset="0.77" stop-color="#0297FB"/>
<stop offset="1" stop-color="#0AE2FF"/>
</linearGradient>
<linearGradient id="paint15_linear_5680_109116" x1="-98.9681" y1="45.0653" x2="118.465" y2="-36.9399" gradientUnits="userSpaceOnUse">
<stop stop-color="#E6007A"/>
<stop offset="0.21" stop-color="#703AC2"/>
<stop offset="0.46" stop-color="#0070EB"/>
<stop offset="0.77" stop-color="#0297FB"/>
<stop offset="1" stop-color="#0AE2FF"/>
</linearGradient>
<linearGradient id="paint16_linear_5680_109116" x1="-86.2058" y1="45.0412" x2="111.538" y2="-28.6031" gradientUnits="userSpaceOnUse">
<stop stop-color="#E6007A"/>
<stop offset="0.21" stop-color="#703AC2"/>
<stop offset="0.46" stop-color="#0070EB"/>
<stop offset="0.77" stop-color="#0297FB"/>
<stop offset="1" stop-color="#0AE2FF"/>
</linearGradient>
<linearGradient id="paint17_linear_5680_109116" x1="-77.8533" y1="45.1835" x2="107.923" y2="-22.1849" gradientUnits="userSpaceOnUse">
<stop stop-color="#E6007A"/>
<stop offset="0.21" stop-color="#703AC2"/>
<stop offset="0.46" stop-color="#0070EB"/>
<stop offset="0.77" stop-color="#0297FB"/>
<stop offset="1" stop-color="#0AE2FF"/>
</linearGradient>
<radialGradient id="paint18_radial_5680_109116" cx="0" cy="0" r="1" gradientUnits="userSpaceOnUse" gradientTransform="translate(194.432 76.1459) rotate(10.42) scale(57.8152 57.8152)">
<stop stop-color="#26FFEF"/>
<stop offset="0.09" stop-color="#26F5E9" stop-opacity="0.96"/>
<stop offset="0.23" stop-color="#27DBDA" stop-opacity="0.86"/>
<stop offset="0.41" stop-color="#29B2C2" stop-opacity="0.69"/>
<stop offset="0.63" stop-color="#2C78A1" stop-opacity="0.45"/>
<stop offset="0.88" stop-color="#302F78" stop-opacity="0.16"/>
<stop offset="1" stop-color="#320962" stop-opacity="0"/>
</radialGradient>
<linearGradient id="paint19_linear_5680_109116" x1="160.168" y1="87.0818" x2="163.738" y2="80.9586" gradientUnits="userSpaceOnUse">
<stop stop-color="#194060"/>
<stop offset="1" stop-color="#1F758B"/>
</linearGradient>
<linearGradient id="paint20_linear_5680_109116" x1="169.725" y1="95.9356" x2="175.985" y2="87.0554" gradientUnits="userSpaceOnUse">
<stop stop-color="#194060"/>
<stop offset="1" stop-color="#1F758B"/>
</linearGradient>
<linearGradient id="paint21_linear_5680_109116" x1="183.264" y1="111.076" x2="190.834" y2="95.4989" gradientUnits="userSpaceOnUse">
<stop stop-color="#131F41"/>
<stop offset="1" stop-color="#183B5C"/>
</linearGradient>
<linearGradient id="paint22_linear_5680_109116" x1="179.305" y1="90.916" x2="181.454" y2="88.1258" gradientUnits="userSpaceOnUse">
<stop stop-color="#194060"/>
<stop offset="1" stop-color="#1F758B"/>
</linearGradient>
<linearGradient id="paint23_linear_5680_109116" x1="194.818" y1="96.0724" x2="198.193" y2="89.9118" gradientUnits="userSpaceOnUse">
<stop stop-color="#194060"/>
<stop offset="1" stop-color="#1F758B"/>
</linearGradient>
<linearGradient id="paint24_linear_5680_109116" x1="199.436" y1="106.288" x2="201.416" y2="101.711" gradientUnits="userSpaceOnUse">
<stop stop-color="#131F41"/>
<stop offset="1" stop-color="#183B5C"/>
</linearGradient>
<linearGradient id="paint25_linear_5680_109116" x1="159.812" y1="100.888" x2="164.941" y2="93.3726" gradientUnits="userSpaceOnUse">
<stop stop-color="#131F41"/>
<stop offset="1" stop-color="#183B5C"/>
</linearGradient>
<linearGradient id="paint26_linear_5680_109116" x1="172.637" y1="86.7641" x2="179.916" y2="80.3587" gradientUnits="userSpaceOnUse">
<stop stop-color="#1F7E91"/>
<stop offset="1" stop-color="#22ACB4"/>
</linearGradient>
<linearGradient id="paint27_linear_5680_109116" x1="183.117" y1="85.3082" x2="190.832" y2="75.409" gradientUnits="userSpaceOnUse">
<stop stop-color="#219AA6"/>
<stop offset="1" stop-color="#25C6C7"/>
</linearGradient>
<linearGradient id="paint28_linear_5680_109116" x1="167.265" y1="78.7814" x2="170.822" y2="75.8988" gradientUnits="userSpaceOnUse">
<stop stop-color="#1F7E91"/>
<stop offset="1" stop-color="#22ACB4"/>
</linearGradient>
<radialGradient id="paint29_radial_5680_109116" cx="0" cy="0" r="1" gradientUnits="userSpaceOnUse" gradientTransform="translate(186.192 74.4435) rotate(15.44) scale(27.8056 12.2345)">
<stop stop-color="white"/>
<stop offset="0.12" stop-color="#DEFFFC" stop-opacity="0.85"/>
<stop offset="0.36" stop-color="#9DFFF7" stop-opacity="0.55"/>
<stop offset="0.58" stop-color="#6AFFF4" stop-opacity="0.32"/>
<stop offset="0.77" stop-color="#45FFF1" stop-opacity="0.14"/>
<stop offset="0.91" stop-color="#2EFFEF" stop-opacity="0.04"/>
<stop offset="1" stop-color="#26FFEF" stop-opacity="0"/>
</radialGradient>
<linearGradient id="paint30_linear_5680_109116" x1="187.684" y1="29.9682" x2="224.497" y2="126.19" gradientUnits="userSpaceOnUse">
<stop stop-color="#E6007A"/>
<stop offset="0.21" stop-color="#703AC2"/>
<stop offset="0.46" stop-color="#0070EB"/>
<stop offset="0.77" stop-color="#0297FB"/>
<stop offset="1" stop-color="#0AE2FF"/>
</linearGradient>
<linearGradient id="paint31_linear_5680_109116" x1="187.121" y1="34.0999" x2="220.955" y2="123.186" gradientUnits="userSpaceOnUse">
<stop stop-color="#E6007A"/>
<stop offset="0.21" stop-color="#703AC2"/>
<stop offset="0.46" stop-color="#0070EB"/>
<stop offset="0.77" stop-color="#0297FB"/>
<stop offset="1" stop-color="#0AE2FF"/>
</linearGradient>
<linearGradient id="paint32_linear_5680_109116" x1="186.473" y1="38.7068" x2="216.864" y2="119.726" gradientUnits="userSpaceOnUse">
<stop stop-color="#E6007A"/>
<stop offset="0.21" stop-color="#703AC2"/>
<stop offset="0.46" stop-color="#0070EB"/>
<stop offset="0.77" stop-color="#0297FB"/>
<stop offset="1" stop-color="#0AE2FF"/>
</linearGradient>
<linearGradient id="paint33_linear_5680_109116" x1="185.816" y1="41.5422" x2="213.64" y2="117.665" gradientUnits="userSpaceOnUse">
<stop stop-color="#E6007A"/>
<stop offset="0.21" stop-color="#703AC2"/>
<stop offset="0.46" stop-color="#0070EB"/>
<stop offset="0.77" stop-color="#0297FB"/>
<stop offset="1" stop-color="#0AE2FF"/>
</linearGradient>
<linearGradient id="paint34_linear_5680_109116" x1="98.1939" y1="110.969" x2="78.5772" y2="118.981" gradientUnits="userSpaceOnUse">
<stop stop-color="#FC49EF"/>
<stop offset="0.09" stop-color="#F446E9" stop-opacity="0.96"/>
<stop offset="0.23" stop-color="#DE3FDA" stop-opacity="0.86"/>
<stop offset="0.42" stop-color="#BC34C2" stop-opacity="0.68"/>
<stop offset="0.64" stop-color="#8C25A0" stop-opacity="0.45"/>
<stop offset="0.89" stop-color="#4F1276" stop-opacity="0.15"/>
<stop offset="1" stop-color="#320962" stop-opacity="0"/>
</linearGradient>
<linearGradient id="paint35_linear_5680_109116" x1="54.996" y1="102.936" x2="34.9737" y2="112.209" gradientUnits="userSpaceOnUse">
<stop stop-color="#26FFEF"/>
<stop offset="0.494792" stop-color="#26EDE5" stop-opacity="0.22"/>
<stop offset="1" stop-color="#27DBDA" stop-opacity="0"/>
</linearGradient>
<linearGradient id="paint36_linear_5680_109116" x1="226.996" y1="58.9355" x2="206.974" y2="68.2093" gradientUnits="userSpaceOnUse">
<stop stop-color="#26FFEF"/>
<stop offset="0.494792" stop-color="#26EDE5" stop-opacity="0.22"/>
<stop offset="1" stop-color="#27DBDA" stop-opacity="0"/>
</linearGradient>
<linearGradient id="paint37_linear_5680_109116" x1="160.55" y1="57.5449" x2="151.556" y2="61.2165" gradientUnits="userSpaceOnUse">
<stop stop-color="#FC49EF"/>
<stop offset="0.09" stop-color="#F446E9" stop-opacity="0.96"/>
<stop offset="0.23" stop-color="#DE3FDA" stop-opacity="0.86"/>
<stop offset="0.42" stop-color="#BC34C2" stop-opacity="0.68"/>
<stop offset="0.64" stop-color="#8C25A0" stop-opacity="0.45"/>
<stop offset="0.89" stop-color="#4F1276" stop-opacity="0.15"/>
<stop offset="1" stop-color="#320962" stop-opacity="0"/>
</linearGradient>
<linearGradient id="paint38_linear_5680_109116" x1="187.968" y1="20.017" x2="167.004" y2="28.9358" gradientUnits="userSpaceOnUse">
<stop stop-color="#FFFFE4"/>
<stop offset="0.5" stop-color="#FFFFE4" stop-opacity="0.17"/>
<stop offset="1" stop-color="#FFFFE4" stop-opacity="0"/>
</linearGradient>
<linearGradient id="paint39_linear_5680_109116" x1="221.968" y1="32.017" x2="201.004" y2="40.9358" gradientUnits="userSpaceOnUse">
<stop stop-color="#FFFFE4"/>
<stop offset="0.5" stop-color="#FFFFE4" stop-opacity="0.17"/>
<stop offset="1" stop-color="#FFFFE4" stop-opacity="0"/>
</linearGradient>
<clipPath id="clip0_5680_109116">
<rect width="240" height="128" fill="white"/>
</clipPath>
</defs>
</svg>
