<svg width="240" height="128" viewBox="0 0 240 128" fill="none" xmlns="http://www.w3.org/2000/svg">
  <g clip-path="url(#clip0_13552_8393)">
    <rect width="240" height="128" fill="#001E2F" />
    <mask id="mask0_13552_8393" style="mask-type:alpha" maskUnits="userSpaceOnUse" x="0" y="0" width="240" height="128">
      <rect width="240" height="128" fill="#D9D9D9" />
    </mask>
    <g mask="url(#mask0_13552_8393)">
      <ellipse cx="119.576" cy="7.95243" rx="101.576" ry="75.9524" fill="url(#paint0_radial_13552_8393)"
        fill-opacity="0.2" />
    </g>
    <mask id="mask1_13552_8393" style="mask-type:alpha" maskUnits="userSpaceOnUse" x="0" y="0" width="240" height="128">
      <rect width="240" height="128" fill="#D9D9D9" />
    </mask>
    <g mask="url(#mask1_13552_8393)">
      <g opacity="0.1">
        <mask id="path-4-inside-1_13552_8393" fill="white">
          <path fill-rule="evenodd" clip-rule="evenodd"
            d="M121.835 82.8423L200.685 129.63C201.341 130.02 201.886 130.582 202.266 131.261C202.645 131.94 202.845 132.71 202.846 133.495L203 167.061C203.002 167.651 202.892 168.235 202.676 168.781C202.459 169.326 202.141 169.822 201.739 170.239C201.337 170.655 200.86 170.985 200.335 171.209C199.81 171.433 199.247 171.547 198.679 171.543L184.741 171.448C183.606 171.441 182.521 170.967 181.721 170.131C180.922 169.294 180.474 168.163 180.475 166.984L180.383 147.095C180.379 146.312 180.177 145.544 179.797 144.868C179.417 144.191 178.873 143.63 178.219 143.242L121.959 109.89C121.307 109.498 120.567 109.292 119.814 109.292C119.06 109.292 118.32 109.498 117.668 109.89L61.7312 143.832C61.0805 144.227 60.5412 144.792 60.1677 145.472C59.7943 146.152 59.5997 146.922 59.6037 147.705L59.6881 166.085C59.6905 166.675 59.5804 167.259 59.364 167.805C59.1476 168.35 58.8293 168.846 58.4275 169.263C58.0257 169.68 57.5484 170.009 57.0231 170.233C56.4978 170.457 55.935 170.571 55.3672 170.567L41.4289 170.476C40.2954 170.473 39.2091 170.004 38.4066 169.173C37.6041 168.341 37.1505 167.213 37.1447 166.035L37.0016 134.303C36.9981 133.52 37.1928 132.75 37.5662 132.069C37.9396 131.389 38.4786 130.822 39.1291 130.427L117.543 82.8652C118.194 82.4703 118.933 82.2603 119.686 82.2562C120.439 82.2522 121.18 82.4543 121.835 82.8423ZM184.655 186.333L198.593 186.428C199.722 186.436 200.803 186.907 201.601 187.737C202.399 188.568 202.849 189.692 202.855 190.866L202.998 222.607C203.002 223.39 202.807 224.16 202.434 224.84C202.06 225.52 201.521 226.085 200.871 226.48L122.466 274.054C121.816 274.449 121.077 274.659 120.325 274.663C119.572 274.667 118.831 274.465 118.178 274.077L39.318 227.281C38.6637 226.893 38.1192 226.333 37.7393 225.657C37.3594 224.981 37.1575 224.213 37.1539 223.43L36.9999 189.856C36.9974 189.265 37.1078 188.68 37.3247 188.134C37.5416 187.588 37.8606 187.092 38.2632 186.676C38.6658 186.259 39.1441 185.929 39.6702 185.706C40.1963 185.483 40.7598 185.371 41.328 185.376L55.266 185.468C56.3949 185.476 57.4753 185.946 58.2725 186.777C59.0698 187.608 59.5196 188.732 59.5244 189.905L59.6161 209.801C59.6197 210.584 59.8216 211.352 60.2015 212.028C60.5814 212.704 61.1259 213.264 61.7802 213.652L118.042 247.044C118.696 247.431 119.436 247.633 120.188 247.63C120.941 247.627 121.679 247.418 122.33 247.025L178.287 213.091C178.938 212.697 179.477 212.131 179.85 211.451C180.224 210.771 180.418 210.001 180.415 209.218L180.338 190.812C180.335 190.223 180.445 189.639 180.662 189.093C180.878 188.548 181.196 188.053 181.597 187.637C181.999 187.22 182.476 186.89 183 186.667C183.525 186.443 184.088 186.329 184.655 186.333Z" />
        </mask>
        <path
          d="M200.685 129.63L200.927 129.224L200.927 129.224L200.685 129.63ZM121.835 82.8423L122.076 82.4357L122.076 82.4356L121.835 82.8423ZM202.266 131.261L202.678 131.03L202.678 131.03L202.266 131.261ZM202.846 133.495L202.373 133.496L202.373 133.497L202.846 133.495ZM203 167.061L203.473 167.059L203.473 167.058L203 167.061ZM202.676 168.781L203.115 168.955L203.115 168.955L202.676 168.781ZM201.739 170.239L202.08 170.567L202.08 170.567L201.739 170.239ZM200.335 171.209L200.149 170.774L200.149 170.774L200.335 171.209ZM198.679 171.543L198.676 172.016L198.676 172.016L198.679 171.543ZM184.741 171.448L184.744 170.975L184.744 170.975L184.741 171.448ZM181.721 170.131L181.38 170.457L181.38 170.457L181.721 170.131ZM180.475 166.984L180.948 166.985L180.948 166.982L180.475 166.984ZM180.383 147.095L180.856 147.093L180.856 147.093L180.383 147.095ZM179.797 144.868L179.385 145.099L179.385 145.099L179.797 144.868ZM178.219 143.242L178.461 142.835L178.46 142.835L178.219 143.242ZM121.959 109.89L121.716 110.295L121.718 110.296L121.959 109.89ZM117.668 109.89L117.425 109.484L117.423 109.486L117.668 109.89ZM61.7312 143.832L61.9762 144.237L61.9764 144.237L61.7312 143.832ZM60.1677 145.472L60.5821 145.7L60.5821 145.7L60.1677 145.472ZM59.6037 147.705L60.0765 147.703L60.0765 147.703L59.6037 147.705ZM59.6881 166.085L60.1609 166.083L60.1609 166.083L59.6881 166.085ZM59.364 167.805L58.9246 167.631L58.9246 167.631L59.364 167.805ZM57.0231 170.233L56.8377 169.799L56.8377 169.799L57.0231 170.233ZM55.3672 170.567L55.3641 171.04L55.3643 171.04L55.3672 170.567ZM41.4289 170.476L41.432 170.003L41.4301 170.003L41.4289 170.476ZM38.4066 169.173L38.7468 168.844L38.7468 168.844L38.4066 169.173ZM37.1447 166.035L36.6719 166.037L36.6719 166.038L37.1447 166.035ZM37.0016 134.303L37.4744 134.301L37.4744 134.301L37.0016 134.303ZM37.5662 132.069L37.9806 132.297L37.5662 132.069ZM39.1291 130.427L38.8839 130.023L38.8834 130.023L39.1291 130.427ZM117.543 82.8652L117.788 83.2694L117.789 83.2693L117.543 82.8652ZM119.686 82.2562L119.684 81.7835L119.686 82.2562ZM198.593 186.428L198.596 185.956L198.596 185.956L198.593 186.428ZM184.655 186.333L184.658 185.86L184.658 185.86L184.655 186.333ZM201.601 187.737L201.26 188.065L201.26 188.065L201.601 187.737ZM202.855 190.866L203.328 190.864L203.328 190.863L202.855 190.866ZM202.998 222.607L202.525 222.609L202.525 222.609L202.998 222.607ZM200.871 226.48L201.116 226.884L201.116 226.884L200.871 226.48ZM122.466 274.054L122.22 273.65L122.22 273.65L122.466 274.054ZM118.178 274.077L118.419 273.67L118.419 273.67L118.178 274.077ZM39.318 227.281L39.5592 226.874L39.559 226.874L39.318 227.281ZM37.7393 225.657L37.3271 225.889L37.3271 225.889L37.7393 225.657ZM37.1539 223.43L37.6267 223.428L37.6267 223.428L37.1539 223.43ZM36.9999 189.856L36.5271 189.857L36.5271 189.858L36.9999 189.856ZM37.3247 188.134L36.8853 187.959L36.8853 187.959L37.3247 188.134ZM38.2632 186.676L37.9232 186.347L37.9232 186.347L38.2632 186.676ZM39.6702 185.706L39.4856 185.271L39.4856 185.271L39.6702 185.706ZM41.328 185.376L41.3238 185.849L41.3249 185.849L41.328 185.376ZM55.266 185.468L55.2694 184.995L55.2691 184.995L55.266 185.468ZM59.5244 189.905L59.0517 189.907L59.0517 189.907L59.5244 189.905ZM59.6161 209.801L60.0889 209.799L60.0889 209.799L59.6161 209.801ZM60.2015 212.028L59.7894 212.26L59.7894 212.26L60.2015 212.028ZM61.7802 213.652L62.0215 213.245L62.0212 213.245L61.7802 213.652ZM118.042 247.044L117.801 247.45L117.801 247.45L118.042 247.044ZM120.188 247.63L120.186 247.157L120.186 247.157L120.188 247.63ZM122.33 247.025L122.575 247.429L122.575 247.429L122.33 247.025ZM178.287 213.091L178.533 213.496L178.533 213.496L178.287 213.091ZM179.85 211.451L180.265 211.679L180.265 211.679L179.85 211.451ZM180.415 209.218L179.942 209.22L179.942 209.22L180.415 209.218ZM180.338 190.812L179.865 190.814L179.865 190.814L180.338 190.812ZM181.597 187.637L181.257 187.309L181.257 187.309L181.597 187.637ZM183 186.667L183.186 187.101L183.186 187.101L183 186.667ZM200.927 129.224L122.076 82.4357L121.593 83.2489L200.444 130.037L200.927 129.224ZM202.678 131.03C202.259 130.28 201.656 129.657 200.927 129.224L200.444 130.037C201.027 130.383 201.513 130.884 201.853 131.492L202.678 131.03ZM203.319 133.495C203.318 132.63 203.097 131.78 202.678 131.03L201.853 131.492C202.193 132.099 202.372 132.791 202.373 133.496L203.319 133.495ZM203.473 167.058L203.319 133.493L202.373 133.497L202.527 167.063L203.473 167.058ZM203.115 168.955C203.354 168.353 203.475 167.709 203.473 167.059L202.527 167.063C202.529 167.593 202.43 168.117 202.236 168.606L203.115 168.955ZM202.08 170.567C202.525 170.105 202.876 169.557 203.115 168.955L202.236 168.606C202.042 169.095 201.757 169.538 201.399 169.91L202.08 170.567ZM200.52 171.644C201.105 171.395 201.634 171.028 202.08 170.567L201.399 169.91C201.04 170.282 200.616 170.576 200.149 170.774L200.52 171.644ZM198.676 172.016C199.309 172.02 199.936 171.893 200.52 171.644L200.149 170.774C199.683 170.973 199.185 171.073 198.682 171.07L198.676 172.016ZM184.737 171.921L198.676 172.016L198.682 171.07L184.744 170.975L184.737 171.921ZM181.38 170.457C182.265 171.384 183.472 171.913 184.738 171.921L184.744 170.975C183.74 170.969 182.776 170.55 182.063 169.804L181.38 170.457ZM180.002 166.984C180.001 168.282 180.494 169.531 181.38 170.457L182.063 169.804C181.35 169.058 180.947 168.044 180.948 166.985L180.002 166.984ZM179.91 147.097L180.002 166.987L180.948 166.982L180.856 147.093L179.91 147.097ZM179.385 145.099C179.725 145.705 179.907 146.394 179.91 147.098L180.856 147.093C180.851 146.23 180.629 145.383 180.209 144.636L179.385 145.099ZM177.977 143.648C178.559 143.994 179.045 144.493 179.385 145.099L180.209 144.636C179.79 143.889 179.187 143.267 178.461 142.835L177.977 143.648ZM121.718 110.296L177.978 143.648L178.46 142.835L122.201 109.483L121.718 110.296ZM119.814 109.765C120.48 109.765 121.137 109.947 121.716 110.295L122.203 109.484C121.478 109.049 120.654 108.819 119.814 108.819V109.765ZM117.911 110.295C118.491 109.947 119.147 109.765 119.814 109.765V108.819C118.974 108.819 118.15 109.049 117.425 109.484L117.911 110.295ZM61.9764 144.237L117.913 110.294L117.423 109.486L61.4859 143.428L61.9764 144.237ZM60.5821 145.7C60.9164 145.091 61.3979 144.587 61.9762 144.237L61.4861 143.428C60.763 143.866 60.166 144.494 59.7534 145.245L60.5821 145.7ZM60.0765 147.703C60.0729 146.999 60.2477 146.309 60.5821 145.7L59.7534 145.245C59.3408 145.996 59.1266 146.845 59.131 147.707L60.0765 147.703ZM60.1609 166.083L60.0765 147.703L59.131 147.707L59.2153 166.087L60.1609 166.083ZM59.8035 167.979C60.0422 167.377 60.1636 166.733 60.1609 166.083L59.2153 166.087C59.2175 166.617 59.1186 167.142 58.9246 167.631L59.8035 167.979ZM58.7679 169.591C59.213 169.129 59.5647 168.581 59.8035 167.979L58.9246 167.631C58.7306 168.12 58.4456 168.563 58.0872 168.935L58.7679 169.591ZM57.2085 170.668C57.7929 170.419 58.3227 170.053 58.7679 169.591L58.0872 168.935C57.7287 169.306 57.3038 169.6 56.8377 169.799L57.2085 170.668ZM55.3643 171.04C55.9971 171.044 56.624 170.917 57.2085 170.668L56.8377 169.799C56.3716 169.997 55.8728 170.098 55.3702 170.095L55.3643 171.04ZM41.4258 170.949L55.3641 171.04L55.3703 170.095L41.432 170.003L41.4258 170.949ZM38.0663 169.501C38.9557 170.423 40.1635 170.945 41.4276 170.949L41.4301 170.003C40.4274 170 39.4625 169.586 38.7468 168.844L38.0663 169.501ZM36.6719 166.038C36.6783 167.334 37.1776 168.58 38.0663 169.501L38.7468 168.844C38.0306 168.102 37.6227 167.092 37.6175 166.033L36.6719 166.038ZM36.5289 134.305L36.6719 166.037L37.6175 166.033L37.4744 134.301L36.5289 134.305ZM37.1517 131.842C36.7394 132.593 36.525 133.443 36.5289 134.305L37.4744 134.301C37.4712 133.597 37.6462 132.906 37.9806 132.297L37.1517 131.842ZM38.8834 130.023C38.1607 130.462 37.5642 131.09 37.1517 131.842L37.9806 132.297C38.315 131.687 38.7964 131.183 39.3747 130.831L38.8834 130.023ZM117.298 82.4609L38.8839 130.023L39.3742 130.831L117.788 83.2694L117.298 82.4609ZM119.684 81.7835C118.844 81.7879 118.021 82.0222 117.298 82.461L117.789 83.2693C118.367 82.9184 119.022 82.7326 119.689 82.729L119.684 81.7835ZM122.076 82.4356C121.349 82.0044 120.523 81.779 119.684 81.7835L119.689 82.729C120.355 82.7255 121.012 82.9043 121.594 83.249L122.076 82.4356ZM198.596 185.956L184.658 185.86L184.652 186.806L198.59 186.901L198.596 185.956ZM201.942 187.41C201.058 186.489 199.856 185.964 198.596 185.956L198.59 186.901C199.588 186.908 200.548 187.324 201.26 188.065L201.942 187.41ZM203.328 190.863C203.321 189.571 202.825 188.33 201.942 187.41L201.26 188.065C201.972 188.806 202.377 189.813 202.382 190.868L203.328 190.863ZM203.471 222.605L203.328 190.864L202.382 190.868L202.525 222.609L203.471 222.605ZM202.848 225.067C203.26 224.316 203.475 223.467 203.471 222.605L202.525 222.609C202.529 223.312 202.354 224.003 202.019 224.612L202.848 225.067ZM201.116 226.884C201.839 226.446 202.435 225.818 202.848 225.067L202.019 224.612C201.685 225.221 201.204 225.725 200.625 226.076L201.116 226.884ZM122.711 274.458L201.116 226.884L200.625 226.076L122.22 273.65L122.711 274.458ZM120.327 275.136C121.167 275.131 121.989 274.897 122.711 274.458L122.22 273.65C121.643 274.001 120.988 274.186 120.322 274.19L120.327 275.136ZM117.937 274.483C118.663 274.915 119.488 275.14 120.327 275.136L120.322 274.19C119.656 274.194 119 274.015 118.419 273.67L117.937 274.483ZM39.0767 227.687L117.937 274.483L118.419 273.67L39.5592 226.874L39.0767 227.687ZM37.3271 225.889C37.7469 226.636 38.3498 227.257 39.077 227.687L39.559 226.874C38.9776 226.529 38.4915 226.03 38.1514 225.425L37.3271 225.889ZM36.6811 223.432C36.6851 224.295 36.9074 225.142 37.3271 225.889L38.1514 225.425C37.8113 224.82 37.6299 224.131 37.6267 223.428L36.6811 223.432ZM36.5271 189.858L36.6811 223.432L37.6267 223.428L37.4726 189.853L36.5271 189.858ZM36.8853 187.959C36.646 188.562 36.5244 189.207 36.5271 189.857L37.4726 189.854C37.4704 189.323 37.5696 188.798 37.7641 188.308L36.8853 187.959ZM37.9232 186.347C37.4771 186.809 37.1246 187.357 36.8853 187.959L37.7641 188.308C37.9585 187.819 38.244 187.376 38.6032 187.004L37.9232 186.347ZM39.4856 185.271C38.9002 185.519 38.3693 185.885 37.9232 186.347L38.6032 187.004C38.9623 186.632 39.3879 186.34 39.8548 186.142L39.4856 185.271ZM41.3322 184.903C40.6988 184.898 40.0711 185.023 39.4856 185.271L39.8548 186.142C40.3215 185.944 40.8208 185.844 41.3238 185.849L41.3322 184.903ZM55.2691 184.995L41.3311 184.903L41.3249 185.849L55.2629 185.94L55.2691 184.995ZM58.6136 186.449C57.73 185.529 56.5287 185.004 55.2694 184.995L55.2626 185.94C56.2611 185.947 57.2205 186.363 57.9314 187.104L58.6136 186.449ZM59.9972 189.903C59.9919 188.611 59.4967 187.37 58.6136 186.449L57.9314 187.104C58.6429 187.846 59.0474 188.852 59.0517 189.907L59.9972 189.903ZM60.0889 209.799L59.9972 189.903L59.0517 189.907L59.1434 209.804L60.0889 209.799ZM60.6136 211.797C60.2735 211.191 60.0921 210.502 60.0889 209.799L59.1434 209.804C59.1473 210.666 59.3697 211.513 59.7894 212.26L60.6136 211.797ZM62.0212 213.245C61.4398 212.901 60.9537 212.402 60.6136 211.797L59.7894 212.26C60.2091 213.007 60.812 213.628 61.5392 214.059L62.0212 213.245ZM118.283 246.637L62.0215 213.245L61.5389 214.058L117.801 247.45L118.283 246.637ZM120.186 247.157C119.52 247.16 118.864 246.981 118.283 246.637L117.801 247.45C118.528 247.881 119.352 248.107 120.191 248.103L120.186 247.157ZM122.085 246.62C121.507 246.97 120.852 247.154 120.186 247.157L120.191 248.103C121.03 248.099 121.852 247.866 122.575 247.429L122.085 246.62ZM178.042 212.687L122.085 246.62L122.575 247.429L178.533 213.496L178.042 212.687ZM179.436 211.223C179.102 211.832 178.62 212.336 178.042 212.687L178.533 213.496C179.256 213.057 179.852 212.43 180.265 211.679L179.436 211.223ZM179.942 209.22C179.945 209.924 179.77 210.615 179.436 211.223L180.265 211.679C180.677 210.928 180.892 210.078 180.888 209.216L179.942 209.22ZM179.865 190.814L179.942 209.22L180.888 209.216L180.811 190.81L179.865 190.814ZM180.222 188.919C179.984 189.521 179.862 190.165 179.865 190.814L180.811 190.81C180.808 190.281 180.907 189.756 181.101 189.268L180.222 188.919ZM181.257 187.309C180.812 187.77 180.461 188.318 180.222 188.919L181.101 189.268C181.295 188.779 181.58 188.336 181.938 187.965L181.257 187.309ZM182.815 186.232C182.231 186.481 181.702 186.847 181.257 187.309L181.938 187.965C182.296 187.593 182.72 187.3 183.186 187.101L182.815 186.232ZM184.658 185.86C184.025 185.856 183.399 185.983 182.815 186.232L183.186 187.101C183.652 186.903 184.15 186.803 184.652 186.806L184.658 185.86Z"
          fill="#CCEAFB" mask="url(#path-4-inside-1_13552_8393)" />
      </g>
    </g>
    <mask id="mask2_13552_8393" style="mask-type:alpha" maskUnits="userSpaceOnUse" x="0" y="0" width="240" height="128">
      <rect width="240" height="128" fill="#D9D9D9" />
    </mask>
    <g mask="url(#mask2_13552_8393)">
      <g opacity="0.1">
        <mask id="path-7-inside-2_13552_8393" fill="white">
          <path fill-rule="evenodd" clip-rule="evenodd"
            d="M121.835 -145.414L200.685 -98.626C201.341 -98.2365 201.886 -97.674 202.266 -96.9953C202.645 -96.3166 202.845 -95.5458 202.846 -94.7609L203 -61.1956C203.002 -60.6056 202.892 -60.021 202.676 -59.4755C202.459 -58.93 202.141 -58.4345 201.739 -58.0177C201.337 -57.6008 200.86 -57.2709 200.335 -57.047C199.81 -56.8231 199.247 -56.7096 198.679 -56.7131L184.741 -56.8084C183.606 -56.8155 182.521 -57.2889 181.721 -58.1253C180.922 -58.9617 180.474 -60.093 180.475 -61.2718L180.383 -81.161C180.379 -81.9441 180.177 -82.7123 179.797 -83.3887C179.417 -84.065 178.873 -84.6257 178.219 -85.0146L121.959 -118.366C121.307 -118.758 120.567 -118.964 119.814 -118.964C119.06 -118.964 118.32 -118.758 117.668 -118.366L61.7312 -84.4238C61.0805 -84.0294 60.5412 -83.4638 60.1677 -82.7839C59.7943 -82.1041 59.5997 -81.3339 59.6037 -80.5511L59.6881 -62.1714C59.6905 -61.5814 59.5804 -60.9967 59.364 -60.4513C59.1476 -59.9058 58.8293 -59.4103 58.4275 -58.9934C58.0257 -58.5766 57.5484 -58.2467 57.0231 -58.0228C56.4978 -57.7988 55.935 -57.6854 55.3672 -57.6889L41.4289 -57.7804C40.2954 -57.7834 39.2091 -58.2518 38.4066 -59.0836C37.6041 -59.9154 37.1505 -61.0431 37.1447 -62.2209L37.0016 -93.9529C36.9981 -94.7361 37.1928 -95.5066 37.5662 -96.1869C37.9396 -96.8673 38.4786 -97.4337 39.1291 -97.8293L117.543 -145.391C118.194 -145.786 118.933 -145.996 119.686 -146C120.439 -146.004 121.18 -145.802 121.835 -145.414ZM184.655 -41.9232L198.593 -41.8279C199.722 -41.8199 200.803 -41.3496 201.601 -40.5189C202.399 -39.6882 202.849 -38.5641 202.855 -37.3904L202.998 -5.64931C203.002 -4.86643 202.807 -4.09636 202.434 -3.41646C202.06 -2.73656 201.521 -2.17079 200.871 -1.77602L122.466 45.7975C121.816 46.1925 121.077 46.4026 120.325 46.4066C119.572 46.4106 118.831 46.2084 118.178 45.8204L39.318 -0.975435C38.6637 -1.36315 38.1192 -1.92316 37.7393 -2.59909C37.3594 -3.27503 37.1575 -4.04305 37.1539 -4.82585L36.9999 -38.4007C36.9974 -38.9912 37.1078 -39.5764 37.3247 -40.1223C37.5416 -40.6682 37.8606 -41.1638 38.2632 -41.5806C38.6658 -41.9973 39.1441 -42.3267 39.6702 -42.5498C40.1963 -42.7729 40.7598 -42.8852 41.328 -42.8801L55.266 -42.7886C56.3949 -42.7806 57.4753 -42.3101 58.2725 -41.4794C59.0698 -40.6486 59.5196 -39.5245 59.5244 -38.3511L59.6161 -18.4548C59.6197 -17.672 59.8216 -16.9039 60.2015 -16.228C60.5814 -15.5521 61.1259 -14.9921 61.7802 -14.6044L118.042 18.7875C118.696 19.175 119.436 19.3772 120.188 19.3738C120.941 19.3705 121.679 19.1617 122.33 18.7684L178.287 -15.1648C178.938 -15.5596 179.477 -16.1253 179.85 -16.8052C180.224 -17.4851 180.418 -18.2552 180.415 -19.0381L180.338 -37.4438C180.335 -38.0334 180.445 -38.6176 180.662 -39.1627C180.878 -39.7079 181.196 -40.203 181.597 -40.6196C181.999 -41.0361 182.476 -41.3658 183 -41.5896C183.525 -41.8134 184.088 -41.9268 184.655 -41.9232Z" />
        </mask>
        <path
          d="M200.685 -98.626L200.927 -99.0325L200.927 -99.0325L200.685 -98.626ZM121.835 -145.414L122.076 -145.82L122.076 -145.821L121.835 -145.414ZM202.266 -96.9953L202.678 -97.226L202.678 -97.226L202.266 -96.9953ZM202.846 -94.7609L202.373 -94.7606L202.373 -94.7588L202.846 -94.7609ZM203 -61.1956L203.473 -61.1976L203.473 -61.1978L203 -61.1956ZM202.676 -59.4755L203.115 -59.3012L203.115 -59.3012L202.676 -59.4755ZM201.739 -58.0177L202.08 -57.6895L202.08 -57.6896L201.739 -58.0177ZM200.335 -57.047L200.149 -57.4819L200.149 -57.4819L200.335 -57.047ZM198.679 -56.7131L198.676 -56.2403L198.676 -56.2403L198.679 -56.7131ZM184.741 -56.8084L184.744 -57.2812L184.744 -57.2812L184.741 -56.8084ZM181.721 -58.1253L181.38 -57.7987L181.38 -57.7987L181.721 -58.1253ZM180.475 -61.2718L180.948 -61.2714L180.948 -61.274L180.475 -61.2718ZM180.383 -81.161L180.856 -81.1632L180.856 -81.1634L180.383 -81.161ZM179.797 -83.3887L179.385 -83.1572L179.385 -83.1572L179.797 -83.3887ZM178.219 -85.0146L178.461 -85.421L178.46 -85.4213L178.219 -85.0146ZM121.959 -118.366L121.716 -117.961L121.718 -117.96L121.959 -118.366ZM117.668 -118.366L117.425 -118.772L117.423 -118.771L117.668 -118.366ZM61.7312 -84.4238L61.9762 -84.0195L61.9764 -84.0196L61.7312 -84.4238ZM60.1677 -82.7839L60.5821 -82.5563L60.5821 -82.5563L60.1677 -82.7839ZM59.6037 -80.5511L60.0765 -80.5533L60.0765 -80.5536L59.6037 -80.5511ZM59.6881 -62.1714L60.1609 -62.1733L60.1609 -62.1736L59.6881 -62.1714ZM59.364 -60.4513L58.9246 -60.6256L58.9246 -60.6256L59.364 -60.4513ZM57.0231 -58.0228L56.8377 -58.4577L56.8377 -58.4577L57.0231 -58.0228ZM55.3672 -57.6889L55.3641 -57.2161L55.3643 -57.2161L55.3672 -57.6889ZM41.4289 -57.7804L41.432 -58.2531L41.4301 -58.2531L41.4289 -57.7804ZM38.4066 -59.0836L38.7468 -59.4119L38.7468 -59.4119L38.4066 -59.0836ZM37.1447 -62.2209L36.6719 -62.2188L36.6719 -62.2186L37.1447 -62.2209ZM37.0016 -93.9529L37.4744 -93.955L37.4744 -93.955L37.0016 -93.9529ZM37.5662 -96.1869L37.9806 -95.9595L37.5662 -96.1869ZM39.1291 -97.8293L38.8839 -98.2336L38.8834 -98.2333L39.1291 -97.8293ZM117.543 -145.391L117.788 -144.987L117.789 -144.987L117.543 -145.391ZM119.686 -146L119.684 -146.473L119.686 -146ZM198.593 -41.8279L198.596 -42.3007L198.596 -42.3007L198.593 -41.8279ZM184.655 -41.9232L184.658 -42.396L184.658 -42.396L184.655 -41.9232ZM201.601 -40.5189L201.26 -40.1914L201.26 -40.1914L201.601 -40.5189ZM202.855 -37.3904L203.328 -37.3926L203.328 -37.3927L202.855 -37.3904ZM202.998 -5.64931L202.525 -5.64718L202.525 -5.64712L202.998 -5.64931ZM200.871 -1.77602L201.116 -1.37183L201.116 -1.37186L200.871 -1.77602ZM122.466 45.7975L122.22 45.3933L122.22 45.3935L122.466 45.7975ZM118.178 45.8204L118.419 45.4139L118.419 45.4138L118.178 45.8204ZM39.318 -0.975435L39.5592 -1.38201L39.559 -1.38216L39.318 -0.975435ZM37.7393 -2.59909L37.3271 -2.36745L37.3271 -2.36745L37.7393 -2.59909ZM37.1539 -4.82585L37.6267 -4.82801L37.6267 -4.82802L37.1539 -4.82585ZM36.9999 -38.4007L36.5271 -38.3987L36.5271 -38.3985L36.9999 -38.4007ZM37.3247 -40.1223L36.8853 -40.2969L36.8853 -40.2969L37.3247 -40.1223ZM38.2632 -41.5806L37.9232 -41.9091L37.9232 -41.9091L38.2632 -41.5806ZM39.6702 -42.5498L39.4856 -42.9851L39.4856 -42.9851L39.6702 -42.5498ZM41.328 -42.8801L41.3238 -42.4074L41.3249 -42.4073L41.328 -42.8801ZM55.266 -42.7886L55.2694 -43.2614L55.2691 -43.2614L55.266 -42.7886ZM59.5244 -38.3511L59.0517 -38.3492L59.0517 -38.3489L59.5244 -38.3511ZM59.6161 -18.4548L60.0889 -18.4569L60.0889 -18.457L59.6161 -18.4548ZM60.2015 -16.228L59.7894 -15.9964L59.7894 -15.9964L60.2015 -16.228ZM61.7802 -14.6044L62.0215 -15.0109L62.0212 -15.0111L61.7802 -14.6044ZM118.042 18.7875L117.801 19.194L117.801 19.1941L118.042 18.7875ZM120.188 19.3738L120.186 18.9011L120.186 18.9011L120.188 19.3738ZM122.33 18.7684L122.575 19.173L122.575 19.1727L122.33 18.7684ZM178.287 -15.1648L178.533 -14.7605L178.533 -14.7606L178.287 -15.1648ZM179.85 -16.8052L180.265 -16.5776L180.265 -16.5776L179.85 -16.8052ZM180.415 -19.0381L179.942 -19.0361L179.942 -19.0359L180.415 -19.0381ZM180.338 -37.4438L179.865 -37.4418L179.865 -37.4418L180.338 -37.4438ZM181.597 -40.6196L181.257 -40.9476L181.257 -40.9476L181.597 -40.6196ZM183 -41.5896L183.186 -41.1547L183.186 -41.1547L183 -41.5896ZM200.927 -99.0325L122.076 -145.82L121.593 -145.007L200.444 -98.2194L200.927 -99.0325ZM202.678 -97.226C202.259 -97.9759 201.656 -98.5997 200.927 -99.0325L200.444 -98.2195C201.027 -97.8734 201.513 -97.3722 201.853 -96.7646L202.678 -97.226ZM203.319 -94.7613C203.318 -95.6261 203.097 -96.4762 202.678 -97.226L201.853 -96.7646C202.193 -96.157 202.372 -95.4656 202.373 -94.7606L203.319 -94.7613ZM203.473 -61.1978L203.319 -94.7631L202.373 -94.7588L202.527 -61.1934L203.473 -61.1978ZM203.115 -59.3012C203.354 -59.903 203.475 -60.5475 203.473 -61.1976L202.527 -61.1936C202.529 -60.6637 202.43 -60.1389 202.236 -59.6498L203.115 -59.3012ZM202.08 -57.6896C202.525 -58.1513 202.876 -58.6992 203.115 -59.3012L202.236 -59.6498C202.042 -59.1607 201.757 -58.7177 201.399 -58.3458L202.08 -57.6896ZM200.52 -56.6121C201.105 -56.8612 201.634 -57.2277 202.08 -57.6895L201.399 -58.3458C201.04 -57.9739 200.616 -57.6806 200.149 -57.4819L200.52 -56.6121ZM198.676 -56.2403C199.309 -56.2364 199.936 -56.3629 200.52 -56.6121L200.149 -57.4819C199.683 -57.2832 199.185 -57.1828 198.682 -57.1859L198.676 -56.2403ZM184.737 -56.3356L198.676 -56.2403L198.682 -57.1859L184.744 -57.2812L184.737 -56.3356ZM181.38 -57.7987C182.265 -56.8718 183.472 -56.3435 184.738 -56.3356L184.744 -57.2812C183.74 -57.2874 182.776 -57.7061 182.063 -58.452L181.38 -57.7987ZM180.002 -61.2722C180.001 -59.9742 180.494 -58.725 181.38 -57.7987L182.063 -58.452C181.35 -59.1985 180.947 -60.2119 180.948 -61.2714L180.002 -61.2722ZM179.91 -81.1588L180.002 -61.2697L180.948 -61.274L180.856 -81.1632L179.91 -81.1588ZM179.385 -83.1572C179.725 -82.5515 179.907 -81.8622 179.91 -81.1586L180.856 -81.1634C180.851 -82.026 180.629 -82.8731 180.209 -83.6201L179.385 -83.1572ZM177.977 -84.6082C178.559 -84.2625 179.045 -83.7627 179.385 -83.1572L180.209 -83.6201C179.79 -84.3673 179.187 -84.9889 178.461 -85.421L177.977 -84.6082ZM121.718 -117.96L177.978 -84.6079L178.46 -85.4213L122.201 -118.773L121.718 -117.96ZM119.814 -118.491C120.48 -118.491 121.137 -118.309 121.716 -117.961L122.203 -118.772C121.478 -119.207 120.654 -119.437 119.814 -119.437V-118.491ZM117.911 -117.961C118.491 -118.309 119.147 -118.491 119.814 -118.491V-119.437C118.974 -119.437 118.15 -119.207 117.425 -118.772L117.911 -117.961ZM61.9764 -84.0196L117.913 -117.962L117.423 -118.771L61.4859 -84.828L61.9764 -84.0196ZM60.5821 -82.5563C60.9164 -83.1649 61.3979 -83.6689 61.9762 -84.0195L61.4861 -84.8281C60.763 -84.3898 60.166 -83.7626 59.7534 -83.0115L60.5821 -82.5563ZM60.0765 -80.5536C60.0729 -81.2567 60.2477 -81.9476 60.5821 -82.5563L59.7534 -83.0115C59.3408 -82.2605 59.1266 -81.4112 59.131 -80.5487L60.0765 -80.5536ZM60.1609 -62.1736L60.0765 -80.5533L59.131 -80.549L59.2153 -62.1692L60.1609 -62.1736ZM59.8035 -60.2769C60.0422 -60.8788 60.1636 -61.5233 60.1609 -62.1733L59.2153 -62.1694C59.2175 -61.6394 59.1186 -61.1147 58.9246 -60.6256L59.8035 -60.2769ZM58.7679 -58.6653C59.213 -59.1271 59.5647 -59.675 59.8035 -60.2769L58.9246 -60.6256C58.7306 -60.1365 58.4456 -59.6935 58.0872 -59.3216L58.7679 -58.6653ZM57.2085 -57.5879C57.7929 -57.837 58.3227 -58.2035 58.7679 -58.6653L58.0872 -59.3216C57.7287 -58.9497 57.3038 -58.6564 56.8377 -58.4577L57.2085 -57.5879ZM55.3643 -57.2161C55.9971 -57.2122 56.624 -57.3387 57.2085 -57.5879L56.8377 -58.4577C56.3716 -58.259 55.8728 -58.1585 55.3702 -58.1617L55.3643 -57.2161ZM41.4258 -57.3076L55.3641 -57.2161L55.3703 -58.1617L41.432 -58.2531L41.4258 -57.3076ZM38.0663 -58.7554C38.9557 -57.8336 40.1635 -57.3109 41.4276 -57.3076L41.4301 -58.2531C40.4274 -58.2558 39.4625 -58.6701 38.7468 -59.4119L38.0663 -58.7554ZM36.6719 -62.2186C36.6783 -60.9217 37.1776 -59.6765 38.0663 -58.7554L38.7468 -59.4119C38.0306 -60.1543 37.6227 -61.1645 37.6175 -62.2233L36.6719 -62.2186ZM36.5289 -93.9507L36.6719 -62.2188L37.6175 -62.2231L37.4744 -93.955L36.5289 -93.9507ZM37.1517 -96.4144C36.7394 -95.663 36.525 -94.8134 36.5289 -93.9507L37.4744 -93.955C37.4712 -94.6588 37.6462 -95.3501 37.9806 -95.9595L37.1517 -96.4144ZM38.8834 -98.2333C38.1607 -97.7937 37.5642 -97.1659 37.1517 -96.4144L37.9806 -95.9595C38.315 -96.5687 38.7964 -97.0737 39.3747 -97.4254L38.8834 -98.2333ZM117.298 -145.795L38.8839 -98.2336L39.3742 -97.4251L117.788 -144.987L117.298 -145.795ZM119.684 -146.473C118.844 -146.468 118.021 -146.234 117.298 -145.795L117.789 -144.987C118.367 -145.338 119.022 -145.524 119.689 -145.527L119.684 -146.473ZM122.076 -145.821C121.349 -146.252 120.523 -146.477 119.684 -146.473L119.689 -145.527C120.355 -145.531 121.012 -145.352 121.594 -145.007L122.076 -145.821ZM198.596 -42.3007L184.658 -42.396L184.652 -41.4505L198.59 -41.3551L198.596 -42.3007ZM201.942 -40.8464C201.058 -41.767 199.856 -42.2917 198.596 -42.3007L198.59 -41.3552C199.588 -41.3481 200.548 -40.9322 201.26 -40.1914L201.942 -40.8464ZM203.328 -37.3927C203.321 -38.6852 202.825 -39.9264 201.942 -40.8464L201.26 -40.1914C201.972 -39.45 202.377 -38.4431 202.382 -37.3881L203.328 -37.3927ZM203.471 -5.65144L203.328 -37.3926L202.382 -37.3883L202.525 -5.64718L203.471 -5.65144ZM202.848 -3.18886C203.26 -3.93983 203.475 -4.78908 203.471 -5.6515L202.525 -5.64712C202.529 -4.94377 202.354 -4.25289 202.019 -3.64406L202.848 -3.18886ZM201.116 -1.37186C201.839 -1.81051 202.435 -2.43778 202.848 -3.18886L202.019 -3.64406C201.685 -3.03534 201.204 -2.53108 200.625 -2.18018L201.116 -1.37186ZM122.711 46.2017L201.116 -1.37183L200.625 -2.18021L122.22 45.3933L122.711 46.2017ZM120.327 46.8794C121.167 46.8749 121.989 46.6406 122.711 46.2015L122.22 45.3935C121.643 45.7445 120.988 45.9303 120.322 45.9339L120.327 46.8794ZM117.937 46.2269C118.663 46.6583 119.488 46.8839 120.327 46.8794L120.322 45.9339C119.656 45.9374 119 45.7586 118.419 45.4139L117.937 46.2269ZM39.0767 -0.568856L117.937 46.227L118.419 45.4138L39.5592 -1.38201L39.0767 -0.568856ZM37.3271 -2.36745C37.7469 -1.62063 38.3498 -0.9996 39.077 -0.568705L39.559 -1.38216C38.9776 -1.72669 38.4915 -2.22569 38.1514 -2.83073L37.3271 -2.36745ZM36.6811 -4.82369C36.6851 -3.96129 36.9074 -3.11418 37.3271 -2.36745L38.1514 -2.83073C37.8113 -3.43587 37.6299 -4.1248 37.6267 -4.82801L36.6811 -4.82369ZM36.5271 -38.3985L36.6811 -4.82368L37.6267 -4.82802L37.4726 -38.4028L36.5271 -38.3985ZM36.8853 -40.2969C36.646 -39.6945 36.5244 -39.0494 36.5271 -38.3987L37.4726 -38.4026C37.4704 -38.9331 37.5696 -39.4584 37.7641 -39.9477L36.8853 -40.2969ZM37.9232 -41.9091C37.4771 -41.4474 37.1246 -40.8992 36.8853 -40.2969L37.7641 -39.9477C37.9585 -40.4371 38.244 -40.8803 38.6032 -41.252L37.9232 -41.9091ZM39.4856 -42.9851C38.9002 -42.7368 38.3693 -42.3708 37.9232 -41.9091L38.6032 -41.252C38.9623 -41.6237 39.3879 -41.9166 39.8548 -42.1145L39.4856 -42.9851ZM41.3322 -43.3529C40.6988 -43.3585 40.0711 -43.2333 39.4856 -42.9851L39.8548 -42.1145C40.3215 -42.3125 40.8208 -42.4118 41.3238 -42.4074L41.3322 -43.3529ZM55.2691 -43.2614L41.3311 -43.3529L41.3249 -42.4073L55.2629 -42.3158L55.2691 -43.2614ZM58.6136 -41.8067C57.73 -42.7275 56.5287 -43.2524 55.2694 -43.2614L55.2626 -42.3158C56.2611 -42.3088 57.2205 -41.8928 57.9314 -41.152L58.6136 -41.8067ZM59.9972 -38.353C59.9919 -39.6452 59.4967 -40.8865 58.6136 -41.8067L57.9314 -41.152C58.6429 -40.4106 59.0474 -39.4038 59.0517 -38.3492L59.9972 -38.353ZM60.0889 -18.457L59.9972 -38.3533L59.0517 -38.3489L59.1434 -18.4526L60.0889 -18.457ZM60.6136 -16.4597C60.2735 -17.0648 60.0921 -17.7537 60.0889 -18.4569L59.1434 -18.4526C59.1473 -17.5902 59.3697 -16.7431 59.7894 -15.9964L60.6136 -16.4597ZM62.0212 -15.0111C61.4398 -15.3556 60.9537 -15.8546 60.6136 -16.4597L59.7894 -15.9964C60.2091 -15.2495 60.812 -14.6285 61.5392 -14.1976L62.0212 -15.0111ZM118.283 18.3809L62.0215 -15.0109L61.5389 -14.1978L117.801 19.194L118.283 18.3809ZM120.186 18.9011C119.52 18.904 118.864 18.7251 118.283 18.3808L117.801 19.1941C118.528 19.6248 119.352 19.8503 120.191 19.8466L120.186 18.9011ZM122.085 18.3638C121.507 18.7134 120.852 18.8981 120.186 18.9011L120.191 19.8466C121.03 19.8429 121.852 19.6101 122.575 19.173L122.085 18.3638ZM178.042 -15.569L122.085 18.3642L122.575 19.1727L178.533 -14.7605L178.042 -15.569ZM179.436 -17.0328C179.102 -16.4241 178.62 -15.9198 178.042 -15.5689L178.533 -14.7606C179.256 -15.1993 179.852 -15.8266 180.265 -16.5776L179.436 -17.0328ZM179.942 -19.0359C179.945 -18.3325 179.77 -17.6416 179.436 -17.0328L180.265 -16.5776C180.677 -17.3286 180.892 -18.1778 180.888 -19.0402L179.942 -19.0359ZM179.865 -37.4418L179.942 -19.0361L180.888 -19.04L180.811 -37.4458L179.865 -37.4418ZM180.222 -39.337C179.984 -38.7355 179.862 -38.0914 179.865 -37.4418L180.811 -37.4457C180.808 -37.9753 180.907 -38.4997 181.101 -38.9885L180.222 -39.337ZM181.257 -40.9476C180.812 -40.4861 180.461 -39.9386 180.222 -39.337L181.101 -38.9885C181.295 -39.4771 181.58 -39.9199 181.938 -40.2915L181.257 -40.9476ZM182.815 -42.0245C182.231 -41.7755 181.702 -41.4092 181.257 -40.9476L181.938 -40.2915C182.296 -40.6631 182.72 -40.9561 183.186 -41.1547L182.815 -42.0245ZM184.658 -42.396C184.025 -42.3999 183.399 -42.2735 182.815 -42.0245L183.186 -41.1547C183.652 -41.3532 184.15 -41.4536 184.652 -41.4505L184.658 -42.396Z"
          fill="#CCEAFB" mask="url(#path-7-inside-2_13552_8393)" />
      </g>
    </g>
    <g clip-path="url(#clip1_13552_8393)">
      <path
        d="M51.6793 57.1776L40.7541 50.6949C40.6635 50.6411 40.5608 50.6131 40.4564 50.6137C40.352 50.6142 40.2496 50.6433 40.1595 50.698L29.2948 57.288C29.2046 57.3428 29.13 57.4213 29.0782 57.5155C29.0265 57.6098 28.9995 57.7165 29 57.8251L29.0198 62.2217C29.0206 62.3849 29.0835 62.5412 29.1947 62.6564C29.3059 62.7717 29.4564 62.8366 29.6134 62.837L31.5447 62.8496C31.6233 62.8501 31.7013 62.8344 31.7741 62.8034C31.8469 62.7724 31.913 62.7267 31.9687 62.6689C32.0244 62.6111 32.0685 62.5425 32.0984 62.4669C32.1284 62.3913 32.1437 62.3103 32.1433 62.2286L32.1317 59.682C32.1311 59.5735 32.1581 59.4668 32.2098 59.3726C32.2615 59.2784 32.3363 59.2 32.4264 59.1454L40.1768 54.4424C40.2672 54.3882 40.3697 54.3596 40.4741 54.3596C40.5785 54.3596 40.681 54.3882 40.7714 54.4424L48.5665 59.0635C48.6571 59.1174 48.7325 59.1951 48.7851 59.2888C48.8378 59.3825 48.8658 59.489 48.8663 59.5975L48.879 62.3532C48.8789 62.5165 48.941 62.6733 49.0517 62.7892C49.1625 62.9051 49.3129 62.9707 49.4701 62.9716L51.4013 62.9848C51.48 62.9853 51.558 62.9696 51.6307 62.9386C51.7035 62.9076 51.7697 62.8619 51.8253 62.8041C51.881 62.7463 51.9251 62.6777 51.9551 62.6021C51.9851 62.5265 52.0003 62.4455 52 62.3638L51.9787 57.7131C51.9786 57.6044 51.9508 57.4976 51.8983 57.4035C51.8457 57.3095 51.7702 57.2315 51.6793 57.1776V57.1776Z"
        fill="white" />
      <path
        d="M51.3896 65.0471L49.4584 65.0339C49.3798 65.0334 49.3019 65.0491 49.2292 65.0801C49.1565 65.1112 49.0904 65.1568 49.0348 65.2145C48.9792 65.2723 48.9351 65.3409 48.9051 65.4164C48.8752 65.4919 48.8599 65.5729 48.8603 65.6546L48.871 68.2048C48.8715 68.3133 48.8445 68.42 48.7927 68.5142C48.741 68.6084 48.6663 68.6868 48.5762 68.7415L40.823 73.4431C40.7328 73.4976 40.6305 73.5265 40.5263 73.527C40.422 73.5274 40.3194 73.4994 40.2289 73.4457L32.4335 68.8191C32.3428 68.7654 32.2674 68.6878 32.2147 68.5941C32.1621 68.5005 32.1341 68.3941 32.1336 68.2856L32.1209 65.5289C32.1202 65.3663 32.0579 65.2105 31.9475 65.0954C31.837 64.9803 31.6873 64.9151 31.5309 64.914L29.5997 64.9013C29.521 64.9006 29.4429 64.9162 29.37 64.9471C29.2971 64.978 29.2308 65.0237 29.175 65.0814C29.1193 65.1391 29.0751 65.2078 29.045 65.2834C29.015 65.3591 28.9997 65.4402 29 65.522L29.0214 70.174C29.0218 70.2824 29.0498 70.3888 29.1025 70.4825C29.1551 70.5762 29.2305 70.6537 29.3212 70.7075L40.2477 77.1913C40.3382 77.2451 40.4408 77.2731 40.5451 77.2725C40.6494 77.272 40.7517 77.2429 40.8418 77.1881L51.7052 70.5965C51.7954 70.5418 51.87 70.4635 51.9218 70.3692C51.9735 70.275 52.0005 70.1683 52 70.0599L51.9802 65.662C51.9794 65.4993 51.9169 65.3436 51.8064 65.2285C51.6958 65.1134 51.5461 65.0482 51.3896 65.0471V65.0471Z"
        fill="white" />
      <path
        d="M34.6829 60.2028L40.2154 57.0086C40.3069 56.9557 40.4108 56.9278 40.5165 56.9278C40.6222 56.9278 40.726 56.9557 40.8175 57.0086L46.35 60.2028C46.4416 60.2556 46.5177 60.3316 46.5705 60.4231C46.6234 60.5147 46.6512 60.6185 46.6511 60.7242V67.1126C46.6511 67.2182 46.6233 67.322 46.5705 67.4134C46.5176 67.5049 46.4416 67.5808 46.35 67.6335L40.8175 70.8276C40.726 70.8806 40.6222 70.9085 40.5165 70.9085C40.4108 70.9085 40.3069 70.8806 40.2154 70.8276L34.6829 67.6335C34.5914 67.5808 34.5153 67.5049 34.4625 67.4134C34.4096 67.322 34.3818 67.2182 34.3819 67.1126V60.7242C34.3818 60.6185 34.4096 60.5147 34.4624 60.4231C34.5153 60.3316 34.5913 60.2556 34.6829 60.2028V60.2028Z"
        fill="#10D8E2" />
      <path
        d="M46.6357 60.5704C46.6215 60.6259 46.5963 60.6779 46.5616 60.7235C46.527 60.7691 46.4836 60.8073 46.434 60.8359L40.7311 64.1278C40.6655 64.1655 40.5912 64.1855 40.5155 64.1857V70.9882C40.5912 70.9882 40.6656 70.9683 40.7311 70.9303L46.434 67.6384C46.4993 67.6007 46.5537 67.5466 46.5916 67.4814C46.6295 67.4162 46.6497 67.3422 46.6501 67.2668V60.683C46.6503 60.645 46.6454 60.6072 46.6357 60.5704V60.5704Z"
        fill="#00618A" />
      <path
        d="M40.3004 64.1287L34.5975 60.8368C34.5479 60.8082 34.5046 60.77 34.4701 60.7244C34.4355 60.6788 34.4104 60.6268 34.3962 60.5714C34.3868 60.606 34.382 60.6417 34.3819 60.6776V67.2613C34.3823 67.3367 34.4024 67.4106 34.4402 67.4758C34.478 67.541 34.5322 67.5952 34.5975 67.633L40.3004 70.9249C40.366 70.9629 40.4406 70.9829 40.5165 70.9827V64.1866C40.4406 64.1865 40.3661 64.1665 40.3004 64.1287V64.1287Z"
        fill="#008DC9" />
    </g>
  </g>
  <defs>
    <radialGradient id="paint0_radial_13552_8393" cx="0" cy="0" r="1" gradientUnits="userSpaceOnUse"
      gradientTransform="translate(119.576 7.95243) rotate(90) scale(75.9524 101.576)">
      <stop stop-color="#2BD9FF" />
      <stop offset="1" stop-color="#2E8EFF" stop-opacity="0" />
    </radialGradient>
    <clipPath id="clip0_13552_8393">
      <rect width="240" height="128" fill="white" />
    </clipPath>
    <clipPath id="clip1_13552_8393">
      <rect width="23" height="26.6591" fill="white" transform="translate(29 50.6136)" />
    </clipPath>
  </defs>
</svg>