<?xml version="1.0" standalone="no"?>
<!DOCTYPE svg PUBLIC "-//W3C//DTD SVG 20010904//EN"
 "http://www.w3.org/TR/2001/REC-SVG-20010904/DTD/svg10.dtd">
<svg version="1.0" xmlns="http://www.w3.org/2000/svg"
 width="260.000000pt" height="260.000000pt" viewBox="0 0 260.000000 260.000000"
 preserveAspectRatio="xMidYMid meet">
<metadata>
Created by potrace 1.14, written by Peter Selinger 2001-2017
</metadata>
<g transform="translate(0.000000,260.000000) scale(0.100000,-0.100000)"
fill="#000000" stroke="none">
<path d="M1150 2589 c-30 -4 -79 -13 -107 -19 -29 -6 -56 -12 -60 -12 -58 -6
-318 -121 -387 -171 -240 -172 -394 -359 -491 -600 -37 -91 -70 -208 -79 -283
-4 -27 -9 -65 -11 -84 -6 -48 -6 -207 1 -250 2 -19 7 -48 9 -65 33 -261 180
-547 380 -735 26 -25 57 -54 69 -66 39 -37 179 -127 266 -170 79 -39 214 -87
278 -99 15 -3 39 -7 53 -10 114 -22 291 -26 403 -11 341 48 635 215 848 483
112 140 211 340 244 494 37 174 41 425 10 571 -85 395 -335 719 -691 896 -99
50 -259 104 -345 118 -25 4 -56 9 -70 11 -51 9 -267 10 -320 2z m506 -344 c30
-9 85 -32 122 -52 286 -153 486 -437 530 -752 11 -81 6 -311 -8 -311 -3 0 -20
29 -39 65 -68 133 -195 271 -331 361 l-68 46 0 86 c0 169 -22 273 -77 368 -64
110 -209 158 -313 105 -43 -22 -88 -70 -104 -110 -15 -36 -18 -120 -6 -151 31
-84 110 -144 196 -149 6 -1 12 -10 12 -20 0 -15 -5 -19 -22 -15 -77 18 -195
30 -269 28 -92 -2 -198 -12 -211 -20 -23 -15 14 147 54 234 69 150 182 252
317 287 70 18 156 18 217 0z m-702 -7 c-4 -7 -15 -24 -24 -38 -91 -134 -157
-348 -159 -517 l-1 -52 -67 -35 c-154 -81 -287 -212 -314 -309 -35 -127 13
-241 121 -290 140 -63 301 44 301 198 0 29 -7 67 -16 84 -8 17 -14 31 -11 31
2 0 11 3 19 6 11 4 20 -9 32 -48 36 -110 141 -299 208 -373 18 -19 17 -20 -20
-36 -35 -14 -97 -32 -163 -44 -35 -7 -172 -8 -190 -1 -8 3 -28 8 -45 10 -38 7
-143 60 -175 89 -78 70 -134 169 -148 263 -9 56 -8 212 1 265 4 19 9 50 12 69
18 108 93 275 171 380 111 151 217 240 389 324 78 38 90 42 79 24z m524 -798
c61 -16 61 -7 6 -140 -24 -57 -101 -173 -147 -223 l-35 -37 -40 46 c-56 66
-125 186 -156 271 l-25 72 37 10 c57 15 88 17 202 16 58 -1 129 -8 158 -15z
m400 -209 c133 -131 196 -262 194 -407 -1 -142 -64 -263 -180 -347 -130 -95
-285 -155 -467 -182 -49 -7 -209 -7 -250 0 -147 26 -240 57 -344 113 -56 30
-171 107 -171 115 0 1 44 2 97 2 158 -1 312 35 466 111 l68 33 52 -33 c104
-66 211 -111 290 -123 21 -3 45 -6 54 -7 28 -4 124 14 154 29 129 67 166 231
77 339 -82 100 -224 106 -320 15 -59 -56 -81 -44 -31 18 21 27 41 50 44 53 32
27 142 223 170 303 7 20 16 37 20 37 3 0 38 -31 77 -69z"/>
</g>
</svg>
