<svg width="869" height="858" viewBox="0 0 869 858" fill="none" xmlns="http://www.w3.org/2000/svg">
<g clip-path="url(#clip0_99_6950)">
<path d="M-9.7793 1.07806H869.781" stroke="#F7F7F8" stroke-miterlimit="10"/>
<path d="M-9.7793 11.9362H869.781" stroke="#F7F7F8" stroke-miterlimit="10"/>
<path d="M-9.7793 22.7944H869.781" stroke="#F7F7F8" stroke-miterlimit="10"/>
<path d="M-9.7793 33.657H869.781" stroke="#F7F7F8" stroke-miterlimit="10"/>
<path d="M-9.7793 44.5151H869.781" stroke="#F7F7F8" stroke-miterlimit="10"/>
<path d="M-9.7793 55.3733H869.781" stroke="#F7F7F8" stroke-miterlimit="10"/>
<path d="M-9.7793 66.2315H869.781" stroke="#F7F7F8" stroke-miterlimit="10"/>
<path d="M-9.7793 77.0897H869.781" stroke="#F7F7F8" stroke-miterlimit="10"/>
<path d="M-9.7793 87.9478H869.781" stroke="#F7F7F8" stroke-miterlimit="10"/>
<path d="M-9.7793 98.806H869.781" stroke="#F7F7F8" stroke-miterlimit="10"/>
<path d="M-9.7793 109.664H869.781" stroke="#F7F7F8" stroke-miterlimit="10"/>
<path d="M-9.7793 120.527H869.781" stroke="#F7F7F8" stroke-miterlimit="10"/>
<path d="M-9.7793 131.385H869.781" stroke="#F7F7F8" stroke-miterlimit="10"/>
<path d="M-9.7793 142.243H869.781" stroke="#F7F7F8" stroke-miterlimit="10"/>
<path d="M-9.7793 153.101H869.781" stroke="#F7F7F8" stroke-miterlimit="10"/>
<path d="M-9.7793 163.959H869.781" stroke="#F7F7F8" stroke-miterlimit="10"/>
<path d="M-9.7793 174.818H869.781" stroke="#F7F7F8" stroke-miterlimit="10"/>
<path d="M-9.7793 185.676H869.781" stroke="#F7F7F8" stroke-miterlimit="10"/>
<path d="M-9.7793 196.538H869.781" stroke="#F7F7F8" stroke-miterlimit="10"/>
<path d="M-9.7793 207.396H869.781" stroke="#F7F7F8" stroke-miterlimit="10"/>
<path d="M-9.7793 218.255H869.781" stroke="#F7F7F8" stroke-miterlimit="10"/>
<path d="M-9.7793 229.113H869.781" stroke="#F7F7F8" stroke-miterlimit="10"/>
<path d="M-9.7793 239.971H869.781" stroke="#F7F7F8" stroke-miterlimit="10"/>
<path d="M-9.7793 250.829H869.781" stroke="#F7F7F8" stroke-miterlimit="10"/>
<path d="M-9.7793 261.687H869.781" stroke="#F7F7F8" stroke-miterlimit="10"/>
<path d="M-9.7793 272.55H869.781" stroke="#F7F7F8" stroke-miterlimit="10"/>
<path d="M-9.7793 283.408H869.781" stroke="#F7F7F8" stroke-miterlimit="10"/>
<path d="M-9.7793 294.266H869.781" stroke="#F7F7F8" stroke-miterlimit="10"/>
<path d="M-9.7793 305.124H869.781" stroke="#F7F7F8" stroke-miterlimit="10"/>
<path d="M-9.7793 315.983H869.781" stroke="#F7F7F8" stroke-miterlimit="10"/>
<path d="M-9.7793 326.841H869.781" stroke="#F7F7F8" stroke-miterlimit="10"/>
<path d="M-9.7793 337.699H869.781" stroke="#F7F7F8" stroke-miterlimit="10"/>
<path d="M-9.7793 348.557H869.781" stroke="#F7F7F8" stroke-miterlimit="10"/>
<path d="M-9.7793 359.42H869.781" stroke="#F7F7F8" stroke-miterlimit="10"/>
<path d="M-9.7793 370.278H869.781" stroke="#F7F7F8" stroke-miterlimit="10"/>
<path d="M-9.7793 381.136H869.781" stroke="#F7F7F8" stroke-miterlimit="10"/>
<path d="M-9.7793 391.994H869.781" stroke="#F7F7F8" stroke-miterlimit="10"/>
<path d="M-9.7793 402.852H869.781" stroke="#F7F7F8" stroke-miterlimit="10"/>
<path d="M-9.7793 413.711H869.781" stroke="#F7F7F8" stroke-miterlimit="10"/>
<path d="M-9.7793 424.569H869.781" stroke="#F7F7F8" stroke-miterlimit="10"/>
<path d="M-9.7793 435.431H869.781" stroke="#F7F7F8" stroke-miterlimit="10"/>
<path d="M-9.7793 446.289H869.781" stroke="#F7F7F8" stroke-miterlimit="10"/>
<path d="M-9.7793 457.148H869.781" stroke="#F7F7F8" stroke-miterlimit="10"/>
<path d="M-9.7793 468.006H869.781" stroke="#F7F7F8" stroke-miterlimit="10"/>
<path d="M-9.7793 478.864H869.781" stroke="#F7F7F8" stroke-miterlimit="10"/>
<path d="M-9.7793 489.722H869.781" stroke="#F7F7F8" stroke-miterlimit="10"/>
<path d="M-9.7793 500.58H869.781" stroke="#F7F7F8" stroke-miterlimit="10"/>
<path d="M-9.7793 511.443H869.781" stroke="#F7F7F8" stroke-miterlimit="10"/>
<path d="M-9.7793 522.301H869.781" stroke="#F7F7F8" stroke-miterlimit="10"/>
<path d="M-9.7793 533.159H869.781" stroke="#F7F7F8" stroke-miterlimit="10"/>
<path d="M-9.7793 544.017H869.781" stroke="#F7F7F8" stroke-miterlimit="10"/>
<path d="M-9.7793 554.876H869.781" stroke="#F7F7F8" stroke-miterlimit="10"/>
<path d="M-9.7793 565.734H869.781" stroke="#F7F7F8" stroke-miterlimit="10"/>
<path d="M-9.7793 576.592H869.781" stroke="#F7F7F8" stroke-miterlimit="10"/>
<path d="M-9.7793 587.45H869.781" stroke="#F7F7F8" stroke-miterlimit="10"/>
<path d="M-9.7793 598.313H869.781" stroke="#F7F7F8" stroke-miterlimit="10"/>
<path d="M-9.7793 609.171H869.781" stroke="#F7F7F8" stroke-miterlimit="10"/>
<path d="M-9.7793 620.029H869.781" stroke="#F7F7F8" stroke-miterlimit="10"/>
<path d="M-9.7793 630.887H869.781" stroke="#F7F7F8" stroke-miterlimit="10"/>
<path d="M-9.7793 641.745H869.781" stroke="#F7F7F8" stroke-miterlimit="10"/>
<path d="M-9.7793 652.604H869.781" stroke="#F7F7F8" stroke-miterlimit="10"/>
<path d="M-9.7793 663.462H869.781" stroke="#F7F7F8" stroke-miterlimit="10"/>
<path d="M-9.7793 674.324H869.781" stroke="#F7F7F8" stroke-miterlimit="10"/>
<path d="M-9.7793 685.182H869.781" stroke="#F7F7F8" stroke-miterlimit="10"/>
<path d="M-9.7793 696.041H869.781" stroke="#F7F7F8" stroke-miterlimit="10"/>
<path d="M-9.7793 706.899H869.781" stroke="#F7F7F8" stroke-miterlimit="10"/>
<path d="M-9.7793 717.757H869.781" stroke="#F7F7F8" stroke-miterlimit="10"/>
<path d="M-9.7793 728.615H869.781" stroke="#F7F7F8" stroke-miterlimit="10"/>
<path d="M-9.7793 739.473H869.781" stroke="#F7F7F8" stroke-miterlimit="10"/>
<path d="M-9.7793 750.336H869.781" stroke="#F7F7F8" stroke-miterlimit="10"/>
<path d="M-9.7793 761.194H869.781" stroke="#F7F7F8" stroke-miterlimit="10"/>
<path d="M-9.7793 772.052H869.781" stroke="#F7F7F8" stroke-miterlimit="10"/>
<path d="M-9.7793 782.91H869.781" stroke="#F7F7F8" stroke-miterlimit="10"/>
<path d="M-9.7793 793.769H869.781" stroke="#F7F7F8" stroke-miterlimit="10"/>
<path d="M-9.7793 804.627H869.781" stroke="#F7F7F8" stroke-miterlimit="10"/>
<path d="M-9.7793 815.485H869.781" stroke="#F7F7F8" stroke-miterlimit="10"/>
<path d="M-9.7793 826.343H869.781" stroke="#F7F7F8" stroke-miterlimit="10"/>
<path d="M-9.7793 837.206H869.781" stroke="#F7F7F8" stroke-miterlimit="10"/>
<path d="M-9.7793 848.064H869.781" stroke="#F7F7F8" stroke-miterlimit="10"/>
<path d="M1.07812 869.78V-9.78011" stroke="#F7F7F8" stroke-miterlimit="10"/>
<path d="M11.9375 869.78V-9.78011" stroke="#F7F7F8" stroke-miterlimit="10"/>
<path d="M22.7949 869.78V-9.78011" stroke="#F7F7F8" stroke-miterlimit="10"/>
<path d="M33.6582 869.78V-9.78011" stroke="#F7F7F8" stroke-miterlimit="10"/>
<path d="M44.5156 869.78V-9.78011" stroke="#F7F7F8" stroke-miterlimit="10"/>
<path d="M55.375 869.78V-9.78011" stroke="#F7F7F8" stroke-miterlimit="10"/>
<path d="M66.2324 869.78V-9.78011" stroke="#F7F7F8" stroke-miterlimit="10"/>
<path d="M77.0898 869.78V-9.78011" stroke="#F7F7F8" stroke-miterlimit="10"/>
<path d="M87.9492 869.78V-9.78011" stroke="#F7F7F8" stroke-miterlimit="10"/>
<path d="M98.8066 869.78V-9.78011" stroke="#F7F7F8" stroke-miterlimit="10"/>
<path d="M109.664 869.78V-9.78011" stroke="#F7F7F8" stroke-miterlimit="10"/>
<path d="M120.527 869.78V-9.78011" stroke="#F7F7F8" stroke-miterlimit="10"/>
<path d="M131.385 869.78V-9.78011" stroke="#F7F7F8" stroke-miterlimit="10"/>
<path d="M142.244 869.78V-9.78011" stroke="#F7F7F8" stroke-miterlimit="10"/>
<path d="M153.102 869.78V-9.78011" stroke="#F7F7F8" stroke-miterlimit="10"/>
<path d="M163.961 869.78V-9.78011" stroke="#F7F7F8" stroke-miterlimit="10"/>
<path d="M174.818 869.78V-9.78011" stroke="#F7F7F8" stroke-miterlimit="10"/>
<path d="M185.676 869.78V-9.78011" stroke="#F7F7F8" stroke-miterlimit="10"/>
<path d="M196.539 869.78V-9.78011" stroke="#F7F7F8" stroke-miterlimit="10"/>
<path d="M207.396 869.78V-9.78011" stroke="#F7F7F8" stroke-miterlimit="10"/>
<path d="M218.256 869.78V-9.78011" stroke="#F7F7F8" stroke-miterlimit="10"/>
<path d="M229.113 869.78V-9.78011" stroke="#F7F7F8" stroke-miterlimit="10"/>
<path d="M239.973 869.78V-9.78011" stroke="#F7F7F8" stroke-miterlimit="10"/>
<path d="M250.83 869.78V-9.78011" stroke="#F7F7F8" stroke-miterlimit="10"/>
<path d="M261.688 869.78V-9.78011" stroke="#F7F7F8" stroke-miterlimit="10"/>
<path d="M272.551 869.78V-9.78011" stroke="#F7F7F8" stroke-miterlimit="10"/>
<path d="M283.408 869.78V-9.78011" stroke="#F7F7F8" stroke-miterlimit="10"/>
<path d="M294.268 869.78V-9.78011" stroke="#F7F7F8" stroke-miterlimit="10"/>
<path d="M305.125 869.78V-9.78011" stroke="#F7F7F8" stroke-miterlimit="10"/>
<path d="M315.984 869.78V-9.78011" stroke="#F7F7F8" stroke-miterlimit="10"/>
<path d="M326.842 869.78V-9.78011" stroke="#F7F7F8" stroke-miterlimit="10"/>
<path d="M337.699 869.78V-9.78011" stroke="#F7F7F8" stroke-miterlimit="10"/>
<path d="M348.559 869.78V-9.78011" stroke="#F7F7F8" stroke-miterlimit="10"/>
<path d="M359.42 869.78V-9.78011" stroke="#F7F7F8" stroke-miterlimit="10"/>
<path d="M370.279 869.78V-9.78011" stroke="#F7F7F8" stroke-miterlimit="10"/>
<path d="M381.137 869.78V-9.78011" stroke="#F7F7F8" stroke-miterlimit="10"/>
<path d="M391.994 869.78V-9.78011" stroke="#F7F7F8" stroke-miterlimit="10"/>
<path d="M402.854 869.78V-9.78011" stroke="#F7F7F8" stroke-miterlimit="10"/>
<path d="M413.711 869.78V-9.78011" stroke="#F7F7F8" stroke-miterlimit="10"/>
<path d="M424.57 869.78V-9.78011" stroke="#F7F7F8" stroke-miterlimit="10"/>
<path d="M435.432 869.78V-9.78011" stroke="#F7F7F8" stroke-miterlimit="10"/>
<path d="M446.291 869.78V-9.78011" stroke="#F7F7F8" stroke-miterlimit="10"/>
<path d="M457.148 869.78V-9.78011" stroke="#F7F7F8" stroke-miterlimit="10"/>
<path d="M468.006 869.78V-9.78011" stroke="#F7F7F8" stroke-miterlimit="10"/>
<path d="M478.865 869.78V-9.78011" stroke="#F7F7F8" stroke-miterlimit="10"/>
<path d="M489.723 869.78V-9.78011" stroke="#F7F7F8" stroke-miterlimit="10"/>
<path d="M500.582 869.78V-9.78011" stroke="#F7F7F8" stroke-miterlimit="10"/>
<path d="M511.443 869.78V-9.78011" stroke="#F7F7F8" stroke-miterlimit="10"/>
<path d="M522.303 869.78V-9.78011" stroke="#F7F7F8" stroke-miterlimit="10"/>
<path d="M533.16 869.78V-9.78011" stroke="#F7F7F8" stroke-miterlimit="10"/>
<path d="M544.018 869.78V-9.78011" stroke="#F7F7F8" stroke-miterlimit="10"/>
<path d="M554.877 869.78V-9.78011" stroke="#F7F7F8" stroke-miterlimit="10"/>
<path d="M565.734 869.78V-9.78011" stroke="#F7F7F8" stroke-miterlimit="10"/>
<path d="M576.592 869.78V-9.78011" stroke="#F7F7F8" stroke-miterlimit="10"/>
<path d="M587.451 869.78V-9.78011" stroke="#F7F7F8" stroke-miterlimit="10"/>
<path d="M598.312 869.78V-9.78011" stroke="#F7F7F8" stroke-miterlimit="10"/>
<path d="M609.172 869.78V-9.78011" stroke="#F7F7F8" stroke-miterlimit="10"/>
<path d="M620.029 869.78V-9.78011" stroke="#F7F7F8" stroke-miterlimit="10"/>
<path d="M630.889 869.78V-9.78011" stroke="#F7F7F8" stroke-miterlimit="10"/>
<path d="M641.746 869.78V-9.78011" stroke="#F7F7F8" stroke-miterlimit="10"/>
<path d="M652.604 869.78V-9.78011" stroke="#F7F7F8" stroke-miterlimit="10"/>
<path d="M663.463 869.78V-9.78011" stroke="#F7F7F8" stroke-miterlimit="10"/>
<path d="M674.324 869.78V-9.78011" stroke="#F7F7F8" stroke-miterlimit="10"/>
<path d="M685.184 869.78V-9.78011" stroke="#F7F7F8" stroke-miterlimit="10"/>
<path d="M696.041 869.78V-9.78011" stroke="#F7F7F8" stroke-miterlimit="10"/>
<path d="M706.9 869.78V-9.78011" stroke="#F7F7F8" stroke-miterlimit="10"/>
<path d="M717.758 869.78V-9.78011" stroke="#F7F7F8" stroke-miterlimit="10"/>
<path d="M728.615 869.78V-9.78011" stroke="#F7F7F8" stroke-miterlimit="10"/>
<path d="M739.475 869.78V-9.78011" stroke="#F7F7F8" stroke-miterlimit="10"/>
<path d="M750.336 869.78V-9.78011" stroke="#F7F7F8" stroke-miterlimit="10"/>
<path d="M761.195 869.78V-9.78011" stroke="#F7F7F8" stroke-miterlimit="10"/>
<path d="M772.053 869.78V-9.78011" stroke="#F7F7F8" stroke-miterlimit="10"/>
<path d="M782.912 869.78V-9.78011" stroke="#F7F7F8" stroke-miterlimit="10"/>
<path d="M793.77 869.78V-9.78011" stroke="#F7F7F8" stroke-miterlimit="10"/>
<path d="M804.627 869.78V-9.78011" stroke="#F7F7F8" stroke-miterlimit="10"/>
<path d="M815.486 869.78V-9.78011" stroke="#F7F7F8" stroke-miterlimit="10"/>
<path d="M826.344 869.78V-9.78011" stroke="#F7F7F8" stroke-miterlimit="10"/>
<path d="M837.207 869.78V-9.78011" stroke="#F7F7F8" stroke-miterlimit="10"/>
<path d="M848.064 869.78V-9.78011" stroke="#F7F7F8" stroke-miterlimit="10"/>
<path d="M858.922 869.78V-9.78011" stroke="#F7F7F8" stroke-miterlimit="10"/>
</g>
<defs>
<clipPath id="clip0_99_6950">
<rect width="869" height="858" fill="white"/>
</clipPath>
</defs>
</svg>
